M48
; DRILL file {KiCad (5.1.4)-1} date 18.12.2019 10:14:57
; FORMAT={-:-/ absolute / inch / decimal}
; #@! TF.CreationDate,2019-12-18T10:14:57+01:00
; #@! TF.GenerationSoftware,Kicad,Pcbnew,(5.1.4)-1
; #@! TF.FileFunction,Plated,1,2,PTH
FMAT,2
INCH
T1C0.0157
T2C0.0197
T3C0.0236
T4C0.0300
T5C0.0315
T6C0.0335
T7C0.0394
T8C0.0400
T9C0.0510
T10C0.0512
T11C0.0551
T12C0.0598
T13C0.0941
T14C0.1260
%
G90
G05
T1
X8.042Y-4.926
X8.228Y-4.262
X8.2313Y-4.7274
X8.2352Y-4.6673
X8.26Y-4.596
X8.276Y-4.232
X8.32Y-4.202
X8.3878Y-4.4203
X8.3976Y-4.5246
X8.424Y-4.644
X8.4695Y-4.8041
X8.472Y-4.6924
X8.4724Y-4.7431
X8.48Y-3.38
X8.5049Y-4.4508
X8.5063Y-4.3403
X8.5079Y-4.5522
X8.554Y-4.672
X8.5581Y-4.4075
X8.5748Y-4.5915
X8.6Y-4.05
X8.6036Y-4.3009
X8.61Y-4.454
X8.614Y-3.238
X8.768Y-4.166
X8.77Y-3.12
X8.7894Y-4.8504
X8.93Y-3.53
X9.038Y-4.332
X9.0883Y-4.364
X9.172Y-4.08
X9.254Y-4.13
X9.254Y-4.42
X9.2657Y-4.9016
X9.428Y-4.08
X9.428Y-4.398
X9.492Y-3.526
X9.494Y-4.4
X9.532Y-4.422
X9.6Y-4.25
X9.9764Y-5.0896
X10.0482Y-4.4341
X10.076Y-3.5368
X10.1Y-4.6
X10.1Y-4.8
X10.2Y-4.45
X10.2Y-4.6
X10.2Y-4.8
X10.2443Y-3.9183
X10.75Y-2.95
T2
X10.4283Y-4.5547
X10.456Y-4.4879
X10.456Y-4.6215
X10.5228Y-4.4602
X10.5228Y-4.6492
X10.5896Y-4.4879
X10.5896Y-4.6215
X10.6173Y-4.5547
X7.2591Y-4.5547
X7.2867Y-4.4879
X7.2867Y-4.6215
X7.3535Y-4.4602
X7.3535Y-4.6492
X7.4204Y-4.4879
X7.4204Y-4.6215
X7.448Y-4.5547
X10.4283Y-2.6138
X10.456Y-2.547
X10.456Y-2.6806
X10.5228Y-2.5193
X10.5228Y-2.7083
X10.5896Y-2.547
X10.5896Y-2.6806
X10.6173Y-2.6138
X7.2591Y-2.6138
X7.2867Y-2.547
X7.2867Y-2.6806
X7.3535Y-2.5193
X7.3535Y-2.7083
X7.4204Y-2.547
X7.4204Y-2.6806
X7.448Y-2.6138
T3
X7.6531Y-2.5173
X7.85Y-2.6
T4
X7.094Y-2.307
X7.094Y-2.937
T5
X7.4Y-2.9016
X7.5Y-3.8016
X8.1Y-2.9016
X8.1Y-3.8016
T6
X8.1526Y-5.0477
X8.3494Y-5.0477
T7
X9.954Y-4.5207
X10.054Y-4.5207
X10.154Y-4.5207
X10.254Y-4.5207
X9.954Y-4.7205
X10.054Y-4.7205
X10.154Y-4.7205
X10.254Y-4.7205
X9.954Y-4.9203
X10.054Y-4.9203
X10.154Y-4.9203
X10.254Y-4.9203
T8
X8.4875Y-3.5525
X8.4875Y-3.6525
X8.4875Y-3.7525
X8.4875Y-3.8525
X8.4875Y-3.9525
X8.5875Y-3.5525
X8.5875Y-3.6525
X8.5875Y-3.7525
X8.5875Y-3.8525
X8.5875Y-3.9525
T9
X9.7855Y-2.5243
X9.7855Y-3.1243
X10.0847Y-2.6243
X10.0847Y-3.1243
X9.195Y-2.5243
X9.195Y-3.1243
X9.4942Y-2.6243
X9.4942Y-3.1243
X8.6044Y-2.5243
X8.6044Y-3.1243
X8.9036Y-2.6243
X8.9036Y-3.1243
T10
X10.4185Y-2.1
X10.6154Y-2.1
X7.4657Y-2.1
X7.6626Y-2.1
X7.8594Y-2.1
X8.45Y-2.1
X8.6469Y-2.1
X8.8437Y-2.1
X9.6311Y-2.1
X9.828Y-2.1
X10.0248Y-2.1
X9.0406Y-2.1
X9.2374Y-2.1
X9.4343Y-2.1
T11
X10.3012Y-3.7848
X10.3012Y-4.1825
X10.3992Y-3.6882
X10.3992Y-3.9837
X10.3992Y-4.2791
X10.7933Y-3.8852
X10.7933Y-4.0821
T12
X10.6006Y-3.8857
X10.6006Y-4.0857
T13
X10.5965Y-3.6882
X10.5965Y-4.2791
T14
X10.5228Y-4.5547
X7.3535Y-4.5547
X10.5228Y-2.6138
X7.3535Y-2.6138
T3
G00X8.1132Y-5.1678
M15
G01X8.1132Y-5.1403
M16
G05
G00X8.3888Y-5.1403
M15
G01X8.3888Y-5.1678
M16
G05
T0
M30
