G04 #@! TF.GenerationSoftware,KiCad,Pcbnew,(5.1.4)-1*
G04 #@! TF.CreationDate,2019-12-18T10:15:03+01:00*
G04 #@! TF.ProjectId,StudiokiController,53747564-696f-46b6-9943-6f6e74726f6c,rev?*
G04 #@! TF.SameCoordinates,Original*
G04 #@! TF.FileFunction,Copper,L2,Bot*
G04 #@! TF.FilePolarity,Positive*
%FSLAX46Y46*%
G04 Gerber Fmt 4.6, Leading zero omitted, Abs format (unit mm)*
G04 Created by KiCad (PCBNEW (5.1.4)-1) date 2019-12-18 10:15:03*
%MOMM*%
%LPD*%
G04 APERTURE LIST*
%ADD10O,1.200000X1.900000*%
%ADD11C,1.450000*%
%ADD12C,1.200000*%
%ADD13R,1.200000X1.200000*%
%ADD14C,3.500000*%
%ADD15C,2.200000*%
%ADD16C,2.600000*%
%ADD17R,2.600000X2.600000*%
%ADD18C,1.600000*%
%ADD19C,0.800000*%
%ADD20C,6.400000*%
%ADD21O,1.700000X1.700000*%
%ADD22R,1.700000X1.700000*%
%ADD23O,1.727200X1.727200*%
%ADD24R,1.727200X1.727200*%
%ADD25C,1.803400*%
%ADD26C,3.000000*%
%ADD27R,3.000000X3.000000*%
%ADD28C,1.524000*%
%ADD29C,0.250000*%
%ADD30C,0.400000*%
%ADD31C,0.254000*%
G04 APERTURE END LIST*
D10*
X213075000Y-130912500D03*
X206075000Y-130912500D03*
D11*
X212075000Y-128212500D03*
X207075000Y-128212500D03*
D12*
X190500000Y-96560000D03*
X205740000Y-96560000D03*
X205740000Y-73700000D03*
D13*
X187960000Y-73700000D03*
D14*
X269150000Y-108690000D03*
X269150000Y-93680000D03*
D15*
X274150000Y-103685000D03*
X274150000Y-98685000D03*
X261650000Y-106235000D03*
X261650000Y-96135000D03*
X264140000Y-108690000D03*
X264140000Y-101185000D03*
X264140000Y-93680000D03*
D16*
X269629999Y-53340000D03*
D17*
X264629999Y-53340000D03*
D18*
X194390000Y-63940000D03*
X199390000Y-66040000D03*
D19*
X188477056Y-64692944D03*
X186780000Y-63990000D03*
X185082944Y-64692944D03*
X184380000Y-66390000D03*
X185082944Y-68087056D03*
X186780000Y-68790000D03*
X188477056Y-68087056D03*
X189180000Y-66390000D03*
D20*
X186780000Y-66390000D03*
D21*
X260452000Y-124976200D03*
X257912000Y-124976200D03*
X255372000Y-124976200D03*
D22*
X252832000Y-124976200D03*
D21*
X260452000Y-119901200D03*
X257912000Y-119901200D03*
X255372000Y-119901200D03*
D22*
X252832000Y-119901200D03*
D21*
X260452000Y-114826200D03*
X257912000Y-114826200D03*
X255372000Y-114826200D03*
D22*
X252832000Y-114826200D03*
D19*
X268977055Y-113992943D03*
X267279999Y-113289999D03*
X265582943Y-113992943D03*
X264879999Y-115689999D03*
X265582943Y-117387055D03*
X267279999Y-118089999D03*
X268977055Y-117387055D03*
X269679999Y-115689999D03*
D20*
X267279999Y-115689999D03*
D19*
X268977055Y-64692944D03*
X267279999Y-63990000D03*
X265582943Y-64692944D03*
X264879999Y-66390000D03*
X265582943Y-68087056D03*
X267279999Y-68790000D03*
X268977055Y-68087056D03*
X269679999Y-66390000D03*
D20*
X267279999Y-66390000D03*
D19*
X188477056Y-113992943D03*
X186780000Y-113289999D03*
X185082944Y-113992943D03*
X184380000Y-115689999D03*
X185082944Y-117387055D03*
X186780000Y-118089999D03*
X188477056Y-117387055D03*
X189180000Y-115689999D03*
D20*
X186780000Y-115689999D03*
D23*
X215582500Y-90233500D03*
X218122500Y-90233500D03*
X215582500Y-92773500D03*
X218122500Y-92773500D03*
X215582500Y-95313500D03*
X218122500Y-95313500D03*
X215582500Y-97853500D03*
X218122500Y-97853500D03*
X215582500Y-100393500D03*
D24*
X218122500Y-100393500D03*
D25*
X256151799Y-66657997D03*
X256151799Y-79357997D03*
X248551799Y-79357997D03*
X248551799Y-64117997D03*
D26*
X269255400Y-98695800D03*
D27*
X269255400Y-103775800D03*
D25*
X226151800Y-66657997D03*
X226151800Y-79357997D03*
X218551800Y-79357997D03*
X218551800Y-64117997D03*
X241151799Y-66657997D03*
X241151799Y-79357997D03*
X233551799Y-79357997D03*
X233551799Y-64117997D03*
D16*
X224630000Y-53340000D03*
X219630000Y-53340000D03*
D17*
X214630000Y-53340000D03*
D16*
X254629999Y-53340000D03*
X249629999Y-53340000D03*
D17*
X244629999Y-53340000D03*
D16*
X239629999Y-53340000D03*
X234629999Y-53340000D03*
D17*
X229629999Y-53340000D03*
D16*
X199630000Y-53340000D03*
X194630000Y-53340000D03*
D17*
X189630000Y-53340000D03*
D28*
X180187600Y-58598800D03*
X180187600Y-74598800D03*
D19*
X215392000Y-85852000D03*
X218795600Y-82245200D03*
X222758000Y-79248000D03*
X217271600Y-118668800D03*
X213969600Y-117957600D03*
X218694000Y-113131600D03*
X218440000Y-102870000D03*
X256540000Y-116840000D03*
X259080000Y-116840000D03*
X256540000Y-121920000D03*
X259080000Y-121920000D03*
X259080000Y-113030000D03*
X223250000Y-123200000D03*
X217800000Y-116625000D03*
X204266800Y-125120400D03*
X209804000Y-116738400D03*
X217375000Y-111950000D03*
X235350000Y-124500000D03*
X255225000Y-112625000D03*
X253400000Y-129275000D03*
X222707200Y-105816400D03*
X260205396Y-99525000D03*
X209175000Y-118550000D03*
X215200000Y-120475000D03*
X209075000Y-120075000D03*
X215125000Y-122025000D03*
X213050000Y-112275000D03*
X213300000Y-114925000D03*
X215187653Y-119187653D03*
X216100000Y-115625000D03*
X216025000Y-113050000D03*
X218532073Y-109242927D03*
X216058807Y-110242407D03*
X229565201Y-110032799D03*
X230842057Y-110845600D03*
X208991200Y-108254800D03*
X210210400Y-107492800D03*
X211328000Y-106730800D03*
X235051602Y-112268000D03*
X235051600Y-104902000D03*
X239471200Y-103632002D03*
X232968800Y-103632000D03*
X226822000Y-89662000D03*
X239471200Y-111709200D03*
X241147600Y-111760000D03*
X241096839Y-89560439D03*
X242112800Y-112318800D03*
X255930391Y-89835400D03*
X243840000Y-107950000D03*
X273050000Y-74930000D03*
D29*
X223250000Y-123200000D02*
X223250000Y-122075000D01*
X223250000Y-122075000D02*
X217800000Y-116625000D01*
X217800000Y-113751998D02*
X217800000Y-116059315D01*
X215333806Y-111285804D02*
X217800000Y-113751998D01*
X216154000Y-109074212D02*
X215333806Y-109894406D01*
X216154000Y-102186314D02*
X216154000Y-109074212D01*
X217800000Y-116059315D02*
X217800000Y-116625000D01*
X215333806Y-109894406D02*
X215333806Y-111285804D01*
X215582500Y-101614814D02*
X216154000Y-102186314D01*
X215582500Y-100393500D02*
X215582500Y-101614814D01*
X209404001Y-117138399D02*
X209804000Y-116738400D01*
X204266800Y-122275600D02*
X209404001Y-117138399D01*
X204266800Y-125120400D02*
X204266800Y-122275600D01*
D30*
X217375000Y-111950000D02*
X222800000Y-111950000D01*
X222800000Y-111950000D02*
X235350000Y-124500000D01*
X255225000Y-112600000D02*
X255225000Y-112625000D01*
X235350000Y-124500000D02*
X240125000Y-129275000D01*
X240125000Y-129275000D02*
X253400000Y-129275000D01*
X222707200Y-106617800D02*
X222707200Y-106382085D01*
X217375000Y-111950000D02*
X222707200Y-106617800D01*
X222707200Y-106382085D02*
X222707200Y-105816400D01*
X260205396Y-100090685D02*
X260205396Y-99525000D01*
X260205396Y-104335404D02*
X260205396Y-100090685D01*
X255225000Y-112625000D02*
X255225000Y-109315800D01*
X255225000Y-109315800D02*
X260205396Y-104335404D01*
D29*
X209175000Y-118550000D02*
X211100000Y-120475000D01*
X211100000Y-120475000D02*
X215200000Y-120475000D01*
X209075000Y-120075000D02*
X211025000Y-122025000D01*
X211025000Y-122025000D02*
X215125000Y-122025000D01*
X213050000Y-112275000D02*
X213050000Y-114675000D01*
X213050000Y-114675000D02*
X213300000Y-114925000D01*
X213300000Y-114925000D02*
X215187653Y-116812653D01*
X215187653Y-116812653D02*
X215187653Y-119187653D01*
X216100000Y-115625000D02*
X216100000Y-113125000D01*
X216100000Y-113125000D02*
X216025000Y-113050000D01*
X218122500Y-97853500D02*
X216933899Y-99042101D01*
X218132074Y-108842928D02*
X218532073Y-109242927D01*
X216933899Y-107644753D02*
X218132074Y-108842928D01*
X216933899Y-99042101D02*
X216933899Y-107644753D01*
X218532073Y-109242927D02*
X217058287Y-109242927D01*
X216458806Y-109842408D02*
X216058807Y-110242407D01*
X217058287Y-109242927D02*
X216458806Y-109842408D01*
X216446099Y-96177099D02*
X215582500Y-95313500D01*
X216771101Y-96502101D02*
X216446099Y-96177099D01*
X218693029Y-96502101D02*
X216771101Y-96502101D01*
X229565201Y-107374273D02*
X218693029Y-96502101D01*
X229565201Y-110032799D02*
X229565201Y-107374273D01*
X230842057Y-110279915D02*
X230842057Y-110845600D01*
X230842057Y-107398057D02*
X230842057Y-110279915D01*
X218122500Y-95313500D02*
X218757500Y-95313500D01*
X218757500Y-95313500D02*
X230842057Y-107398057D01*
X215582500Y-90233500D02*
X208991200Y-96824800D01*
X208991200Y-107689115D02*
X208991200Y-108254800D01*
X208991200Y-96824800D02*
X208991200Y-107689115D01*
X210210400Y-98145600D02*
X210210400Y-106927115D01*
X215582500Y-92773500D02*
X210210400Y-98145600D01*
X210210400Y-106927115D02*
X210210400Y-107492800D01*
X211328000Y-106165115D02*
X211328000Y-106730800D01*
X215011971Y-94124899D02*
X211328000Y-97808870D01*
X216771101Y-94124899D02*
X215011971Y-94124899D01*
X211328000Y-97808870D02*
X211328000Y-106165115D01*
X218122500Y-92773500D02*
X216771101Y-94124899D01*
X235051602Y-112268000D02*
X235051602Y-104902002D01*
X235051602Y-104902002D02*
X235051600Y-104902000D01*
X239471200Y-103632002D02*
X232968802Y-103632002D01*
X232968802Y-103632002D02*
X232968800Y-103632000D01*
X240487200Y-110693200D02*
X239471200Y-111709200D01*
X240487200Y-93421200D02*
X240487200Y-110693200D01*
X226822000Y-89662000D02*
X236728000Y-89662000D01*
X236728000Y-89662000D02*
X240487200Y-93421200D01*
X241147600Y-111760000D02*
X241147600Y-89611200D01*
X241147600Y-89611200D02*
X241096839Y-89560439D01*
X245444600Y-89835400D02*
X255364706Y-89835400D01*
X242112800Y-112318800D02*
X242112800Y-93167200D01*
X242112800Y-93167200D02*
X245444600Y-89835400D01*
X255364706Y-89835400D02*
X255930391Y-89835400D01*
D30*
X272650001Y-75329999D02*
X273050000Y-74930000D01*
X272650001Y-77869999D02*
X272650001Y-75329999D01*
X260149999Y-90370001D02*
X272650001Y-77869999D01*
X243840000Y-107950000D02*
X260149999Y-91640001D01*
X260149999Y-91640001D02*
X260149999Y-90370001D01*
D31*
G36*
X276345000Y-132804996D02*
G01*
X243332000Y-132804996D01*
X243332000Y-130110000D01*
X252786715Y-130110000D01*
X252909744Y-130192205D01*
X253098102Y-130270226D01*
X253298061Y-130310000D01*
X253501939Y-130310000D01*
X253701898Y-130270226D01*
X253890256Y-130192205D01*
X254059774Y-130078937D01*
X254203937Y-129934774D01*
X254317205Y-129765256D01*
X254395226Y-129576898D01*
X254435000Y-129376939D01*
X254435000Y-129173061D01*
X254395226Y-128973102D01*
X254317205Y-128784744D01*
X254203937Y-128615226D01*
X254059774Y-128471063D01*
X253890256Y-128357795D01*
X253701898Y-128279774D01*
X253501939Y-128240000D01*
X253298061Y-128240000D01*
X253098102Y-128279774D01*
X252909744Y-128357795D01*
X252786715Y-128440000D01*
X243332000Y-128440000D01*
X243332000Y-127635000D01*
X243329560Y-127610224D01*
X243322333Y-127586399D01*
X243310597Y-127564443D01*
X243294803Y-127545197D01*
X243275557Y-127529403D01*
X243253601Y-127517667D01*
X243229776Y-127510440D01*
X243205000Y-127508000D01*
X239538869Y-127508000D01*
X237857069Y-125826200D01*
X251343928Y-125826200D01*
X251356188Y-125950682D01*
X251392498Y-126070380D01*
X251451463Y-126180694D01*
X251530815Y-126277385D01*
X251627506Y-126356737D01*
X251737820Y-126415702D01*
X251857518Y-126452012D01*
X251982000Y-126464272D01*
X252546250Y-126461200D01*
X252705000Y-126302450D01*
X252705000Y-125103200D01*
X251505750Y-125103200D01*
X251347000Y-125261950D01*
X251343928Y-125826200D01*
X237857069Y-125826200D01*
X236374093Y-124343225D01*
X236345226Y-124198102D01*
X236315444Y-124126200D01*
X251343928Y-124126200D01*
X251347000Y-124690450D01*
X251505750Y-124849200D01*
X252705000Y-124849200D01*
X252705000Y-123649950D01*
X252959000Y-123649950D01*
X252959000Y-124849200D01*
X252979000Y-124849200D01*
X252979000Y-125103200D01*
X252959000Y-125103200D01*
X252959000Y-126302450D01*
X253117750Y-126461200D01*
X253682000Y-126464272D01*
X253806482Y-126452012D01*
X253926180Y-126415702D01*
X254036494Y-126356737D01*
X254133185Y-126277385D01*
X254212537Y-126180694D01*
X254271502Y-126070380D01*
X254292393Y-126001513D01*
X254316866Y-126031334D01*
X254542986Y-126216906D01*
X254800966Y-126354799D01*
X255080889Y-126439713D01*
X255299050Y-126461200D01*
X255444950Y-126461200D01*
X255663111Y-126439713D01*
X255943034Y-126354799D01*
X256201014Y-126216906D01*
X256427134Y-126031334D01*
X256612706Y-125805214D01*
X256642000Y-125750409D01*
X256671294Y-125805214D01*
X256856866Y-126031334D01*
X257082986Y-126216906D01*
X257340966Y-126354799D01*
X257620889Y-126439713D01*
X257839050Y-126461200D01*
X257984950Y-126461200D01*
X258203111Y-126439713D01*
X258483034Y-126354799D01*
X258741014Y-126216906D01*
X258967134Y-126031334D01*
X259152706Y-125805214D01*
X259182000Y-125750409D01*
X259211294Y-125805214D01*
X259396866Y-126031334D01*
X259622986Y-126216906D01*
X259880966Y-126354799D01*
X260160889Y-126439713D01*
X260379050Y-126461200D01*
X260524950Y-126461200D01*
X260743111Y-126439713D01*
X261023034Y-126354799D01*
X261281014Y-126216906D01*
X261507134Y-126031334D01*
X261692706Y-125805214D01*
X261830599Y-125547234D01*
X261915513Y-125267311D01*
X261944185Y-124976200D01*
X261915513Y-124685089D01*
X261830599Y-124405166D01*
X261692706Y-124147186D01*
X261507134Y-123921066D01*
X261281014Y-123735494D01*
X261023034Y-123597601D01*
X260743111Y-123512687D01*
X260524950Y-123491200D01*
X260379050Y-123491200D01*
X260160889Y-123512687D01*
X259880966Y-123597601D01*
X259622986Y-123735494D01*
X259396866Y-123921066D01*
X259211294Y-124147186D01*
X259182000Y-124201991D01*
X259152706Y-124147186D01*
X258967134Y-123921066D01*
X258741014Y-123735494D01*
X258483034Y-123597601D01*
X258203111Y-123512687D01*
X257984950Y-123491200D01*
X257839050Y-123491200D01*
X257620889Y-123512687D01*
X257340966Y-123597601D01*
X257082986Y-123735494D01*
X256856866Y-123921066D01*
X256671294Y-124147186D01*
X256642000Y-124201991D01*
X256612706Y-124147186D01*
X256427134Y-123921066D01*
X256201014Y-123735494D01*
X255943034Y-123597601D01*
X255663111Y-123512687D01*
X255444950Y-123491200D01*
X255299050Y-123491200D01*
X255080889Y-123512687D01*
X254800966Y-123597601D01*
X254542986Y-123735494D01*
X254316866Y-123921066D01*
X254292393Y-123950887D01*
X254271502Y-123882020D01*
X254212537Y-123771706D01*
X254133185Y-123675015D01*
X254036494Y-123595663D01*
X253926180Y-123536698D01*
X253806482Y-123500388D01*
X253682000Y-123488128D01*
X253117750Y-123491200D01*
X252959000Y-123649950D01*
X252705000Y-123649950D01*
X252546250Y-123491200D01*
X251982000Y-123488128D01*
X251857518Y-123500388D01*
X251737820Y-123536698D01*
X251627506Y-123595663D01*
X251530815Y-123675015D01*
X251451463Y-123771706D01*
X251392498Y-123882020D01*
X251356188Y-124001718D01*
X251343928Y-124126200D01*
X236315444Y-124126200D01*
X236267205Y-124009744D01*
X236153937Y-123840226D01*
X236009774Y-123696063D01*
X235840256Y-123582795D01*
X235651898Y-123504774D01*
X235506776Y-123475908D01*
X232782068Y-120751200D01*
X251343928Y-120751200D01*
X251356188Y-120875682D01*
X251392498Y-120995380D01*
X251451463Y-121105694D01*
X251530815Y-121202385D01*
X251627506Y-121281737D01*
X251737820Y-121340702D01*
X251857518Y-121377012D01*
X251982000Y-121389272D01*
X252546250Y-121386200D01*
X252705000Y-121227450D01*
X252705000Y-120028200D01*
X251505750Y-120028200D01*
X251347000Y-120186950D01*
X251343928Y-120751200D01*
X232782068Y-120751200D01*
X231082068Y-119051200D01*
X251343928Y-119051200D01*
X251347000Y-119615450D01*
X251505750Y-119774200D01*
X252705000Y-119774200D01*
X252705000Y-118574950D01*
X252959000Y-118574950D01*
X252959000Y-119774200D01*
X252979000Y-119774200D01*
X252979000Y-120028200D01*
X252959000Y-120028200D01*
X252959000Y-121227450D01*
X253117750Y-121386200D01*
X253682000Y-121389272D01*
X253806482Y-121377012D01*
X253926180Y-121340702D01*
X254036494Y-121281737D01*
X254133185Y-121202385D01*
X254212537Y-121105694D01*
X254271502Y-120995380D01*
X254292393Y-120926513D01*
X254316866Y-120956334D01*
X254542986Y-121141906D01*
X254800966Y-121279799D01*
X255080889Y-121364713D01*
X255299050Y-121386200D01*
X255444950Y-121386200D01*
X255663111Y-121364713D01*
X255943034Y-121279799D01*
X256201014Y-121141906D01*
X256427134Y-120956334D01*
X256612706Y-120730214D01*
X256642000Y-120675409D01*
X256671294Y-120730214D01*
X256856866Y-120956334D01*
X257082986Y-121141906D01*
X257340966Y-121279799D01*
X257620889Y-121364713D01*
X257839050Y-121386200D01*
X257984950Y-121386200D01*
X258203111Y-121364713D01*
X258483034Y-121279799D01*
X258741014Y-121141906D01*
X258967134Y-120956334D01*
X259152706Y-120730214D01*
X259182000Y-120675409D01*
X259211294Y-120730214D01*
X259396866Y-120956334D01*
X259622986Y-121141906D01*
X259880966Y-121279799D01*
X260160889Y-121364713D01*
X260379050Y-121386200D01*
X260524950Y-121386200D01*
X260743111Y-121364713D01*
X261023034Y-121279799D01*
X261281014Y-121141906D01*
X261507134Y-120956334D01*
X261692706Y-120730214D01*
X261830599Y-120472234D01*
X261915513Y-120192311D01*
X261944185Y-119901200D01*
X261915513Y-119610089D01*
X261830599Y-119330166D01*
X261692706Y-119072186D01*
X261507134Y-118846066D01*
X261281014Y-118660494D01*
X261023034Y-118522601D01*
X260743111Y-118437687D01*
X260524950Y-118416200D01*
X260379050Y-118416200D01*
X260160889Y-118437687D01*
X259880966Y-118522601D01*
X259622986Y-118660494D01*
X259396866Y-118846066D01*
X259211294Y-119072186D01*
X259182000Y-119126991D01*
X259152706Y-119072186D01*
X258967134Y-118846066D01*
X258741014Y-118660494D01*
X258483034Y-118522601D01*
X258203111Y-118437687D01*
X257984950Y-118416200D01*
X257839050Y-118416200D01*
X257620889Y-118437687D01*
X257340966Y-118522601D01*
X257082986Y-118660494D01*
X256856866Y-118846066D01*
X256671294Y-119072186D01*
X256642000Y-119126991D01*
X256612706Y-119072186D01*
X256427134Y-118846066D01*
X256201014Y-118660494D01*
X255943034Y-118522601D01*
X255663111Y-118437687D01*
X255444950Y-118416200D01*
X255299050Y-118416200D01*
X255080889Y-118437687D01*
X254800966Y-118522601D01*
X254542986Y-118660494D01*
X254316866Y-118846066D01*
X254292393Y-118875887D01*
X254271502Y-118807020D01*
X254212537Y-118696706D01*
X254133185Y-118600015D01*
X254036494Y-118520663D01*
X253926180Y-118461698D01*
X253806482Y-118425388D01*
X253682000Y-118413128D01*
X253117750Y-118416200D01*
X252959000Y-118574950D01*
X252705000Y-118574950D01*
X252546250Y-118416200D01*
X251982000Y-118413128D01*
X251857518Y-118425388D01*
X251737820Y-118461698D01*
X251627506Y-118520663D01*
X251530815Y-118600015D01*
X251451463Y-118696706D01*
X251392498Y-118807020D01*
X251356188Y-118926718D01*
X251343928Y-119051200D01*
X231082068Y-119051200D01*
X227707068Y-115676200D01*
X251343928Y-115676200D01*
X251356188Y-115800682D01*
X251392498Y-115920380D01*
X251451463Y-116030694D01*
X251530815Y-116127385D01*
X251627506Y-116206737D01*
X251737820Y-116265702D01*
X251857518Y-116302012D01*
X251982000Y-116314272D01*
X252546250Y-116311200D01*
X252705000Y-116152450D01*
X252705000Y-114953200D01*
X251505750Y-114953200D01*
X251347000Y-115111950D01*
X251343928Y-115676200D01*
X227707068Y-115676200D01*
X226007068Y-113976200D01*
X251343928Y-113976200D01*
X251347000Y-114540450D01*
X251505750Y-114699200D01*
X252705000Y-114699200D01*
X252705000Y-113499950D01*
X252959000Y-113499950D01*
X252959000Y-114699200D01*
X252979000Y-114699200D01*
X252979000Y-114953200D01*
X252959000Y-114953200D01*
X252959000Y-116152450D01*
X253117750Y-116311200D01*
X253682000Y-116314272D01*
X253806482Y-116302012D01*
X253926180Y-116265702D01*
X254036494Y-116206737D01*
X254133185Y-116127385D01*
X254212537Y-116030694D01*
X254271502Y-115920380D01*
X254292393Y-115851513D01*
X254316866Y-115881334D01*
X254542986Y-116066906D01*
X254800966Y-116204799D01*
X255080889Y-116289713D01*
X255299050Y-116311200D01*
X255444950Y-116311200D01*
X255663111Y-116289713D01*
X255943034Y-116204799D01*
X256201014Y-116066906D01*
X256427134Y-115881334D01*
X256612706Y-115655214D01*
X256642000Y-115600409D01*
X256671294Y-115655214D01*
X256856866Y-115881334D01*
X257082986Y-116066906D01*
X257340966Y-116204799D01*
X257620889Y-116289713D01*
X257839050Y-116311200D01*
X257984950Y-116311200D01*
X258203111Y-116289713D01*
X258483034Y-116204799D01*
X258741014Y-116066906D01*
X258967134Y-115881334D01*
X259152706Y-115655214D01*
X259182000Y-115600409D01*
X259211294Y-115655214D01*
X259396866Y-115881334D01*
X259622986Y-116066906D01*
X259880966Y-116204799D01*
X260160889Y-116289713D01*
X260379050Y-116311200D01*
X260524950Y-116311200D01*
X260743111Y-116289713D01*
X261023034Y-116204799D01*
X261281014Y-116066906D01*
X261507134Y-115881334D01*
X261692706Y-115655214D01*
X261830599Y-115397234D01*
X261856368Y-115312284D01*
X263444999Y-115312284D01*
X263444999Y-116067714D01*
X263592376Y-116808627D01*
X263881466Y-117506553D01*
X264301160Y-118134669D01*
X264835329Y-118668838D01*
X265463445Y-119088532D01*
X266161371Y-119377622D01*
X266902284Y-119524999D01*
X267657714Y-119524999D01*
X268398627Y-119377622D01*
X269096553Y-119088532D01*
X269724669Y-118668838D01*
X270258838Y-118134669D01*
X270678532Y-117506553D01*
X270967622Y-116808627D01*
X271114999Y-116067714D01*
X271114999Y-115312284D01*
X270967622Y-114571371D01*
X270678532Y-113873445D01*
X270258838Y-113245329D01*
X269724669Y-112711160D01*
X269096553Y-112291466D01*
X268398627Y-112002376D01*
X267657714Y-111854999D01*
X266902284Y-111854999D01*
X266161371Y-112002376D01*
X265463445Y-112291466D01*
X264835329Y-112711160D01*
X264301160Y-113245329D01*
X263881466Y-113873445D01*
X263592376Y-114571371D01*
X263444999Y-115312284D01*
X261856368Y-115312284D01*
X261915513Y-115117311D01*
X261944185Y-114826200D01*
X261915513Y-114535089D01*
X261830599Y-114255166D01*
X261692706Y-113997186D01*
X261507134Y-113771066D01*
X261281014Y-113585494D01*
X261023034Y-113447601D01*
X260743111Y-113362687D01*
X260524950Y-113341200D01*
X260379050Y-113341200D01*
X260160889Y-113362687D01*
X259880966Y-113447601D01*
X259622986Y-113585494D01*
X259396866Y-113771066D01*
X259211294Y-113997186D01*
X259182000Y-114051991D01*
X259152706Y-113997186D01*
X258967134Y-113771066D01*
X258741014Y-113585494D01*
X258483034Y-113447601D01*
X258203111Y-113362687D01*
X257984950Y-113341200D01*
X257839050Y-113341200D01*
X257620889Y-113362687D01*
X257340966Y-113447601D01*
X257082986Y-113585494D01*
X256856866Y-113771066D01*
X256671294Y-113997186D01*
X256642000Y-114051991D01*
X256612706Y-113997186D01*
X256427134Y-113771066D01*
X256201014Y-113585494D01*
X255943034Y-113447601D01*
X255883754Y-113429619D01*
X255884774Y-113428937D01*
X256028937Y-113284774D01*
X256142205Y-113115256D01*
X256220226Y-112926898D01*
X256260000Y-112726939D01*
X256260000Y-112523061D01*
X256220226Y-112323102D01*
X256142205Y-112134744D01*
X256060000Y-112011715D01*
X256060000Y-109661667D01*
X257202550Y-108519117D01*
X262405000Y-108519117D01*
X262405000Y-108860883D01*
X262471675Y-109196081D01*
X262602463Y-109511831D01*
X262792337Y-109795998D01*
X263034002Y-110037663D01*
X263318169Y-110227537D01*
X263633919Y-110358325D01*
X263969117Y-110425000D01*
X264310883Y-110425000D01*
X264646081Y-110358325D01*
X264961831Y-110227537D01*
X265245998Y-110037663D01*
X265487663Y-109795998D01*
X265677537Y-109511831D01*
X265808325Y-109196081D01*
X265875000Y-108860883D01*
X265875000Y-108519117D01*
X265862266Y-108455098D01*
X266765000Y-108455098D01*
X266765000Y-108924902D01*
X266856654Y-109385679D01*
X267036440Y-109819721D01*
X267297450Y-110210349D01*
X267629651Y-110542550D01*
X268020279Y-110803560D01*
X268454321Y-110983346D01*
X268915098Y-111075000D01*
X269384902Y-111075000D01*
X269845679Y-110983346D01*
X270279721Y-110803560D01*
X270670349Y-110542550D01*
X271002550Y-110210349D01*
X271263560Y-109819721D01*
X271443346Y-109385679D01*
X271535000Y-108924902D01*
X271535000Y-108455098D01*
X271443346Y-107994321D01*
X271263560Y-107560279D01*
X271002550Y-107169651D01*
X270670349Y-106837450D01*
X270279721Y-106576440D01*
X269845679Y-106396654D01*
X269384902Y-106305000D01*
X268915098Y-106305000D01*
X268454321Y-106396654D01*
X268020279Y-106576440D01*
X267629651Y-106837450D01*
X267297450Y-107169651D01*
X267036440Y-107560279D01*
X266856654Y-107994321D01*
X266765000Y-108455098D01*
X265862266Y-108455098D01*
X265808325Y-108183919D01*
X265677537Y-107868169D01*
X265487663Y-107584002D01*
X265245998Y-107342337D01*
X264961831Y-107152463D01*
X264646081Y-107021675D01*
X264310883Y-106955000D01*
X263969117Y-106955000D01*
X263633919Y-107021675D01*
X263318169Y-107152463D01*
X263034002Y-107342337D01*
X262792337Y-107584002D01*
X262602463Y-107868169D01*
X262471675Y-108183919D01*
X262405000Y-108519117D01*
X257202550Y-108519117D01*
X259978925Y-105742744D01*
X259915000Y-106064117D01*
X259915000Y-106405883D01*
X259981675Y-106741081D01*
X260112463Y-107056831D01*
X260302337Y-107340998D01*
X260544002Y-107582663D01*
X260828169Y-107772537D01*
X261143919Y-107903325D01*
X261479117Y-107970000D01*
X261820883Y-107970000D01*
X262156081Y-107903325D01*
X262471831Y-107772537D01*
X262755998Y-107582663D01*
X262997663Y-107340998D01*
X263187537Y-107056831D01*
X263318325Y-106741081D01*
X263385000Y-106405883D01*
X263385000Y-106064117D01*
X263318325Y-105728919D01*
X263187537Y-105413169D01*
X262997663Y-105129002D01*
X262755998Y-104887337D01*
X262471831Y-104697463D01*
X262156081Y-104566675D01*
X261820883Y-104500000D01*
X261479117Y-104500000D01*
X261143919Y-104566675D01*
X260988254Y-104631154D01*
X261028314Y-104499093D01*
X261040396Y-104376423D01*
X261040396Y-104376422D01*
X261044436Y-104335404D01*
X261040396Y-104294386D01*
X261040396Y-101014117D01*
X262405000Y-101014117D01*
X262405000Y-101355883D01*
X262471675Y-101691081D01*
X262602463Y-102006831D01*
X262792337Y-102290998D01*
X263034002Y-102532663D01*
X263318169Y-102722537D01*
X263633919Y-102853325D01*
X263969117Y-102920000D01*
X264310883Y-102920000D01*
X264646081Y-102853325D01*
X264961831Y-102722537D01*
X265245998Y-102532663D01*
X265487663Y-102290998D01*
X265497817Y-102275800D01*
X267117328Y-102275800D01*
X267117328Y-105275800D01*
X267129588Y-105400282D01*
X267165898Y-105519980D01*
X267224863Y-105630294D01*
X267304215Y-105726985D01*
X267400906Y-105806337D01*
X267511220Y-105865302D01*
X267630918Y-105901612D01*
X267755400Y-105913872D01*
X270755400Y-105913872D01*
X270879882Y-105901612D01*
X270999580Y-105865302D01*
X271109894Y-105806337D01*
X271206585Y-105726985D01*
X271285937Y-105630294D01*
X271344902Y-105519980D01*
X271381212Y-105400282D01*
X271393472Y-105275800D01*
X271393472Y-104891712D01*
X273122893Y-104891712D01*
X273230726Y-105166338D01*
X273537384Y-105317216D01*
X273867585Y-105405369D01*
X274208639Y-105427409D01*
X274547439Y-105382489D01*
X274870966Y-105272336D01*
X275069274Y-105166338D01*
X275177107Y-104891712D01*
X274150000Y-103864605D01*
X273122893Y-104891712D01*
X271393472Y-104891712D01*
X271393472Y-103743639D01*
X272407591Y-103743639D01*
X272452511Y-104082439D01*
X272562664Y-104405966D01*
X272668662Y-104604274D01*
X272943288Y-104712107D01*
X273970395Y-103685000D01*
X274329605Y-103685000D01*
X275356712Y-104712107D01*
X275631338Y-104604274D01*
X275782216Y-104297616D01*
X275870369Y-103967415D01*
X275892409Y-103626361D01*
X275847489Y-103287561D01*
X275737336Y-102964034D01*
X275631338Y-102765726D01*
X275356712Y-102657893D01*
X274329605Y-103685000D01*
X273970395Y-103685000D01*
X272943288Y-102657893D01*
X272668662Y-102765726D01*
X272517784Y-103072384D01*
X272429631Y-103402585D01*
X272407591Y-103743639D01*
X271393472Y-103743639D01*
X271393472Y-102478288D01*
X273122893Y-102478288D01*
X274150000Y-103505395D01*
X275177107Y-102478288D01*
X275069274Y-102203662D01*
X274762616Y-102052784D01*
X274432415Y-101964631D01*
X274091361Y-101942591D01*
X273752561Y-101987511D01*
X273429034Y-102097664D01*
X273230726Y-102203662D01*
X273122893Y-102478288D01*
X271393472Y-102478288D01*
X271393472Y-102275800D01*
X271381212Y-102151318D01*
X271344902Y-102031620D01*
X271285937Y-101921306D01*
X271206585Y-101824615D01*
X271109894Y-101745263D01*
X270999580Y-101686298D01*
X270879882Y-101649988D01*
X270755400Y-101637728D01*
X267755400Y-101637728D01*
X267630918Y-101649988D01*
X267511220Y-101686298D01*
X267400906Y-101745263D01*
X267304215Y-101824615D01*
X267224863Y-101921306D01*
X267165898Y-102031620D01*
X267129588Y-102151318D01*
X267117328Y-102275800D01*
X265497817Y-102275800D01*
X265677537Y-102006831D01*
X265808325Y-101691081D01*
X265875000Y-101355883D01*
X265875000Y-101014117D01*
X265808325Y-100678919D01*
X265677537Y-100363169D01*
X265487663Y-100079002D01*
X265245998Y-99837337D01*
X264961831Y-99647463D01*
X264646081Y-99516675D01*
X264310883Y-99450000D01*
X263969117Y-99450000D01*
X263633919Y-99516675D01*
X263318169Y-99647463D01*
X263034002Y-99837337D01*
X262792337Y-100079002D01*
X262602463Y-100363169D01*
X262471675Y-100678919D01*
X262405000Y-101014117D01*
X261040396Y-101014117D01*
X261040396Y-100138285D01*
X261122601Y-100015256D01*
X261200622Y-99826898D01*
X261240396Y-99626939D01*
X261240396Y-99423061D01*
X261200622Y-99223102D01*
X261122601Y-99034744D01*
X261009333Y-98865226D01*
X260865170Y-98721063D01*
X260695652Y-98607795D01*
X260507294Y-98529774D01*
X260307335Y-98490000D01*
X260103457Y-98490000D01*
X259903498Y-98529774D01*
X259715140Y-98607795D01*
X259545622Y-98721063D01*
X259401459Y-98865226D01*
X259288191Y-99034744D01*
X259210170Y-99223102D01*
X259170396Y-99423061D01*
X259170396Y-99626939D01*
X259210170Y-99826898D01*
X259288191Y-100015256D01*
X259370397Y-100138286D01*
X259370396Y-103989535D01*
X254663574Y-108696359D01*
X254631710Y-108722509D01*
X254582915Y-108781966D01*
X254527364Y-108849655D01*
X254449828Y-108994714D01*
X254402082Y-109152112D01*
X254385960Y-109315800D01*
X254390001Y-109356828D01*
X254390000Y-112011715D01*
X254307795Y-112134744D01*
X254229774Y-112323102D01*
X254190000Y-112523061D01*
X254190000Y-112726939D01*
X254229774Y-112926898D01*
X254307795Y-113115256D01*
X254421063Y-113284774D01*
X254565226Y-113428937D01*
X254685515Y-113509311D01*
X254542986Y-113585494D01*
X254316866Y-113771066D01*
X254292393Y-113800887D01*
X254271502Y-113732020D01*
X254212537Y-113621706D01*
X254133185Y-113525015D01*
X254036494Y-113445663D01*
X253926180Y-113386698D01*
X253806482Y-113350388D01*
X253682000Y-113338128D01*
X253117750Y-113341200D01*
X252959000Y-113499950D01*
X252705000Y-113499950D01*
X252546250Y-113341200D01*
X251982000Y-113338128D01*
X251857518Y-113350388D01*
X251737820Y-113386698D01*
X251627506Y-113445663D01*
X251530815Y-113525015D01*
X251451463Y-113621706D01*
X251392498Y-113732020D01*
X251356188Y-113851718D01*
X251343928Y-113976200D01*
X226007068Y-113976200D01*
X223419446Y-111388579D01*
X223393291Y-111356709D01*
X223266146Y-111252364D01*
X223121087Y-111174828D01*
X222963689Y-111127082D01*
X222841019Y-111115000D01*
X222841018Y-111115000D01*
X222800000Y-111110960D01*
X222758982Y-111115000D01*
X219390868Y-111115000D01*
X223268633Y-107237236D01*
X223300491Y-107211091D01*
X223404836Y-107083946D01*
X223482372Y-106938887D01*
X223530118Y-106781489D01*
X223542200Y-106658819D01*
X223542200Y-106658818D01*
X223546240Y-106617800D01*
X223542200Y-106576782D01*
X223542200Y-106429685D01*
X223624405Y-106306656D01*
X223702426Y-106118298D01*
X223742200Y-105918339D01*
X223742200Y-105714461D01*
X223702426Y-105514502D01*
X223624405Y-105326144D01*
X223511137Y-105156626D01*
X223366974Y-105012463D01*
X223197456Y-104899195D01*
X223009098Y-104821174D01*
X222809139Y-104781400D01*
X222605261Y-104781400D01*
X222405302Y-104821174D01*
X222216944Y-104899195D01*
X222047426Y-105012463D01*
X221903263Y-105156626D01*
X221789995Y-105326144D01*
X221711974Y-105514502D01*
X221672200Y-105714461D01*
X221672200Y-105918339D01*
X221711974Y-106118298D01*
X221789995Y-106306656D01*
X221809013Y-106335118D01*
X219426120Y-108718012D01*
X219336010Y-108583153D01*
X219191847Y-108438990D01*
X219022329Y-108325722D01*
X218833971Y-108247701D01*
X218634012Y-108207927D01*
X218571875Y-108207927D01*
X217693899Y-107329952D01*
X217693899Y-101895172D01*
X218986100Y-101895172D01*
X219110582Y-101882912D01*
X219230280Y-101846602D01*
X219340594Y-101787637D01*
X219437285Y-101708285D01*
X219516637Y-101611594D01*
X219575602Y-101501280D01*
X219611912Y-101381582D01*
X219624172Y-101257100D01*
X219624172Y-99529900D01*
X219611912Y-99405418D01*
X219575602Y-99285720D01*
X219516637Y-99175406D01*
X219437285Y-99078715D01*
X219340594Y-98999363D01*
X219230280Y-98940398D01*
X219179235Y-98924914D01*
X219187297Y-98918297D01*
X219374569Y-98690106D01*
X219513725Y-98429764D01*
X219521211Y-98405085D01*
X228805202Y-107689076D01*
X228805201Y-109329088D01*
X228761264Y-109373025D01*
X228647996Y-109542543D01*
X228569975Y-109730901D01*
X228530201Y-109930860D01*
X228530201Y-110134738D01*
X228569975Y-110334697D01*
X228647996Y-110523055D01*
X228761264Y-110692573D01*
X228905427Y-110836736D01*
X229074945Y-110950004D01*
X229263303Y-111028025D01*
X229463262Y-111067799D01*
X229667140Y-111067799D01*
X229824742Y-111036450D01*
X229846831Y-111147498D01*
X229924852Y-111335856D01*
X230038120Y-111505374D01*
X230182283Y-111649537D01*
X230351801Y-111762805D01*
X230540159Y-111840826D01*
X230740118Y-111880600D01*
X230943996Y-111880600D01*
X231143955Y-111840826D01*
X231332313Y-111762805D01*
X231501831Y-111649537D01*
X231645994Y-111505374D01*
X231759262Y-111335856D01*
X231837283Y-111147498D01*
X231877057Y-110947539D01*
X231877057Y-110743661D01*
X231837283Y-110543702D01*
X231759262Y-110355344D01*
X231645994Y-110185826D01*
X231602057Y-110141889D01*
X231602057Y-107435379D01*
X231605733Y-107398056D01*
X231602057Y-107360733D01*
X231602057Y-107360724D01*
X231591060Y-107249071D01*
X231547603Y-107105810D01*
X231477031Y-106973781D01*
X231448394Y-106938887D01*
X231405856Y-106887053D01*
X231405852Y-106887049D01*
X231382058Y-106858056D01*
X231353067Y-106834264D01*
X219606069Y-95087268D01*
X219599416Y-95019723D01*
X219513725Y-94737236D01*
X219374569Y-94476894D01*
X219187297Y-94248703D01*
X218959106Y-94061431D01*
X218925560Y-94043500D01*
X218959106Y-94025569D01*
X219187297Y-93838297D01*
X219374569Y-93610106D01*
X219513725Y-93349764D01*
X219599416Y-93067277D01*
X219628351Y-92773500D01*
X219599416Y-92479723D01*
X219513725Y-92197236D01*
X219374569Y-91936894D01*
X219187297Y-91708703D01*
X218959106Y-91521431D01*
X218914590Y-91497637D01*
X219010988Y-91440317D01*
X219229354Y-91243793D01*
X219405184Y-91008444D01*
X219531722Y-90743314D01*
X219577458Y-90592526D01*
X219456317Y-90360500D01*
X218249500Y-90360500D01*
X218249500Y-90380500D01*
X217995500Y-90380500D01*
X217995500Y-90360500D01*
X217975500Y-90360500D01*
X217975500Y-90106500D01*
X217995500Y-90106500D01*
X217995500Y-88899036D01*
X218249500Y-88899036D01*
X218249500Y-90106500D01*
X219456317Y-90106500D01*
X219577458Y-89874474D01*
X219531722Y-89723686D01*
X219453630Y-89560061D01*
X225787000Y-89560061D01*
X225787000Y-89763939D01*
X225826774Y-89963898D01*
X225904795Y-90152256D01*
X226018063Y-90321774D01*
X226162226Y-90465937D01*
X226331744Y-90579205D01*
X226520102Y-90657226D01*
X226720061Y-90697000D01*
X226923939Y-90697000D01*
X227123898Y-90657226D01*
X227312256Y-90579205D01*
X227481774Y-90465937D01*
X227525711Y-90422000D01*
X236413199Y-90422000D01*
X239727200Y-93736002D01*
X239727201Y-102627646D01*
X239573139Y-102597002D01*
X239369261Y-102597002D01*
X239169302Y-102636776D01*
X238980944Y-102714797D01*
X238811426Y-102828065D01*
X238767489Y-102872002D01*
X233672513Y-102872002D01*
X233628574Y-102828063D01*
X233459056Y-102714795D01*
X233270698Y-102636774D01*
X233070739Y-102597000D01*
X232866861Y-102597000D01*
X232666902Y-102636774D01*
X232478544Y-102714795D01*
X232309026Y-102828063D01*
X232164863Y-102972226D01*
X232051595Y-103141744D01*
X231973574Y-103330102D01*
X231933800Y-103530061D01*
X231933800Y-103733939D01*
X231973574Y-103933898D01*
X232051595Y-104122256D01*
X232164863Y-104291774D01*
X232309026Y-104435937D01*
X232478544Y-104549205D01*
X232666902Y-104627226D01*
X232866861Y-104667000D01*
X233070739Y-104667000D01*
X233270698Y-104627226D01*
X233459056Y-104549205D01*
X233628574Y-104435937D01*
X233672509Y-104392002D01*
X234147586Y-104392002D01*
X234134395Y-104411744D01*
X234056374Y-104600102D01*
X234016600Y-104800061D01*
X234016600Y-105003939D01*
X234056374Y-105203898D01*
X234134395Y-105392256D01*
X234247663Y-105561774D01*
X234291603Y-105605714D01*
X234291602Y-111564289D01*
X234247665Y-111608226D01*
X234134397Y-111777744D01*
X234056376Y-111966102D01*
X234016602Y-112166061D01*
X234016602Y-112369939D01*
X234056376Y-112569898D01*
X234134397Y-112758256D01*
X234247665Y-112927774D01*
X234391828Y-113071937D01*
X234561346Y-113185205D01*
X234749704Y-113263226D01*
X234949663Y-113303000D01*
X235153541Y-113303000D01*
X235353500Y-113263226D01*
X235541858Y-113185205D01*
X235711376Y-113071937D01*
X235855539Y-112927774D01*
X235968807Y-112758256D01*
X236046828Y-112569898D01*
X236086602Y-112369939D01*
X236086602Y-112166061D01*
X236046828Y-111966102D01*
X235968807Y-111777744D01*
X235855539Y-111608226D01*
X235811602Y-111564289D01*
X235811602Y-105605709D01*
X235855537Y-105561774D01*
X235968805Y-105392256D01*
X236046826Y-105203898D01*
X236086600Y-105003939D01*
X236086600Y-104800061D01*
X236046826Y-104600102D01*
X235968805Y-104411744D01*
X235955614Y-104392002D01*
X238767489Y-104392002D01*
X238811426Y-104435939D01*
X238980944Y-104549207D01*
X239169302Y-104627228D01*
X239369261Y-104667002D01*
X239573139Y-104667002D01*
X239727201Y-104636357D01*
X239727201Y-110378397D01*
X239431399Y-110674200D01*
X239369261Y-110674200D01*
X239169302Y-110713974D01*
X238980944Y-110791995D01*
X238811426Y-110905263D01*
X238667263Y-111049426D01*
X238553995Y-111218944D01*
X238475974Y-111407302D01*
X238436200Y-111607261D01*
X238436200Y-111811139D01*
X238475974Y-112011098D01*
X238553995Y-112199456D01*
X238667263Y-112368974D01*
X238811426Y-112513137D01*
X238980944Y-112626405D01*
X239169302Y-112704426D01*
X239369261Y-112744200D01*
X239573139Y-112744200D01*
X239773098Y-112704426D01*
X239961456Y-112626405D01*
X240130974Y-112513137D01*
X240275137Y-112368974D01*
X240292428Y-112343096D01*
X240343663Y-112419774D01*
X240487826Y-112563937D01*
X240657344Y-112677205D01*
X240845702Y-112755226D01*
X241045661Y-112795000D01*
X241189773Y-112795000D01*
X241195595Y-112809056D01*
X241308863Y-112978574D01*
X241453026Y-113122737D01*
X241622544Y-113236005D01*
X241810902Y-113314026D01*
X242010861Y-113353800D01*
X242214739Y-113353800D01*
X242414698Y-113314026D01*
X242603056Y-113236005D01*
X242772574Y-113122737D01*
X242916737Y-112978574D01*
X243030005Y-112809056D01*
X243108026Y-112620698D01*
X243147800Y-112420739D01*
X243147800Y-112216861D01*
X243108026Y-112016902D01*
X243030005Y-111828544D01*
X242916737Y-111659026D01*
X242872800Y-111615089D01*
X242872800Y-108319558D01*
X242922795Y-108440256D01*
X243036063Y-108609774D01*
X243180226Y-108753937D01*
X243349744Y-108867205D01*
X243538102Y-108945226D01*
X243738061Y-108985000D01*
X243941939Y-108985000D01*
X244141898Y-108945226D01*
X244330256Y-108867205D01*
X244499774Y-108753937D01*
X244643937Y-108609774D01*
X244757205Y-108440256D01*
X244835226Y-108251898D01*
X244864093Y-108106774D01*
X254485346Y-98485521D01*
X267120400Y-98485521D01*
X267120400Y-98906079D01*
X267202447Y-99318556D01*
X267363388Y-99707102D01*
X267597037Y-100056783D01*
X267894417Y-100354163D01*
X268244098Y-100587812D01*
X268632644Y-100748753D01*
X269045121Y-100830800D01*
X269465679Y-100830800D01*
X269878156Y-100748753D01*
X270266702Y-100587812D01*
X270616383Y-100354163D01*
X270913763Y-100056783D01*
X271024059Y-99891712D01*
X273122893Y-99891712D01*
X273230726Y-100166338D01*
X273537384Y-100317216D01*
X273867585Y-100405369D01*
X274208639Y-100427409D01*
X274547439Y-100382489D01*
X274870966Y-100272336D01*
X275069274Y-100166338D01*
X275177107Y-99891712D01*
X274150000Y-98864605D01*
X273122893Y-99891712D01*
X271024059Y-99891712D01*
X271147412Y-99707102D01*
X271308353Y-99318556D01*
X271390400Y-98906079D01*
X271390400Y-98743639D01*
X272407591Y-98743639D01*
X272452511Y-99082439D01*
X272562664Y-99405966D01*
X272668662Y-99604274D01*
X272943288Y-99712107D01*
X273970395Y-98685000D01*
X274329605Y-98685000D01*
X275356712Y-99712107D01*
X275631338Y-99604274D01*
X275782216Y-99297616D01*
X275870369Y-98967415D01*
X275892409Y-98626361D01*
X275847489Y-98287561D01*
X275737336Y-97964034D01*
X275631338Y-97765726D01*
X275356712Y-97657893D01*
X274329605Y-98685000D01*
X273970395Y-98685000D01*
X272943288Y-97657893D01*
X272668662Y-97765726D01*
X272517784Y-98072384D01*
X272429631Y-98402585D01*
X272407591Y-98743639D01*
X271390400Y-98743639D01*
X271390400Y-98485521D01*
X271308353Y-98073044D01*
X271147412Y-97684498D01*
X271009628Y-97478288D01*
X273122893Y-97478288D01*
X274150000Y-98505395D01*
X275177107Y-97478288D01*
X275069274Y-97203662D01*
X274762616Y-97052784D01*
X274432415Y-96964631D01*
X274091361Y-96942591D01*
X273752561Y-96987511D01*
X273429034Y-97097664D01*
X273230726Y-97203662D01*
X273122893Y-97478288D01*
X271009628Y-97478288D01*
X270913763Y-97334817D01*
X270616383Y-97037437D01*
X270266702Y-96803788D01*
X269878156Y-96642847D01*
X269465679Y-96560800D01*
X269045121Y-96560800D01*
X268632644Y-96642847D01*
X268244098Y-96803788D01*
X267894417Y-97037437D01*
X267597037Y-97334817D01*
X267363388Y-97684498D01*
X267202447Y-98073044D01*
X267120400Y-98485521D01*
X254485346Y-98485521D01*
X257006751Y-95964117D01*
X259915000Y-95964117D01*
X259915000Y-96305883D01*
X259981675Y-96641081D01*
X260112463Y-96956831D01*
X260302337Y-97240998D01*
X260544002Y-97482663D01*
X260828169Y-97672537D01*
X261143919Y-97803325D01*
X261479117Y-97870000D01*
X261820883Y-97870000D01*
X262156081Y-97803325D01*
X262471831Y-97672537D01*
X262755998Y-97482663D01*
X262997663Y-97240998D01*
X263187537Y-96956831D01*
X263318325Y-96641081D01*
X263385000Y-96305883D01*
X263385000Y-95964117D01*
X263318325Y-95628919D01*
X263187537Y-95313169D01*
X262997663Y-95029002D01*
X262755998Y-94787337D01*
X262471831Y-94597463D01*
X262156081Y-94466675D01*
X261820883Y-94400000D01*
X261479117Y-94400000D01*
X261143919Y-94466675D01*
X260828169Y-94597463D01*
X260544002Y-94787337D01*
X260302337Y-95029002D01*
X260112463Y-95313169D01*
X259981675Y-95628919D01*
X259915000Y-95964117D01*
X257006751Y-95964117D01*
X259461751Y-93509117D01*
X262405000Y-93509117D01*
X262405000Y-93850883D01*
X262471675Y-94186081D01*
X262602463Y-94501831D01*
X262792337Y-94785998D01*
X263034002Y-95027663D01*
X263318169Y-95217537D01*
X263633919Y-95348325D01*
X263969117Y-95415000D01*
X264310883Y-95415000D01*
X264646081Y-95348325D01*
X264961831Y-95217537D01*
X265245998Y-95027663D01*
X265487663Y-94785998D01*
X265677537Y-94501831D01*
X265808325Y-94186081D01*
X265875000Y-93850883D01*
X265875000Y-93509117D01*
X265862266Y-93445098D01*
X266765000Y-93445098D01*
X266765000Y-93914902D01*
X266856654Y-94375679D01*
X267036440Y-94809721D01*
X267297450Y-95200349D01*
X267629651Y-95532550D01*
X268020279Y-95793560D01*
X268454321Y-95973346D01*
X268915098Y-96065000D01*
X269384902Y-96065000D01*
X269845679Y-95973346D01*
X270279721Y-95793560D01*
X270670349Y-95532550D01*
X271002550Y-95200349D01*
X271263560Y-94809721D01*
X271443346Y-94375679D01*
X271535000Y-93914902D01*
X271535000Y-93445098D01*
X271443346Y-92984321D01*
X271263560Y-92550279D01*
X271002550Y-92159651D01*
X270670349Y-91827450D01*
X270279721Y-91566440D01*
X269845679Y-91386654D01*
X269384902Y-91295000D01*
X268915098Y-91295000D01*
X268454321Y-91386654D01*
X268020279Y-91566440D01*
X267629651Y-91827450D01*
X267297450Y-92159651D01*
X267036440Y-92550279D01*
X266856654Y-92984321D01*
X266765000Y-93445098D01*
X265862266Y-93445098D01*
X265808325Y-93173919D01*
X265677537Y-92858169D01*
X265487663Y-92574002D01*
X265245998Y-92332337D01*
X264961831Y-92142463D01*
X264646081Y-92011675D01*
X264310883Y-91945000D01*
X263969117Y-91945000D01*
X263633919Y-92011675D01*
X263318169Y-92142463D01*
X263034002Y-92332337D01*
X262792337Y-92574002D01*
X262602463Y-92858169D01*
X262471675Y-93173919D01*
X262405000Y-93509117D01*
X259461751Y-93509117D01*
X260711432Y-92259437D01*
X260743290Y-92233292D01*
X260772881Y-92197236D01*
X260847635Y-92106147D01*
X260925171Y-91961088D01*
X260932510Y-91936894D01*
X260972917Y-91803690D01*
X260984999Y-91681020D01*
X260984999Y-91681019D01*
X260989039Y-91640001D01*
X260984999Y-91598983D01*
X260984999Y-90715868D01*
X273211429Y-78489439D01*
X273243292Y-78463290D01*
X273347637Y-78336145D01*
X273425173Y-78191086D01*
X273472919Y-78033688D01*
X273485001Y-77911018D01*
X273485001Y-77911008D01*
X273489040Y-77870000D01*
X273485001Y-77828992D01*
X273485001Y-75870093D01*
X273540256Y-75847205D01*
X273709774Y-75733937D01*
X273853937Y-75589774D01*
X273967205Y-75420256D01*
X274045226Y-75231898D01*
X274085000Y-75031939D01*
X274085000Y-74828061D01*
X274045226Y-74628102D01*
X273967205Y-74439744D01*
X273853937Y-74270226D01*
X273709774Y-74126063D01*
X273540256Y-74012795D01*
X273351898Y-73934774D01*
X273151939Y-73895000D01*
X272948061Y-73895000D01*
X272748102Y-73934774D01*
X272559744Y-74012795D01*
X272390226Y-74126063D01*
X272246063Y-74270226D01*
X272132795Y-74439744D01*
X272054774Y-74628102D01*
X272025640Y-74774568D01*
X271952365Y-74863854D01*
X271874829Y-75008913D01*
X271827083Y-75166311D01*
X271810961Y-75329999D01*
X271815002Y-75371027D01*
X271815001Y-77524131D01*
X259588573Y-89750560D01*
X259556709Y-89776710D01*
X259494358Y-89852685D01*
X259452363Y-89903856D01*
X259374827Y-90048915D01*
X259327081Y-90206313D01*
X259310959Y-90370001D01*
X259315000Y-90411029D01*
X259314999Y-91294132D01*
X243683226Y-106925907D01*
X243538102Y-106954774D01*
X243349744Y-107032795D01*
X243180226Y-107146063D01*
X243036063Y-107290226D01*
X242922795Y-107459744D01*
X242872800Y-107580442D01*
X242872800Y-93482001D01*
X245759402Y-90595400D01*
X255226680Y-90595400D01*
X255270617Y-90639337D01*
X255440135Y-90752605D01*
X255628493Y-90830626D01*
X255828452Y-90870400D01*
X256032330Y-90870400D01*
X256232289Y-90830626D01*
X256420647Y-90752605D01*
X256590165Y-90639337D01*
X256734328Y-90495174D01*
X256847596Y-90325656D01*
X256925617Y-90137298D01*
X256965391Y-89937339D01*
X256965391Y-89733461D01*
X256925617Y-89533502D01*
X256847596Y-89345144D01*
X256734328Y-89175626D01*
X256590165Y-89031463D01*
X256420647Y-88918195D01*
X256232289Y-88840174D01*
X256032330Y-88800400D01*
X255828452Y-88800400D01*
X255628493Y-88840174D01*
X255440135Y-88918195D01*
X255270617Y-89031463D01*
X255226680Y-89075400D01*
X245481925Y-89075400D01*
X245444600Y-89071724D01*
X245407275Y-89075400D01*
X245407267Y-89075400D01*
X245295614Y-89086397D01*
X245152353Y-89129854D01*
X245020324Y-89200426D01*
X244904599Y-89295399D01*
X244880801Y-89324397D01*
X241907600Y-92297599D01*
X241907600Y-90210000D01*
X242014044Y-90050695D01*
X242092065Y-89862337D01*
X242131839Y-89662378D01*
X242131839Y-89458500D01*
X242092065Y-89258541D01*
X242014044Y-89070183D01*
X241900776Y-88900665D01*
X241756613Y-88756502D01*
X241587095Y-88643234D01*
X241398737Y-88565213D01*
X241198778Y-88525439D01*
X240994900Y-88525439D01*
X240794941Y-88565213D01*
X240606583Y-88643234D01*
X240437065Y-88756502D01*
X240292902Y-88900665D01*
X240179634Y-89070183D01*
X240101613Y-89258541D01*
X240061839Y-89458500D01*
X240061839Y-89662378D01*
X240101613Y-89862337D01*
X240179634Y-90050695D01*
X240292902Y-90220213D01*
X240387601Y-90314912D01*
X240387601Y-92246799D01*
X237291804Y-89151003D01*
X237268001Y-89121999D01*
X237152276Y-89027026D01*
X237020247Y-88956454D01*
X236876986Y-88912997D01*
X236765333Y-88902000D01*
X236765322Y-88902000D01*
X236728000Y-88898324D01*
X236690678Y-88902000D01*
X227525711Y-88902000D01*
X227481774Y-88858063D01*
X227312256Y-88744795D01*
X227123898Y-88666774D01*
X226923939Y-88627000D01*
X226720061Y-88627000D01*
X226520102Y-88666774D01*
X226331744Y-88744795D01*
X226162226Y-88858063D01*
X226018063Y-89002226D01*
X225904795Y-89171744D01*
X225826774Y-89360102D01*
X225787000Y-89560061D01*
X219453630Y-89560061D01*
X219405184Y-89458556D01*
X219229354Y-89223207D01*
X219010988Y-89026683D01*
X218758478Y-88876536D01*
X218481527Y-88778537D01*
X218249500Y-88899036D01*
X217995500Y-88899036D01*
X217763473Y-88778537D01*
X217486522Y-88876536D01*
X217234012Y-89026683D01*
X217015646Y-89223207D01*
X216855970Y-89436933D01*
X216834569Y-89396894D01*
X216647297Y-89168703D01*
X216419106Y-88981431D01*
X216158764Y-88842275D01*
X215876277Y-88756584D01*
X215656119Y-88734900D01*
X215508881Y-88734900D01*
X215288723Y-88756584D01*
X215006236Y-88842275D01*
X214745894Y-88981431D01*
X214517703Y-89168703D01*
X214330431Y-89396894D01*
X214191275Y-89657236D01*
X214105584Y-89939723D01*
X214076649Y-90233500D01*
X214105584Y-90527277D01*
X214130799Y-90610399D01*
X208480203Y-96260996D01*
X208451199Y-96284799D01*
X208417318Y-96326084D01*
X208356226Y-96400524D01*
X208323219Y-96462275D01*
X208285654Y-96532554D01*
X208242197Y-96675815D01*
X208231200Y-96787468D01*
X208231200Y-96787478D01*
X208227524Y-96824800D01*
X208231200Y-96862122D01*
X208231201Y-107551088D01*
X208187263Y-107595026D01*
X208073995Y-107764544D01*
X207995974Y-107952902D01*
X207956200Y-108152861D01*
X207956200Y-108356739D01*
X207995974Y-108556698D01*
X208073995Y-108745056D01*
X208187263Y-108914574D01*
X208331426Y-109058737D01*
X208500944Y-109172005D01*
X208689302Y-109250026D01*
X208889261Y-109289800D01*
X209093139Y-109289800D01*
X209293098Y-109250026D01*
X209481456Y-109172005D01*
X209650974Y-109058737D01*
X209795137Y-108914574D01*
X209908405Y-108745056D01*
X209986426Y-108556698D01*
X209996600Y-108505550D01*
X210108461Y-108527800D01*
X210312339Y-108527800D01*
X210512298Y-108488026D01*
X210700656Y-108410005D01*
X210870174Y-108296737D01*
X211014337Y-108152574D01*
X211127605Y-107983056D01*
X211205626Y-107794698D01*
X211211933Y-107762990D01*
X211226061Y-107765800D01*
X211429939Y-107765800D01*
X211629898Y-107726026D01*
X211818256Y-107648005D01*
X211987774Y-107534737D01*
X212131937Y-107390574D01*
X212245205Y-107221056D01*
X212323226Y-107032698D01*
X212363000Y-106832739D01*
X212363000Y-106628861D01*
X212323226Y-106428902D01*
X212245205Y-106240544D01*
X212131937Y-106071026D01*
X212088000Y-106027089D01*
X212088000Y-98123671D01*
X214236778Y-95974894D01*
X214330431Y-96150106D01*
X214517703Y-96378297D01*
X214745894Y-96565569D01*
X214779440Y-96583500D01*
X214745894Y-96601431D01*
X214517703Y-96788703D01*
X214330431Y-97016894D01*
X214191275Y-97277236D01*
X214105584Y-97559723D01*
X214076649Y-97853500D01*
X214105584Y-98147277D01*
X214191275Y-98429764D01*
X214330431Y-98690106D01*
X214517703Y-98918297D01*
X214745894Y-99105569D01*
X214779440Y-99123500D01*
X214745894Y-99141431D01*
X214517703Y-99328703D01*
X214330431Y-99556894D01*
X214191275Y-99817236D01*
X214105584Y-100099723D01*
X214076649Y-100393500D01*
X214105584Y-100687277D01*
X214191275Y-100969764D01*
X214330431Y-101230106D01*
X214517703Y-101458297D01*
X214745894Y-101645569D01*
X214826074Y-101688426D01*
X214833498Y-101763800D01*
X214840729Y-101787637D01*
X214876954Y-101907060D01*
X214947526Y-102039090D01*
X214958765Y-102052784D01*
X215042500Y-102154815D01*
X215071498Y-102178613D01*
X215394000Y-102501116D01*
X215394001Y-108759409D01*
X214822808Y-109330603D01*
X214793805Y-109354405D01*
X214750866Y-109406727D01*
X214698832Y-109470130D01*
X214637317Y-109585216D01*
X214628260Y-109602160D01*
X214584803Y-109745421D01*
X214573806Y-109857074D01*
X214573806Y-109857084D01*
X214570130Y-109894406D01*
X214573806Y-109931729D01*
X214573807Y-111248472D01*
X214570130Y-111285804D01*
X214573807Y-111323137D01*
X214584804Y-111434790D01*
X214592374Y-111459744D01*
X214628260Y-111578050D01*
X214698832Y-111710080D01*
X214719283Y-111734999D01*
X214793806Y-111825805D01*
X214822804Y-111849603D01*
X215292245Y-112319044D01*
X215221063Y-112390226D01*
X215107795Y-112559744D01*
X215029774Y-112748102D01*
X214990000Y-112948061D01*
X214990000Y-113151939D01*
X215029774Y-113351898D01*
X215107795Y-113540256D01*
X215221063Y-113709774D01*
X215340001Y-113828712D01*
X215340000Y-114921289D01*
X215296063Y-114965226D01*
X215182795Y-115134744D01*
X215104774Y-115323102D01*
X215065000Y-115523061D01*
X215065000Y-115615198D01*
X214335000Y-114885198D01*
X214335000Y-114823061D01*
X214295226Y-114623102D01*
X214217205Y-114434744D01*
X214103937Y-114265226D01*
X213959774Y-114121063D01*
X213810000Y-114020987D01*
X213810000Y-112978711D01*
X213853937Y-112934774D01*
X213967205Y-112765256D01*
X214045226Y-112576898D01*
X214085000Y-112376939D01*
X214085000Y-112173061D01*
X214045226Y-111973102D01*
X213967205Y-111784744D01*
X213853937Y-111615226D01*
X213709774Y-111471063D01*
X213540256Y-111357795D01*
X213351898Y-111279774D01*
X213151939Y-111240000D01*
X212948061Y-111240000D01*
X212748102Y-111279774D01*
X212559744Y-111357795D01*
X212390226Y-111471063D01*
X212246063Y-111615226D01*
X212132795Y-111784744D01*
X212054774Y-111973102D01*
X212015000Y-112173061D01*
X212015000Y-112376939D01*
X212054774Y-112576898D01*
X212132795Y-112765256D01*
X212246063Y-112934774D01*
X212290000Y-112978711D01*
X212290001Y-114637668D01*
X212286324Y-114675000D01*
X212289015Y-114702326D01*
X212265000Y-114823061D01*
X212265000Y-115026939D01*
X212304774Y-115226898D01*
X212382795Y-115415256D01*
X212496063Y-115584774D01*
X212640226Y-115728937D01*
X212809744Y-115842205D01*
X212998102Y-115920226D01*
X213198061Y-115960000D01*
X213260198Y-115960000D01*
X214427653Y-117127456D01*
X214427654Y-118483941D01*
X214383716Y-118527879D01*
X214270448Y-118697397D01*
X214192427Y-118885755D01*
X214152653Y-119085714D01*
X214152653Y-119289592D01*
X214192427Y-119489551D01*
X214270448Y-119677909D01*
X214295231Y-119715000D01*
X211414802Y-119715000D01*
X210210000Y-118510199D01*
X210210000Y-118448061D01*
X210170226Y-118248102D01*
X210092205Y-118059744D01*
X209978937Y-117890226D01*
X209862111Y-117773400D01*
X209905939Y-117773400D01*
X210105898Y-117733626D01*
X210294256Y-117655605D01*
X210463774Y-117542337D01*
X210607937Y-117398174D01*
X210721205Y-117228656D01*
X210799226Y-117040298D01*
X210839000Y-116840339D01*
X210839000Y-116636461D01*
X210799226Y-116436502D01*
X210721205Y-116248144D01*
X210607937Y-116078626D01*
X210463774Y-115934463D01*
X210294256Y-115821195D01*
X210105898Y-115743174D01*
X209905939Y-115703400D01*
X209702061Y-115703400D01*
X209502102Y-115743174D01*
X209313744Y-115821195D01*
X209144226Y-115934463D01*
X209000063Y-116078626D01*
X208886795Y-116248144D01*
X208808774Y-116436502D01*
X208769000Y-116636461D01*
X208769000Y-116698598D01*
X203755798Y-121711801D01*
X203726800Y-121735599D01*
X203703002Y-121764597D01*
X203703001Y-121764598D01*
X203631826Y-121851324D01*
X203561254Y-121983354D01*
X203517798Y-122126615D01*
X203503124Y-122275600D01*
X203506801Y-122312932D01*
X203506800Y-124416689D01*
X203462863Y-124460626D01*
X203349595Y-124630144D01*
X203271574Y-124818502D01*
X203231800Y-125018461D01*
X203231800Y-125222339D01*
X203271574Y-125422298D01*
X203349595Y-125610656D01*
X203462863Y-125780174D01*
X203607026Y-125924337D01*
X203776544Y-126037605D01*
X203964902Y-126115626D01*
X204164861Y-126155400D01*
X204368739Y-126155400D01*
X204568698Y-126115626D01*
X204757056Y-126037605D01*
X204926574Y-125924337D01*
X205070737Y-125780174D01*
X205184005Y-125610656D01*
X205262026Y-125422298D01*
X205301800Y-125222339D01*
X205301800Y-125018461D01*
X205262026Y-124818502D01*
X205184005Y-124630144D01*
X205070737Y-124460626D01*
X205026800Y-124416689D01*
X205026800Y-122590401D01*
X208389245Y-119227956D01*
X208425492Y-119264203D01*
X208415226Y-119271063D01*
X208271063Y-119415226D01*
X208157795Y-119584744D01*
X208079774Y-119773102D01*
X208040000Y-119973061D01*
X208040000Y-120176939D01*
X208079774Y-120376898D01*
X208157795Y-120565256D01*
X208271063Y-120734774D01*
X208415226Y-120878937D01*
X208584744Y-120992205D01*
X208773102Y-121070226D01*
X208973061Y-121110000D01*
X209035198Y-121110000D01*
X210461205Y-122536008D01*
X210484999Y-122565001D01*
X210513992Y-122588795D01*
X210513996Y-122588799D01*
X210545924Y-122615001D01*
X210600724Y-122659974D01*
X210732753Y-122730546D01*
X210876014Y-122774003D01*
X210987667Y-122785000D01*
X210987676Y-122785000D01*
X211024999Y-122788676D01*
X211062322Y-122785000D01*
X214421289Y-122785000D01*
X214465226Y-122828937D01*
X214634744Y-122942205D01*
X214823102Y-123020226D01*
X215023061Y-123060000D01*
X215226939Y-123060000D01*
X215426898Y-123020226D01*
X215615256Y-122942205D01*
X215784774Y-122828937D01*
X215928937Y-122684774D01*
X216042205Y-122515256D01*
X216120226Y-122326898D01*
X216160000Y-122126939D01*
X216160000Y-121923061D01*
X216120226Y-121723102D01*
X216042205Y-121534744D01*
X215928937Y-121365226D01*
X215849508Y-121285797D01*
X215859774Y-121278937D01*
X216003937Y-121134774D01*
X216117205Y-120965256D01*
X216195226Y-120776898D01*
X216235000Y-120576939D01*
X216235000Y-120373061D01*
X216195226Y-120173102D01*
X216117205Y-119984744D01*
X216008521Y-119822087D01*
X216104858Y-119677909D01*
X216182879Y-119489551D01*
X216222653Y-119289592D01*
X216222653Y-119085714D01*
X216182879Y-118885755D01*
X216104858Y-118697397D01*
X215991590Y-118527879D01*
X215947653Y-118483942D01*
X215947653Y-116849975D01*
X215951329Y-116812652D01*
X215947653Y-116775329D01*
X215947653Y-116775320D01*
X215936656Y-116663667D01*
X215931529Y-116646766D01*
X215998061Y-116660000D01*
X216201939Y-116660000D01*
X216401898Y-116620226D01*
X216590256Y-116542205D01*
X216759774Y-116428937D01*
X216789669Y-116399042D01*
X216765000Y-116523061D01*
X216765000Y-116726939D01*
X216804774Y-116926898D01*
X216882795Y-117115256D01*
X216996063Y-117284774D01*
X217140226Y-117428937D01*
X217309744Y-117542205D01*
X217498102Y-117620226D01*
X217698061Y-117660000D01*
X217760199Y-117660000D01*
X222490001Y-122389803D01*
X222490001Y-122496288D01*
X222446063Y-122540226D01*
X222332795Y-122709744D01*
X222254774Y-122898102D01*
X222215000Y-123098061D01*
X222215000Y-123301939D01*
X222254774Y-123501898D01*
X222332795Y-123690256D01*
X222446063Y-123859774D01*
X222590226Y-124003937D01*
X222759744Y-124117205D01*
X222948102Y-124195226D01*
X223148061Y-124235000D01*
X223351939Y-124235000D01*
X223551898Y-124195226D01*
X223740256Y-124117205D01*
X223909774Y-124003937D01*
X224053937Y-123859774D01*
X224167205Y-123690256D01*
X224245226Y-123501898D01*
X224285000Y-123301939D01*
X224285000Y-123098061D01*
X224245226Y-122898102D01*
X224167205Y-122709744D01*
X224053937Y-122540226D01*
X224010000Y-122496289D01*
X224010000Y-122112323D01*
X224013676Y-122075000D01*
X224010000Y-122037677D01*
X224010000Y-122037667D01*
X223999003Y-121926014D01*
X223955546Y-121782753D01*
X223928820Y-121732753D01*
X223884974Y-121650723D01*
X223813799Y-121563997D01*
X223790001Y-121534999D01*
X223761003Y-121511201D01*
X218835000Y-116585199D01*
X218835000Y-116523061D01*
X218795226Y-116323102D01*
X218717205Y-116134744D01*
X218603937Y-115965226D01*
X218560000Y-115921289D01*
X218560000Y-113789320D01*
X218563676Y-113751997D01*
X218560000Y-113714675D01*
X218560000Y-113714665D01*
X218549003Y-113603012D01*
X218505546Y-113459751D01*
X218466498Y-113386698D01*
X218434974Y-113327721D01*
X218363799Y-113240995D01*
X218340001Y-113211997D01*
X218311004Y-113188200D01*
X217940040Y-112817236D01*
X217988285Y-112785000D01*
X222454133Y-112785000D01*
X234325908Y-124656776D01*
X234354774Y-124801898D01*
X234432795Y-124990256D01*
X234546063Y-125159774D01*
X234690226Y-125303937D01*
X234859744Y-125417205D01*
X235048102Y-125495226D01*
X235193225Y-125524093D01*
X237177132Y-127508000D01*
X214630000Y-127508000D01*
X214605224Y-127510440D01*
X214581399Y-127517667D01*
X214559443Y-127529403D01*
X214540197Y-127545197D01*
X214524403Y-127564443D01*
X214512667Y-127586399D01*
X214505440Y-127610224D01*
X214503000Y-127635000D01*
X214503000Y-132804996D01*
X177715000Y-132804996D01*
X177715000Y-131039500D01*
X204840000Y-131039500D01*
X204840000Y-131389500D01*
X204888507Y-131627996D01*
X204982610Y-131852446D01*
X205118693Y-132054225D01*
X205291526Y-132225578D01*
X205494467Y-132359921D01*
X205719718Y-132452091D01*
X205757391Y-132455962D01*
X205948000Y-132331231D01*
X205948000Y-131039500D01*
X206202000Y-131039500D01*
X206202000Y-132331231D01*
X206392609Y-132455962D01*
X206430282Y-132452091D01*
X206655533Y-132359921D01*
X206858474Y-132225578D01*
X207031307Y-132054225D01*
X207167390Y-131852446D01*
X207261493Y-131627996D01*
X207310000Y-131389500D01*
X207310000Y-131039500D01*
X211840000Y-131039500D01*
X211840000Y-131389500D01*
X211888507Y-131627996D01*
X211982610Y-131852446D01*
X212118693Y-132054225D01*
X212291526Y-132225578D01*
X212494467Y-132359921D01*
X212719718Y-132452091D01*
X212757391Y-132455962D01*
X212948000Y-132331231D01*
X212948000Y-131039500D01*
X213202000Y-131039500D01*
X213202000Y-132331231D01*
X213392609Y-132455962D01*
X213430282Y-132452091D01*
X213655533Y-132359921D01*
X213858474Y-132225578D01*
X214031307Y-132054225D01*
X214167390Y-131852446D01*
X214261493Y-131627996D01*
X214310000Y-131389500D01*
X214310000Y-131039500D01*
X213202000Y-131039500D01*
X212948000Y-131039500D01*
X211840000Y-131039500D01*
X207310000Y-131039500D01*
X206202000Y-131039500D01*
X205948000Y-131039500D01*
X204840000Y-131039500D01*
X177715000Y-131039500D01*
X177715000Y-130435500D01*
X204840000Y-130435500D01*
X204840000Y-130785500D01*
X205948000Y-130785500D01*
X205948000Y-129493769D01*
X206202000Y-129493769D01*
X206202000Y-130785500D01*
X207310000Y-130785500D01*
X207310000Y-130435500D01*
X207261493Y-130197004D01*
X207167390Y-129972554D01*
X207031307Y-129770775D01*
X206858474Y-129599422D01*
X206763164Y-129536329D01*
X206880849Y-129565219D01*
X207148482Y-129577104D01*
X207413291Y-129536548D01*
X207665100Y-129445109D01*
X207772035Y-129387950D01*
X207834528Y-129151633D01*
X211315472Y-129151633D01*
X211377965Y-129387950D01*
X211620678Y-129501350D01*
X211880849Y-129565219D01*
X212148482Y-129577104D01*
X212378442Y-129541885D01*
X212291526Y-129599422D01*
X212118693Y-129770775D01*
X211982610Y-129972554D01*
X211888507Y-130197004D01*
X211840000Y-130435500D01*
X211840000Y-130785500D01*
X212948000Y-130785500D01*
X212948000Y-129493769D01*
X213202000Y-129493769D01*
X213202000Y-130785500D01*
X214310000Y-130785500D01*
X214310000Y-130435500D01*
X214261493Y-130197004D01*
X214167390Y-129972554D01*
X214031307Y-129770775D01*
X213858474Y-129599422D01*
X213655533Y-129465079D01*
X213430282Y-129372909D01*
X213392609Y-129369038D01*
X213202000Y-129493769D01*
X212948000Y-129493769D01*
X212774138Y-129379997D01*
X212834528Y-129151633D01*
X212075000Y-128392105D01*
X211315472Y-129151633D01*
X207834528Y-129151633D01*
X207075000Y-128392105D01*
X206315472Y-129151633D01*
X206375862Y-129379997D01*
X206202000Y-129493769D01*
X205948000Y-129493769D01*
X205757391Y-129369038D01*
X205719718Y-129372909D01*
X205494467Y-129465079D01*
X205291526Y-129599422D01*
X205118693Y-129770775D01*
X204982610Y-129972554D01*
X204888507Y-130197004D01*
X204840000Y-130435500D01*
X177715000Y-130435500D01*
X177715000Y-128285982D01*
X205710396Y-128285982D01*
X205750952Y-128550791D01*
X205842391Y-128802600D01*
X205899550Y-128909535D01*
X206135867Y-128972028D01*
X206895395Y-128212500D01*
X207254605Y-128212500D01*
X208014133Y-128972028D01*
X208250450Y-128909535D01*
X208363850Y-128666822D01*
X208427719Y-128406651D01*
X208433077Y-128285982D01*
X210710396Y-128285982D01*
X210750952Y-128550791D01*
X210842391Y-128802600D01*
X210899550Y-128909535D01*
X211135867Y-128972028D01*
X211895395Y-128212500D01*
X212254605Y-128212500D01*
X213014133Y-128972028D01*
X213250450Y-128909535D01*
X213363850Y-128666822D01*
X213427719Y-128406651D01*
X213439604Y-128139018D01*
X213399048Y-127874209D01*
X213307609Y-127622400D01*
X213250450Y-127515465D01*
X213014133Y-127452972D01*
X212254605Y-128212500D01*
X211895395Y-128212500D01*
X211135867Y-127452972D01*
X210899550Y-127515465D01*
X210786150Y-127758178D01*
X210722281Y-128018349D01*
X210710396Y-128285982D01*
X208433077Y-128285982D01*
X208439604Y-128139018D01*
X208399048Y-127874209D01*
X208307609Y-127622400D01*
X208250450Y-127515465D01*
X208014133Y-127452972D01*
X207254605Y-128212500D01*
X206895395Y-128212500D01*
X206135867Y-127452972D01*
X205899550Y-127515465D01*
X205786150Y-127758178D01*
X205722281Y-128018349D01*
X205710396Y-128285982D01*
X177715000Y-128285982D01*
X177715000Y-127273367D01*
X206315472Y-127273367D01*
X207075000Y-128032895D01*
X207834528Y-127273367D01*
X211315472Y-127273367D01*
X212075000Y-128032895D01*
X212834528Y-127273367D01*
X212772035Y-127037050D01*
X212529322Y-126923650D01*
X212269151Y-126859781D01*
X212001518Y-126847896D01*
X211736709Y-126888452D01*
X211484900Y-126979891D01*
X211377965Y-127037050D01*
X211315472Y-127273367D01*
X207834528Y-127273367D01*
X207772035Y-127037050D01*
X207529322Y-126923650D01*
X207269151Y-126859781D01*
X207001518Y-126847896D01*
X206736709Y-126888452D01*
X206484900Y-126979891D01*
X206377965Y-127037050D01*
X206315472Y-127273367D01*
X177715000Y-127273367D01*
X177715000Y-115312284D01*
X182945000Y-115312284D01*
X182945000Y-116067714D01*
X183092377Y-116808627D01*
X183381467Y-117506553D01*
X183801161Y-118134669D01*
X184335330Y-118668838D01*
X184963446Y-119088532D01*
X185661372Y-119377622D01*
X186402285Y-119524999D01*
X187157715Y-119524999D01*
X187898628Y-119377622D01*
X188596554Y-119088532D01*
X189224670Y-118668838D01*
X189758839Y-118134669D01*
X190178533Y-117506553D01*
X190467623Y-116808627D01*
X190615000Y-116067714D01*
X190615000Y-115312284D01*
X190467623Y-114571371D01*
X190178533Y-113873445D01*
X189758839Y-113245329D01*
X189224670Y-112711160D01*
X188596554Y-112291466D01*
X187898628Y-112002376D01*
X187157715Y-111854999D01*
X186402285Y-111854999D01*
X185661372Y-112002376D01*
X184963446Y-112291466D01*
X184335330Y-112711160D01*
X183801161Y-113245329D01*
X183381467Y-113873445D01*
X183092377Y-114571371D01*
X182945000Y-115312284D01*
X177715000Y-115312284D01*
X177715000Y-97409764D01*
X189829841Y-97409764D01*
X189877148Y-97633348D01*
X190098516Y-97734237D01*
X190335313Y-97790000D01*
X190578438Y-97798495D01*
X190818549Y-97759395D01*
X191046418Y-97674202D01*
X191122852Y-97633348D01*
X191170159Y-97409764D01*
X190500000Y-96739605D01*
X189829841Y-97409764D01*
X177715000Y-97409764D01*
X177715000Y-96638438D01*
X189261505Y-96638438D01*
X189300605Y-96878549D01*
X189385798Y-97106418D01*
X189426652Y-97182852D01*
X189650236Y-97230159D01*
X190320395Y-96560000D01*
X190679605Y-96560000D01*
X191349764Y-97230159D01*
X191573348Y-97182852D01*
X191674237Y-96961484D01*
X191730000Y-96724687D01*
X191738495Y-96481562D01*
X191731461Y-96438363D01*
X204505000Y-96438363D01*
X204505000Y-96681637D01*
X204552460Y-96920236D01*
X204645557Y-97144992D01*
X204780713Y-97347267D01*
X204952733Y-97519287D01*
X205155008Y-97654443D01*
X205379764Y-97747540D01*
X205618363Y-97795000D01*
X205861637Y-97795000D01*
X206100236Y-97747540D01*
X206324992Y-97654443D01*
X206527267Y-97519287D01*
X206699287Y-97347267D01*
X206834443Y-97144992D01*
X206927540Y-96920236D01*
X206975000Y-96681637D01*
X206975000Y-96438363D01*
X206927540Y-96199764D01*
X206834443Y-95975008D01*
X206699287Y-95772733D01*
X206527267Y-95600713D01*
X206324992Y-95465557D01*
X206100236Y-95372460D01*
X205861637Y-95325000D01*
X205618363Y-95325000D01*
X205379764Y-95372460D01*
X205155008Y-95465557D01*
X204952733Y-95600713D01*
X204780713Y-95772733D01*
X204645557Y-95975008D01*
X204552460Y-96199764D01*
X204505000Y-96438363D01*
X191731461Y-96438363D01*
X191699395Y-96241451D01*
X191614202Y-96013582D01*
X191573348Y-95937148D01*
X191349764Y-95889841D01*
X190679605Y-96560000D01*
X190320395Y-96560000D01*
X189650236Y-95889841D01*
X189426652Y-95937148D01*
X189325763Y-96158516D01*
X189270000Y-96395313D01*
X189261505Y-96638438D01*
X177715000Y-96638438D01*
X177715000Y-95710236D01*
X189829841Y-95710236D01*
X190500000Y-96380395D01*
X191170159Y-95710236D01*
X191122852Y-95486652D01*
X190901484Y-95385763D01*
X190664687Y-95330000D01*
X190421562Y-95321505D01*
X190181451Y-95360605D01*
X189953582Y-95445798D01*
X189877148Y-95486652D01*
X189829841Y-95710236D01*
X177715000Y-95710236D01*
X177715000Y-92837000D01*
X199390000Y-92837000D01*
X199414776Y-92834560D01*
X199438601Y-92827333D01*
X199460557Y-92815597D01*
X199478319Y-92801262D01*
X213526090Y-79206645D01*
X217015100Y-79206645D01*
X217015100Y-79509349D01*
X217074155Y-79806236D01*
X217189995Y-80085897D01*
X217358168Y-80337586D01*
X217572211Y-80551629D01*
X217823900Y-80719802D01*
X218103561Y-80835642D01*
X218400448Y-80894697D01*
X218703152Y-80894697D01*
X219000039Y-80835642D01*
X219279700Y-80719802D01*
X219531389Y-80551629D01*
X219745432Y-80337586D01*
X219913605Y-80085897D01*
X220029445Y-79806236D01*
X220088500Y-79509349D01*
X220088500Y-79206645D01*
X224615100Y-79206645D01*
X224615100Y-79509349D01*
X224674155Y-79806236D01*
X224789995Y-80085897D01*
X224958168Y-80337586D01*
X225172211Y-80551629D01*
X225423900Y-80719802D01*
X225703561Y-80835642D01*
X226000448Y-80894697D01*
X226303152Y-80894697D01*
X226600039Y-80835642D01*
X226879700Y-80719802D01*
X227131389Y-80551629D01*
X227345432Y-80337586D01*
X227513605Y-80085897D01*
X227629445Y-79806236D01*
X227688500Y-79509349D01*
X227688500Y-79206645D01*
X232015099Y-79206645D01*
X232015099Y-79509349D01*
X232074154Y-79806236D01*
X232189994Y-80085897D01*
X232358167Y-80337586D01*
X232572210Y-80551629D01*
X232823899Y-80719802D01*
X233103560Y-80835642D01*
X233400447Y-80894697D01*
X233703151Y-80894697D01*
X234000038Y-80835642D01*
X234279699Y-80719802D01*
X234531388Y-80551629D01*
X234745431Y-80337586D01*
X234913604Y-80085897D01*
X235029444Y-79806236D01*
X235088499Y-79509349D01*
X235088499Y-79206645D01*
X239615099Y-79206645D01*
X239615099Y-79509349D01*
X239674154Y-79806236D01*
X239789994Y-80085897D01*
X239958167Y-80337586D01*
X240172210Y-80551629D01*
X240423899Y-80719802D01*
X240703560Y-80835642D01*
X241000447Y-80894697D01*
X241303151Y-80894697D01*
X241600038Y-80835642D01*
X241879699Y-80719802D01*
X242131388Y-80551629D01*
X242345431Y-80337586D01*
X242513604Y-80085897D01*
X242629444Y-79806236D01*
X242688499Y-79509349D01*
X242688499Y-79206645D01*
X247015099Y-79206645D01*
X247015099Y-79509349D01*
X247074154Y-79806236D01*
X247189994Y-80085897D01*
X247358167Y-80337586D01*
X247572210Y-80551629D01*
X247823899Y-80719802D01*
X248103560Y-80835642D01*
X248400447Y-80894697D01*
X248703151Y-80894697D01*
X249000038Y-80835642D01*
X249279699Y-80719802D01*
X249531388Y-80551629D01*
X249745431Y-80337586D01*
X249913604Y-80085897D01*
X250029444Y-79806236D01*
X250088499Y-79509349D01*
X250088499Y-79206645D01*
X254615099Y-79206645D01*
X254615099Y-79509349D01*
X254674154Y-79806236D01*
X254789994Y-80085897D01*
X254958167Y-80337586D01*
X255172210Y-80551629D01*
X255423899Y-80719802D01*
X255703560Y-80835642D01*
X256000447Y-80894697D01*
X256303151Y-80894697D01*
X256600038Y-80835642D01*
X256879699Y-80719802D01*
X257131388Y-80551629D01*
X257345431Y-80337586D01*
X257513604Y-80085897D01*
X257629444Y-79806236D01*
X257688499Y-79509349D01*
X257688499Y-79206645D01*
X257629444Y-78909758D01*
X257513604Y-78630097D01*
X257345431Y-78378408D01*
X257131388Y-78164365D01*
X256879699Y-77996192D01*
X256600038Y-77880352D01*
X256303151Y-77821297D01*
X256000447Y-77821297D01*
X255703560Y-77880352D01*
X255423899Y-77996192D01*
X255172210Y-78164365D01*
X254958167Y-78378408D01*
X254789994Y-78630097D01*
X254674154Y-78909758D01*
X254615099Y-79206645D01*
X250088499Y-79206645D01*
X250029444Y-78909758D01*
X249913604Y-78630097D01*
X249745431Y-78378408D01*
X249531388Y-78164365D01*
X249279699Y-77996192D01*
X249000038Y-77880352D01*
X248703151Y-77821297D01*
X248400447Y-77821297D01*
X248103560Y-77880352D01*
X247823899Y-77996192D01*
X247572210Y-78164365D01*
X247358167Y-78378408D01*
X247189994Y-78630097D01*
X247074154Y-78909758D01*
X247015099Y-79206645D01*
X242688499Y-79206645D01*
X242629444Y-78909758D01*
X242513604Y-78630097D01*
X242345431Y-78378408D01*
X242131388Y-78164365D01*
X241879699Y-77996192D01*
X241600038Y-77880352D01*
X241303151Y-77821297D01*
X241000447Y-77821297D01*
X240703560Y-77880352D01*
X240423899Y-77996192D01*
X240172210Y-78164365D01*
X239958167Y-78378408D01*
X239789994Y-78630097D01*
X239674154Y-78909758D01*
X239615099Y-79206645D01*
X235088499Y-79206645D01*
X235029444Y-78909758D01*
X234913604Y-78630097D01*
X234745431Y-78378408D01*
X234531388Y-78164365D01*
X234279699Y-77996192D01*
X234000038Y-77880352D01*
X233703151Y-77821297D01*
X233400447Y-77821297D01*
X233103560Y-77880352D01*
X232823899Y-77996192D01*
X232572210Y-78164365D01*
X232358167Y-78378408D01*
X232189994Y-78630097D01*
X232074154Y-78909758D01*
X232015099Y-79206645D01*
X227688500Y-79206645D01*
X227629445Y-78909758D01*
X227513605Y-78630097D01*
X227345432Y-78378408D01*
X227131389Y-78164365D01*
X226879700Y-77996192D01*
X226600039Y-77880352D01*
X226303152Y-77821297D01*
X226000448Y-77821297D01*
X225703561Y-77880352D01*
X225423900Y-77996192D01*
X225172211Y-78164365D01*
X224958168Y-78378408D01*
X224789995Y-78630097D01*
X224674155Y-78909758D01*
X224615100Y-79206645D01*
X220088500Y-79206645D01*
X220029445Y-78909758D01*
X219913605Y-78630097D01*
X219745432Y-78378408D01*
X219531389Y-78164365D01*
X219279700Y-77996192D01*
X219000039Y-77880352D01*
X218703152Y-77821297D01*
X218400448Y-77821297D01*
X218103561Y-77880352D01*
X217823900Y-77996192D01*
X217572211Y-78164365D01*
X217358168Y-78378408D01*
X217189995Y-78630097D01*
X217074155Y-78909758D01*
X217015100Y-79206645D01*
X213526090Y-79206645D01*
X219126390Y-73787000D01*
X276344999Y-73787000D01*
X276345000Y-132804996D01*
X276345000Y-132804996D01*
G37*
X276345000Y-132804996D02*
X243332000Y-132804996D01*
X243332000Y-130110000D01*
X252786715Y-130110000D01*
X252909744Y-130192205D01*
X253098102Y-130270226D01*
X253298061Y-130310000D01*
X253501939Y-130310000D01*
X253701898Y-130270226D01*
X253890256Y-130192205D01*
X254059774Y-130078937D01*
X254203937Y-129934774D01*
X254317205Y-129765256D01*
X254395226Y-129576898D01*
X254435000Y-129376939D01*
X254435000Y-129173061D01*
X254395226Y-128973102D01*
X254317205Y-128784744D01*
X254203937Y-128615226D01*
X254059774Y-128471063D01*
X253890256Y-128357795D01*
X253701898Y-128279774D01*
X253501939Y-128240000D01*
X253298061Y-128240000D01*
X253098102Y-128279774D01*
X252909744Y-128357795D01*
X252786715Y-128440000D01*
X243332000Y-128440000D01*
X243332000Y-127635000D01*
X243329560Y-127610224D01*
X243322333Y-127586399D01*
X243310597Y-127564443D01*
X243294803Y-127545197D01*
X243275557Y-127529403D01*
X243253601Y-127517667D01*
X243229776Y-127510440D01*
X243205000Y-127508000D01*
X239538869Y-127508000D01*
X237857069Y-125826200D01*
X251343928Y-125826200D01*
X251356188Y-125950682D01*
X251392498Y-126070380D01*
X251451463Y-126180694D01*
X251530815Y-126277385D01*
X251627506Y-126356737D01*
X251737820Y-126415702D01*
X251857518Y-126452012D01*
X251982000Y-126464272D01*
X252546250Y-126461200D01*
X252705000Y-126302450D01*
X252705000Y-125103200D01*
X251505750Y-125103200D01*
X251347000Y-125261950D01*
X251343928Y-125826200D01*
X237857069Y-125826200D01*
X236374093Y-124343225D01*
X236345226Y-124198102D01*
X236315444Y-124126200D01*
X251343928Y-124126200D01*
X251347000Y-124690450D01*
X251505750Y-124849200D01*
X252705000Y-124849200D01*
X252705000Y-123649950D01*
X252959000Y-123649950D01*
X252959000Y-124849200D01*
X252979000Y-124849200D01*
X252979000Y-125103200D01*
X252959000Y-125103200D01*
X252959000Y-126302450D01*
X253117750Y-126461200D01*
X253682000Y-126464272D01*
X253806482Y-126452012D01*
X253926180Y-126415702D01*
X254036494Y-126356737D01*
X254133185Y-126277385D01*
X254212537Y-126180694D01*
X254271502Y-126070380D01*
X254292393Y-126001513D01*
X254316866Y-126031334D01*
X254542986Y-126216906D01*
X254800966Y-126354799D01*
X255080889Y-126439713D01*
X255299050Y-126461200D01*
X255444950Y-126461200D01*
X255663111Y-126439713D01*
X255943034Y-126354799D01*
X256201014Y-126216906D01*
X256427134Y-126031334D01*
X256612706Y-125805214D01*
X256642000Y-125750409D01*
X256671294Y-125805214D01*
X256856866Y-126031334D01*
X257082986Y-126216906D01*
X257340966Y-126354799D01*
X257620889Y-126439713D01*
X257839050Y-126461200D01*
X257984950Y-126461200D01*
X258203111Y-126439713D01*
X258483034Y-126354799D01*
X258741014Y-126216906D01*
X258967134Y-126031334D01*
X259152706Y-125805214D01*
X259182000Y-125750409D01*
X259211294Y-125805214D01*
X259396866Y-126031334D01*
X259622986Y-126216906D01*
X259880966Y-126354799D01*
X260160889Y-126439713D01*
X260379050Y-126461200D01*
X260524950Y-126461200D01*
X260743111Y-126439713D01*
X261023034Y-126354799D01*
X261281014Y-126216906D01*
X261507134Y-126031334D01*
X261692706Y-125805214D01*
X261830599Y-125547234D01*
X261915513Y-125267311D01*
X261944185Y-124976200D01*
X261915513Y-124685089D01*
X261830599Y-124405166D01*
X261692706Y-124147186D01*
X261507134Y-123921066D01*
X261281014Y-123735494D01*
X261023034Y-123597601D01*
X260743111Y-123512687D01*
X260524950Y-123491200D01*
X260379050Y-123491200D01*
X260160889Y-123512687D01*
X259880966Y-123597601D01*
X259622986Y-123735494D01*
X259396866Y-123921066D01*
X259211294Y-124147186D01*
X259182000Y-124201991D01*
X259152706Y-124147186D01*
X258967134Y-123921066D01*
X258741014Y-123735494D01*
X258483034Y-123597601D01*
X258203111Y-123512687D01*
X257984950Y-123491200D01*
X257839050Y-123491200D01*
X257620889Y-123512687D01*
X257340966Y-123597601D01*
X257082986Y-123735494D01*
X256856866Y-123921066D01*
X256671294Y-124147186D01*
X256642000Y-124201991D01*
X256612706Y-124147186D01*
X256427134Y-123921066D01*
X256201014Y-123735494D01*
X255943034Y-123597601D01*
X255663111Y-123512687D01*
X255444950Y-123491200D01*
X255299050Y-123491200D01*
X255080889Y-123512687D01*
X254800966Y-123597601D01*
X254542986Y-123735494D01*
X254316866Y-123921066D01*
X254292393Y-123950887D01*
X254271502Y-123882020D01*
X254212537Y-123771706D01*
X254133185Y-123675015D01*
X254036494Y-123595663D01*
X253926180Y-123536698D01*
X253806482Y-123500388D01*
X253682000Y-123488128D01*
X253117750Y-123491200D01*
X252959000Y-123649950D01*
X252705000Y-123649950D01*
X252546250Y-123491200D01*
X251982000Y-123488128D01*
X251857518Y-123500388D01*
X251737820Y-123536698D01*
X251627506Y-123595663D01*
X251530815Y-123675015D01*
X251451463Y-123771706D01*
X251392498Y-123882020D01*
X251356188Y-124001718D01*
X251343928Y-124126200D01*
X236315444Y-124126200D01*
X236267205Y-124009744D01*
X236153937Y-123840226D01*
X236009774Y-123696063D01*
X235840256Y-123582795D01*
X235651898Y-123504774D01*
X235506776Y-123475908D01*
X232782068Y-120751200D01*
X251343928Y-120751200D01*
X251356188Y-120875682D01*
X251392498Y-120995380D01*
X251451463Y-121105694D01*
X251530815Y-121202385D01*
X251627506Y-121281737D01*
X251737820Y-121340702D01*
X251857518Y-121377012D01*
X251982000Y-121389272D01*
X252546250Y-121386200D01*
X252705000Y-121227450D01*
X252705000Y-120028200D01*
X251505750Y-120028200D01*
X251347000Y-120186950D01*
X251343928Y-120751200D01*
X232782068Y-120751200D01*
X231082068Y-119051200D01*
X251343928Y-119051200D01*
X251347000Y-119615450D01*
X251505750Y-119774200D01*
X252705000Y-119774200D01*
X252705000Y-118574950D01*
X252959000Y-118574950D01*
X252959000Y-119774200D01*
X252979000Y-119774200D01*
X252979000Y-120028200D01*
X252959000Y-120028200D01*
X252959000Y-121227450D01*
X253117750Y-121386200D01*
X253682000Y-121389272D01*
X253806482Y-121377012D01*
X253926180Y-121340702D01*
X254036494Y-121281737D01*
X254133185Y-121202385D01*
X254212537Y-121105694D01*
X254271502Y-120995380D01*
X254292393Y-120926513D01*
X254316866Y-120956334D01*
X254542986Y-121141906D01*
X254800966Y-121279799D01*
X255080889Y-121364713D01*
X255299050Y-121386200D01*
X255444950Y-121386200D01*
X255663111Y-121364713D01*
X255943034Y-121279799D01*
X256201014Y-121141906D01*
X256427134Y-120956334D01*
X256612706Y-120730214D01*
X256642000Y-120675409D01*
X256671294Y-120730214D01*
X256856866Y-120956334D01*
X257082986Y-121141906D01*
X257340966Y-121279799D01*
X257620889Y-121364713D01*
X257839050Y-121386200D01*
X257984950Y-121386200D01*
X258203111Y-121364713D01*
X258483034Y-121279799D01*
X258741014Y-121141906D01*
X258967134Y-120956334D01*
X259152706Y-120730214D01*
X259182000Y-120675409D01*
X259211294Y-120730214D01*
X259396866Y-120956334D01*
X259622986Y-121141906D01*
X259880966Y-121279799D01*
X260160889Y-121364713D01*
X260379050Y-121386200D01*
X260524950Y-121386200D01*
X260743111Y-121364713D01*
X261023034Y-121279799D01*
X261281014Y-121141906D01*
X261507134Y-120956334D01*
X261692706Y-120730214D01*
X261830599Y-120472234D01*
X261915513Y-120192311D01*
X261944185Y-119901200D01*
X261915513Y-119610089D01*
X261830599Y-119330166D01*
X261692706Y-119072186D01*
X261507134Y-118846066D01*
X261281014Y-118660494D01*
X261023034Y-118522601D01*
X260743111Y-118437687D01*
X260524950Y-118416200D01*
X260379050Y-118416200D01*
X260160889Y-118437687D01*
X259880966Y-118522601D01*
X259622986Y-118660494D01*
X259396866Y-118846066D01*
X259211294Y-119072186D01*
X259182000Y-119126991D01*
X259152706Y-119072186D01*
X258967134Y-118846066D01*
X258741014Y-118660494D01*
X258483034Y-118522601D01*
X258203111Y-118437687D01*
X257984950Y-118416200D01*
X257839050Y-118416200D01*
X257620889Y-118437687D01*
X257340966Y-118522601D01*
X257082986Y-118660494D01*
X256856866Y-118846066D01*
X256671294Y-119072186D01*
X256642000Y-119126991D01*
X256612706Y-119072186D01*
X256427134Y-118846066D01*
X256201014Y-118660494D01*
X255943034Y-118522601D01*
X255663111Y-118437687D01*
X255444950Y-118416200D01*
X255299050Y-118416200D01*
X255080889Y-118437687D01*
X254800966Y-118522601D01*
X254542986Y-118660494D01*
X254316866Y-118846066D01*
X254292393Y-118875887D01*
X254271502Y-118807020D01*
X254212537Y-118696706D01*
X254133185Y-118600015D01*
X254036494Y-118520663D01*
X253926180Y-118461698D01*
X253806482Y-118425388D01*
X253682000Y-118413128D01*
X253117750Y-118416200D01*
X252959000Y-118574950D01*
X252705000Y-118574950D01*
X252546250Y-118416200D01*
X251982000Y-118413128D01*
X251857518Y-118425388D01*
X251737820Y-118461698D01*
X251627506Y-118520663D01*
X251530815Y-118600015D01*
X251451463Y-118696706D01*
X251392498Y-118807020D01*
X251356188Y-118926718D01*
X251343928Y-119051200D01*
X231082068Y-119051200D01*
X227707068Y-115676200D01*
X251343928Y-115676200D01*
X251356188Y-115800682D01*
X251392498Y-115920380D01*
X251451463Y-116030694D01*
X251530815Y-116127385D01*
X251627506Y-116206737D01*
X251737820Y-116265702D01*
X251857518Y-116302012D01*
X251982000Y-116314272D01*
X252546250Y-116311200D01*
X252705000Y-116152450D01*
X252705000Y-114953200D01*
X251505750Y-114953200D01*
X251347000Y-115111950D01*
X251343928Y-115676200D01*
X227707068Y-115676200D01*
X226007068Y-113976200D01*
X251343928Y-113976200D01*
X251347000Y-114540450D01*
X251505750Y-114699200D01*
X252705000Y-114699200D01*
X252705000Y-113499950D01*
X252959000Y-113499950D01*
X252959000Y-114699200D01*
X252979000Y-114699200D01*
X252979000Y-114953200D01*
X252959000Y-114953200D01*
X252959000Y-116152450D01*
X253117750Y-116311200D01*
X253682000Y-116314272D01*
X253806482Y-116302012D01*
X253926180Y-116265702D01*
X254036494Y-116206737D01*
X254133185Y-116127385D01*
X254212537Y-116030694D01*
X254271502Y-115920380D01*
X254292393Y-115851513D01*
X254316866Y-115881334D01*
X254542986Y-116066906D01*
X254800966Y-116204799D01*
X255080889Y-116289713D01*
X255299050Y-116311200D01*
X255444950Y-116311200D01*
X255663111Y-116289713D01*
X255943034Y-116204799D01*
X256201014Y-116066906D01*
X256427134Y-115881334D01*
X256612706Y-115655214D01*
X256642000Y-115600409D01*
X256671294Y-115655214D01*
X256856866Y-115881334D01*
X257082986Y-116066906D01*
X257340966Y-116204799D01*
X257620889Y-116289713D01*
X257839050Y-116311200D01*
X257984950Y-116311200D01*
X258203111Y-116289713D01*
X258483034Y-116204799D01*
X258741014Y-116066906D01*
X258967134Y-115881334D01*
X259152706Y-115655214D01*
X259182000Y-115600409D01*
X259211294Y-115655214D01*
X259396866Y-115881334D01*
X259622986Y-116066906D01*
X259880966Y-116204799D01*
X260160889Y-116289713D01*
X260379050Y-116311200D01*
X260524950Y-116311200D01*
X260743111Y-116289713D01*
X261023034Y-116204799D01*
X261281014Y-116066906D01*
X261507134Y-115881334D01*
X261692706Y-115655214D01*
X261830599Y-115397234D01*
X261856368Y-115312284D01*
X263444999Y-115312284D01*
X263444999Y-116067714D01*
X263592376Y-116808627D01*
X263881466Y-117506553D01*
X264301160Y-118134669D01*
X264835329Y-118668838D01*
X265463445Y-119088532D01*
X266161371Y-119377622D01*
X266902284Y-119524999D01*
X267657714Y-119524999D01*
X268398627Y-119377622D01*
X269096553Y-119088532D01*
X269724669Y-118668838D01*
X270258838Y-118134669D01*
X270678532Y-117506553D01*
X270967622Y-116808627D01*
X271114999Y-116067714D01*
X271114999Y-115312284D01*
X270967622Y-114571371D01*
X270678532Y-113873445D01*
X270258838Y-113245329D01*
X269724669Y-112711160D01*
X269096553Y-112291466D01*
X268398627Y-112002376D01*
X267657714Y-111854999D01*
X266902284Y-111854999D01*
X266161371Y-112002376D01*
X265463445Y-112291466D01*
X264835329Y-112711160D01*
X264301160Y-113245329D01*
X263881466Y-113873445D01*
X263592376Y-114571371D01*
X263444999Y-115312284D01*
X261856368Y-115312284D01*
X261915513Y-115117311D01*
X261944185Y-114826200D01*
X261915513Y-114535089D01*
X261830599Y-114255166D01*
X261692706Y-113997186D01*
X261507134Y-113771066D01*
X261281014Y-113585494D01*
X261023034Y-113447601D01*
X260743111Y-113362687D01*
X260524950Y-113341200D01*
X260379050Y-113341200D01*
X260160889Y-113362687D01*
X259880966Y-113447601D01*
X259622986Y-113585494D01*
X259396866Y-113771066D01*
X259211294Y-113997186D01*
X259182000Y-114051991D01*
X259152706Y-113997186D01*
X258967134Y-113771066D01*
X258741014Y-113585494D01*
X258483034Y-113447601D01*
X258203111Y-113362687D01*
X257984950Y-113341200D01*
X257839050Y-113341200D01*
X257620889Y-113362687D01*
X257340966Y-113447601D01*
X257082986Y-113585494D01*
X256856866Y-113771066D01*
X256671294Y-113997186D01*
X256642000Y-114051991D01*
X256612706Y-113997186D01*
X256427134Y-113771066D01*
X256201014Y-113585494D01*
X255943034Y-113447601D01*
X255883754Y-113429619D01*
X255884774Y-113428937D01*
X256028937Y-113284774D01*
X256142205Y-113115256D01*
X256220226Y-112926898D01*
X256260000Y-112726939D01*
X256260000Y-112523061D01*
X256220226Y-112323102D01*
X256142205Y-112134744D01*
X256060000Y-112011715D01*
X256060000Y-109661667D01*
X257202550Y-108519117D01*
X262405000Y-108519117D01*
X262405000Y-108860883D01*
X262471675Y-109196081D01*
X262602463Y-109511831D01*
X262792337Y-109795998D01*
X263034002Y-110037663D01*
X263318169Y-110227537D01*
X263633919Y-110358325D01*
X263969117Y-110425000D01*
X264310883Y-110425000D01*
X264646081Y-110358325D01*
X264961831Y-110227537D01*
X265245998Y-110037663D01*
X265487663Y-109795998D01*
X265677537Y-109511831D01*
X265808325Y-109196081D01*
X265875000Y-108860883D01*
X265875000Y-108519117D01*
X265862266Y-108455098D01*
X266765000Y-108455098D01*
X266765000Y-108924902D01*
X266856654Y-109385679D01*
X267036440Y-109819721D01*
X267297450Y-110210349D01*
X267629651Y-110542550D01*
X268020279Y-110803560D01*
X268454321Y-110983346D01*
X268915098Y-111075000D01*
X269384902Y-111075000D01*
X269845679Y-110983346D01*
X270279721Y-110803560D01*
X270670349Y-110542550D01*
X271002550Y-110210349D01*
X271263560Y-109819721D01*
X271443346Y-109385679D01*
X271535000Y-108924902D01*
X271535000Y-108455098D01*
X271443346Y-107994321D01*
X271263560Y-107560279D01*
X271002550Y-107169651D01*
X270670349Y-106837450D01*
X270279721Y-106576440D01*
X269845679Y-106396654D01*
X269384902Y-106305000D01*
X268915098Y-106305000D01*
X268454321Y-106396654D01*
X268020279Y-106576440D01*
X267629651Y-106837450D01*
X267297450Y-107169651D01*
X267036440Y-107560279D01*
X266856654Y-107994321D01*
X266765000Y-108455098D01*
X265862266Y-108455098D01*
X265808325Y-108183919D01*
X265677537Y-107868169D01*
X265487663Y-107584002D01*
X265245998Y-107342337D01*
X264961831Y-107152463D01*
X264646081Y-107021675D01*
X264310883Y-106955000D01*
X263969117Y-106955000D01*
X263633919Y-107021675D01*
X263318169Y-107152463D01*
X263034002Y-107342337D01*
X262792337Y-107584002D01*
X262602463Y-107868169D01*
X262471675Y-108183919D01*
X262405000Y-108519117D01*
X257202550Y-108519117D01*
X259978925Y-105742744D01*
X259915000Y-106064117D01*
X259915000Y-106405883D01*
X259981675Y-106741081D01*
X260112463Y-107056831D01*
X260302337Y-107340998D01*
X260544002Y-107582663D01*
X260828169Y-107772537D01*
X261143919Y-107903325D01*
X261479117Y-107970000D01*
X261820883Y-107970000D01*
X262156081Y-107903325D01*
X262471831Y-107772537D01*
X262755998Y-107582663D01*
X262997663Y-107340998D01*
X263187537Y-107056831D01*
X263318325Y-106741081D01*
X263385000Y-106405883D01*
X263385000Y-106064117D01*
X263318325Y-105728919D01*
X263187537Y-105413169D01*
X262997663Y-105129002D01*
X262755998Y-104887337D01*
X262471831Y-104697463D01*
X262156081Y-104566675D01*
X261820883Y-104500000D01*
X261479117Y-104500000D01*
X261143919Y-104566675D01*
X260988254Y-104631154D01*
X261028314Y-104499093D01*
X261040396Y-104376423D01*
X261040396Y-104376422D01*
X261044436Y-104335404D01*
X261040396Y-104294386D01*
X261040396Y-101014117D01*
X262405000Y-101014117D01*
X262405000Y-101355883D01*
X262471675Y-101691081D01*
X262602463Y-102006831D01*
X262792337Y-102290998D01*
X263034002Y-102532663D01*
X263318169Y-102722537D01*
X263633919Y-102853325D01*
X263969117Y-102920000D01*
X264310883Y-102920000D01*
X264646081Y-102853325D01*
X264961831Y-102722537D01*
X265245998Y-102532663D01*
X265487663Y-102290998D01*
X265497817Y-102275800D01*
X267117328Y-102275800D01*
X267117328Y-105275800D01*
X267129588Y-105400282D01*
X267165898Y-105519980D01*
X267224863Y-105630294D01*
X267304215Y-105726985D01*
X267400906Y-105806337D01*
X267511220Y-105865302D01*
X267630918Y-105901612D01*
X267755400Y-105913872D01*
X270755400Y-105913872D01*
X270879882Y-105901612D01*
X270999580Y-105865302D01*
X271109894Y-105806337D01*
X271206585Y-105726985D01*
X271285937Y-105630294D01*
X271344902Y-105519980D01*
X271381212Y-105400282D01*
X271393472Y-105275800D01*
X271393472Y-104891712D01*
X273122893Y-104891712D01*
X273230726Y-105166338D01*
X273537384Y-105317216D01*
X273867585Y-105405369D01*
X274208639Y-105427409D01*
X274547439Y-105382489D01*
X274870966Y-105272336D01*
X275069274Y-105166338D01*
X275177107Y-104891712D01*
X274150000Y-103864605D01*
X273122893Y-104891712D01*
X271393472Y-104891712D01*
X271393472Y-103743639D01*
X272407591Y-103743639D01*
X272452511Y-104082439D01*
X272562664Y-104405966D01*
X272668662Y-104604274D01*
X272943288Y-104712107D01*
X273970395Y-103685000D01*
X274329605Y-103685000D01*
X275356712Y-104712107D01*
X275631338Y-104604274D01*
X275782216Y-104297616D01*
X275870369Y-103967415D01*
X275892409Y-103626361D01*
X275847489Y-103287561D01*
X275737336Y-102964034D01*
X275631338Y-102765726D01*
X275356712Y-102657893D01*
X274329605Y-103685000D01*
X273970395Y-103685000D01*
X272943288Y-102657893D01*
X272668662Y-102765726D01*
X272517784Y-103072384D01*
X272429631Y-103402585D01*
X272407591Y-103743639D01*
X271393472Y-103743639D01*
X271393472Y-102478288D01*
X273122893Y-102478288D01*
X274150000Y-103505395D01*
X275177107Y-102478288D01*
X275069274Y-102203662D01*
X274762616Y-102052784D01*
X274432415Y-101964631D01*
X274091361Y-101942591D01*
X273752561Y-101987511D01*
X273429034Y-102097664D01*
X273230726Y-102203662D01*
X273122893Y-102478288D01*
X271393472Y-102478288D01*
X271393472Y-102275800D01*
X271381212Y-102151318D01*
X271344902Y-102031620D01*
X271285937Y-101921306D01*
X271206585Y-101824615D01*
X271109894Y-101745263D01*
X270999580Y-101686298D01*
X270879882Y-101649988D01*
X270755400Y-101637728D01*
X267755400Y-101637728D01*
X267630918Y-101649988D01*
X267511220Y-101686298D01*
X267400906Y-101745263D01*
X267304215Y-101824615D01*
X267224863Y-101921306D01*
X267165898Y-102031620D01*
X267129588Y-102151318D01*
X267117328Y-102275800D01*
X265497817Y-102275800D01*
X265677537Y-102006831D01*
X265808325Y-101691081D01*
X265875000Y-101355883D01*
X265875000Y-101014117D01*
X265808325Y-100678919D01*
X265677537Y-100363169D01*
X265487663Y-100079002D01*
X265245998Y-99837337D01*
X264961831Y-99647463D01*
X264646081Y-99516675D01*
X264310883Y-99450000D01*
X263969117Y-99450000D01*
X263633919Y-99516675D01*
X263318169Y-99647463D01*
X263034002Y-99837337D01*
X262792337Y-100079002D01*
X262602463Y-100363169D01*
X262471675Y-100678919D01*
X262405000Y-101014117D01*
X261040396Y-101014117D01*
X261040396Y-100138285D01*
X261122601Y-100015256D01*
X261200622Y-99826898D01*
X261240396Y-99626939D01*
X261240396Y-99423061D01*
X261200622Y-99223102D01*
X261122601Y-99034744D01*
X261009333Y-98865226D01*
X260865170Y-98721063D01*
X260695652Y-98607795D01*
X260507294Y-98529774D01*
X260307335Y-98490000D01*
X260103457Y-98490000D01*
X259903498Y-98529774D01*
X259715140Y-98607795D01*
X259545622Y-98721063D01*
X259401459Y-98865226D01*
X259288191Y-99034744D01*
X259210170Y-99223102D01*
X259170396Y-99423061D01*
X259170396Y-99626939D01*
X259210170Y-99826898D01*
X259288191Y-100015256D01*
X259370397Y-100138286D01*
X259370396Y-103989535D01*
X254663574Y-108696359D01*
X254631710Y-108722509D01*
X254582915Y-108781966D01*
X254527364Y-108849655D01*
X254449828Y-108994714D01*
X254402082Y-109152112D01*
X254385960Y-109315800D01*
X254390001Y-109356828D01*
X254390000Y-112011715D01*
X254307795Y-112134744D01*
X254229774Y-112323102D01*
X254190000Y-112523061D01*
X254190000Y-112726939D01*
X254229774Y-112926898D01*
X254307795Y-113115256D01*
X254421063Y-113284774D01*
X254565226Y-113428937D01*
X254685515Y-113509311D01*
X254542986Y-113585494D01*
X254316866Y-113771066D01*
X254292393Y-113800887D01*
X254271502Y-113732020D01*
X254212537Y-113621706D01*
X254133185Y-113525015D01*
X254036494Y-113445663D01*
X253926180Y-113386698D01*
X253806482Y-113350388D01*
X253682000Y-113338128D01*
X253117750Y-113341200D01*
X252959000Y-113499950D01*
X252705000Y-113499950D01*
X252546250Y-113341200D01*
X251982000Y-113338128D01*
X251857518Y-113350388D01*
X251737820Y-113386698D01*
X251627506Y-113445663D01*
X251530815Y-113525015D01*
X251451463Y-113621706D01*
X251392498Y-113732020D01*
X251356188Y-113851718D01*
X251343928Y-113976200D01*
X226007068Y-113976200D01*
X223419446Y-111388579D01*
X223393291Y-111356709D01*
X223266146Y-111252364D01*
X223121087Y-111174828D01*
X222963689Y-111127082D01*
X222841019Y-111115000D01*
X222841018Y-111115000D01*
X222800000Y-111110960D01*
X222758982Y-111115000D01*
X219390868Y-111115000D01*
X223268633Y-107237236D01*
X223300491Y-107211091D01*
X223404836Y-107083946D01*
X223482372Y-106938887D01*
X223530118Y-106781489D01*
X223542200Y-106658819D01*
X223542200Y-106658818D01*
X223546240Y-106617800D01*
X223542200Y-106576782D01*
X223542200Y-106429685D01*
X223624405Y-106306656D01*
X223702426Y-106118298D01*
X223742200Y-105918339D01*
X223742200Y-105714461D01*
X223702426Y-105514502D01*
X223624405Y-105326144D01*
X223511137Y-105156626D01*
X223366974Y-105012463D01*
X223197456Y-104899195D01*
X223009098Y-104821174D01*
X222809139Y-104781400D01*
X222605261Y-104781400D01*
X222405302Y-104821174D01*
X222216944Y-104899195D01*
X222047426Y-105012463D01*
X221903263Y-105156626D01*
X221789995Y-105326144D01*
X221711974Y-105514502D01*
X221672200Y-105714461D01*
X221672200Y-105918339D01*
X221711974Y-106118298D01*
X221789995Y-106306656D01*
X221809013Y-106335118D01*
X219426120Y-108718012D01*
X219336010Y-108583153D01*
X219191847Y-108438990D01*
X219022329Y-108325722D01*
X218833971Y-108247701D01*
X218634012Y-108207927D01*
X218571875Y-108207927D01*
X217693899Y-107329952D01*
X217693899Y-101895172D01*
X218986100Y-101895172D01*
X219110582Y-101882912D01*
X219230280Y-101846602D01*
X219340594Y-101787637D01*
X219437285Y-101708285D01*
X219516637Y-101611594D01*
X219575602Y-101501280D01*
X219611912Y-101381582D01*
X219624172Y-101257100D01*
X219624172Y-99529900D01*
X219611912Y-99405418D01*
X219575602Y-99285720D01*
X219516637Y-99175406D01*
X219437285Y-99078715D01*
X219340594Y-98999363D01*
X219230280Y-98940398D01*
X219179235Y-98924914D01*
X219187297Y-98918297D01*
X219374569Y-98690106D01*
X219513725Y-98429764D01*
X219521211Y-98405085D01*
X228805202Y-107689076D01*
X228805201Y-109329088D01*
X228761264Y-109373025D01*
X228647996Y-109542543D01*
X228569975Y-109730901D01*
X228530201Y-109930860D01*
X228530201Y-110134738D01*
X228569975Y-110334697D01*
X228647996Y-110523055D01*
X228761264Y-110692573D01*
X228905427Y-110836736D01*
X229074945Y-110950004D01*
X229263303Y-111028025D01*
X229463262Y-111067799D01*
X229667140Y-111067799D01*
X229824742Y-111036450D01*
X229846831Y-111147498D01*
X229924852Y-111335856D01*
X230038120Y-111505374D01*
X230182283Y-111649537D01*
X230351801Y-111762805D01*
X230540159Y-111840826D01*
X230740118Y-111880600D01*
X230943996Y-111880600D01*
X231143955Y-111840826D01*
X231332313Y-111762805D01*
X231501831Y-111649537D01*
X231645994Y-111505374D01*
X231759262Y-111335856D01*
X231837283Y-111147498D01*
X231877057Y-110947539D01*
X231877057Y-110743661D01*
X231837283Y-110543702D01*
X231759262Y-110355344D01*
X231645994Y-110185826D01*
X231602057Y-110141889D01*
X231602057Y-107435379D01*
X231605733Y-107398056D01*
X231602057Y-107360733D01*
X231602057Y-107360724D01*
X231591060Y-107249071D01*
X231547603Y-107105810D01*
X231477031Y-106973781D01*
X231448394Y-106938887D01*
X231405856Y-106887053D01*
X231405852Y-106887049D01*
X231382058Y-106858056D01*
X231353067Y-106834264D01*
X219606069Y-95087268D01*
X219599416Y-95019723D01*
X219513725Y-94737236D01*
X219374569Y-94476894D01*
X219187297Y-94248703D01*
X218959106Y-94061431D01*
X218925560Y-94043500D01*
X218959106Y-94025569D01*
X219187297Y-93838297D01*
X219374569Y-93610106D01*
X219513725Y-93349764D01*
X219599416Y-93067277D01*
X219628351Y-92773500D01*
X219599416Y-92479723D01*
X219513725Y-92197236D01*
X219374569Y-91936894D01*
X219187297Y-91708703D01*
X218959106Y-91521431D01*
X218914590Y-91497637D01*
X219010988Y-91440317D01*
X219229354Y-91243793D01*
X219405184Y-91008444D01*
X219531722Y-90743314D01*
X219577458Y-90592526D01*
X219456317Y-90360500D01*
X218249500Y-90360500D01*
X218249500Y-90380500D01*
X217995500Y-90380500D01*
X217995500Y-90360500D01*
X217975500Y-90360500D01*
X217975500Y-90106500D01*
X217995500Y-90106500D01*
X217995500Y-88899036D01*
X218249500Y-88899036D01*
X218249500Y-90106500D01*
X219456317Y-90106500D01*
X219577458Y-89874474D01*
X219531722Y-89723686D01*
X219453630Y-89560061D01*
X225787000Y-89560061D01*
X225787000Y-89763939D01*
X225826774Y-89963898D01*
X225904795Y-90152256D01*
X226018063Y-90321774D01*
X226162226Y-90465937D01*
X226331744Y-90579205D01*
X226520102Y-90657226D01*
X226720061Y-90697000D01*
X226923939Y-90697000D01*
X227123898Y-90657226D01*
X227312256Y-90579205D01*
X227481774Y-90465937D01*
X227525711Y-90422000D01*
X236413199Y-90422000D01*
X239727200Y-93736002D01*
X239727201Y-102627646D01*
X239573139Y-102597002D01*
X239369261Y-102597002D01*
X239169302Y-102636776D01*
X238980944Y-102714797D01*
X238811426Y-102828065D01*
X238767489Y-102872002D01*
X233672513Y-102872002D01*
X233628574Y-102828063D01*
X233459056Y-102714795D01*
X233270698Y-102636774D01*
X233070739Y-102597000D01*
X232866861Y-102597000D01*
X232666902Y-102636774D01*
X232478544Y-102714795D01*
X232309026Y-102828063D01*
X232164863Y-102972226D01*
X232051595Y-103141744D01*
X231973574Y-103330102D01*
X231933800Y-103530061D01*
X231933800Y-103733939D01*
X231973574Y-103933898D01*
X232051595Y-104122256D01*
X232164863Y-104291774D01*
X232309026Y-104435937D01*
X232478544Y-104549205D01*
X232666902Y-104627226D01*
X232866861Y-104667000D01*
X233070739Y-104667000D01*
X233270698Y-104627226D01*
X233459056Y-104549205D01*
X233628574Y-104435937D01*
X233672509Y-104392002D01*
X234147586Y-104392002D01*
X234134395Y-104411744D01*
X234056374Y-104600102D01*
X234016600Y-104800061D01*
X234016600Y-105003939D01*
X234056374Y-105203898D01*
X234134395Y-105392256D01*
X234247663Y-105561774D01*
X234291603Y-105605714D01*
X234291602Y-111564289D01*
X234247665Y-111608226D01*
X234134397Y-111777744D01*
X234056376Y-111966102D01*
X234016602Y-112166061D01*
X234016602Y-112369939D01*
X234056376Y-112569898D01*
X234134397Y-112758256D01*
X234247665Y-112927774D01*
X234391828Y-113071937D01*
X234561346Y-113185205D01*
X234749704Y-113263226D01*
X234949663Y-113303000D01*
X235153541Y-113303000D01*
X235353500Y-113263226D01*
X235541858Y-113185205D01*
X235711376Y-113071937D01*
X235855539Y-112927774D01*
X235968807Y-112758256D01*
X236046828Y-112569898D01*
X236086602Y-112369939D01*
X236086602Y-112166061D01*
X236046828Y-111966102D01*
X235968807Y-111777744D01*
X235855539Y-111608226D01*
X235811602Y-111564289D01*
X235811602Y-105605709D01*
X235855537Y-105561774D01*
X235968805Y-105392256D01*
X236046826Y-105203898D01*
X236086600Y-105003939D01*
X236086600Y-104800061D01*
X236046826Y-104600102D01*
X235968805Y-104411744D01*
X235955614Y-104392002D01*
X238767489Y-104392002D01*
X238811426Y-104435939D01*
X238980944Y-104549207D01*
X239169302Y-104627228D01*
X239369261Y-104667002D01*
X239573139Y-104667002D01*
X239727201Y-104636357D01*
X239727201Y-110378397D01*
X239431399Y-110674200D01*
X239369261Y-110674200D01*
X239169302Y-110713974D01*
X238980944Y-110791995D01*
X238811426Y-110905263D01*
X238667263Y-111049426D01*
X238553995Y-111218944D01*
X238475974Y-111407302D01*
X238436200Y-111607261D01*
X238436200Y-111811139D01*
X238475974Y-112011098D01*
X238553995Y-112199456D01*
X238667263Y-112368974D01*
X238811426Y-112513137D01*
X238980944Y-112626405D01*
X239169302Y-112704426D01*
X239369261Y-112744200D01*
X239573139Y-112744200D01*
X239773098Y-112704426D01*
X239961456Y-112626405D01*
X240130974Y-112513137D01*
X240275137Y-112368974D01*
X240292428Y-112343096D01*
X240343663Y-112419774D01*
X240487826Y-112563937D01*
X240657344Y-112677205D01*
X240845702Y-112755226D01*
X241045661Y-112795000D01*
X241189773Y-112795000D01*
X241195595Y-112809056D01*
X241308863Y-112978574D01*
X241453026Y-113122737D01*
X241622544Y-113236005D01*
X241810902Y-113314026D01*
X242010861Y-113353800D01*
X242214739Y-113353800D01*
X242414698Y-113314026D01*
X242603056Y-113236005D01*
X242772574Y-113122737D01*
X242916737Y-112978574D01*
X243030005Y-112809056D01*
X243108026Y-112620698D01*
X243147800Y-112420739D01*
X243147800Y-112216861D01*
X243108026Y-112016902D01*
X243030005Y-111828544D01*
X242916737Y-111659026D01*
X242872800Y-111615089D01*
X242872800Y-108319558D01*
X242922795Y-108440256D01*
X243036063Y-108609774D01*
X243180226Y-108753937D01*
X243349744Y-108867205D01*
X243538102Y-108945226D01*
X243738061Y-108985000D01*
X243941939Y-108985000D01*
X244141898Y-108945226D01*
X244330256Y-108867205D01*
X244499774Y-108753937D01*
X244643937Y-108609774D01*
X244757205Y-108440256D01*
X244835226Y-108251898D01*
X244864093Y-108106774D01*
X254485346Y-98485521D01*
X267120400Y-98485521D01*
X267120400Y-98906079D01*
X267202447Y-99318556D01*
X267363388Y-99707102D01*
X267597037Y-100056783D01*
X267894417Y-100354163D01*
X268244098Y-100587812D01*
X268632644Y-100748753D01*
X269045121Y-100830800D01*
X269465679Y-100830800D01*
X269878156Y-100748753D01*
X270266702Y-100587812D01*
X270616383Y-100354163D01*
X270913763Y-100056783D01*
X271024059Y-99891712D01*
X273122893Y-99891712D01*
X273230726Y-100166338D01*
X273537384Y-100317216D01*
X273867585Y-100405369D01*
X274208639Y-100427409D01*
X274547439Y-100382489D01*
X274870966Y-100272336D01*
X275069274Y-100166338D01*
X275177107Y-99891712D01*
X274150000Y-98864605D01*
X273122893Y-99891712D01*
X271024059Y-99891712D01*
X271147412Y-99707102D01*
X271308353Y-99318556D01*
X271390400Y-98906079D01*
X271390400Y-98743639D01*
X272407591Y-98743639D01*
X272452511Y-99082439D01*
X272562664Y-99405966D01*
X272668662Y-99604274D01*
X272943288Y-99712107D01*
X273970395Y-98685000D01*
X274329605Y-98685000D01*
X275356712Y-99712107D01*
X275631338Y-99604274D01*
X275782216Y-99297616D01*
X275870369Y-98967415D01*
X275892409Y-98626361D01*
X275847489Y-98287561D01*
X275737336Y-97964034D01*
X275631338Y-97765726D01*
X275356712Y-97657893D01*
X274329605Y-98685000D01*
X273970395Y-98685000D01*
X272943288Y-97657893D01*
X272668662Y-97765726D01*
X272517784Y-98072384D01*
X272429631Y-98402585D01*
X272407591Y-98743639D01*
X271390400Y-98743639D01*
X271390400Y-98485521D01*
X271308353Y-98073044D01*
X271147412Y-97684498D01*
X271009628Y-97478288D01*
X273122893Y-97478288D01*
X274150000Y-98505395D01*
X275177107Y-97478288D01*
X275069274Y-97203662D01*
X274762616Y-97052784D01*
X274432415Y-96964631D01*
X274091361Y-96942591D01*
X273752561Y-96987511D01*
X273429034Y-97097664D01*
X273230726Y-97203662D01*
X273122893Y-97478288D01*
X271009628Y-97478288D01*
X270913763Y-97334817D01*
X270616383Y-97037437D01*
X270266702Y-96803788D01*
X269878156Y-96642847D01*
X269465679Y-96560800D01*
X269045121Y-96560800D01*
X268632644Y-96642847D01*
X268244098Y-96803788D01*
X267894417Y-97037437D01*
X267597037Y-97334817D01*
X267363388Y-97684498D01*
X267202447Y-98073044D01*
X267120400Y-98485521D01*
X254485346Y-98485521D01*
X257006751Y-95964117D01*
X259915000Y-95964117D01*
X259915000Y-96305883D01*
X259981675Y-96641081D01*
X260112463Y-96956831D01*
X260302337Y-97240998D01*
X260544002Y-97482663D01*
X260828169Y-97672537D01*
X261143919Y-97803325D01*
X261479117Y-97870000D01*
X261820883Y-97870000D01*
X262156081Y-97803325D01*
X262471831Y-97672537D01*
X262755998Y-97482663D01*
X262997663Y-97240998D01*
X263187537Y-96956831D01*
X263318325Y-96641081D01*
X263385000Y-96305883D01*
X263385000Y-95964117D01*
X263318325Y-95628919D01*
X263187537Y-95313169D01*
X262997663Y-95029002D01*
X262755998Y-94787337D01*
X262471831Y-94597463D01*
X262156081Y-94466675D01*
X261820883Y-94400000D01*
X261479117Y-94400000D01*
X261143919Y-94466675D01*
X260828169Y-94597463D01*
X260544002Y-94787337D01*
X260302337Y-95029002D01*
X260112463Y-95313169D01*
X259981675Y-95628919D01*
X259915000Y-95964117D01*
X257006751Y-95964117D01*
X259461751Y-93509117D01*
X262405000Y-93509117D01*
X262405000Y-93850883D01*
X262471675Y-94186081D01*
X262602463Y-94501831D01*
X262792337Y-94785998D01*
X263034002Y-95027663D01*
X263318169Y-95217537D01*
X263633919Y-95348325D01*
X263969117Y-95415000D01*
X264310883Y-95415000D01*
X264646081Y-95348325D01*
X264961831Y-95217537D01*
X265245998Y-95027663D01*
X265487663Y-94785998D01*
X265677537Y-94501831D01*
X265808325Y-94186081D01*
X265875000Y-93850883D01*
X265875000Y-93509117D01*
X265862266Y-93445098D01*
X266765000Y-93445098D01*
X266765000Y-93914902D01*
X266856654Y-94375679D01*
X267036440Y-94809721D01*
X267297450Y-95200349D01*
X267629651Y-95532550D01*
X268020279Y-95793560D01*
X268454321Y-95973346D01*
X268915098Y-96065000D01*
X269384902Y-96065000D01*
X269845679Y-95973346D01*
X270279721Y-95793560D01*
X270670349Y-95532550D01*
X271002550Y-95200349D01*
X271263560Y-94809721D01*
X271443346Y-94375679D01*
X271535000Y-93914902D01*
X271535000Y-93445098D01*
X271443346Y-92984321D01*
X271263560Y-92550279D01*
X271002550Y-92159651D01*
X270670349Y-91827450D01*
X270279721Y-91566440D01*
X269845679Y-91386654D01*
X269384902Y-91295000D01*
X268915098Y-91295000D01*
X268454321Y-91386654D01*
X268020279Y-91566440D01*
X267629651Y-91827450D01*
X267297450Y-92159651D01*
X267036440Y-92550279D01*
X266856654Y-92984321D01*
X266765000Y-93445098D01*
X265862266Y-93445098D01*
X265808325Y-93173919D01*
X265677537Y-92858169D01*
X265487663Y-92574002D01*
X265245998Y-92332337D01*
X264961831Y-92142463D01*
X264646081Y-92011675D01*
X264310883Y-91945000D01*
X263969117Y-91945000D01*
X263633919Y-92011675D01*
X263318169Y-92142463D01*
X263034002Y-92332337D01*
X262792337Y-92574002D01*
X262602463Y-92858169D01*
X262471675Y-93173919D01*
X262405000Y-93509117D01*
X259461751Y-93509117D01*
X260711432Y-92259437D01*
X260743290Y-92233292D01*
X260772881Y-92197236D01*
X260847635Y-92106147D01*
X260925171Y-91961088D01*
X260932510Y-91936894D01*
X260972917Y-91803690D01*
X260984999Y-91681020D01*
X260984999Y-91681019D01*
X260989039Y-91640001D01*
X260984999Y-91598983D01*
X260984999Y-90715868D01*
X273211429Y-78489439D01*
X273243292Y-78463290D01*
X273347637Y-78336145D01*
X273425173Y-78191086D01*
X273472919Y-78033688D01*
X273485001Y-77911018D01*
X273485001Y-77911008D01*
X273489040Y-77870000D01*
X273485001Y-77828992D01*
X273485001Y-75870093D01*
X273540256Y-75847205D01*
X273709774Y-75733937D01*
X273853937Y-75589774D01*
X273967205Y-75420256D01*
X274045226Y-75231898D01*
X274085000Y-75031939D01*
X274085000Y-74828061D01*
X274045226Y-74628102D01*
X273967205Y-74439744D01*
X273853937Y-74270226D01*
X273709774Y-74126063D01*
X273540256Y-74012795D01*
X273351898Y-73934774D01*
X273151939Y-73895000D01*
X272948061Y-73895000D01*
X272748102Y-73934774D01*
X272559744Y-74012795D01*
X272390226Y-74126063D01*
X272246063Y-74270226D01*
X272132795Y-74439744D01*
X272054774Y-74628102D01*
X272025640Y-74774568D01*
X271952365Y-74863854D01*
X271874829Y-75008913D01*
X271827083Y-75166311D01*
X271810961Y-75329999D01*
X271815002Y-75371027D01*
X271815001Y-77524131D01*
X259588573Y-89750560D01*
X259556709Y-89776710D01*
X259494358Y-89852685D01*
X259452363Y-89903856D01*
X259374827Y-90048915D01*
X259327081Y-90206313D01*
X259310959Y-90370001D01*
X259315000Y-90411029D01*
X259314999Y-91294132D01*
X243683226Y-106925907D01*
X243538102Y-106954774D01*
X243349744Y-107032795D01*
X243180226Y-107146063D01*
X243036063Y-107290226D01*
X242922795Y-107459744D01*
X242872800Y-107580442D01*
X242872800Y-93482001D01*
X245759402Y-90595400D01*
X255226680Y-90595400D01*
X255270617Y-90639337D01*
X255440135Y-90752605D01*
X255628493Y-90830626D01*
X255828452Y-90870400D01*
X256032330Y-90870400D01*
X256232289Y-90830626D01*
X256420647Y-90752605D01*
X256590165Y-90639337D01*
X256734328Y-90495174D01*
X256847596Y-90325656D01*
X256925617Y-90137298D01*
X256965391Y-89937339D01*
X256965391Y-89733461D01*
X256925617Y-89533502D01*
X256847596Y-89345144D01*
X256734328Y-89175626D01*
X256590165Y-89031463D01*
X256420647Y-88918195D01*
X256232289Y-88840174D01*
X256032330Y-88800400D01*
X255828452Y-88800400D01*
X255628493Y-88840174D01*
X255440135Y-88918195D01*
X255270617Y-89031463D01*
X255226680Y-89075400D01*
X245481925Y-89075400D01*
X245444600Y-89071724D01*
X245407275Y-89075400D01*
X245407267Y-89075400D01*
X245295614Y-89086397D01*
X245152353Y-89129854D01*
X245020324Y-89200426D01*
X244904599Y-89295399D01*
X244880801Y-89324397D01*
X241907600Y-92297599D01*
X241907600Y-90210000D01*
X242014044Y-90050695D01*
X242092065Y-89862337D01*
X242131839Y-89662378D01*
X242131839Y-89458500D01*
X242092065Y-89258541D01*
X242014044Y-89070183D01*
X241900776Y-88900665D01*
X241756613Y-88756502D01*
X241587095Y-88643234D01*
X241398737Y-88565213D01*
X241198778Y-88525439D01*
X240994900Y-88525439D01*
X240794941Y-88565213D01*
X240606583Y-88643234D01*
X240437065Y-88756502D01*
X240292902Y-88900665D01*
X240179634Y-89070183D01*
X240101613Y-89258541D01*
X240061839Y-89458500D01*
X240061839Y-89662378D01*
X240101613Y-89862337D01*
X240179634Y-90050695D01*
X240292902Y-90220213D01*
X240387601Y-90314912D01*
X240387601Y-92246799D01*
X237291804Y-89151003D01*
X237268001Y-89121999D01*
X237152276Y-89027026D01*
X237020247Y-88956454D01*
X236876986Y-88912997D01*
X236765333Y-88902000D01*
X236765322Y-88902000D01*
X236728000Y-88898324D01*
X236690678Y-88902000D01*
X227525711Y-88902000D01*
X227481774Y-88858063D01*
X227312256Y-88744795D01*
X227123898Y-88666774D01*
X226923939Y-88627000D01*
X226720061Y-88627000D01*
X226520102Y-88666774D01*
X226331744Y-88744795D01*
X226162226Y-88858063D01*
X226018063Y-89002226D01*
X225904795Y-89171744D01*
X225826774Y-89360102D01*
X225787000Y-89560061D01*
X219453630Y-89560061D01*
X219405184Y-89458556D01*
X219229354Y-89223207D01*
X219010988Y-89026683D01*
X218758478Y-88876536D01*
X218481527Y-88778537D01*
X218249500Y-88899036D01*
X217995500Y-88899036D01*
X217763473Y-88778537D01*
X217486522Y-88876536D01*
X217234012Y-89026683D01*
X217015646Y-89223207D01*
X216855970Y-89436933D01*
X216834569Y-89396894D01*
X216647297Y-89168703D01*
X216419106Y-88981431D01*
X216158764Y-88842275D01*
X215876277Y-88756584D01*
X215656119Y-88734900D01*
X215508881Y-88734900D01*
X215288723Y-88756584D01*
X215006236Y-88842275D01*
X214745894Y-88981431D01*
X214517703Y-89168703D01*
X214330431Y-89396894D01*
X214191275Y-89657236D01*
X214105584Y-89939723D01*
X214076649Y-90233500D01*
X214105584Y-90527277D01*
X214130799Y-90610399D01*
X208480203Y-96260996D01*
X208451199Y-96284799D01*
X208417318Y-96326084D01*
X208356226Y-96400524D01*
X208323219Y-96462275D01*
X208285654Y-96532554D01*
X208242197Y-96675815D01*
X208231200Y-96787468D01*
X208231200Y-96787478D01*
X208227524Y-96824800D01*
X208231200Y-96862122D01*
X208231201Y-107551088D01*
X208187263Y-107595026D01*
X208073995Y-107764544D01*
X207995974Y-107952902D01*
X207956200Y-108152861D01*
X207956200Y-108356739D01*
X207995974Y-108556698D01*
X208073995Y-108745056D01*
X208187263Y-108914574D01*
X208331426Y-109058737D01*
X208500944Y-109172005D01*
X208689302Y-109250026D01*
X208889261Y-109289800D01*
X209093139Y-109289800D01*
X209293098Y-109250026D01*
X209481456Y-109172005D01*
X209650974Y-109058737D01*
X209795137Y-108914574D01*
X209908405Y-108745056D01*
X209986426Y-108556698D01*
X209996600Y-108505550D01*
X210108461Y-108527800D01*
X210312339Y-108527800D01*
X210512298Y-108488026D01*
X210700656Y-108410005D01*
X210870174Y-108296737D01*
X211014337Y-108152574D01*
X211127605Y-107983056D01*
X211205626Y-107794698D01*
X211211933Y-107762990D01*
X211226061Y-107765800D01*
X211429939Y-107765800D01*
X211629898Y-107726026D01*
X211818256Y-107648005D01*
X211987774Y-107534737D01*
X212131937Y-107390574D01*
X212245205Y-107221056D01*
X212323226Y-107032698D01*
X212363000Y-106832739D01*
X212363000Y-106628861D01*
X212323226Y-106428902D01*
X212245205Y-106240544D01*
X212131937Y-106071026D01*
X212088000Y-106027089D01*
X212088000Y-98123671D01*
X214236778Y-95974894D01*
X214330431Y-96150106D01*
X214517703Y-96378297D01*
X214745894Y-96565569D01*
X214779440Y-96583500D01*
X214745894Y-96601431D01*
X214517703Y-96788703D01*
X214330431Y-97016894D01*
X214191275Y-97277236D01*
X214105584Y-97559723D01*
X214076649Y-97853500D01*
X214105584Y-98147277D01*
X214191275Y-98429764D01*
X214330431Y-98690106D01*
X214517703Y-98918297D01*
X214745894Y-99105569D01*
X214779440Y-99123500D01*
X214745894Y-99141431D01*
X214517703Y-99328703D01*
X214330431Y-99556894D01*
X214191275Y-99817236D01*
X214105584Y-100099723D01*
X214076649Y-100393500D01*
X214105584Y-100687277D01*
X214191275Y-100969764D01*
X214330431Y-101230106D01*
X214517703Y-101458297D01*
X214745894Y-101645569D01*
X214826074Y-101688426D01*
X214833498Y-101763800D01*
X214840729Y-101787637D01*
X214876954Y-101907060D01*
X214947526Y-102039090D01*
X214958765Y-102052784D01*
X215042500Y-102154815D01*
X215071498Y-102178613D01*
X215394000Y-102501116D01*
X215394001Y-108759409D01*
X214822808Y-109330603D01*
X214793805Y-109354405D01*
X214750866Y-109406727D01*
X214698832Y-109470130D01*
X214637317Y-109585216D01*
X214628260Y-109602160D01*
X214584803Y-109745421D01*
X214573806Y-109857074D01*
X214573806Y-109857084D01*
X214570130Y-109894406D01*
X214573806Y-109931729D01*
X214573807Y-111248472D01*
X214570130Y-111285804D01*
X214573807Y-111323137D01*
X214584804Y-111434790D01*
X214592374Y-111459744D01*
X214628260Y-111578050D01*
X214698832Y-111710080D01*
X214719283Y-111734999D01*
X214793806Y-111825805D01*
X214822804Y-111849603D01*
X215292245Y-112319044D01*
X215221063Y-112390226D01*
X215107795Y-112559744D01*
X215029774Y-112748102D01*
X214990000Y-112948061D01*
X214990000Y-113151939D01*
X215029774Y-113351898D01*
X215107795Y-113540256D01*
X215221063Y-113709774D01*
X215340001Y-113828712D01*
X215340000Y-114921289D01*
X215296063Y-114965226D01*
X215182795Y-115134744D01*
X215104774Y-115323102D01*
X215065000Y-115523061D01*
X215065000Y-115615198D01*
X214335000Y-114885198D01*
X214335000Y-114823061D01*
X214295226Y-114623102D01*
X214217205Y-114434744D01*
X214103937Y-114265226D01*
X213959774Y-114121063D01*
X213810000Y-114020987D01*
X213810000Y-112978711D01*
X213853937Y-112934774D01*
X213967205Y-112765256D01*
X214045226Y-112576898D01*
X214085000Y-112376939D01*
X214085000Y-112173061D01*
X214045226Y-111973102D01*
X213967205Y-111784744D01*
X213853937Y-111615226D01*
X213709774Y-111471063D01*
X213540256Y-111357795D01*
X213351898Y-111279774D01*
X213151939Y-111240000D01*
X212948061Y-111240000D01*
X212748102Y-111279774D01*
X212559744Y-111357795D01*
X212390226Y-111471063D01*
X212246063Y-111615226D01*
X212132795Y-111784744D01*
X212054774Y-111973102D01*
X212015000Y-112173061D01*
X212015000Y-112376939D01*
X212054774Y-112576898D01*
X212132795Y-112765256D01*
X212246063Y-112934774D01*
X212290000Y-112978711D01*
X212290001Y-114637668D01*
X212286324Y-114675000D01*
X212289015Y-114702326D01*
X212265000Y-114823061D01*
X212265000Y-115026939D01*
X212304774Y-115226898D01*
X212382795Y-115415256D01*
X212496063Y-115584774D01*
X212640226Y-115728937D01*
X212809744Y-115842205D01*
X212998102Y-115920226D01*
X213198061Y-115960000D01*
X213260198Y-115960000D01*
X214427653Y-117127456D01*
X214427654Y-118483941D01*
X214383716Y-118527879D01*
X214270448Y-118697397D01*
X214192427Y-118885755D01*
X214152653Y-119085714D01*
X214152653Y-119289592D01*
X214192427Y-119489551D01*
X214270448Y-119677909D01*
X214295231Y-119715000D01*
X211414802Y-119715000D01*
X210210000Y-118510199D01*
X210210000Y-118448061D01*
X210170226Y-118248102D01*
X210092205Y-118059744D01*
X209978937Y-117890226D01*
X209862111Y-117773400D01*
X209905939Y-117773400D01*
X210105898Y-117733626D01*
X210294256Y-117655605D01*
X210463774Y-117542337D01*
X210607937Y-117398174D01*
X210721205Y-117228656D01*
X210799226Y-117040298D01*
X210839000Y-116840339D01*
X210839000Y-116636461D01*
X210799226Y-116436502D01*
X210721205Y-116248144D01*
X210607937Y-116078626D01*
X210463774Y-115934463D01*
X210294256Y-115821195D01*
X210105898Y-115743174D01*
X209905939Y-115703400D01*
X209702061Y-115703400D01*
X209502102Y-115743174D01*
X209313744Y-115821195D01*
X209144226Y-115934463D01*
X209000063Y-116078626D01*
X208886795Y-116248144D01*
X208808774Y-116436502D01*
X208769000Y-116636461D01*
X208769000Y-116698598D01*
X203755798Y-121711801D01*
X203726800Y-121735599D01*
X203703002Y-121764597D01*
X203703001Y-121764598D01*
X203631826Y-121851324D01*
X203561254Y-121983354D01*
X203517798Y-122126615D01*
X203503124Y-122275600D01*
X203506801Y-122312932D01*
X203506800Y-124416689D01*
X203462863Y-124460626D01*
X203349595Y-124630144D01*
X203271574Y-124818502D01*
X203231800Y-125018461D01*
X203231800Y-125222339D01*
X203271574Y-125422298D01*
X203349595Y-125610656D01*
X203462863Y-125780174D01*
X203607026Y-125924337D01*
X203776544Y-126037605D01*
X203964902Y-126115626D01*
X204164861Y-126155400D01*
X204368739Y-126155400D01*
X204568698Y-126115626D01*
X204757056Y-126037605D01*
X204926574Y-125924337D01*
X205070737Y-125780174D01*
X205184005Y-125610656D01*
X205262026Y-125422298D01*
X205301800Y-125222339D01*
X205301800Y-125018461D01*
X205262026Y-124818502D01*
X205184005Y-124630144D01*
X205070737Y-124460626D01*
X205026800Y-124416689D01*
X205026800Y-122590401D01*
X208389245Y-119227956D01*
X208425492Y-119264203D01*
X208415226Y-119271063D01*
X208271063Y-119415226D01*
X208157795Y-119584744D01*
X208079774Y-119773102D01*
X208040000Y-119973061D01*
X208040000Y-120176939D01*
X208079774Y-120376898D01*
X208157795Y-120565256D01*
X208271063Y-120734774D01*
X208415226Y-120878937D01*
X208584744Y-120992205D01*
X208773102Y-121070226D01*
X208973061Y-121110000D01*
X209035198Y-121110000D01*
X210461205Y-122536008D01*
X210484999Y-122565001D01*
X210513992Y-122588795D01*
X210513996Y-122588799D01*
X210545924Y-122615001D01*
X210600724Y-122659974D01*
X210732753Y-122730546D01*
X210876014Y-122774003D01*
X210987667Y-122785000D01*
X210987676Y-122785000D01*
X211024999Y-122788676D01*
X211062322Y-122785000D01*
X214421289Y-122785000D01*
X214465226Y-122828937D01*
X214634744Y-122942205D01*
X214823102Y-123020226D01*
X215023061Y-123060000D01*
X215226939Y-123060000D01*
X215426898Y-123020226D01*
X215615256Y-122942205D01*
X215784774Y-122828937D01*
X215928937Y-122684774D01*
X216042205Y-122515256D01*
X216120226Y-122326898D01*
X216160000Y-122126939D01*
X216160000Y-121923061D01*
X216120226Y-121723102D01*
X216042205Y-121534744D01*
X215928937Y-121365226D01*
X215849508Y-121285797D01*
X215859774Y-121278937D01*
X216003937Y-121134774D01*
X216117205Y-120965256D01*
X216195226Y-120776898D01*
X216235000Y-120576939D01*
X216235000Y-120373061D01*
X216195226Y-120173102D01*
X216117205Y-119984744D01*
X216008521Y-119822087D01*
X216104858Y-119677909D01*
X216182879Y-119489551D01*
X216222653Y-119289592D01*
X216222653Y-119085714D01*
X216182879Y-118885755D01*
X216104858Y-118697397D01*
X215991590Y-118527879D01*
X215947653Y-118483942D01*
X215947653Y-116849975D01*
X215951329Y-116812652D01*
X215947653Y-116775329D01*
X215947653Y-116775320D01*
X215936656Y-116663667D01*
X215931529Y-116646766D01*
X215998061Y-116660000D01*
X216201939Y-116660000D01*
X216401898Y-116620226D01*
X216590256Y-116542205D01*
X216759774Y-116428937D01*
X216789669Y-116399042D01*
X216765000Y-116523061D01*
X216765000Y-116726939D01*
X216804774Y-116926898D01*
X216882795Y-117115256D01*
X216996063Y-117284774D01*
X217140226Y-117428937D01*
X217309744Y-117542205D01*
X217498102Y-117620226D01*
X217698061Y-117660000D01*
X217760199Y-117660000D01*
X222490001Y-122389803D01*
X222490001Y-122496288D01*
X222446063Y-122540226D01*
X222332795Y-122709744D01*
X222254774Y-122898102D01*
X222215000Y-123098061D01*
X222215000Y-123301939D01*
X222254774Y-123501898D01*
X222332795Y-123690256D01*
X222446063Y-123859774D01*
X222590226Y-124003937D01*
X222759744Y-124117205D01*
X222948102Y-124195226D01*
X223148061Y-124235000D01*
X223351939Y-124235000D01*
X223551898Y-124195226D01*
X223740256Y-124117205D01*
X223909774Y-124003937D01*
X224053937Y-123859774D01*
X224167205Y-123690256D01*
X224245226Y-123501898D01*
X224285000Y-123301939D01*
X224285000Y-123098061D01*
X224245226Y-122898102D01*
X224167205Y-122709744D01*
X224053937Y-122540226D01*
X224010000Y-122496289D01*
X224010000Y-122112323D01*
X224013676Y-122075000D01*
X224010000Y-122037677D01*
X224010000Y-122037667D01*
X223999003Y-121926014D01*
X223955546Y-121782753D01*
X223928820Y-121732753D01*
X223884974Y-121650723D01*
X223813799Y-121563997D01*
X223790001Y-121534999D01*
X223761003Y-121511201D01*
X218835000Y-116585199D01*
X218835000Y-116523061D01*
X218795226Y-116323102D01*
X218717205Y-116134744D01*
X218603937Y-115965226D01*
X218560000Y-115921289D01*
X218560000Y-113789320D01*
X218563676Y-113751997D01*
X218560000Y-113714675D01*
X218560000Y-113714665D01*
X218549003Y-113603012D01*
X218505546Y-113459751D01*
X218466498Y-113386698D01*
X218434974Y-113327721D01*
X218363799Y-113240995D01*
X218340001Y-113211997D01*
X218311004Y-113188200D01*
X217940040Y-112817236D01*
X217988285Y-112785000D01*
X222454133Y-112785000D01*
X234325908Y-124656776D01*
X234354774Y-124801898D01*
X234432795Y-124990256D01*
X234546063Y-125159774D01*
X234690226Y-125303937D01*
X234859744Y-125417205D01*
X235048102Y-125495226D01*
X235193225Y-125524093D01*
X237177132Y-127508000D01*
X214630000Y-127508000D01*
X214605224Y-127510440D01*
X214581399Y-127517667D01*
X214559443Y-127529403D01*
X214540197Y-127545197D01*
X214524403Y-127564443D01*
X214512667Y-127586399D01*
X214505440Y-127610224D01*
X214503000Y-127635000D01*
X214503000Y-132804996D01*
X177715000Y-132804996D01*
X177715000Y-131039500D01*
X204840000Y-131039500D01*
X204840000Y-131389500D01*
X204888507Y-131627996D01*
X204982610Y-131852446D01*
X205118693Y-132054225D01*
X205291526Y-132225578D01*
X205494467Y-132359921D01*
X205719718Y-132452091D01*
X205757391Y-132455962D01*
X205948000Y-132331231D01*
X205948000Y-131039500D01*
X206202000Y-131039500D01*
X206202000Y-132331231D01*
X206392609Y-132455962D01*
X206430282Y-132452091D01*
X206655533Y-132359921D01*
X206858474Y-132225578D01*
X207031307Y-132054225D01*
X207167390Y-131852446D01*
X207261493Y-131627996D01*
X207310000Y-131389500D01*
X207310000Y-131039500D01*
X211840000Y-131039500D01*
X211840000Y-131389500D01*
X211888507Y-131627996D01*
X211982610Y-131852446D01*
X212118693Y-132054225D01*
X212291526Y-132225578D01*
X212494467Y-132359921D01*
X212719718Y-132452091D01*
X212757391Y-132455962D01*
X212948000Y-132331231D01*
X212948000Y-131039500D01*
X213202000Y-131039500D01*
X213202000Y-132331231D01*
X213392609Y-132455962D01*
X213430282Y-132452091D01*
X213655533Y-132359921D01*
X213858474Y-132225578D01*
X214031307Y-132054225D01*
X214167390Y-131852446D01*
X214261493Y-131627996D01*
X214310000Y-131389500D01*
X214310000Y-131039500D01*
X213202000Y-131039500D01*
X212948000Y-131039500D01*
X211840000Y-131039500D01*
X207310000Y-131039500D01*
X206202000Y-131039500D01*
X205948000Y-131039500D01*
X204840000Y-131039500D01*
X177715000Y-131039500D01*
X177715000Y-130435500D01*
X204840000Y-130435500D01*
X204840000Y-130785500D01*
X205948000Y-130785500D01*
X205948000Y-129493769D01*
X206202000Y-129493769D01*
X206202000Y-130785500D01*
X207310000Y-130785500D01*
X207310000Y-130435500D01*
X207261493Y-130197004D01*
X207167390Y-129972554D01*
X207031307Y-129770775D01*
X206858474Y-129599422D01*
X206763164Y-129536329D01*
X206880849Y-129565219D01*
X207148482Y-129577104D01*
X207413291Y-129536548D01*
X207665100Y-129445109D01*
X207772035Y-129387950D01*
X207834528Y-129151633D01*
X211315472Y-129151633D01*
X211377965Y-129387950D01*
X211620678Y-129501350D01*
X211880849Y-129565219D01*
X212148482Y-129577104D01*
X212378442Y-129541885D01*
X212291526Y-129599422D01*
X212118693Y-129770775D01*
X211982610Y-129972554D01*
X211888507Y-130197004D01*
X211840000Y-130435500D01*
X211840000Y-130785500D01*
X212948000Y-130785500D01*
X212948000Y-129493769D01*
X213202000Y-129493769D01*
X213202000Y-130785500D01*
X214310000Y-130785500D01*
X214310000Y-130435500D01*
X214261493Y-130197004D01*
X214167390Y-129972554D01*
X214031307Y-129770775D01*
X213858474Y-129599422D01*
X213655533Y-129465079D01*
X213430282Y-129372909D01*
X213392609Y-129369038D01*
X213202000Y-129493769D01*
X212948000Y-129493769D01*
X212774138Y-129379997D01*
X212834528Y-129151633D01*
X212075000Y-128392105D01*
X211315472Y-129151633D01*
X207834528Y-129151633D01*
X207075000Y-128392105D01*
X206315472Y-129151633D01*
X206375862Y-129379997D01*
X206202000Y-129493769D01*
X205948000Y-129493769D01*
X205757391Y-129369038D01*
X205719718Y-129372909D01*
X205494467Y-129465079D01*
X205291526Y-129599422D01*
X205118693Y-129770775D01*
X204982610Y-129972554D01*
X204888507Y-130197004D01*
X204840000Y-130435500D01*
X177715000Y-130435500D01*
X177715000Y-128285982D01*
X205710396Y-128285982D01*
X205750952Y-128550791D01*
X205842391Y-128802600D01*
X205899550Y-128909535D01*
X206135867Y-128972028D01*
X206895395Y-128212500D01*
X207254605Y-128212500D01*
X208014133Y-128972028D01*
X208250450Y-128909535D01*
X208363850Y-128666822D01*
X208427719Y-128406651D01*
X208433077Y-128285982D01*
X210710396Y-128285982D01*
X210750952Y-128550791D01*
X210842391Y-128802600D01*
X210899550Y-128909535D01*
X211135867Y-128972028D01*
X211895395Y-128212500D01*
X212254605Y-128212500D01*
X213014133Y-128972028D01*
X213250450Y-128909535D01*
X213363850Y-128666822D01*
X213427719Y-128406651D01*
X213439604Y-128139018D01*
X213399048Y-127874209D01*
X213307609Y-127622400D01*
X213250450Y-127515465D01*
X213014133Y-127452972D01*
X212254605Y-128212500D01*
X211895395Y-128212500D01*
X211135867Y-127452972D01*
X210899550Y-127515465D01*
X210786150Y-127758178D01*
X210722281Y-128018349D01*
X210710396Y-128285982D01*
X208433077Y-128285982D01*
X208439604Y-128139018D01*
X208399048Y-127874209D01*
X208307609Y-127622400D01*
X208250450Y-127515465D01*
X208014133Y-127452972D01*
X207254605Y-128212500D01*
X206895395Y-128212500D01*
X206135867Y-127452972D01*
X205899550Y-127515465D01*
X205786150Y-127758178D01*
X205722281Y-128018349D01*
X205710396Y-128285982D01*
X177715000Y-128285982D01*
X177715000Y-127273367D01*
X206315472Y-127273367D01*
X207075000Y-128032895D01*
X207834528Y-127273367D01*
X211315472Y-127273367D01*
X212075000Y-128032895D01*
X212834528Y-127273367D01*
X212772035Y-127037050D01*
X212529322Y-126923650D01*
X212269151Y-126859781D01*
X212001518Y-126847896D01*
X211736709Y-126888452D01*
X211484900Y-126979891D01*
X211377965Y-127037050D01*
X211315472Y-127273367D01*
X207834528Y-127273367D01*
X207772035Y-127037050D01*
X207529322Y-126923650D01*
X207269151Y-126859781D01*
X207001518Y-126847896D01*
X206736709Y-126888452D01*
X206484900Y-126979891D01*
X206377965Y-127037050D01*
X206315472Y-127273367D01*
X177715000Y-127273367D01*
X177715000Y-115312284D01*
X182945000Y-115312284D01*
X182945000Y-116067714D01*
X183092377Y-116808627D01*
X183381467Y-117506553D01*
X183801161Y-118134669D01*
X184335330Y-118668838D01*
X184963446Y-119088532D01*
X185661372Y-119377622D01*
X186402285Y-119524999D01*
X187157715Y-119524999D01*
X187898628Y-119377622D01*
X188596554Y-119088532D01*
X189224670Y-118668838D01*
X189758839Y-118134669D01*
X190178533Y-117506553D01*
X190467623Y-116808627D01*
X190615000Y-116067714D01*
X190615000Y-115312284D01*
X190467623Y-114571371D01*
X190178533Y-113873445D01*
X189758839Y-113245329D01*
X189224670Y-112711160D01*
X188596554Y-112291466D01*
X187898628Y-112002376D01*
X187157715Y-111854999D01*
X186402285Y-111854999D01*
X185661372Y-112002376D01*
X184963446Y-112291466D01*
X184335330Y-112711160D01*
X183801161Y-113245329D01*
X183381467Y-113873445D01*
X183092377Y-114571371D01*
X182945000Y-115312284D01*
X177715000Y-115312284D01*
X177715000Y-97409764D01*
X189829841Y-97409764D01*
X189877148Y-97633348D01*
X190098516Y-97734237D01*
X190335313Y-97790000D01*
X190578438Y-97798495D01*
X190818549Y-97759395D01*
X191046418Y-97674202D01*
X191122852Y-97633348D01*
X191170159Y-97409764D01*
X190500000Y-96739605D01*
X189829841Y-97409764D01*
X177715000Y-97409764D01*
X177715000Y-96638438D01*
X189261505Y-96638438D01*
X189300605Y-96878549D01*
X189385798Y-97106418D01*
X189426652Y-97182852D01*
X189650236Y-97230159D01*
X190320395Y-96560000D01*
X190679605Y-96560000D01*
X191349764Y-97230159D01*
X191573348Y-97182852D01*
X191674237Y-96961484D01*
X191730000Y-96724687D01*
X191738495Y-96481562D01*
X191731461Y-96438363D01*
X204505000Y-96438363D01*
X204505000Y-96681637D01*
X204552460Y-96920236D01*
X204645557Y-97144992D01*
X204780713Y-97347267D01*
X204952733Y-97519287D01*
X205155008Y-97654443D01*
X205379764Y-97747540D01*
X205618363Y-97795000D01*
X205861637Y-97795000D01*
X206100236Y-97747540D01*
X206324992Y-97654443D01*
X206527267Y-97519287D01*
X206699287Y-97347267D01*
X206834443Y-97144992D01*
X206927540Y-96920236D01*
X206975000Y-96681637D01*
X206975000Y-96438363D01*
X206927540Y-96199764D01*
X206834443Y-95975008D01*
X206699287Y-95772733D01*
X206527267Y-95600713D01*
X206324992Y-95465557D01*
X206100236Y-95372460D01*
X205861637Y-95325000D01*
X205618363Y-95325000D01*
X205379764Y-95372460D01*
X205155008Y-95465557D01*
X204952733Y-95600713D01*
X204780713Y-95772733D01*
X204645557Y-95975008D01*
X204552460Y-96199764D01*
X204505000Y-96438363D01*
X191731461Y-96438363D01*
X191699395Y-96241451D01*
X191614202Y-96013582D01*
X191573348Y-95937148D01*
X191349764Y-95889841D01*
X190679605Y-96560000D01*
X190320395Y-96560000D01*
X189650236Y-95889841D01*
X189426652Y-95937148D01*
X189325763Y-96158516D01*
X189270000Y-96395313D01*
X189261505Y-96638438D01*
X177715000Y-96638438D01*
X177715000Y-95710236D01*
X189829841Y-95710236D01*
X190500000Y-96380395D01*
X191170159Y-95710236D01*
X191122852Y-95486652D01*
X190901484Y-95385763D01*
X190664687Y-95330000D01*
X190421562Y-95321505D01*
X190181451Y-95360605D01*
X189953582Y-95445798D01*
X189877148Y-95486652D01*
X189829841Y-95710236D01*
X177715000Y-95710236D01*
X177715000Y-92837000D01*
X199390000Y-92837000D01*
X199414776Y-92834560D01*
X199438601Y-92827333D01*
X199460557Y-92815597D01*
X199478319Y-92801262D01*
X213526090Y-79206645D01*
X217015100Y-79206645D01*
X217015100Y-79509349D01*
X217074155Y-79806236D01*
X217189995Y-80085897D01*
X217358168Y-80337586D01*
X217572211Y-80551629D01*
X217823900Y-80719802D01*
X218103561Y-80835642D01*
X218400448Y-80894697D01*
X218703152Y-80894697D01*
X219000039Y-80835642D01*
X219279700Y-80719802D01*
X219531389Y-80551629D01*
X219745432Y-80337586D01*
X219913605Y-80085897D01*
X220029445Y-79806236D01*
X220088500Y-79509349D01*
X220088500Y-79206645D01*
X224615100Y-79206645D01*
X224615100Y-79509349D01*
X224674155Y-79806236D01*
X224789995Y-80085897D01*
X224958168Y-80337586D01*
X225172211Y-80551629D01*
X225423900Y-80719802D01*
X225703561Y-80835642D01*
X226000448Y-80894697D01*
X226303152Y-80894697D01*
X226600039Y-80835642D01*
X226879700Y-80719802D01*
X227131389Y-80551629D01*
X227345432Y-80337586D01*
X227513605Y-80085897D01*
X227629445Y-79806236D01*
X227688500Y-79509349D01*
X227688500Y-79206645D01*
X232015099Y-79206645D01*
X232015099Y-79509349D01*
X232074154Y-79806236D01*
X232189994Y-80085897D01*
X232358167Y-80337586D01*
X232572210Y-80551629D01*
X232823899Y-80719802D01*
X233103560Y-80835642D01*
X233400447Y-80894697D01*
X233703151Y-80894697D01*
X234000038Y-80835642D01*
X234279699Y-80719802D01*
X234531388Y-80551629D01*
X234745431Y-80337586D01*
X234913604Y-80085897D01*
X235029444Y-79806236D01*
X235088499Y-79509349D01*
X235088499Y-79206645D01*
X239615099Y-79206645D01*
X239615099Y-79509349D01*
X239674154Y-79806236D01*
X239789994Y-80085897D01*
X239958167Y-80337586D01*
X240172210Y-80551629D01*
X240423899Y-80719802D01*
X240703560Y-80835642D01*
X241000447Y-80894697D01*
X241303151Y-80894697D01*
X241600038Y-80835642D01*
X241879699Y-80719802D01*
X242131388Y-80551629D01*
X242345431Y-80337586D01*
X242513604Y-80085897D01*
X242629444Y-79806236D01*
X242688499Y-79509349D01*
X242688499Y-79206645D01*
X247015099Y-79206645D01*
X247015099Y-79509349D01*
X247074154Y-79806236D01*
X247189994Y-80085897D01*
X247358167Y-80337586D01*
X247572210Y-80551629D01*
X247823899Y-80719802D01*
X248103560Y-80835642D01*
X248400447Y-80894697D01*
X248703151Y-80894697D01*
X249000038Y-80835642D01*
X249279699Y-80719802D01*
X249531388Y-80551629D01*
X249745431Y-80337586D01*
X249913604Y-80085897D01*
X250029444Y-79806236D01*
X250088499Y-79509349D01*
X250088499Y-79206645D01*
X254615099Y-79206645D01*
X254615099Y-79509349D01*
X254674154Y-79806236D01*
X254789994Y-80085897D01*
X254958167Y-80337586D01*
X255172210Y-80551629D01*
X255423899Y-80719802D01*
X255703560Y-80835642D01*
X256000447Y-80894697D01*
X256303151Y-80894697D01*
X256600038Y-80835642D01*
X256879699Y-80719802D01*
X257131388Y-80551629D01*
X257345431Y-80337586D01*
X257513604Y-80085897D01*
X257629444Y-79806236D01*
X257688499Y-79509349D01*
X257688499Y-79206645D01*
X257629444Y-78909758D01*
X257513604Y-78630097D01*
X257345431Y-78378408D01*
X257131388Y-78164365D01*
X256879699Y-77996192D01*
X256600038Y-77880352D01*
X256303151Y-77821297D01*
X256000447Y-77821297D01*
X255703560Y-77880352D01*
X255423899Y-77996192D01*
X255172210Y-78164365D01*
X254958167Y-78378408D01*
X254789994Y-78630097D01*
X254674154Y-78909758D01*
X254615099Y-79206645D01*
X250088499Y-79206645D01*
X250029444Y-78909758D01*
X249913604Y-78630097D01*
X249745431Y-78378408D01*
X249531388Y-78164365D01*
X249279699Y-77996192D01*
X249000038Y-77880352D01*
X248703151Y-77821297D01*
X248400447Y-77821297D01*
X248103560Y-77880352D01*
X247823899Y-77996192D01*
X247572210Y-78164365D01*
X247358167Y-78378408D01*
X247189994Y-78630097D01*
X247074154Y-78909758D01*
X247015099Y-79206645D01*
X242688499Y-79206645D01*
X242629444Y-78909758D01*
X242513604Y-78630097D01*
X242345431Y-78378408D01*
X242131388Y-78164365D01*
X241879699Y-77996192D01*
X241600038Y-77880352D01*
X241303151Y-77821297D01*
X241000447Y-77821297D01*
X240703560Y-77880352D01*
X240423899Y-77996192D01*
X240172210Y-78164365D01*
X239958167Y-78378408D01*
X239789994Y-78630097D01*
X239674154Y-78909758D01*
X239615099Y-79206645D01*
X235088499Y-79206645D01*
X235029444Y-78909758D01*
X234913604Y-78630097D01*
X234745431Y-78378408D01*
X234531388Y-78164365D01*
X234279699Y-77996192D01*
X234000038Y-77880352D01*
X233703151Y-77821297D01*
X233400447Y-77821297D01*
X233103560Y-77880352D01*
X232823899Y-77996192D01*
X232572210Y-78164365D01*
X232358167Y-78378408D01*
X232189994Y-78630097D01*
X232074154Y-78909758D01*
X232015099Y-79206645D01*
X227688500Y-79206645D01*
X227629445Y-78909758D01*
X227513605Y-78630097D01*
X227345432Y-78378408D01*
X227131389Y-78164365D01*
X226879700Y-77996192D01*
X226600039Y-77880352D01*
X226303152Y-77821297D01*
X226000448Y-77821297D01*
X225703561Y-77880352D01*
X225423900Y-77996192D01*
X225172211Y-78164365D01*
X224958168Y-78378408D01*
X224789995Y-78630097D01*
X224674155Y-78909758D01*
X224615100Y-79206645D01*
X220088500Y-79206645D01*
X220029445Y-78909758D01*
X219913605Y-78630097D01*
X219745432Y-78378408D01*
X219531389Y-78164365D01*
X219279700Y-77996192D01*
X219000039Y-77880352D01*
X218703152Y-77821297D01*
X218400448Y-77821297D01*
X218103561Y-77880352D01*
X217823900Y-77996192D01*
X217572211Y-78164365D01*
X217358168Y-78378408D01*
X217189995Y-78630097D01*
X217074155Y-78909758D01*
X217015100Y-79206645D01*
X213526090Y-79206645D01*
X219126390Y-73787000D01*
X276344999Y-73787000D01*
X276345000Y-132804996D01*
M02*
