G04 #@! TF.GenerationSoftware,KiCad,Pcbnew,(5.1.4)-1*
G04 #@! TF.CreationDate,2019-12-18T10:15:03+01:00*
G04 #@! TF.ProjectId,StudiokiController,53747564-696f-46b6-9943-6f6e74726f6c,rev?*
G04 #@! TF.SameCoordinates,Original*
G04 #@! TF.FileFunction,Paste,Top*
G04 #@! TF.FilePolarity,Positive*
%FSLAX46Y46*%
G04 Gerber Fmt 4.6, Leading zero omitted, Abs format (unit mm)*
G04 Created by KiCad (PCBNEW (5.1.4)-1) date 2019-12-18 10:15:03*
%MOMM*%
%LPD*%
G04 APERTURE LIST*
%ADD10C,0.100000*%
%ADD11R,1.500000X1.900000*%
%ADD12R,0.400000X1.350000*%
%ADD13C,0.875000*%
%ADD14C,0.600000*%
%ADD15R,2.000000X0.900000*%
%ADD16R,0.900000X2.000000*%
%ADD17R,5.000000X5.000000*%
%ADD18R,1.300000X1.550000*%
%ADD19R,2.000000X1.500000*%
%ADD20R,2.000000X3.800000*%
%ADD21R,0.900000X1.200000*%
%ADD22R,0.800000X0.900000*%
%ADD23R,0.400000X0.650000*%
%ADD24C,1.350000*%
G04 APERTURE END LIST*
D10*
G36*
X178187600Y-60598800D02*
G01*
X178187600Y-56598800D01*
X182187600Y-56598800D01*
X182187600Y-60598800D01*
X178187600Y-60598800D01*
G37*
X178187600Y-60598800D02*
X178187600Y-56598800D01*
X182187600Y-56598800D01*
X182187600Y-60598800D01*
X178187600Y-60598800D01*
G36*
X178187600Y-76598800D02*
G01*
X178187600Y-72598800D01*
X182187600Y-72598800D01*
X182187600Y-76598800D01*
X179187600Y-76598800D01*
X178187600Y-76598800D01*
G37*
X178187600Y-76598800D02*
X178187600Y-72598800D01*
X182187600Y-72598800D01*
X182187600Y-76598800D01*
X179187600Y-76598800D01*
X178187600Y-76598800D01*
D11*
X208575000Y-130912500D03*
D12*
X209575000Y-128212500D03*
X210225000Y-128212500D03*
X210875000Y-128212500D03*
X208275000Y-128212500D03*
X208925000Y-128212500D03*
D11*
X210575000Y-130912500D03*
D10*
G36*
X245146991Y-118347253D02*
G01*
X245168226Y-118350403D01*
X245189050Y-118355619D01*
X245209262Y-118362851D01*
X245228668Y-118372030D01*
X245247081Y-118383066D01*
X245264324Y-118395854D01*
X245280230Y-118410270D01*
X245294646Y-118426176D01*
X245307434Y-118443419D01*
X245318470Y-118461832D01*
X245327649Y-118481238D01*
X245334881Y-118501450D01*
X245340097Y-118522274D01*
X245343247Y-118543509D01*
X245344300Y-118564950D01*
X245344300Y-119077450D01*
X245343247Y-119098891D01*
X245340097Y-119120126D01*
X245334881Y-119140950D01*
X245327649Y-119161162D01*
X245318470Y-119180568D01*
X245307434Y-119198981D01*
X245294646Y-119216224D01*
X245280230Y-119232130D01*
X245264324Y-119246546D01*
X245247081Y-119259334D01*
X245228668Y-119270370D01*
X245209262Y-119279549D01*
X245189050Y-119286781D01*
X245168226Y-119291997D01*
X245146991Y-119295147D01*
X245125550Y-119296200D01*
X244688050Y-119296200D01*
X244666609Y-119295147D01*
X244645374Y-119291997D01*
X244624550Y-119286781D01*
X244604338Y-119279549D01*
X244584932Y-119270370D01*
X244566519Y-119259334D01*
X244549276Y-119246546D01*
X244533370Y-119232130D01*
X244518954Y-119216224D01*
X244506166Y-119198981D01*
X244495130Y-119180568D01*
X244485951Y-119161162D01*
X244478719Y-119140950D01*
X244473503Y-119120126D01*
X244470353Y-119098891D01*
X244469300Y-119077450D01*
X244469300Y-118564950D01*
X244470353Y-118543509D01*
X244473503Y-118522274D01*
X244478719Y-118501450D01*
X244485951Y-118481238D01*
X244495130Y-118461832D01*
X244506166Y-118443419D01*
X244518954Y-118426176D01*
X244533370Y-118410270D01*
X244549276Y-118395854D01*
X244566519Y-118383066D01*
X244584932Y-118372030D01*
X244604338Y-118362851D01*
X244624550Y-118355619D01*
X244645374Y-118350403D01*
X244666609Y-118347253D01*
X244688050Y-118346200D01*
X245125550Y-118346200D01*
X245146991Y-118347253D01*
X245146991Y-118347253D01*
G37*
D13*
X244906800Y-118821200D03*
D10*
G36*
X246721991Y-118347253D02*
G01*
X246743226Y-118350403D01*
X246764050Y-118355619D01*
X246784262Y-118362851D01*
X246803668Y-118372030D01*
X246822081Y-118383066D01*
X246839324Y-118395854D01*
X246855230Y-118410270D01*
X246869646Y-118426176D01*
X246882434Y-118443419D01*
X246893470Y-118461832D01*
X246902649Y-118481238D01*
X246909881Y-118501450D01*
X246915097Y-118522274D01*
X246918247Y-118543509D01*
X246919300Y-118564950D01*
X246919300Y-119077450D01*
X246918247Y-119098891D01*
X246915097Y-119120126D01*
X246909881Y-119140950D01*
X246902649Y-119161162D01*
X246893470Y-119180568D01*
X246882434Y-119198981D01*
X246869646Y-119216224D01*
X246855230Y-119232130D01*
X246839324Y-119246546D01*
X246822081Y-119259334D01*
X246803668Y-119270370D01*
X246784262Y-119279549D01*
X246764050Y-119286781D01*
X246743226Y-119291997D01*
X246721991Y-119295147D01*
X246700550Y-119296200D01*
X246263050Y-119296200D01*
X246241609Y-119295147D01*
X246220374Y-119291997D01*
X246199550Y-119286781D01*
X246179338Y-119279549D01*
X246159932Y-119270370D01*
X246141519Y-119259334D01*
X246124276Y-119246546D01*
X246108370Y-119232130D01*
X246093954Y-119216224D01*
X246081166Y-119198981D01*
X246070130Y-119180568D01*
X246060951Y-119161162D01*
X246053719Y-119140950D01*
X246048503Y-119120126D01*
X246045353Y-119098891D01*
X246044300Y-119077450D01*
X246044300Y-118564950D01*
X246045353Y-118543509D01*
X246048503Y-118522274D01*
X246053719Y-118501450D01*
X246060951Y-118481238D01*
X246070130Y-118461832D01*
X246081166Y-118443419D01*
X246093954Y-118426176D01*
X246108370Y-118410270D01*
X246124276Y-118395854D01*
X246141519Y-118383066D01*
X246159932Y-118372030D01*
X246179338Y-118362851D01*
X246199550Y-118355619D01*
X246220374Y-118350403D01*
X246241609Y-118347253D01*
X246263050Y-118346200D01*
X246700550Y-118346200D01*
X246721991Y-118347253D01*
X246721991Y-118347253D01*
G37*
D13*
X246481800Y-118821200D03*
D10*
G36*
X245146991Y-114791253D02*
G01*
X245168226Y-114794403D01*
X245189050Y-114799619D01*
X245209262Y-114806851D01*
X245228668Y-114816030D01*
X245247081Y-114827066D01*
X245264324Y-114839854D01*
X245280230Y-114854270D01*
X245294646Y-114870176D01*
X245307434Y-114887419D01*
X245318470Y-114905832D01*
X245327649Y-114925238D01*
X245334881Y-114945450D01*
X245340097Y-114966274D01*
X245343247Y-114987509D01*
X245344300Y-115008950D01*
X245344300Y-115521450D01*
X245343247Y-115542891D01*
X245340097Y-115564126D01*
X245334881Y-115584950D01*
X245327649Y-115605162D01*
X245318470Y-115624568D01*
X245307434Y-115642981D01*
X245294646Y-115660224D01*
X245280230Y-115676130D01*
X245264324Y-115690546D01*
X245247081Y-115703334D01*
X245228668Y-115714370D01*
X245209262Y-115723549D01*
X245189050Y-115730781D01*
X245168226Y-115735997D01*
X245146991Y-115739147D01*
X245125550Y-115740200D01*
X244688050Y-115740200D01*
X244666609Y-115739147D01*
X244645374Y-115735997D01*
X244624550Y-115730781D01*
X244604338Y-115723549D01*
X244584932Y-115714370D01*
X244566519Y-115703334D01*
X244549276Y-115690546D01*
X244533370Y-115676130D01*
X244518954Y-115660224D01*
X244506166Y-115642981D01*
X244495130Y-115624568D01*
X244485951Y-115605162D01*
X244478719Y-115584950D01*
X244473503Y-115564126D01*
X244470353Y-115542891D01*
X244469300Y-115521450D01*
X244469300Y-115008950D01*
X244470353Y-114987509D01*
X244473503Y-114966274D01*
X244478719Y-114945450D01*
X244485951Y-114925238D01*
X244495130Y-114905832D01*
X244506166Y-114887419D01*
X244518954Y-114870176D01*
X244533370Y-114854270D01*
X244549276Y-114839854D01*
X244566519Y-114827066D01*
X244584932Y-114816030D01*
X244604338Y-114806851D01*
X244624550Y-114799619D01*
X244645374Y-114794403D01*
X244666609Y-114791253D01*
X244688050Y-114790200D01*
X245125550Y-114790200D01*
X245146991Y-114791253D01*
X245146991Y-114791253D01*
G37*
D13*
X244906800Y-115265200D03*
D10*
G36*
X246721991Y-114791253D02*
G01*
X246743226Y-114794403D01*
X246764050Y-114799619D01*
X246784262Y-114806851D01*
X246803668Y-114816030D01*
X246822081Y-114827066D01*
X246839324Y-114839854D01*
X246855230Y-114854270D01*
X246869646Y-114870176D01*
X246882434Y-114887419D01*
X246893470Y-114905832D01*
X246902649Y-114925238D01*
X246909881Y-114945450D01*
X246915097Y-114966274D01*
X246918247Y-114987509D01*
X246919300Y-115008950D01*
X246919300Y-115521450D01*
X246918247Y-115542891D01*
X246915097Y-115564126D01*
X246909881Y-115584950D01*
X246902649Y-115605162D01*
X246893470Y-115624568D01*
X246882434Y-115642981D01*
X246869646Y-115660224D01*
X246855230Y-115676130D01*
X246839324Y-115690546D01*
X246822081Y-115703334D01*
X246803668Y-115714370D01*
X246784262Y-115723549D01*
X246764050Y-115730781D01*
X246743226Y-115735997D01*
X246721991Y-115739147D01*
X246700550Y-115740200D01*
X246263050Y-115740200D01*
X246241609Y-115739147D01*
X246220374Y-115735997D01*
X246199550Y-115730781D01*
X246179338Y-115723549D01*
X246159932Y-115714370D01*
X246141519Y-115703334D01*
X246124276Y-115690546D01*
X246108370Y-115676130D01*
X246093954Y-115660224D01*
X246081166Y-115642981D01*
X246070130Y-115624568D01*
X246060951Y-115605162D01*
X246053719Y-115584950D01*
X246048503Y-115564126D01*
X246045353Y-115542891D01*
X246044300Y-115521450D01*
X246044300Y-115008950D01*
X246045353Y-114987509D01*
X246048503Y-114966274D01*
X246053719Y-114945450D01*
X246060951Y-114925238D01*
X246070130Y-114905832D01*
X246081166Y-114887419D01*
X246093954Y-114870176D01*
X246108370Y-114854270D01*
X246124276Y-114839854D01*
X246141519Y-114827066D01*
X246159932Y-114816030D01*
X246179338Y-114806851D01*
X246199550Y-114799619D01*
X246220374Y-114794403D01*
X246241609Y-114791253D01*
X246263050Y-114790200D01*
X246700550Y-114790200D01*
X246721991Y-114791253D01*
X246721991Y-114791253D01*
G37*
D13*
X246481800Y-115265200D03*
D10*
G36*
X245146991Y-116569253D02*
G01*
X245168226Y-116572403D01*
X245189050Y-116577619D01*
X245209262Y-116584851D01*
X245228668Y-116594030D01*
X245247081Y-116605066D01*
X245264324Y-116617854D01*
X245280230Y-116632270D01*
X245294646Y-116648176D01*
X245307434Y-116665419D01*
X245318470Y-116683832D01*
X245327649Y-116703238D01*
X245334881Y-116723450D01*
X245340097Y-116744274D01*
X245343247Y-116765509D01*
X245344300Y-116786950D01*
X245344300Y-117299450D01*
X245343247Y-117320891D01*
X245340097Y-117342126D01*
X245334881Y-117362950D01*
X245327649Y-117383162D01*
X245318470Y-117402568D01*
X245307434Y-117420981D01*
X245294646Y-117438224D01*
X245280230Y-117454130D01*
X245264324Y-117468546D01*
X245247081Y-117481334D01*
X245228668Y-117492370D01*
X245209262Y-117501549D01*
X245189050Y-117508781D01*
X245168226Y-117513997D01*
X245146991Y-117517147D01*
X245125550Y-117518200D01*
X244688050Y-117518200D01*
X244666609Y-117517147D01*
X244645374Y-117513997D01*
X244624550Y-117508781D01*
X244604338Y-117501549D01*
X244584932Y-117492370D01*
X244566519Y-117481334D01*
X244549276Y-117468546D01*
X244533370Y-117454130D01*
X244518954Y-117438224D01*
X244506166Y-117420981D01*
X244495130Y-117402568D01*
X244485951Y-117383162D01*
X244478719Y-117362950D01*
X244473503Y-117342126D01*
X244470353Y-117320891D01*
X244469300Y-117299450D01*
X244469300Y-116786950D01*
X244470353Y-116765509D01*
X244473503Y-116744274D01*
X244478719Y-116723450D01*
X244485951Y-116703238D01*
X244495130Y-116683832D01*
X244506166Y-116665419D01*
X244518954Y-116648176D01*
X244533370Y-116632270D01*
X244549276Y-116617854D01*
X244566519Y-116605066D01*
X244584932Y-116594030D01*
X244604338Y-116584851D01*
X244624550Y-116577619D01*
X244645374Y-116572403D01*
X244666609Y-116569253D01*
X244688050Y-116568200D01*
X245125550Y-116568200D01*
X245146991Y-116569253D01*
X245146991Y-116569253D01*
G37*
D13*
X244906800Y-117043200D03*
D10*
G36*
X246721991Y-116569253D02*
G01*
X246743226Y-116572403D01*
X246764050Y-116577619D01*
X246784262Y-116584851D01*
X246803668Y-116594030D01*
X246822081Y-116605066D01*
X246839324Y-116617854D01*
X246855230Y-116632270D01*
X246869646Y-116648176D01*
X246882434Y-116665419D01*
X246893470Y-116683832D01*
X246902649Y-116703238D01*
X246909881Y-116723450D01*
X246915097Y-116744274D01*
X246918247Y-116765509D01*
X246919300Y-116786950D01*
X246919300Y-117299450D01*
X246918247Y-117320891D01*
X246915097Y-117342126D01*
X246909881Y-117362950D01*
X246902649Y-117383162D01*
X246893470Y-117402568D01*
X246882434Y-117420981D01*
X246869646Y-117438224D01*
X246855230Y-117454130D01*
X246839324Y-117468546D01*
X246822081Y-117481334D01*
X246803668Y-117492370D01*
X246784262Y-117501549D01*
X246764050Y-117508781D01*
X246743226Y-117513997D01*
X246721991Y-117517147D01*
X246700550Y-117518200D01*
X246263050Y-117518200D01*
X246241609Y-117517147D01*
X246220374Y-117513997D01*
X246199550Y-117508781D01*
X246179338Y-117501549D01*
X246159932Y-117492370D01*
X246141519Y-117481334D01*
X246124276Y-117468546D01*
X246108370Y-117454130D01*
X246093954Y-117438224D01*
X246081166Y-117420981D01*
X246070130Y-117402568D01*
X246060951Y-117383162D01*
X246053719Y-117362950D01*
X246048503Y-117342126D01*
X246045353Y-117320891D01*
X246044300Y-117299450D01*
X246044300Y-116786950D01*
X246045353Y-116765509D01*
X246048503Y-116744274D01*
X246053719Y-116723450D01*
X246060951Y-116703238D01*
X246070130Y-116683832D01*
X246081166Y-116665419D01*
X246093954Y-116648176D01*
X246108370Y-116632270D01*
X246124276Y-116617854D01*
X246141519Y-116605066D01*
X246159932Y-116594030D01*
X246179338Y-116584851D01*
X246199550Y-116577619D01*
X246220374Y-116572403D01*
X246241609Y-116569253D01*
X246263050Y-116568200D01*
X246700550Y-116568200D01*
X246721991Y-116569253D01*
X246721991Y-116569253D01*
G37*
D13*
X246481800Y-117043200D03*
D10*
G36*
X212914703Y-116480722D02*
G01*
X212929264Y-116482882D01*
X212943543Y-116486459D01*
X212957403Y-116491418D01*
X212970710Y-116497712D01*
X212983336Y-116505280D01*
X212995159Y-116514048D01*
X213006066Y-116523934D01*
X213015952Y-116534841D01*
X213024720Y-116546664D01*
X213032288Y-116559290D01*
X213038582Y-116572597D01*
X213043541Y-116586457D01*
X213047118Y-116600736D01*
X213049278Y-116615297D01*
X213050000Y-116630000D01*
X213050000Y-116930000D01*
X213049278Y-116944703D01*
X213047118Y-116959264D01*
X213043541Y-116973543D01*
X213038582Y-116987403D01*
X213032288Y-117000710D01*
X213024720Y-117013336D01*
X213015952Y-117025159D01*
X213006066Y-117036066D01*
X212995159Y-117045952D01*
X212983336Y-117054720D01*
X212970710Y-117062288D01*
X212957403Y-117068582D01*
X212943543Y-117073541D01*
X212929264Y-117077118D01*
X212914703Y-117079278D01*
X212900000Y-117080000D01*
X211250000Y-117080000D01*
X211235297Y-117079278D01*
X211220736Y-117077118D01*
X211206457Y-117073541D01*
X211192597Y-117068582D01*
X211179290Y-117062288D01*
X211166664Y-117054720D01*
X211154841Y-117045952D01*
X211143934Y-117036066D01*
X211134048Y-117025159D01*
X211125280Y-117013336D01*
X211117712Y-117000710D01*
X211111418Y-116987403D01*
X211106459Y-116973543D01*
X211102882Y-116959264D01*
X211100722Y-116944703D01*
X211100000Y-116930000D01*
X211100000Y-116630000D01*
X211100722Y-116615297D01*
X211102882Y-116600736D01*
X211106459Y-116586457D01*
X211111418Y-116572597D01*
X211117712Y-116559290D01*
X211125280Y-116546664D01*
X211134048Y-116534841D01*
X211143934Y-116523934D01*
X211154841Y-116514048D01*
X211166664Y-116505280D01*
X211179290Y-116497712D01*
X211192597Y-116491418D01*
X211206457Y-116486459D01*
X211220736Y-116482882D01*
X211235297Y-116480722D01*
X211250000Y-116480000D01*
X212900000Y-116480000D01*
X212914703Y-116480722D01*
X212914703Y-116480722D01*
G37*
D14*
X212075000Y-116780000D03*
D10*
G36*
X212914703Y-117750722D02*
G01*
X212929264Y-117752882D01*
X212943543Y-117756459D01*
X212957403Y-117761418D01*
X212970710Y-117767712D01*
X212983336Y-117775280D01*
X212995159Y-117784048D01*
X213006066Y-117793934D01*
X213015952Y-117804841D01*
X213024720Y-117816664D01*
X213032288Y-117829290D01*
X213038582Y-117842597D01*
X213043541Y-117856457D01*
X213047118Y-117870736D01*
X213049278Y-117885297D01*
X213050000Y-117900000D01*
X213050000Y-118200000D01*
X213049278Y-118214703D01*
X213047118Y-118229264D01*
X213043541Y-118243543D01*
X213038582Y-118257403D01*
X213032288Y-118270710D01*
X213024720Y-118283336D01*
X213015952Y-118295159D01*
X213006066Y-118306066D01*
X212995159Y-118315952D01*
X212983336Y-118324720D01*
X212970710Y-118332288D01*
X212957403Y-118338582D01*
X212943543Y-118343541D01*
X212929264Y-118347118D01*
X212914703Y-118349278D01*
X212900000Y-118350000D01*
X211250000Y-118350000D01*
X211235297Y-118349278D01*
X211220736Y-118347118D01*
X211206457Y-118343541D01*
X211192597Y-118338582D01*
X211179290Y-118332288D01*
X211166664Y-118324720D01*
X211154841Y-118315952D01*
X211143934Y-118306066D01*
X211134048Y-118295159D01*
X211125280Y-118283336D01*
X211117712Y-118270710D01*
X211111418Y-118257403D01*
X211106459Y-118243543D01*
X211102882Y-118229264D01*
X211100722Y-118214703D01*
X211100000Y-118200000D01*
X211100000Y-117900000D01*
X211100722Y-117885297D01*
X211102882Y-117870736D01*
X211106459Y-117856457D01*
X211111418Y-117842597D01*
X211117712Y-117829290D01*
X211125280Y-117816664D01*
X211134048Y-117804841D01*
X211143934Y-117793934D01*
X211154841Y-117784048D01*
X211166664Y-117775280D01*
X211179290Y-117767712D01*
X211192597Y-117761418D01*
X211206457Y-117756459D01*
X211220736Y-117752882D01*
X211235297Y-117750722D01*
X211250000Y-117750000D01*
X212900000Y-117750000D01*
X212914703Y-117750722D01*
X212914703Y-117750722D01*
G37*
D14*
X212075000Y-118050000D03*
D10*
G36*
X212914703Y-119020722D02*
G01*
X212929264Y-119022882D01*
X212943543Y-119026459D01*
X212957403Y-119031418D01*
X212970710Y-119037712D01*
X212983336Y-119045280D01*
X212995159Y-119054048D01*
X213006066Y-119063934D01*
X213015952Y-119074841D01*
X213024720Y-119086664D01*
X213032288Y-119099290D01*
X213038582Y-119112597D01*
X213043541Y-119126457D01*
X213047118Y-119140736D01*
X213049278Y-119155297D01*
X213050000Y-119170000D01*
X213050000Y-119470000D01*
X213049278Y-119484703D01*
X213047118Y-119499264D01*
X213043541Y-119513543D01*
X213038582Y-119527403D01*
X213032288Y-119540710D01*
X213024720Y-119553336D01*
X213015952Y-119565159D01*
X213006066Y-119576066D01*
X212995159Y-119585952D01*
X212983336Y-119594720D01*
X212970710Y-119602288D01*
X212957403Y-119608582D01*
X212943543Y-119613541D01*
X212929264Y-119617118D01*
X212914703Y-119619278D01*
X212900000Y-119620000D01*
X211250000Y-119620000D01*
X211235297Y-119619278D01*
X211220736Y-119617118D01*
X211206457Y-119613541D01*
X211192597Y-119608582D01*
X211179290Y-119602288D01*
X211166664Y-119594720D01*
X211154841Y-119585952D01*
X211143934Y-119576066D01*
X211134048Y-119565159D01*
X211125280Y-119553336D01*
X211117712Y-119540710D01*
X211111418Y-119527403D01*
X211106459Y-119513543D01*
X211102882Y-119499264D01*
X211100722Y-119484703D01*
X211100000Y-119470000D01*
X211100000Y-119170000D01*
X211100722Y-119155297D01*
X211102882Y-119140736D01*
X211106459Y-119126457D01*
X211111418Y-119112597D01*
X211117712Y-119099290D01*
X211125280Y-119086664D01*
X211134048Y-119074841D01*
X211143934Y-119063934D01*
X211154841Y-119054048D01*
X211166664Y-119045280D01*
X211179290Y-119037712D01*
X211192597Y-119031418D01*
X211206457Y-119026459D01*
X211220736Y-119022882D01*
X211235297Y-119020722D01*
X211250000Y-119020000D01*
X212900000Y-119020000D01*
X212914703Y-119020722D01*
X212914703Y-119020722D01*
G37*
D14*
X212075000Y-119320000D03*
D10*
G36*
X212914703Y-120290722D02*
G01*
X212929264Y-120292882D01*
X212943543Y-120296459D01*
X212957403Y-120301418D01*
X212970710Y-120307712D01*
X212983336Y-120315280D01*
X212995159Y-120324048D01*
X213006066Y-120333934D01*
X213015952Y-120344841D01*
X213024720Y-120356664D01*
X213032288Y-120369290D01*
X213038582Y-120382597D01*
X213043541Y-120396457D01*
X213047118Y-120410736D01*
X213049278Y-120425297D01*
X213050000Y-120440000D01*
X213050000Y-120740000D01*
X213049278Y-120754703D01*
X213047118Y-120769264D01*
X213043541Y-120783543D01*
X213038582Y-120797403D01*
X213032288Y-120810710D01*
X213024720Y-120823336D01*
X213015952Y-120835159D01*
X213006066Y-120846066D01*
X212995159Y-120855952D01*
X212983336Y-120864720D01*
X212970710Y-120872288D01*
X212957403Y-120878582D01*
X212943543Y-120883541D01*
X212929264Y-120887118D01*
X212914703Y-120889278D01*
X212900000Y-120890000D01*
X211250000Y-120890000D01*
X211235297Y-120889278D01*
X211220736Y-120887118D01*
X211206457Y-120883541D01*
X211192597Y-120878582D01*
X211179290Y-120872288D01*
X211166664Y-120864720D01*
X211154841Y-120855952D01*
X211143934Y-120846066D01*
X211134048Y-120835159D01*
X211125280Y-120823336D01*
X211117712Y-120810710D01*
X211111418Y-120797403D01*
X211106459Y-120783543D01*
X211102882Y-120769264D01*
X211100722Y-120754703D01*
X211100000Y-120740000D01*
X211100000Y-120440000D01*
X211100722Y-120425297D01*
X211102882Y-120410736D01*
X211106459Y-120396457D01*
X211111418Y-120382597D01*
X211117712Y-120369290D01*
X211125280Y-120356664D01*
X211134048Y-120344841D01*
X211143934Y-120333934D01*
X211154841Y-120324048D01*
X211166664Y-120315280D01*
X211179290Y-120307712D01*
X211192597Y-120301418D01*
X211206457Y-120296459D01*
X211220736Y-120292882D01*
X211235297Y-120290722D01*
X211250000Y-120290000D01*
X212900000Y-120290000D01*
X212914703Y-120290722D01*
X212914703Y-120290722D01*
G37*
D14*
X212075000Y-120590000D03*
D10*
G36*
X212914703Y-121560722D02*
G01*
X212929264Y-121562882D01*
X212943543Y-121566459D01*
X212957403Y-121571418D01*
X212970710Y-121577712D01*
X212983336Y-121585280D01*
X212995159Y-121594048D01*
X213006066Y-121603934D01*
X213015952Y-121614841D01*
X213024720Y-121626664D01*
X213032288Y-121639290D01*
X213038582Y-121652597D01*
X213043541Y-121666457D01*
X213047118Y-121680736D01*
X213049278Y-121695297D01*
X213050000Y-121710000D01*
X213050000Y-122010000D01*
X213049278Y-122024703D01*
X213047118Y-122039264D01*
X213043541Y-122053543D01*
X213038582Y-122067403D01*
X213032288Y-122080710D01*
X213024720Y-122093336D01*
X213015952Y-122105159D01*
X213006066Y-122116066D01*
X212995159Y-122125952D01*
X212983336Y-122134720D01*
X212970710Y-122142288D01*
X212957403Y-122148582D01*
X212943543Y-122153541D01*
X212929264Y-122157118D01*
X212914703Y-122159278D01*
X212900000Y-122160000D01*
X211250000Y-122160000D01*
X211235297Y-122159278D01*
X211220736Y-122157118D01*
X211206457Y-122153541D01*
X211192597Y-122148582D01*
X211179290Y-122142288D01*
X211166664Y-122134720D01*
X211154841Y-122125952D01*
X211143934Y-122116066D01*
X211134048Y-122105159D01*
X211125280Y-122093336D01*
X211117712Y-122080710D01*
X211111418Y-122067403D01*
X211106459Y-122053543D01*
X211102882Y-122039264D01*
X211100722Y-122024703D01*
X211100000Y-122010000D01*
X211100000Y-121710000D01*
X211100722Y-121695297D01*
X211102882Y-121680736D01*
X211106459Y-121666457D01*
X211111418Y-121652597D01*
X211117712Y-121639290D01*
X211125280Y-121626664D01*
X211134048Y-121614841D01*
X211143934Y-121603934D01*
X211154841Y-121594048D01*
X211166664Y-121585280D01*
X211179290Y-121577712D01*
X211192597Y-121571418D01*
X211206457Y-121566459D01*
X211220736Y-121562882D01*
X211235297Y-121560722D01*
X211250000Y-121560000D01*
X212900000Y-121560000D01*
X212914703Y-121560722D01*
X212914703Y-121560722D01*
G37*
D14*
X212075000Y-121860000D03*
D10*
G36*
X212914703Y-122830722D02*
G01*
X212929264Y-122832882D01*
X212943543Y-122836459D01*
X212957403Y-122841418D01*
X212970710Y-122847712D01*
X212983336Y-122855280D01*
X212995159Y-122864048D01*
X213006066Y-122873934D01*
X213015952Y-122884841D01*
X213024720Y-122896664D01*
X213032288Y-122909290D01*
X213038582Y-122922597D01*
X213043541Y-122936457D01*
X213047118Y-122950736D01*
X213049278Y-122965297D01*
X213050000Y-122980000D01*
X213050000Y-123280000D01*
X213049278Y-123294703D01*
X213047118Y-123309264D01*
X213043541Y-123323543D01*
X213038582Y-123337403D01*
X213032288Y-123350710D01*
X213024720Y-123363336D01*
X213015952Y-123375159D01*
X213006066Y-123386066D01*
X212995159Y-123395952D01*
X212983336Y-123404720D01*
X212970710Y-123412288D01*
X212957403Y-123418582D01*
X212943543Y-123423541D01*
X212929264Y-123427118D01*
X212914703Y-123429278D01*
X212900000Y-123430000D01*
X211250000Y-123430000D01*
X211235297Y-123429278D01*
X211220736Y-123427118D01*
X211206457Y-123423541D01*
X211192597Y-123418582D01*
X211179290Y-123412288D01*
X211166664Y-123404720D01*
X211154841Y-123395952D01*
X211143934Y-123386066D01*
X211134048Y-123375159D01*
X211125280Y-123363336D01*
X211117712Y-123350710D01*
X211111418Y-123337403D01*
X211106459Y-123323543D01*
X211102882Y-123309264D01*
X211100722Y-123294703D01*
X211100000Y-123280000D01*
X211100000Y-122980000D01*
X211100722Y-122965297D01*
X211102882Y-122950736D01*
X211106459Y-122936457D01*
X211111418Y-122922597D01*
X211117712Y-122909290D01*
X211125280Y-122896664D01*
X211134048Y-122884841D01*
X211143934Y-122873934D01*
X211154841Y-122864048D01*
X211166664Y-122855280D01*
X211179290Y-122847712D01*
X211192597Y-122841418D01*
X211206457Y-122836459D01*
X211220736Y-122832882D01*
X211235297Y-122830722D01*
X211250000Y-122830000D01*
X212900000Y-122830000D01*
X212914703Y-122830722D01*
X212914703Y-122830722D01*
G37*
D14*
X212075000Y-123130000D03*
D10*
G36*
X212914703Y-124100722D02*
G01*
X212929264Y-124102882D01*
X212943543Y-124106459D01*
X212957403Y-124111418D01*
X212970710Y-124117712D01*
X212983336Y-124125280D01*
X212995159Y-124134048D01*
X213006066Y-124143934D01*
X213015952Y-124154841D01*
X213024720Y-124166664D01*
X213032288Y-124179290D01*
X213038582Y-124192597D01*
X213043541Y-124206457D01*
X213047118Y-124220736D01*
X213049278Y-124235297D01*
X213050000Y-124250000D01*
X213050000Y-124550000D01*
X213049278Y-124564703D01*
X213047118Y-124579264D01*
X213043541Y-124593543D01*
X213038582Y-124607403D01*
X213032288Y-124620710D01*
X213024720Y-124633336D01*
X213015952Y-124645159D01*
X213006066Y-124656066D01*
X212995159Y-124665952D01*
X212983336Y-124674720D01*
X212970710Y-124682288D01*
X212957403Y-124688582D01*
X212943543Y-124693541D01*
X212929264Y-124697118D01*
X212914703Y-124699278D01*
X212900000Y-124700000D01*
X211250000Y-124700000D01*
X211235297Y-124699278D01*
X211220736Y-124697118D01*
X211206457Y-124693541D01*
X211192597Y-124688582D01*
X211179290Y-124682288D01*
X211166664Y-124674720D01*
X211154841Y-124665952D01*
X211143934Y-124656066D01*
X211134048Y-124645159D01*
X211125280Y-124633336D01*
X211117712Y-124620710D01*
X211111418Y-124607403D01*
X211106459Y-124593543D01*
X211102882Y-124579264D01*
X211100722Y-124564703D01*
X211100000Y-124550000D01*
X211100000Y-124250000D01*
X211100722Y-124235297D01*
X211102882Y-124220736D01*
X211106459Y-124206457D01*
X211111418Y-124192597D01*
X211117712Y-124179290D01*
X211125280Y-124166664D01*
X211134048Y-124154841D01*
X211143934Y-124143934D01*
X211154841Y-124134048D01*
X211166664Y-124125280D01*
X211179290Y-124117712D01*
X211192597Y-124111418D01*
X211206457Y-124106459D01*
X211220736Y-124102882D01*
X211235297Y-124100722D01*
X211250000Y-124100000D01*
X212900000Y-124100000D01*
X212914703Y-124100722D01*
X212914703Y-124100722D01*
G37*
D14*
X212075000Y-124400000D03*
D10*
G36*
X212914703Y-125370722D02*
G01*
X212929264Y-125372882D01*
X212943543Y-125376459D01*
X212957403Y-125381418D01*
X212970710Y-125387712D01*
X212983336Y-125395280D01*
X212995159Y-125404048D01*
X213006066Y-125413934D01*
X213015952Y-125424841D01*
X213024720Y-125436664D01*
X213032288Y-125449290D01*
X213038582Y-125462597D01*
X213043541Y-125476457D01*
X213047118Y-125490736D01*
X213049278Y-125505297D01*
X213050000Y-125520000D01*
X213050000Y-125820000D01*
X213049278Y-125834703D01*
X213047118Y-125849264D01*
X213043541Y-125863543D01*
X213038582Y-125877403D01*
X213032288Y-125890710D01*
X213024720Y-125903336D01*
X213015952Y-125915159D01*
X213006066Y-125926066D01*
X212995159Y-125935952D01*
X212983336Y-125944720D01*
X212970710Y-125952288D01*
X212957403Y-125958582D01*
X212943543Y-125963541D01*
X212929264Y-125967118D01*
X212914703Y-125969278D01*
X212900000Y-125970000D01*
X211250000Y-125970000D01*
X211235297Y-125969278D01*
X211220736Y-125967118D01*
X211206457Y-125963541D01*
X211192597Y-125958582D01*
X211179290Y-125952288D01*
X211166664Y-125944720D01*
X211154841Y-125935952D01*
X211143934Y-125926066D01*
X211134048Y-125915159D01*
X211125280Y-125903336D01*
X211117712Y-125890710D01*
X211111418Y-125877403D01*
X211106459Y-125863543D01*
X211102882Y-125849264D01*
X211100722Y-125834703D01*
X211100000Y-125820000D01*
X211100000Y-125520000D01*
X211100722Y-125505297D01*
X211102882Y-125490736D01*
X211106459Y-125476457D01*
X211111418Y-125462597D01*
X211117712Y-125449290D01*
X211125280Y-125436664D01*
X211134048Y-125424841D01*
X211143934Y-125413934D01*
X211154841Y-125404048D01*
X211166664Y-125395280D01*
X211179290Y-125387712D01*
X211192597Y-125381418D01*
X211206457Y-125376459D01*
X211220736Y-125372882D01*
X211235297Y-125370722D01*
X211250000Y-125370000D01*
X212900000Y-125370000D01*
X212914703Y-125370722D01*
X212914703Y-125370722D01*
G37*
D14*
X212075000Y-125670000D03*
D10*
G36*
X207964703Y-125370722D02*
G01*
X207979264Y-125372882D01*
X207993543Y-125376459D01*
X208007403Y-125381418D01*
X208020710Y-125387712D01*
X208033336Y-125395280D01*
X208045159Y-125404048D01*
X208056066Y-125413934D01*
X208065952Y-125424841D01*
X208074720Y-125436664D01*
X208082288Y-125449290D01*
X208088582Y-125462597D01*
X208093541Y-125476457D01*
X208097118Y-125490736D01*
X208099278Y-125505297D01*
X208100000Y-125520000D01*
X208100000Y-125820000D01*
X208099278Y-125834703D01*
X208097118Y-125849264D01*
X208093541Y-125863543D01*
X208088582Y-125877403D01*
X208082288Y-125890710D01*
X208074720Y-125903336D01*
X208065952Y-125915159D01*
X208056066Y-125926066D01*
X208045159Y-125935952D01*
X208033336Y-125944720D01*
X208020710Y-125952288D01*
X208007403Y-125958582D01*
X207993543Y-125963541D01*
X207979264Y-125967118D01*
X207964703Y-125969278D01*
X207950000Y-125970000D01*
X206300000Y-125970000D01*
X206285297Y-125969278D01*
X206270736Y-125967118D01*
X206256457Y-125963541D01*
X206242597Y-125958582D01*
X206229290Y-125952288D01*
X206216664Y-125944720D01*
X206204841Y-125935952D01*
X206193934Y-125926066D01*
X206184048Y-125915159D01*
X206175280Y-125903336D01*
X206167712Y-125890710D01*
X206161418Y-125877403D01*
X206156459Y-125863543D01*
X206152882Y-125849264D01*
X206150722Y-125834703D01*
X206150000Y-125820000D01*
X206150000Y-125520000D01*
X206150722Y-125505297D01*
X206152882Y-125490736D01*
X206156459Y-125476457D01*
X206161418Y-125462597D01*
X206167712Y-125449290D01*
X206175280Y-125436664D01*
X206184048Y-125424841D01*
X206193934Y-125413934D01*
X206204841Y-125404048D01*
X206216664Y-125395280D01*
X206229290Y-125387712D01*
X206242597Y-125381418D01*
X206256457Y-125376459D01*
X206270736Y-125372882D01*
X206285297Y-125370722D01*
X206300000Y-125370000D01*
X207950000Y-125370000D01*
X207964703Y-125370722D01*
X207964703Y-125370722D01*
G37*
D14*
X207125000Y-125670000D03*
D10*
G36*
X207964703Y-124100722D02*
G01*
X207979264Y-124102882D01*
X207993543Y-124106459D01*
X208007403Y-124111418D01*
X208020710Y-124117712D01*
X208033336Y-124125280D01*
X208045159Y-124134048D01*
X208056066Y-124143934D01*
X208065952Y-124154841D01*
X208074720Y-124166664D01*
X208082288Y-124179290D01*
X208088582Y-124192597D01*
X208093541Y-124206457D01*
X208097118Y-124220736D01*
X208099278Y-124235297D01*
X208100000Y-124250000D01*
X208100000Y-124550000D01*
X208099278Y-124564703D01*
X208097118Y-124579264D01*
X208093541Y-124593543D01*
X208088582Y-124607403D01*
X208082288Y-124620710D01*
X208074720Y-124633336D01*
X208065952Y-124645159D01*
X208056066Y-124656066D01*
X208045159Y-124665952D01*
X208033336Y-124674720D01*
X208020710Y-124682288D01*
X208007403Y-124688582D01*
X207993543Y-124693541D01*
X207979264Y-124697118D01*
X207964703Y-124699278D01*
X207950000Y-124700000D01*
X206300000Y-124700000D01*
X206285297Y-124699278D01*
X206270736Y-124697118D01*
X206256457Y-124693541D01*
X206242597Y-124688582D01*
X206229290Y-124682288D01*
X206216664Y-124674720D01*
X206204841Y-124665952D01*
X206193934Y-124656066D01*
X206184048Y-124645159D01*
X206175280Y-124633336D01*
X206167712Y-124620710D01*
X206161418Y-124607403D01*
X206156459Y-124593543D01*
X206152882Y-124579264D01*
X206150722Y-124564703D01*
X206150000Y-124550000D01*
X206150000Y-124250000D01*
X206150722Y-124235297D01*
X206152882Y-124220736D01*
X206156459Y-124206457D01*
X206161418Y-124192597D01*
X206167712Y-124179290D01*
X206175280Y-124166664D01*
X206184048Y-124154841D01*
X206193934Y-124143934D01*
X206204841Y-124134048D01*
X206216664Y-124125280D01*
X206229290Y-124117712D01*
X206242597Y-124111418D01*
X206256457Y-124106459D01*
X206270736Y-124102882D01*
X206285297Y-124100722D01*
X206300000Y-124100000D01*
X207950000Y-124100000D01*
X207964703Y-124100722D01*
X207964703Y-124100722D01*
G37*
D14*
X207125000Y-124400000D03*
D10*
G36*
X207964703Y-122830722D02*
G01*
X207979264Y-122832882D01*
X207993543Y-122836459D01*
X208007403Y-122841418D01*
X208020710Y-122847712D01*
X208033336Y-122855280D01*
X208045159Y-122864048D01*
X208056066Y-122873934D01*
X208065952Y-122884841D01*
X208074720Y-122896664D01*
X208082288Y-122909290D01*
X208088582Y-122922597D01*
X208093541Y-122936457D01*
X208097118Y-122950736D01*
X208099278Y-122965297D01*
X208100000Y-122980000D01*
X208100000Y-123280000D01*
X208099278Y-123294703D01*
X208097118Y-123309264D01*
X208093541Y-123323543D01*
X208088582Y-123337403D01*
X208082288Y-123350710D01*
X208074720Y-123363336D01*
X208065952Y-123375159D01*
X208056066Y-123386066D01*
X208045159Y-123395952D01*
X208033336Y-123404720D01*
X208020710Y-123412288D01*
X208007403Y-123418582D01*
X207993543Y-123423541D01*
X207979264Y-123427118D01*
X207964703Y-123429278D01*
X207950000Y-123430000D01*
X206300000Y-123430000D01*
X206285297Y-123429278D01*
X206270736Y-123427118D01*
X206256457Y-123423541D01*
X206242597Y-123418582D01*
X206229290Y-123412288D01*
X206216664Y-123404720D01*
X206204841Y-123395952D01*
X206193934Y-123386066D01*
X206184048Y-123375159D01*
X206175280Y-123363336D01*
X206167712Y-123350710D01*
X206161418Y-123337403D01*
X206156459Y-123323543D01*
X206152882Y-123309264D01*
X206150722Y-123294703D01*
X206150000Y-123280000D01*
X206150000Y-122980000D01*
X206150722Y-122965297D01*
X206152882Y-122950736D01*
X206156459Y-122936457D01*
X206161418Y-122922597D01*
X206167712Y-122909290D01*
X206175280Y-122896664D01*
X206184048Y-122884841D01*
X206193934Y-122873934D01*
X206204841Y-122864048D01*
X206216664Y-122855280D01*
X206229290Y-122847712D01*
X206242597Y-122841418D01*
X206256457Y-122836459D01*
X206270736Y-122832882D01*
X206285297Y-122830722D01*
X206300000Y-122830000D01*
X207950000Y-122830000D01*
X207964703Y-122830722D01*
X207964703Y-122830722D01*
G37*
D14*
X207125000Y-123130000D03*
D10*
G36*
X207964703Y-121560722D02*
G01*
X207979264Y-121562882D01*
X207993543Y-121566459D01*
X208007403Y-121571418D01*
X208020710Y-121577712D01*
X208033336Y-121585280D01*
X208045159Y-121594048D01*
X208056066Y-121603934D01*
X208065952Y-121614841D01*
X208074720Y-121626664D01*
X208082288Y-121639290D01*
X208088582Y-121652597D01*
X208093541Y-121666457D01*
X208097118Y-121680736D01*
X208099278Y-121695297D01*
X208100000Y-121710000D01*
X208100000Y-122010000D01*
X208099278Y-122024703D01*
X208097118Y-122039264D01*
X208093541Y-122053543D01*
X208088582Y-122067403D01*
X208082288Y-122080710D01*
X208074720Y-122093336D01*
X208065952Y-122105159D01*
X208056066Y-122116066D01*
X208045159Y-122125952D01*
X208033336Y-122134720D01*
X208020710Y-122142288D01*
X208007403Y-122148582D01*
X207993543Y-122153541D01*
X207979264Y-122157118D01*
X207964703Y-122159278D01*
X207950000Y-122160000D01*
X206300000Y-122160000D01*
X206285297Y-122159278D01*
X206270736Y-122157118D01*
X206256457Y-122153541D01*
X206242597Y-122148582D01*
X206229290Y-122142288D01*
X206216664Y-122134720D01*
X206204841Y-122125952D01*
X206193934Y-122116066D01*
X206184048Y-122105159D01*
X206175280Y-122093336D01*
X206167712Y-122080710D01*
X206161418Y-122067403D01*
X206156459Y-122053543D01*
X206152882Y-122039264D01*
X206150722Y-122024703D01*
X206150000Y-122010000D01*
X206150000Y-121710000D01*
X206150722Y-121695297D01*
X206152882Y-121680736D01*
X206156459Y-121666457D01*
X206161418Y-121652597D01*
X206167712Y-121639290D01*
X206175280Y-121626664D01*
X206184048Y-121614841D01*
X206193934Y-121603934D01*
X206204841Y-121594048D01*
X206216664Y-121585280D01*
X206229290Y-121577712D01*
X206242597Y-121571418D01*
X206256457Y-121566459D01*
X206270736Y-121562882D01*
X206285297Y-121560722D01*
X206300000Y-121560000D01*
X207950000Y-121560000D01*
X207964703Y-121560722D01*
X207964703Y-121560722D01*
G37*
D14*
X207125000Y-121860000D03*
D10*
G36*
X207964703Y-120290722D02*
G01*
X207979264Y-120292882D01*
X207993543Y-120296459D01*
X208007403Y-120301418D01*
X208020710Y-120307712D01*
X208033336Y-120315280D01*
X208045159Y-120324048D01*
X208056066Y-120333934D01*
X208065952Y-120344841D01*
X208074720Y-120356664D01*
X208082288Y-120369290D01*
X208088582Y-120382597D01*
X208093541Y-120396457D01*
X208097118Y-120410736D01*
X208099278Y-120425297D01*
X208100000Y-120440000D01*
X208100000Y-120740000D01*
X208099278Y-120754703D01*
X208097118Y-120769264D01*
X208093541Y-120783543D01*
X208088582Y-120797403D01*
X208082288Y-120810710D01*
X208074720Y-120823336D01*
X208065952Y-120835159D01*
X208056066Y-120846066D01*
X208045159Y-120855952D01*
X208033336Y-120864720D01*
X208020710Y-120872288D01*
X208007403Y-120878582D01*
X207993543Y-120883541D01*
X207979264Y-120887118D01*
X207964703Y-120889278D01*
X207950000Y-120890000D01*
X206300000Y-120890000D01*
X206285297Y-120889278D01*
X206270736Y-120887118D01*
X206256457Y-120883541D01*
X206242597Y-120878582D01*
X206229290Y-120872288D01*
X206216664Y-120864720D01*
X206204841Y-120855952D01*
X206193934Y-120846066D01*
X206184048Y-120835159D01*
X206175280Y-120823336D01*
X206167712Y-120810710D01*
X206161418Y-120797403D01*
X206156459Y-120783543D01*
X206152882Y-120769264D01*
X206150722Y-120754703D01*
X206150000Y-120740000D01*
X206150000Y-120440000D01*
X206150722Y-120425297D01*
X206152882Y-120410736D01*
X206156459Y-120396457D01*
X206161418Y-120382597D01*
X206167712Y-120369290D01*
X206175280Y-120356664D01*
X206184048Y-120344841D01*
X206193934Y-120333934D01*
X206204841Y-120324048D01*
X206216664Y-120315280D01*
X206229290Y-120307712D01*
X206242597Y-120301418D01*
X206256457Y-120296459D01*
X206270736Y-120292882D01*
X206285297Y-120290722D01*
X206300000Y-120290000D01*
X207950000Y-120290000D01*
X207964703Y-120290722D01*
X207964703Y-120290722D01*
G37*
D14*
X207125000Y-120590000D03*
D10*
G36*
X207964703Y-119020722D02*
G01*
X207979264Y-119022882D01*
X207993543Y-119026459D01*
X208007403Y-119031418D01*
X208020710Y-119037712D01*
X208033336Y-119045280D01*
X208045159Y-119054048D01*
X208056066Y-119063934D01*
X208065952Y-119074841D01*
X208074720Y-119086664D01*
X208082288Y-119099290D01*
X208088582Y-119112597D01*
X208093541Y-119126457D01*
X208097118Y-119140736D01*
X208099278Y-119155297D01*
X208100000Y-119170000D01*
X208100000Y-119470000D01*
X208099278Y-119484703D01*
X208097118Y-119499264D01*
X208093541Y-119513543D01*
X208088582Y-119527403D01*
X208082288Y-119540710D01*
X208074720Y-119553336D01*
X208065952Y-119565159D01*
X208056066Y-119576066D01*
X208045159Y-119585952D01*
X208033336Y-119594720D01*
X208020710Y-119602288D01*
X208007403Y-119608582D01*
X207993543Y-119613541D01*
X207979264Y-119617118D01*
X207964703Y-119619278D01*
X207950000Y-119620000D01*
X206300000Y-119620000D01*
X206285297Y-119619278D01*
X206270736Y-119617118D01*
X206256457Y-119613541D01*
X206242597Y-119608582D01*
X206229290Y-119602288D01*
X206216664Y-119594720D01*
X206204841Y-119585952D01*
X206193934Y-119576066D01*
X206184048Y-119565159D01*
X206175280Y-119553336D01*
X206167712Y-119540710D01*
X206161418Y-119527403D01*
X206156459Y-119513543D01*
X206152882Y-119499264D01*
X206150722Y-119484703D01*
X206150000Y-119470000D01*
X206150000Y-119170000D01*
X206150722Y-119155297D01*
X206152882Y-119140736D01*
X206156459Y-119126457D01*
X206161418Y-119112597D01*
X206167712Y-119099290D01*
X206175280Y-119086664D01*
X206184048Y-119074841D01*
X206193934Y-119063934D01*
X206204841Y-119054048D01*
X206216664Y-119045280D01*
X206229290Y-119037712D01*
X206242597Y-119031418D01*
X206256457Y-119026459D01*
X206270736Y-119022882D01*
X206285297Y-119020722D01*
X206300000Y-119020000D01*
X207950000Y-119020000D01*
X207964703Y-119020722D01*
X207964703Y-119020722D01*
G37*
D14*
X207125000Y-119320000D03*
D10*
G36*
X207964703Y-117750722D02*
G01*
X207979264Y-117752882D01*
X207993543Y-117756459D01*
X208007403Y-117761418D01*
X208020710Y-117767712D01*
X208033336Y-117775280D01*
X208045159Y-117784048D01*
X208056066Y-117793934D01*
X208065952Y-117804841D01*
X208074720Y-117816664D01*
X208082288Y-117829290D01*
X208088582Y-117842597D01*
X208093541Y-117856457D01*
X208097118Y-117870736D01*
X208099278Y-117885297D01*
X208100000Y-117900000D01*
X208100000Y-118200000D01*
X208099278Y-118214703D01*
X208097118Y-118229264D01*
X208093541Y-118243543D01*
X208088582Y-118257403D01*
X208082288Y-118270710D01*
X208074720Y-118283336D01*
X208065952Y-118295159D01*
X208056066Y-118306066D01*
X208045159Y-118315952D01*
X208033336Y-118324720D01*
X208020710Y-118332288D01*
X208007403Y-118338582D01*
X207993543Y-118343541D01*
X207979264Y-118347118D01*
X207964703Y-118349278D01*
X207950000Y-118350000D01*
X206300000Y-118350000D01*
X206285297Y-118349278D01*
X206270736Y-118347118D01*
X206256457Y-118343541D01*
X206242597Y-118338582D01*
X206229290Y-118332288D01*
X206216664Y-118324720D01*
X206204841Y-118315952D01*
X206193934Y-118306066D01*
X206184048Y-118295159D01*
X206175280Y-118283336D01*
X206167712Y-118270710D01*
X206161418Y-118257403D01*
X206156459Y-118243543D01*
X206152882Y-118229264D01*
X206150722Y-118214703D01*
X206150000Y-118200000D01*
X206150000Y-117900000D01*
X206150722Y-117885297D01*
X206152882Y-117870736D01*
X206156459Y-117856457D01*
X206161418Y-117842597D01*
X206167712Y-117829290D01*
X206175280Y-117816664D01*
X206184048Y-117804841D01*
X206193934Y-117793934D01*
X206204841Y-117784048D01*
X206216664Y-117775280D01*
X206229290Y-117767712D01*
X206242597Y-117761418D01*
X206256457Y-117756459D01*
X206270736Y-117752882D01*
X206285297Y-117750722D01*
X206300000Y-117750000D01*
X207950000Y-117750000D01*
X207964703Y-117750722D01*
X207964703Y-117750722D01*
G37*
D14*
X207125000Y-118050000D03*
D10*
G36*
X207964703Y-116480722D02*
G01*
X207979264Y-116482882D01*
X207993543Y-116486459D01*
X208007403Y-116491418D01*
X208020710Y-116497712D01*
X208033336Y-116505280D01*
X208045159Y-116514048D01*
X208056066Y-116523934D01*
X208065952Y-116534841D01*
X208074720Y-116546664D01*
X208082288Y-116559290D01*
X208088582Y-116572597D01*
X208093541Y-116586457D01*
X208097118Y-116600736D01*
X208099278Y-116615297D01*
X208100000Y-116630000D01*
X208100000Y-116930000D01*
X208099278Y-116944703D01*
X208097118Y-116959264D01*
X208093541Y-116973543D01*
X208088582Y-116987403D01*
X208082288Y-117000710D01*
X208074720Y-117013336D01*
X208065952Y-117025159D01*
X208056066Y-117036066D01*
X208045159Y-117045952D01*
X208033336Y-117054720D01*
X208020710Y-117062288D01*
X208007403Y-117068582D01*
X207993543Y-117073541D01*
X207979264Y-117077118D01*
X207964703Y-117079278D01*
X207950000Y-117080000D01*
X206300000Y-117080000D01*
X206285297Y-117079278D01*
X206270736Y-117077118D01*
X206256457Y-117073541D01*
X206242597Y-117068582D01*
X206229290Y-117062288D01*
X206216664Y-117054720D01*
X206204841Y-117045952D01*
X206193934Y-117036066D01*
X206184048Y-117025159D01*
X206175280Y-117013336D01*
X206167712Y-117000710D01*
X206161418Y-116987403D01*
X206156459Y-116973543D01*
X206152882Y-116959264D01*
X206150722Y-116944703D01*
X206150000Y-116930000D01*
X206150000Y-116630000D01*
X206150722Y-116615297D01*
X206152882Y-116600736D01*
X206156459Y-116586457D01*
X206161418Y-116572597D01*
X206167712Y-116559290D01*
X206175280Y-116546664D01*
X206184048Y-116534841D01*
X206193934Y-116523934D01*
X206204841Y-116514048D01*
X206216664Y-116505280D01*
X206229290Y-116497712D01*
X206242597Y-116491418D01*
X206256457Y-116486459D01*
X206270736Y-116482882D01*
X206285297Y-116480722D01*
X206300000Y-116480000D01*
X207950000Y-116480000D01*
X207964703Y-116480722D01*
X207964703Y-116480722D01*
G37*
D14*
X207125000Y-116780000D03*
D10*
G36*
X257879490Y-85734653D02*
G01*
X257900725Y-85737803D01*
X257921549Y-85743019D01*
X257941761Y-85750251D01*
X257961167Y-85759430D01*
X257979580Y-85770466D01*
X257996823Y-85783254D01*
X258012729Y-85797670D01*
X258027145Y-85813576D01*
X258039933Y-85830819D01*
X258050969Y-85849232D01*
X258060148Y-85868638D01*
X258067380Y-85888850D01*
X258072596Y-85909674D01*
X258075746Y-85930909D01*
X258076799Y-85952350D01*
X258076799Y-86464850D01*
X258075746Y-86486291D01*
X258072596Y-86507526D01*
X258067380Y-86528350D01*
X258060148Y-86548562D01*
X258050969Y-86567968D01*
X258039933Y-86586381D01*
X258027145Y-86603624D01*
X258012729Y-86619530D01*
X257996823Y-86633946D01*
X257979580Y-86646734D01*
X257961167Y-86657770D01*
X257941761Y-86666949D01*
X257921549Y-86674181D01*
X257900725Y-86679397D01*
X257879490Y-86682547D01*
X257858049Y-86683600D01*
X257420549Y-86683600D01*
X257399108Y-86682547D01*
X257377873Y-86679397D01*
X257357049Y-86674181D01*
X257336837Y-86666949D01*
X257317431Y-86657770D01*
X257299018Y-86646734D01*
X257281775Y-86633946D01*
X257265869Y-86619530D01*
X257251453Y-86603624D01*
X257238665Y-86586381D01*
X257227629Y-86567968D01*
X257218450Y-86548562D01*
X257211218Y-86528350D01*
X257206002Y-86507526D01*
X257202852Y-86486291D01*
X257201799Y-86464850D01*
X257201799Y-85952350D01*
X257202852Y-85930909D01*
X257206002Y-85909674D01*
X257211218Y-85888850D01*
X257218450Y-85868638D01*
X257227629Y-85849232D01*
X257238665Y-85830819D01*
X257251453Y-85813576D01*
X257265869Y-85797670D01*
X257281775Y-85783254D01*
X257299018Y-85770466D01*
X257317431Y-85759430D01*
X257336837Y-85750251D01*
X257357049Y-85743019D01*
X257377873Y-85737803D01*
X257399108Y-85734653D01*
X257420549Y-85733600D01*
X257858049Y-85733600D01*
X257879490Y-85734653D01*
X257879490Y-85734653D01*
G37*
D13*
X257639299Y-86208600D03*
D10*
G36*
X256304490Y-85734653D02*
G01*
X256325725Y-85737803D01*
X256346549Y-85743019D01*
X256366761Y-85750251D01*
X256386167Y-85759430D01*
X256404580Y-85770466D01*
X256421823Y-85783254D01*
X256437729Y-85797670D01*
X256452145Y-85813576D01*
X256464933Y-85830819D01*
X256475969Y-85849232D01*
X256485148Y-85868638D01*
X256492380Y-85888850D01*
X256497596Y-85909674D01*
X256500746Y-85930909D01*
X256501799Y-85952350D01*
X256501799Y-86464850D01*
X256500746Y-86486291D01*
X256497596Y-86507526D01*
X256492380Y-86528350D01*
X256485148Y-86548562D01*
X256475969Y-86567968D01*
X256464933Y-86586381D01*
X256452145Y-86603624D01*
X256437729Y-86619530D01*
X256421823Y-86633946D01*
X256404580Y-86646734D01*
X256386167Y-86657770D01*
X256366761Y-86666949D01*
X256346549Y-86674181D01*
X256325725Y-86679397D01*
X256304490Y-86682547D01*
X256283049Y-86683600D01*
X255845549Y-86683600D01*
X255824108Y-86682547D01*
X255802873Y-86679397D01*
X255782049Y-86674181D01*
X255761837Y-86666949D01*
X255742431Y-86657770D01*
X255724018Y-86646734D01*
X255706775Y-86633946D01*
X255690869Y-86619530D01*
X255676453Y-86603624D01*
X255663665Y-86586381D01*
X255652629Y-86567968D01*
X255643450Y-86548562D01*
X255636218Y-86528350D01*
X255631002Y-86507526D01*
X255627852Y-86486291D01*
X255626799Y-86464850D01*
X255626799Y-85952350D01*
X255627852Y-85930909D01*
X255631002Y-85909674D01*
X255636218Y-85888850D01*
X255643450Y-85868638D01*
X255652629Y-85849232D01*
X255663665Y-85830819D01*
X255676453Y-85813576D01*
X255690869Y-85797670D01*
X255706775Y-85783254D01*
X255724018Y-85770466D01*
X255742431Y-85759430D01*
X255761837Y-85750251D01*
X255782049Y-85743019D01*
X255802873Y-85737803D01*
X255824108Y-85734653D01*
X255845549Y-85733600D01*
X256283049Y-85733600D01*
X256304490Y-85734653D01*
X256304490Y-85734653D01*
G37*
D13*
X256064299Y-86208600D03*
D10*
G36*
X181993491Y-120115453D02*
G01*
X182014726Y-120118603D01*
X182035550Y-120123819D01*
X182055762Y-120131051D01*
X182075168Y-120140230D01*
X182093581Y-120151266D01*
X182110824Y-120164054D01*
X182126730Y-120178470D01*
X182141146Y-120194376D01*
X182153934Y-120211619D01*
X182164970Y-120230032D01*
X182174149Y-120249438D01*
X182181381Y-120269650D01*
X182186597Y-120290474D01*
X182189747Y-120311709D01*
X182190800Y-120333150D01*
X182190800Y-120845650D01*
X182189747Y-120867091D01*
X182186597Y-120888326D01*
X182181381Y-120909150D01*
X182174149Y-120929362D01*
X182164970Y-120948768D01*
X182153934Y-120967181D01*
X182141146Y-120984424D01*
X182126730Y-121000330D01*
X182110824Y-121014746D01*
X182093581Y-121027534D01*
X182075168Y-121038570D01*
X182055762Y-121047749D01*
X182035550Y-121054981D01*
X182014726Y-121060197D01*
X181993491Y-121063347D01*
X181972050Y-121064400D01*
X181534550Y-121064400D01*
X181513109Y-121063347D01*
X181491874Y-121060197D01*
X181471050Y-121054981D01*
X181450838Y-121047749D01*
X181431432Y-121038570D01*
X181413019Y-121027534D01*
X181395776Y-121014746D01*
X181379870Y-121000330D01*
X181365454Y-120984424D01*
X181352666Y-120967181D01*
X181341630Y-120948768D01*
X181332451Y-120929362D01*
X181325219Y-120909150D01*
X181320003Y-120888326D01*
X181316853Y-120867091D01*
X181315800Y-120845650D01*
X181315800Y-120333150D01*
X181316853Y-120311709D01*
X181320003Y-120290474D01*
X181325219Y-120269650D01*
X181332451Y-120249438D01*
X181341630Y-120230032D01*
X181352666Y-120211619D01*
X181365454Y-120194376D01*
X181379870Y-120178470D01*
X181395776Y-120164054D01*
X181413019Y-120151266D01*
X181431432Y-120140230D01*
X181450838Y-120131051D01*
X181471050Y-120123819D01*
X181491874Y-120118603D01*
X181513109Y-120115453D01*
X181534550Y-120114400D01*
X181972050Y-120114400D01*
X181993491Y-120115453D01*
X181993491Y-120115453D01*
G37*
D13*
X181753300Y-120589400D03*
D10*
G36*
X183568491Y-120115453D02*
G01*
X183589726Y-120118603D01*
X183610550Y-120123819D01*
X183630762Y-120131051D01*
X183650168Y-120140230D01*
X183668581Y-120151266D01*
X183685824Y-120164054D01*
X183701730Y-120178470D01*
X183716146Y-120194376D01*
X183728934Y-120211619D01*
X183739970Y-120230032D01*
X183749149Y-120249438D01*
X183756381Y-120269650D01*
X183761597Y-120290474D01*
X183764747Y-120311709D01*
X183765800Y-120333150D01*
X183765800Y-120845650D01*
X183764747Y-120867091D01*
X183761597Y-120888326D01*
X183756381Y-120909150D01*
X183749149Y-120929362D01*
X183739970Y-120948768D01*
X183728934Y-120967181D01*
X183716146Y-120984424D01*
X183701730Y-121000330D01*
X183685824Y-121014746D01*
X183668581Y-121027534D01*
X183650168Y-121038570D01*
X183630762Y-121047749D01*
X183610550Y-121054981D01*
X183589726Y-121060197D01*
X183568491Y-121063347D01*
X183547050Y-121064400D01*
X183109550Y-121064400D01*
X183088109Y-121063347D01*
X183066874Y-121060197D01*
X183046050Y-121054981D01*
X183025838Y-121047749D01*
X183006432Y-121038570D01*
X182988019Y-121027534D01*
X182970776Y-121014746D01*
X182954870Y-121000330D01*
X182940454Y-120984424D01*
X182927666Y-120967181D01*
X182916630Y-120948768D01*
X182907451Y-120929362D01*
X182900219Y-120909150D01*
X182895003Y-120888326D01*
X182891853Y-120867091D01*
X182890800Y-120845650D01*
X182890800Y-120333150D01*
X182891853Y-120311709D01*
X182895003Y-120290474D01*
X182900219Y-120269650D01*
X182907451Y-120249438D01*
X182916630Y-120230032D01*
X182927666Y-120211619D01*
X182940454Y-120194376D01*
X182954870Y-120178470D01*
X182970776Y-120164054D01*
X182988019Y-120151266D01*
X183006432Y-120140230D01*
X183025838Y-120131051D01*
X183046050Y-120123819D01*
X183066874Y-120118603D01*
X183088109Y-120115453D01*
X183109550Y-120114400D01*
X183547050Y-120114400D01*
X183568491Y-120115453D01*
X183568491Y-120115453D01*
G37*
D13*
X183328300Y-120589400D03*
D15*
X220487000Y-125728000D03*
X220487000Y-124458000D03*
X220487000Y-123188000D03*
X220487000Y-121918000D03*
X220487000Y-120648000D03*
X220487000Y-119378000D03*
X220487000Y-118108000D03*
X220487000Y-116838000D03*
X220487000Y-115568000D03*
X220487000Y-114298000D03*
X220487000Y-113028000D03*
X220487000Y-111758000D03*
X220487000Y-110488000D03*
X220487000Y-109218000D03*
D16*
X223272000Y-108218000D03*
X224542000Y-108218000D03*
X225812000Y-108218000D03*
X227082000Y-108218000D03*
X228352000Y-108218000D03*
X229622000Y-108218000D03*
X230892000Y-108218000D03*
X232162000Y-108218000D03*
X233432000Y-108218000D03*
X234702000Y-108218000D03*
D15*
X237487000Y-109218000D03*
X237487000Y-110488000D03*
X237487000Y-111758000D03*
X237487000Y-113028000D03*
X237487000Y-114298000D03*
X237487000Y-115568000D03*
X237487000Y-116838000D03*
X237487000Y-118108000D03*
X237487000Y-119378000D03*
X237487000Y-120648000D03*
X237487000Y-121918000D03*
X237487000Y-123188000D03*
X237487000Y-124458000D03*
X237487000Y-125728000D03*
D17*
X229987000Y-118228000D03*
D18*
X199415600Y-122678800D03*
X194915600Y-122678800D03*
X194915600Y-130638800D03*
X199415600Y-130638800D03*
X192103200Y-122678800D03*
X187603200Y-122678800D03*
X187603200Y-130638800D03*
X192103200Y-130638800D03*
X184790800Y-122678800D03*
X180290800Y-122678800D03*
X180290800Y-130638800D03*
X184790800Y-130638800D03*
D19*
X230616000Y-100127000D03*
X230616000Y-95527000D03*
X230616000Y-97827000D03*
D20*
X224316000Y-97827000D03*
D10*
G36*
X256284490Y-87642453D02*
G01*
X256305725Y-87645603D01*
X256326549Y-87650819D01*
X256346761Y-87658051D01*
X256366167Y-87667230D01*
X256384580Y-87678266D01*
X256401823Y-87691054D01*
X256417729Y-87705470D01*
X256432145Y-87721376D01*
X256444933Y-87738619D01*
X256455969Y-87757032D01*
X256465148Y-87776438D01*
X256472380Y-87796650D01*
X256477596Y-87817474D01*
X256480746Y-87838709D01*
X256481799Y-87860150D01*
X256481799Y-88372650D01*
X256480746Y-88394091D01*
X256477596Y-88415326D01*
X256472380Y-88436150D01*
X256465148Y-88456362D01*
X256455969Y-88475768D01*
X256444933Y-88494181D01*
X256432145Y-88511424D01*
X256417729Y-88527330D01*
X256401823Y-88541746D01*
X256384580Y-88554534D01*
X256366167Y-88565570D01*
X256346761Y-88574749D01*
X256326549Y-88581981D01*
X256305725Y-88587197D01*
X256284490Y-88590347D01*
X256263049Y-88591400D01*
X255825549Y-88591400D01*
X255804108Y-88590347D01*
X255782873Y-88587197D01*
X255762049Y-88581981D01*
X255741837Y-88574749D01*
X255722431Y-88565570D01*
X255704018Y-88554534D01*
X255686775Y-88541746D01*
X255670869Y-88527330D01*
X255656453Y-88511424D01*
X255643665Y-88494181D01*
X255632629Y-88475768D01*
X255623450Y-88456362D01*
X255616218Y-88436150D01*
X255611002Y-88415326D01*
X255607852Y-88394091D01*
X255606799Y-88372650D01*
X255606799Y-87860150D01*
X255607852Y-87838709D01*
X255611002Y-87817474D01*
X255616218Y-87796650D01*
X255623450Y-87776438D01*
X255632629Y-87757032D01*
X255643665Y-87738619D01*
X255656453Y-87721376D01*
X255670869Y-87705470D01*
X255686775Y-87691054D01*
X255704018Y-87678266D01*
X255722431Y-87667230D01*
X255741837Y-87658051D01*
X255762049Y-87650819D01*
X255782873Y-87645603D01*
X255804108Y-87642453D01*
X255825549Y-87641400D01*
X256263049Y-87641400D01*
X256284490Y-87642453D01*
X256284490Y-87642453D01*
G37*
D13*
X256044299Y-88116400D03*
D10*
G36*
X257859490Y-87642453D02*
G01*
X257880725Y-87645603D01*
X257901549Y-87650819D01*
X257921761Y-87658051D01*
X257941167Y-87667230D01*
X257959580Y-87678266D01*
X257976823Y-87691054D01*
X257992729Y-87705470D01*
X258007145Y-87721376D01*
X258019933Y-87738619D01*
X258030969Y-87757032D01*
X258040148Y-87776438D01*
X258047380Y-87796650D01*
X258052596Y-87817474D01*
X258055746Y-87838709D01*
X258056799Y-87860150D01*
X258056799Y-88372650D01*
X258055746Y-88394091D01*
X258052596Y-88415326D01*
X258047380Y-88436150D01*
X258040148Y-88456362D01*
X258030969Y-88475768D01*
X258019933Y-88494181D01*
X258007145Y-88511424D01*
X257992729Y-88527330D01*
X257976823Y-88541746D01*
X257959580Y-88554534D01*
X257941167Y-88565570D01*
X257921761Y-88574749D01*
X257901549Y-88581981D01*
X257880725Y-88587197D01*
X257859490Y-88590347D01*
X257838049Y-88591400D01*
X257400549Y-88591400D01*
X257379108Y-88590347D01*
X257357873Y-88587197D01*
X257337049Y-88581981D01*
X257316837Y-88574749D01*
X257297431Y-88565570D01*
X257279018Y-88554534D01*
X257261775Y-88541746D01*
X257245869Y-88527330D01*
X257231453Y-88511424D01*
X257218665Y-88494181D01*
X257207629Y-88475768D01*
X257198450Y-88456362D01*
X257191218Y-88436150D01*
X257186002Y-88415326D01*
X257182852Y-88394091D01*
X257181799Y-88372650D01*
X257181799Y-87860150D01*
X257182852Y-87838709D01*
X257186002Y-87817474D01*
X257191218Y-87796650D01*
X257198450Y-87776438D01*
X257207629Y-87757032D01*
X257218665Y-87738619D01*
X257231453Y-87721376D01*
X257245869Y-87705470D01*
X257261775Y-87691054D01*
X257279018Y-87678266D01*
X257297431Y-87667230D01*
X257316837Y-87658051D01*
X257337049Y-87650819D01*
X257357873Y-87645603D01*
X257379108Y-87642453D01*
X257400549Y-87641400D01*
X257838049Y-87641400D01*
X257859490Y-87642453D01*
X257859490Y-87642453D01*
G37*
D13*
X257619299Y-88116400D03*
D10*
G36*
X241909191Y-114773053D02*
G01*
X241930426Y-114776203D01*
X241951250Y-114781419D01*
X241971462Y-114788651D01*
X241990868Y-114797830D01*
X242009281Y-114808866D01*
X242026524Y-114821654D01*
X242042430Y-114836070D01*
X242056846Y-114851976D01*
X242069634Y-114869219D01*
X242080670Y-114887632D01*
X242089849Y-114907038D01*
X242097081Y-114927250D01*
X242102297Y-114948074D01*
X242105447Y-114969309D01*
X242106500Y-114990750D01*
X242106500Y-115503250D01*
X242105447Y-115524691D01*
X242102297Y-115545926D01*
X242097081Y-115566750D01*
X242089849Y-115586962D01*
X242080670Y-115606368D01*
X242069634Y-115624781D01*
X242056846Y-115642024D01*
X242042430Y-115657930D01*
X242026524Y-115672346D01*
X242009281Y-115685134D01*
X241990868Y-115696170D01*
X241971462Y-115705349D01*
X241951250Y-115712581D01*
X241930426Y-115717797D01*
X241909191Y-115720947D01*
X241887750Y-115722000D01*
X241450250Y-115722000D01*
X241428809Y-115720947D01*
X241407574Y-115717797D01*
X241386750Y-115712581D01*
X241366538Y-115705349D01*
X241347132Y-115696170D01*
X241328719Y-115685134D01*
X241311476Y-115672346D01*
X241295570Y-115657930D01*
X241281154Y-115642024D01*
X241268366Y-115624781D01*
X241257330Y-115606368D01*
X241248151Y-115586962D01*
X241240919Y-115566750D01*
X241235703Y-115545926D01*
X241232553Y-115524691D01*
X241231500Y-115503250D01*
X241231500Y-114990750D01*
X241232553Y-114969309D01*
X241235703Y-114948074D01*
X241240919Y-114927250D01*
X241248151Y-114907038D01*
X241257330Y-114887632D01*
X241268366Y-114869219D01*
X241281154Y-114851976D01*
X241295570Y-114836070D01*
X241311476Y-114821654D01*
X241328719Y-114808866D01*
X241347132Y-114797830D01*
X241366538Y-114788651D01*
X241386750Y-114781419D01*
X241407574Y-114776203D01*
X241428809Y-114773053D01*
X241450250Y-114772000D01*
X241887750Y-114772000D01*
X241909191Y-114773053D01*
X241909191Y-114773053D01*
G37*
D13*
X241669000Y-115247000D03*
D10*
G36*
X243484191Y-114773053D02*
G01*
X243505426Y-114776203D01*
X243526250Y-114781419D01*
X243546462Y-114788651D01*
X243565868Y-114797830D01*
X243584281Y-114808866D01*
X243601524Y-114821654D01*
X243617430Y-114836070D01*
X243631846Y-114851976D01*
X243644634Y-114869219D01*
X243655670Y-114887632D01*
X243664849Y-114907038D01*
X243672081Y-114927250D01*
X243677297Y-114948074D01*
X243680447Y-114969309D01*
X243681500Y-114990750D01*
X243681500Y-115503250D01*
X243680447Y-115524691D01*
X243677297Y-115545926D01*
X243672081Y-115566750D01*
X243664849Y-115586962D01*
X243655670Y-115606368D01*
X243644634Y-115624781D01*
X243631846Y-115642024D01*
X243617430Y-115657930D01*
X243601524Y-115672346D01*
X243584281Y-115685134D01*
X243565868Y-115696170D01*
X243546462Y-115705349D01*
X243526250Y-115712581D01*
X243505426Y-115717797D01*
X243484191Y-115720947D01*
X243462750Y-115722000D01*
X243025250Y-115722000D01*
X243003809Y-115720947D01*
X242982574Y-115717797D01*
X242961750Y-115712581D01*
X242941538Y-115705349D01*
X242922132Y-115696170D01*
X242903719Y-115685134D01*
X242886476Y-115672346D01*
X242870570Y-115657930D01*
X242856154Y-115642024D01*
X242843366Y-115624781D01*
X242832330Y-115606368D01*
X242823151Y-115586962D01*
X242815919Y-115566750D01*
X242810703Y-115545926D01*
X242807553Y-115524691D01*
X242806500Y-115503250D01*
X242806500Y-114990750D01*
X242807553Y-114969309D01*
X242810703Y-114948074D01*
X242815919Y-114927250D01*
X242823151Y-114907038D01*
X242832330Y-114887632D01*
X242843366Y-114869219D01*
X242856154Y-114851976D01*
X242870570Y-114836070D01*
X242886476Y-114821654D01*
X242903719Y-114808866D01*
X242922132Y-114797830D01*
X242941538Y-114788651D01*
X242961750Y-114781419D01*
X242982574Y-114776203D01*
X243003809Y-114773053D01*
X243025250Y-114772000D01*
X243462750Y-114772000D01*
X243484191Y-114773053D01*
X243484191Y-114773053D01*
G37*
D13*
X243244000Y-115247000D03*
D21*
X254001799Y-82900000D03*
X250701799Y-82900000D03*
D10*
G36*
X241909191Y-116563753D02*
G01*
X241930426Y-116566903D01*
X241951250Y-116572119D01*
X241971462Y-116579351D01*
X241990868Y-116588530D01*
X242009281Y-116599566D01*
X242026524Y-116612354D01*
X242042430Y-116626770D01*
X242056846Y-116642676D01*
X242069634Y-116659919D01*
X242080670Y-116678332D01*
X242089849Y-116697738D01*
X242097081Y-116717950D01*
X242102297Y-116738774D01*
X242105447Y-116760009D01*
X242106500Y-116781450D01*
X242106500Y-117293950D01*
X242105447Y-117315391D01*
X242102297Y-117336626D01*
X242097081Y-117357450D01*
X242089849Y-117377662D01*
X242080670Y-117397068D01*
X242069634Y-117415481D01*
X242056846Y-117432724D01*
X242042430Y-117448630D01*
X242026524Y-117463046D01*
X242009281Y-117475834D01*
X241990868Y-117486870D01*
X241971462Y-117496049D01*
X241951250Y-117503281D01*
X241930426Y-117508497D01*
X241909191Y-117511647D01*
X241887750Y-117512700D01*
X241450250Y-117512700D01*
X241428809Y-117511647D01*
X241407574Y-117508497D01*
X241386750Y-117503281D01*
X241366538Y-117496049D01*
X241347132Y-117486870D01*
X241328719Y-117475834D01*
X241311476Y-117463046D01*
X241295570Y-117448630D01*
X241281154Y-117432724D01*
X241268366Y-117415481D01*
X241257330Y-117397068D01*
X241248151Y-117377662D01*
X241240919Y-117357450D01*
X241235703Y-117336626D01*
X241232553Y-117315391D01*
X241231500Y-117293950D01*
X241231500Y-116781450D01*
X241232553Y-116760009D01*
X241235703Y-116738774D01*
X241240919Y-116717950D01*
X241248151Y-116697738D01*
X241257330Y-116678332D01*
X241268366Y-116659919D01*
X241281154Y-116642676D01*
X241295570Y-116626770D01*
X241311476Y-116612354D01*
X241328719Y-116599566D01*
X241347132Y-116588530D01*
X241366538Y-116579351D01*
X241386750Y-116572119D01*
X241407574Y-116566903D01*
X241428809Y-116563753D01*
X241450250Y-116562700D01*
X241887750Y-116562700D01*
X241909191Y-116563753D01*
X241909191Y-116563753D01*
G37*
D13*
X241669000Y-117037700D03*
D10*
G36*
X243484191Y-116563753D02*
G01*
X243505426Y-116566903D01*
X243526250Y-116572119D01*
X243546462Y-116579351D01*
X243565868Y-116588530D01*
X243584281Y-116599566D01*
X243601524Y-116612354D01*
X243617430Y-116626770D01*
X243631846Y-116642676D01*
X243644634Y-116659919D01*
X243655670Y-116678332D01*
X243664849Y-116697738D01*
X243672081Y-116717950D01*
X243677297Y-116738774D01*
X243680447Y-116760009D01*
X243681500Y-116781450D01*
X243681500Y-117293950D01*
X243680447Y-117315391D01*
X243677297Y-117336626D01*
X243672081Y-117357450D01*
X243664849Y-117377662D01*
X243655670Y-117397068D01*
X243644634Y-117415481D01*
X243631846Y-117432724D01*
X243617430Y-117448630D01*
X243601524Y-117463046D01*
X243584281Y-117475834D01*
X243565868Y-117486870D01*
X243546462Y-117496049D01*
X243526250Y-117503281D01*
X243505426Y-117508497D01*
X243484191Y-117511647D01*
X243462750Y-117512700D01*
X243025250Y-117512700D01*
X243003809Y-117511647D01*
X242982574Y-117508497D01*
X242961750Y-117503281D01*
X242941538Y-117496049D01*
X242922132Y-117486870D01*
X242903719Y-117475834D01*
X242886476Y-117463046D01*
X242870570Y-117448630D01*
X242856154Y-117432724D01*
X242843366Y-117415481D01*
X242832330Y-117397068D01*
X242823151Y-117377662D01*
X242815919Y-117357450D01*
X242810703Y-117336626D01*
X242807553Y-117315391D01*
X242806500Y-117293950D01*
X242806500Y-116781450D01*
X242807553Y-116760009D01*
X242810703Y-116738774D01*
X242815919Y-116717950D01*
X242823151Y-116697738D01*
X242832330Y-116678332D01*
X242843366Y-116659919D01*
X242856154Y-116642676D01*
X242870570Y-116626770D01*
X242886476Y-116612354D01*
X242903719Y-116599566D01*
X242922132Y-116588530D01*
X242941538Y-116579351D01*
X242961750Y-116572119D01*
X242982574Y-116566903D01*
X243003809Y-116563753D01*
X243025250Y-116562700D01*
X243462750Y-116562700D01*
X243484191Y-116563753D01*
X243484191Y-116563753D01*
G37*
D13*
X243244000Y-117037700D03*
D22*
X256851799Y-82400000D03*
X257801799Y-84400000D03*
X255901799Y-84400000D03*
D10*
G36*
X241909191Y-118354453D02*
G01*
X241930426Y-118357603D01*
X241951250Y-118362819D01*
X241971462Y-118370051D01*
X241990868Y-118379230D01*
X242009281Y-118390266D01*
X242026524Y-118403054D01*
X242042430Y-118417470D01*
X242056846Y-118433376D01*
X242069634Y-118450619D01*
X242080670Y-118469032D01*
X242089849Y-118488438D01*
X242097081Y-118508650D01*
X242102297Y-118529474D01*
X242105447Y-118550709D01*
X242106500Y-118572150D01*
X242106500Y-119084650D01*
X242105447Y-119106091D01*
X242102297Y-119127326D01*
X242097081Y-119148150D01*
X242089849Y-119168362D01*
X242080670Y-119187768D01*
X242069634Y-119206181D01*
X242056846Y-119223424D01*
X242042430Y-119239330D01*
X242026524Y-119253746D01*
X242009281Y-119266534D01*
X241990868Y-119277570D01*
X241971462Y-119286749D01*
X241951250Y-119293981D01*
X241930426Y-119299197D01*
X241909191Y-119302347D01*
X241887750Y-119303400D01*
X241450250Y-119303400D01*
X241428809Y-119302347D01*
X241407574Y-119299197D01*
X241386750Y-119293981D01*
X241366538Y-119286749D01*
X241347132Y-119277570D01*
X241328719Y-119266534D01*
X241311476Y-119253746D01*
X241295570Y-119239330D01*
X241281154Y-119223424D01*
X241268366Y-119206181D01*
X241257330Y-119187768D01*
X241248151Y-119168362D01*
X241240919Y-119148150D01*
X241235703Y-119127326D01*
X241232553Y-119106091D01*
X241231500Y-119084650D01*
X241231500Y-118572150D01*
X241232553Y-118550709D01*
X241235703Y-118529474D01*
X241240919Y-118508650D01*
X241248151Y-118488438D01*
X241257330Y-118469032D01*
X241268366Y-118450619D01*
X241281154Y-118433376D01*
X241295570Y-118417470D01*
X241311476Y-118403054D01*
X241328719Y-118390266D01*
X241347132Y-118379230D01*
X241366538Y-118370051D01*
X241386750Y-118362819D01*
X241407574Y-118357603D01*
X241428809Y-118354453D01*
X241450250Y-118353400D01*
X241887750Y-118353400D01*
X241909191Y-118354453D01*
X241909191Y-118354453D01*
G37*
D13*
X241669000Y-118828400D03*
D10*
G36*
X243484191Y-118354453D02*
G01*
X243505426Y-118357603D01*
X243526250Y-118362819D01*
X243546462Y-118370051D01*
X243565868Y-118379230D01*
X243584281Y-118390266D01*
X243601524Y-118403054D01*
X243617430Y-118417470D01*
X243631846Y-118433376D01*
X243644634Y-118450619D01*
X243655670Y-118469032D01*
X243664849Y-118488438D01*
X243672081Y-118508650D01*
X243677297Y-118529474D01*
X243680447Y-118550709D01*
X243681500Y-118572150D01*
X243681500Y-119084650D01*
X243680447Y-119106091D01*
X243677297Y-119127326D01*
X243672081Y-119148150D01*
X243664849Y-119168362D01*
X243655670Y-119187768D01*
X243644634Y-119206181D01*
X243631846Y-119223424D01*
X243617430Y-119239330D01*
X243601524Y-119253746D01*
X243584281Y-119266534D01*
X243565868Y-119277570D01*
X243546462Y-119286749D01*
X243526250Y-119293981D01*
X243505426Y-119299197D01*
X243484191Y-119302347D01*
X243462750Y-119303400D01*
X243025250Y-119303400D01*
X243003809Y-119302347D01*
X242982574Y-119299197D01*
X242961750Y-119293981D01*
X242941538Y-119286749D01*
X242922132Y-119277570D01*
X242903719Y-119266534D01*
X242886476Y-119253746D01*
X242870570Y-119239330D01*
X242856154Y-119223424D01*
X242843366Y-119206181D01*
X242832330Y-119187768D01*
X242823151Y-119168362D01*
X242815919Y-119148150D01*
X242810703Y-119127326D01*
X242807553Y-119106091D01*
X242806500Y-119084650D01*
X242806500Y-118572150D01*
X242807553Y-118550709D01*
X242810703Y-118529474D01*
X242815919Y-118508650D01*
X242823151Y-118488438D01*
X242832330Y-118469032D01*
X242843366Y-118450619D01*
X242856154Y-118433376D01*
X242870570Y-118417470D01*
X242886476Y-118403054D01*
X242903719Y-118390266D01*
X242922132Y-118379230D01*
X242941538Y-118370051D01*
X242961750Y-118362819D01*
X242982574Y-118357603D01*
X243003809Y-118354453D01*
X243025250Y-118353400D01*
X243462750Y-118353400D01*
X243484191Y-118354453D01*
X243484191Y-118354453D01*
G37*
D13*
X243244000Y-118828400D03*
D10*
G36*
X213290191Y-110901053D02*
G01*
X213311426Y-110904203D01*
X213332250Y-110909419D01*
X213352462Y-110916651D01*
X213371868Y-110925830D01*
X213390281Y-110936866D01*
X213407524Y-110949654D01*
X213423430Y-110964070D01*
X213437846Y-110979976D01*
X213450634Y-110997219D01*
X213461670Y-111015632D01*
X213470849Y-111035038D01*
X213478081Y-111055250D01*
X213483297Y-111076074D01*
X213486447Y-111097309D01*
X213487500Y-111118750D01*
X213487500Y-111631250D01*
X213486447Y-111652691D01*
X213483297Y-111673926D01*
X213478081Y-111694750D01*
X213470849Y-111714962D01*
X213461670Y-111734368D01*
X213450634Y-111752781D01*
X213437846Y-111770024D01*
X213423430Y-111785930D01*
X213407524Y-111800346D01*
X213390281Y-111813134D01*
X213371868Y-111824170D01*
X213352462Y-111833349D01*
X213332250Y-111840581D01*
X213311426Y-111845797D01*
X213290191Y-111848947D01*
X213268750Y-111850000D01*
X212831250Y-111850000D01*
X212809809Y-111848947D01*
X212788574Y-111845797D01*
X212767750Y-111840581D01*
X212747538Y-111833349D01*
X212728132Y-111824170D01*
X212709719Y-111813134D01*
X212692476Y-111800346D01*
X212676570Y-111785930D01*
X212662154Y-111770024D01*
X212649366Y-111752781D01*
X212638330Y-111734368D01*
X212629151Y-111714962D01*
X212621919Y-111694750D01*
X212616703Y-111673926D01*
X212613553Y-111652691D01*
X212612500Y-111631250D01*
X212612500Y-111118750D01*
X212613553Y-111097309D01*
X212616703Y-111076074D01*
X212621919Y-111055250D01*
X212629151Y-111035038D01*
X212638330Y-111015632D01*
X212649366Y-110997219D01*
X212662154Y-110979976D01*
X212676570Y-110964070D01*
X212692476Y-110949654D01*
X212709719Y-110936866D01*
X212728132Y-110925830D01*
X212747538Y-110916651D01*
X212767750Y-110909419D01*
X212788574Y-110904203D01*
X212809809Y-110901053D01*
X212831250Y-110900000D01*
X213268750Y-110900000D01*
X213290191Y-110901053D01*
X213290191Y-110901053D01*
G37*
D13*
X213050000Y-111375000D03*
D10*
G36*
X214865191Y-110901053D02*
G01*
X214886426Y-110904203D01*
X214907250Y-110909419D01*
X214927462Y-110916651D01*
X214946868Y-110925830D01*
X214965281Y-110936866D01*
X214982524Y-110949654D01*
X214998430Y-110964070D01*
X215012846Y-110979976D01*
X215025634Y-110997219D01*
X215036670Y-111015632D01*
X215045849Y-111035038D01*
X215053081Y-111055250D01*
X215058297Y-111076074D01*
X215061447Y-111097309D01*
X215062500Y-111118750D01*
X215062500Y-111631250D01*
X215061447Y-111652691D01*
X215058297Y-111673926D01*
X215053081Y-111694750D01*
X215045849Y-111714962D01*
X215036670Y-111734368D01*
X215025634Y-111752781D01*
X215012846Y-111770024D01*
X214998430Y-111785930D01*
X214982524Y-111800346D01*
X214965281Y-111813134D01*
X214946868Y-111824170D01*
X214927462Y-111833349D01*
X214907250Y-111840581D01*
X214886426Y-111845797D01*
X214865191Y-111848947D01*
X214843750Y-111850000D01*
X214406250Y-111850000D01*
X214384809Y-111848947D01*
X214363574Y-111845797D01*
X214342750Y-111840581D01*
X214322538Y-111833349D01*
X214303132Y-111824170D01*
X214284719Y-111813134D01*
X214267476Y-111800346D01*
X214251570Y-111785930D01*
X214237154Y-111770024D01*
X214224366Y-111752781D01*
X214213330Y-111734368D01*
X214204151Y-111714962D01*
X214196919Y-111694750D01*
X214191703Y-111673926D01*
X214188553Y-111652691D01*
X214187500Y-111631250D01*
X214187500Y-111118750D01*
X214188553Y-111097309D01*
X214191703Y-111076074D01*
X214196919Y-111055250D01*
X214204151Y-111035038D01*
X214213330Y-111015632D01*
X214224366Y-110997219D01*
X214237154Y-110979976D01*
X214251570Y-110964070D01*
X214267476Y-110949654D01*
X214284719Y-110936866D01*
X214303132Y-110925830D01*
X214322538Y-110916651D01*
X214342750Y-110909419D01*
X214363574Y-110904203D01*
X214384809Y-110901053D01*
X214406250Y-110900000D01*
X214843750Y-110900000D01*
X214865191Y-110901053D01*
X214865191Y-110901053D01*
G37*
D13*
X214625000Y-111375000D03*
D10*
G36*
X216877291Y-121605653D02*
G01*
X216898526Y-121608803D01*
X216919350Y-121614019D01*
X216939562Y-121621251D01*
X216958968Y-121630430D01*
X216977381Y-121641466D01*
X216994624Y-121654254D01*
X217010530Y-121668670D01*
X217024946Y-121684576D01*
X217037734Y-121701819D01*
X217048770Y-121720232D01*
X217057949Y-121739638D01*
X217065181Y-121759850D01*
X217070397Y-121780674D01*
X217073547Y-121801909D01*
X217074600Y-121823350D01*
X217074600Y-122335850D01*
X217073547Y-122357291D01*
X217070397Y-122378526D01*
X217065181Y-122399350D01*
X217057949Y-122419562D01*
X217048770Y-122438968D01*
X217037734Y-122457381D01*
X217024946Y-122474624D01*
X217010530Y-122490530D01*
X216994624Y-122504946D01*
X216977381Y-122517734D01*
X216958968Y-122528770D01*
X216939562Y-122537949D01*
X216919350Y-122545181D01*
X216898526Y-122550397D01*
X216877291Y-122553547D01*
X216855850Y-122554600D01*
X216418350Y-122554600D01*
X216396909Y-122553547D01*
X216375674Y-122550397D01*
X216354850Y-122545181D01*
X216334638Y-122537949D01*
X216315232Y-122528770D01*
X216296819Y-122517734D01*
X216279576Y-122504946D01*
X216263670Y-122490530D01*
X216249254Y-122474624D01*
X216236466Y-122457381D01*
X216225430Y-122438968D01*
X216216251Y-122419562D01*
X216209019Y-122399350D01*
X216203803Y-122378526D01*
X216200653Y-122357291D01*
X216199600Y-122335850D01*
X216199600Y-121823350D01*
X216200653Y-121801909D01*
X216203803Y-121780674D01*
X216209019Y-121759850D01*
X216216251Y-121739638D01*
X216225430Y-121720232D01*
X216236466Y-121701819D01*
X216249254Y-121684576D01*
X216263670Y-121668670D01*
X216279576Y-121654254D01*
X216296819Y-121641466D01*
X216315232Y-121630430D01*
X216334638Y-121621251D01*
X216354850Y-121614019D01*
X216375674Y-121608803D01*
X216396909Y-121605653D01*
X216418350Y-121604600D01*
X216855850Y-121604600D01*
X216877291Y-121605653D01*
X216877291Y-121605653D01*
G37*
D13*
X216637100Y-122079600D03*
D10*
G36*
X218452291Y-121605653D02*
G01*
X218473526Y-121608803D01*
X218494350Y-121614019D01*
X218514562Y-121621251D01*
X218533968Y-121630430D01*
X218552381Y-121641466D01*
X218569624Y-121654254D01*
X218585530Y-121668670D01*
X218599946Y-121684576D01*
X218612734Y-121701819D01*
X218623770Y-121720232D01*
X218632949Y-121739638D01*
X218640181Y-121759850D01*
X218645397Y-121780674D01*
X218648547Y-121801909D01*
X218649600Y-121823350D01*
X218649600Y-122335850D01*
X218648547Y-122357291D01*
X218645397Y-122378526D01*
X218640181Y-122399350D01*
X218632949Y-122419562D01*
X218623770Y-122438968D01*
X218612734Y-122457381D01*
X218599946Y-122474624D01*
X218585530Y-122490530D01*
X218569624Y-122504946D01*
X218552381Y-122517734D01*
X218533968Y-122528770D01*
X218514562Y-122537949D01*
X218494350Y-122545181D01*
X218473526Y-122550397D01*
X218452291Y-122553547D01*
X218430850Y-122554600D01*
X217993350Y-122554600D01*
X217971909Y-122553547D01*
X217950674Y-122550397D01*
X217929850Y-122545181D01*
X217909638Y-122537949D01*
X217890232Y-122528770D01*
X217871819Y-122517734D01*
X217854576Y-122504946D01*
X217838670Y-122490530D01*
X217824254Y-122474624D01*
X217811466Y-122457381D01*
X217800430Y-122438968D01*
X217791251Y-122419562D01*
X217784019Y-122399350D01*
X217778803Y-122378526D01*
X217775653Y-122357291D01*
X217774600Y-122335850D01*
X217774600Y-121823350D01*
X217775653Y-121801909D01*
X217778803Y-121780674D01*
X217784019Y-121759850D01*
X217791251Y-121739638D01*
X217800430Y-121720232D01*
X217811466Y-121701819D01*
X217824254Y-121684576D01*
X217838670Y-121668670D01*
X217854576Y-121654254D01*
X217871819Y-121641466D01*
X217890232Y-121630430D01*
X217909638Y-121621251D01*
X217929850Y-121614019D01*
X217950674Y-121608803D01*
X217971909Y-121605653D01*
X217993350Y-121604600D01*
X218430850Y-121604600D01*
X218452291Y-121605653D01*
X218452291Y-121605653D01*
G37*
D13*
X218212100Y-122079600D03*
D10*
G36*
X216902791Y-119954653D02*
G01*
X216924026Y-119957803D01*
X216944850Y-119963019D01*
X216965062Y-119970251D01*
X216984468Y-119979430D01*
X217002881Y-119990466D01*
X217020124Y-120003254D01*
X217036030Y-120017670D01*
X217050446Y-120033576D01*
X217063234Y-120050819D01*
X217074270Y-120069232D01*
X217083449Y-120088638D01*
X217090681Y-120108850D01*
X217095897Y-120129674D01*
X217099047Y-120150909D01*
X217100100Y-120172350D01*
X217100100Y-120684850D01*
X217099047Y-120706291D01*
X217095897Y-120727526D01*
X217090681Y-120748350D01*
X217083449Y-120768562D01*
X217074270Y-120787968D01*
X217063234Y-120806381D01*
X217050446Y-120823624D01*
X217036030Y-120839530D01*
X217020124Y-120853946D01*
X217002881Y-120866734D01*
X216984468Y-120877770D01*
X216965062Y-120886949D01*
X216944850Y-120894181D01*
X216924026Y-120899397D01*
X216902791Y-120902547D01*
X216881350Y-120903600D01*
X216443850Y-120903600D01*
X216422409Y-120902547D01*
X216401174Y-120899397D01*
X216380350Y-120894181D01*
X216360138Y-120886949D01*
X216340732Y-120877770D01*
X216322319Y-120866734D01*
X216305076Y-120853946D01*
X216289170Y-120839530D01*
X216274754Y-120823624D01*
X216261966Y-120806381D01*
X216250930Y-120787968D01*
X216241751Y-120768562D01*
X216234519Y-120748350D01*
X216229303Y-120727526D01*
X216226153Y-120706291D01*
X216225100Y-120684850D01*
X216225100Y-120172350D01*
X216226153Y-120150909D01*
X216229303Y-120129674D01*
X216234519Y-120108850D01*
X216241751Y-120088638D01*
X216250930Y-120069232D01*
X216261966Y-120050819D01*
X216274754Y-120033576D01*
X216289170Y-120017670D01*
X216305076Y-120003254D01*
X216322319Y-119990466D01*
X216340732Y-119979430D01*
X216360138Y-119970251D01*
X216380350Y-119963019D01*
X216401174Y-119957803D01*
X216422409Y-119954653D01*
X216443850Y-119953600D01*
X216881350Y-119953600D01*
X216902791Y-119954653D01*
X216902791Y-119954653D01*
G37*
D13*
X216662600Y-120428600D03*
D10*
G36*
X218477791Y-119954653D02*
G01*
X218499026Y-119957803D01*
X218519850Y-119963019D01*
X218540062Y-119970251D01*
X218559468Y-119979430D01*
X218577881Y-119990466D01*
X218595124Y-120003254D01*
X218611030Y-120017670D01*
X218625446Y-120033576D01*
X218638234Y-120050819D01*
X218649270Y-120069232D01*
X218658449Y-120088638D01*
X218665681Y-120108850D01*
X218670897Y-120129674D01*
X218674047Y-120150909D01*
X218675100Y-120172350D01*
X218675100Y-120684850D01*
X218674047Y-120706291D01*
X218670897Y-120727526D01*
X218665681Y-120748350D01*
X218658449Y-120768562D01*
X218649270Y-120787968D01*
X218638234Y-120806381D01*
X218625446Y-120823624D01*
X218611030Y-120839530D01*
X218595124Y-120853946D01*
X218577881Y-120866734D01*
X218559468Y-120877770D01*
X218540062Y-120886949D01*
X218519850Y-120894181D01*
X218499026Y-120899397D01*
X218477791Y-120902547D01*
X218456350Y-120903600D01*
X218018850Y-120903600D01*
X217997409Y-120902547D01*
X217976174Y-120899397D01*
X217955350Y-120894181D01*
X217935138Y-120886949D01*
X217915732Y-120877770D01*
X217897319Y-120866734D01*
X217880076Y-120853946D01*
X217864170Y-120839530D01*
X217849754Y-120823624D01*
X217836966Y-120806381D01*
X217825930Y-120787968D01*
X217816751Y-120768562D01*
X217809519Y-120748350D01*
X217804303Y-120727526D01*
X217801153Y-120706291D01*
X217800100Y-120684850D01*
X217800100Y-120172350D01*
X217801153Y-120150909D01*
X217804303Y-120129674D01*
X217809519Y-120108850D01*
X217816751Y-120088638D01*
X217825930Y-120069232D01*
X217836966Y-120050819D01*
X217849754Y-120033576D01*
X217864170Y-120017670D01*
X217880076Y-120003254D01*
X217897319Y-119990466D01*
X217915732Y-119979430D01*
X217935138Y-119970251D01*
X217955350Y-119963019D01*
X217976174Y-119957803D01*
X217997409Y-119954653D01*
X218018850Y-119953600D01*
X218456350Y-119953600D01*
X218477791Y-119954653D01*
X218477791Y-119954653D01*
G37*
D13*
X218237600Y-120428600D03*
D10*
G36*
X212352691Y-114176053D02*
G01*
X212373926Y-114179203D01*
X212394750Y-114184419D01*
X212414962Y-114191651D01*
X212434368Y-114200830D01*
X212452781Y-114211866D01*
X212470024Y-114224654D01*
X212485930Y-114239070D01*
X212500346Y-114254976D01*
X212513134Y-114272219D01*
X212524170Y-114290632D01*
X212533349Y-114310038D01*
X212540581Y-114330250D01*
X212545797Y-114351074D01*
X212548947Y-114372309D01*
X212550000Y-114393750D01*
X212550000Y-114831250D01*
X212548947Y-114852691D01*
X212545797Y-114873926D01*
X212540581Y-114894750D01*
X212533349Y-114914962D01*
X212524170Y-114934368D01*
X212513134Y-114952781D01*
X212500346Y-114970024D01*
X212485930Y-114985930D01*
X212470024Y-115000346D01*
X212452781Y-115013134D01*
X212434368Y-115024170D01*
X212414962Y-115033349D01*
X212394750Y-115040581D01*
X212373926Y-115045797D01*
X212352691Y-115048947D01*
X212331250Y-115050000D01*
X211818750Y-115050000D01*
X211797309Y-115048947D01*
X211776074Y-115045797D01*
X211755250Y-115040581D01*
X211735038Y-115033349D01*
X211715632Y-115024170D01*
X211697219Y-115013134D01*
X211679976Y-115000346D01*
X211664070Y-114985930D01*
X211649654Y-114970024D01*
X211636866Y-114952781D01*
X211625830Y-114934368D01*
X211616651Y-114914962D01*
X211609419Y-114894750D01*
X211604203Y-114873926D01*
X211601053Y-114852691D01*
X211600000Y-114831250D01*
X211600000Y-114393750D01*
X211601053Y-114372309D01*
X211604203Y-114351074D01*
X211609419Y-114330250D01*
X211616651Y-114310038D01*
X211625830Y-114290632D01*
X211636866Y-114272219D01*
X211649654Y-114254976D01*
X211664070Y-114239070D01*
X211679976Y-114224654D01*
X211697219Y-114211866D01*
X211715632Y-114200830D01*
X211735038Y-114191651D01*
X211755250Y-114184419D01*
X211776074Y-114179203D01*
X211797309Y-114176053D01*
X211818750Y-114175000D01*
X212331250Y-114175000D01*
X212352691Y-114176053D01*
X212352691Y-114176053D01*
G37*
D13*
X212075000Y-114612500D03*
D10*
G36*
X212352691Y-112601053D02*
G01*
X212373926Y-112604203D01*
X212394750Y-112609419D01*
X212414962Y-112616651D01*
X212434368Y-112625830D01*
X212452781Y-112636866D01*
X212470024Y-112649654D01*
X212485930Y-112664070D01*
X212500346Y-112679976D01*
X212513134Y-112697219D01*
X212524170Y-112715632D01*
X212533349Y-112735038D01*
X212540581Y-112755250D01*
X212545797Y-112776074D01*
X212548947Y-112797309D01*
X212550000Y-112818750D01*
X212550000Y-113256250D01*
X212548947Y-113277691D01*
X212545797Y-113298926D01*
X212540581Y-113319750D01*
X212533349Y-113339962D01*
X212524170Y-113359368D01*
X212513134Y-113377781D01*
X212500346Y-113395024D01*
X212485930Y-113410930D01*
X212470024Y-113425346D01*
X212452781Y-113438134D01*
X212434368Y-113449170D01*
X212414962Y-113458349D01*
X212394750Y-113465581D01*
X212373926Y-113470797D01*
X212352691Y-113473947D01*
X212331250Y-113475000D01*
X211818750Y-113475000D01*
X211797309Y-113473947D01*
X211776074Y-113470797D01*
X211755250Y-113465581D01*
X211735038Y-113458349D01*
X211715632Y-113449170D01*
X211697219Y-113438134D01*
X211679976Y-113425346D01*
X211664070Y-113410930D01*
X211649654Y-113395024D01*
X211636866Y-113377781D01*
X211625830Y-113359368D01*
X211616651Y-113339962D01*
X211609419Y-113319750D01*
X211604203Y-113298926D01*
X211601053Y-113277691D01*
X211600000Y-113256250D01*
X211600000Y-112818750D01*
X211601053Y-112797309D01*
X211604203Y-112776074D01*
X211609419Y-112755250D01*
X211616651Y-112735038D01*
X211625830Y-112715632D01*
X211636866Y-112697219D01*
X211649654Y-112679976D01*
X211664070Y-112664070D01*
X211679976Y-112649654D01*
X211697219Y-112636866D01*
X211715632Y-112625830D01*
X211735038Y-112616651D01*
X211755250Y-112609419D01*
X211776074Y-112604203D01*
X211797309Y-112601053D01*
X211818750Y-112600000D01*
X212331250Y-112600000D01*
X212352691Y-112601053D01*
X212352691Y-112601053D01*
G37*
D13*
X212075000Y-113037500D03*
D10*
G36*
X217377691Y-114413553D02*
G01*
X217398926Y-114416703D01*
X217419750Y-114421919D01*
X217439962Y-114429151D01*
X217459368Y-114438330D01*
X217477781Y-114449366D01*
X217495024Y-114462154D01*
X217510930Y-114476570D01*
X217525346Y-114492476D01*
X217538134Y-114509719D01*
X217549170Y-114528132D01*
X217558349Y-114547538D01*
X217565581Y-114567750D01*
X217570797Y-114588574D01*
X217573947Y-114609809D01*
X217575000Y-114631250D01*
X217575000Y-115068750D01*
X217573947Y-115090191D01*
X217570797Y-115111426D01*
X217565581Y-115132250D01*
X217558349Y-115152462D01*
X217549170Y-115171868D01*
X217538134Y-115190281D01*
X217525346Y-115207524D01*
X217510930Y-115223430D01*
X217495024Y-115237846D01*
X217477781Y-115250634D01*
X217459368Y-115261670D01*
X217439962Y-115270849D01*
X217419750Y-115278081D01*
X217398926Y-115283297D01*
X217377691Y-115286447D01*
X217356250Y-115287500D01*
X216843750Y-115287500D01*
X216822309Y-115286447D01*
X216801074Y-115283297D01*
X216780250Y-115278081D01*
X216760038Y-115270849D01*
X216740632Y-115261670D01*
X216722219Y-115250634D01*
X216704976Y-115237846D01*
X216689070Y-115223430D01*
X216674654Y-115207524D01*
X216661866Y-115190281D01*
X216650830Y-115171868D01*
X216641651Y-115152462D01*
X216634419Y-115132250D01*
X216629203Y-115111426D01*
X216626053Y-115090191D01*
X216625000Y-115068750D01*
X216625000Y-114631250D01*
X216626053Y-114609809D01*
X216629203Y-114588574D01*
X216634419Y-114567750D01*
X216641651Y-114547538D01*
X216650830Y-114528132D01*
X216661866Y-114509719D01*
X216674654Y-114492476D01*
X216689070Y-114476570D01*
X216704976Y-114462154D01*
X216722219Y-114449366D01*
X216740632Y-114438330D01*
X216760038Y-114429151D01*
X216780250Y-114421919D01*
X216801074Y-114416703D01*
X216822309Y-114413553D01*
X216843750Y-114412500D01*
X217356250Y-114412500D01*
X217377691Y-114413553D01*
X217377691Y-114413553D01*
G37*
D13*
X217100000Y-114850000D03*
D10*
G36*
X217377691Y-112838553D02*
G01*
X217398926Y-112841703D01*
X217419750Y-112846919D01*
X217439962Y-112854151D01*
X217459368Y-112863330D01*
X217477781Y-112874366D01*
X217495024Y-112887154D01*
X217510930Y-112901570D01*
X217525346Y-112917476D01*
X217538134Y-112934719D01*
X217549170Y-112953132D01*
X217558349Y-112972538D01*
X217565581Y-112992750D01*
X217570797Y-113013574D01*
X217573947Y-113034809D01*
X217575000Y-113056250D01*
X217575000Y-113493750D01*
X217573947Y-113515191D01*
X217570797Y-113536426D01*
X217565581Y-113557250D01*
X217558349Y-113577462D01*
X217549170Y-113596868D01*
X217538134Y-113615281D01*
X217525346Y-113632524D01*
X217510930Y-113648430D01*
X217495024Y-113662846D01*
X217477781Y-113675634D01*
X217459368Y-113686670D01*
X217439962Y-113695849D01*
X217419750Y-113703081D01*
X217398926Y-113708297D01*
X217377691Y-113711447D01*
X217356250Y-113712500D01*
X216843750Y-113712500D01*
X216822309Y-113711447D01*
X216801074Y-113708297D01*
X216780250Y-113703081D01*
X216760038Y-113695849D01*
X216740632Y-113686670D01*
X216722219Y-113675634D01*
X216704976Y-113662846D01*
X216689070Y-113648430D01*
X216674654Y-113632524D01*
X216661866Y-113615281D01*
X216650830Y-113596868D01*
X216641651Y-113577462D01*
X216634419Y-113557250D01*
X216629203Y-113536426D01*
X216626053Y-113515191D01*
X216625000Y-113493750D01*
X216625000Y-113056250D01*
X216626053Y-113034809D01*
X216629203Y-113013574D01*
X216634419Y-112992750D01*
X216641651Y-112972538D01*
X216650830Y-112953132D01*
X216661866Y-112934719D01*
X216674654Y-112917476D01*
X216689070Y-112901570D01*
X216704976Y-112887154D01*
X216722219Y-112874366D01*
X216740632Y-112863330D01*
X216760038Y-112854151D01*
X216780250Y-112846919D01*
X216801074Y-112841703D01*
X216822309Y-112838553D01*
X216843750Y-112837500D01*
X217356250Y-112837500D01*
X217377691Y-112838553D01*
X217377691Y-112838553D01*
G37*
D13*
X217100000Y-113275000D03*
D10*
G36*
X257430591Y-97155053D02*
G01*
X257451826Y-97158203D01*
X257472650Y-97163419D01*
X257492862Y-97170651D01*
X257512268Y-97179830D01*
X257530681Y-97190866D01*
X257547924Y-97203654D01*
X257563830Y-97218070D01*
X257578246Y-97233976D01*
X257591034Y-97251219D01*
X257602070Y-97269632D01*
X257611249Y-97289038D01*
X257618481Y-97309250D01*
X257623697Y-97330074D01*
X257626847Y-97351309D01*
X257627900Y-97372750D01*
X257627900Y-97885250D01*
X257626847Y-97906691D01*
X257623697Y-97927926D01*
X257618481Y-97948750D01*
X257611249Y-97968962D01*
X257602070Y-97988368D01*
X257591034Y-98006781D01*
X257578246Y-98024024D01*
X257563830Y-98039930D01*
X257547924Y-98054346D01*
X257530681Y-98067134D01*
X257512268Y-98078170D01*
X257492862Y-98087349D01*
X257472650Y-98094581D01*
X257451826Y-98099797D01*
X257430591Y-98102947D01*
X257409150Y-98104000D01*
X256971650Y-98104000D01*
X256950209Y-98102947D01*
X256928974Y-98099797D01*
X256908150Y-98094581D01*
X256887938Y-98087349D01*
X256868532Y-98078170D01*
X256850119Y-98067134D01*
X256832876Y-98054346D01*
X256816970Y-98039930D01*
X256802554Y-98024024D01*
X256789766Y-98006781D01*
X256778730Y-97988368D01*
X256769551Y-97968962D01*
X256762319Y-97948750D01*
X256757103Y-97927926D01*
X256753953Y-97906691D01*
X256752900Y-97885250D01*
X256752900Y-97372750D01*
X256753953Y-97351309D01*
X256757103Y-97330074D01*
X256762319Y-97309250D01*
X256769551Y-97289038D01*
X256778730Y-97269632D01*
X256789766Y-97251219D01*
X256802554Y-97233976D01*
X256816970Y-97218070D01*
X256832876Y-97203654D01*
X256850119Y-97190866D01*
X256868532Y-97179830D01*
X256887938Y-97170651D01*
X256908150Y-97163419D01*
X256928974Y-97158203D01*
X256950209Y-97155053D01*
X256971650Y-97154000D01*
X257409150Y-97154000D01*
X257430591Y-97155053D01*
X257430591Y-97155053D01*
G37*
D13*
X257190400Y-97629000D03*
D10*
G36*
X259005591Y-97155053D02*
G01*
X259026826Y-97158203D01*
X259047650Y-97163419D01*
X259067862Y-97170651D01*
X259087268Y-97179830D01*
X259105681Y-97190866D01*
X259122924Y-97203654D01*
X259138830Y-97218070D01*
X259153246Y-97233976D01*
X259166034Y-97251219D01*
X259177070Y-97269632D01*
X259186249Y-97289038D01*
X259193481Y-97309250D01*
X259198697Y-97330074D01*
X259201847Y-97351309D01*
X259202900Y-97372750D01*
X259202900Y-97885250D01*
X259201847Y-97906691D01*
X259198697Y-97927926D01*
X259193481Y-97948750D01*
X259186249Y-97968962D01*
X259177070Y-97988368D01*
X259166034Y-98006781D01*
X259153246Y-98024024D01*
X259138830Y-98039930D01*
X259122924Y-98054346D01*
X259105681Y-98067134D01*
X259087268Y-98078170D01*
X259067862Y-98087349D01*
X259047650Y-98094581D01*
X259026826Y-98099797D01*
X259005591Y-98102947D01*
X258984150Y-98104000D01*
X258546650Y-98104000D01*
X258525209Y-98102947D01*
X258503974Y-98099797D01*
X258483150Y-98094581D01*
X258462938Y-98087349D01*
X258443532Y-98078170D01*
X258425119Y-98067134D01*
X258407876Y-98054346D01*
X258391970Y-98039930D01*
X258377554Y-98024024D01*
X258364766Y-98006781D01*
X258353730Y-97988368D01*
X258344551Y-97968962D01*
X258337319Y-97948750D01*
X258332103Y-97927926D01*
X258328953Y-97906691D01*
X258327900Y-97885250D01*
X258327900Y-97372750D01*
X258328953Y-97351309D01*
X258332103Y-97330074D01*
X258337319Y-97309250D01*
X258344551Y-97289038D01*
X258353730Y-97269632D01*
X258364766Y-97251219D01*
X258377554Y-97233976D01*
X258391970Y-97218070D01*
X258407876Y-97203654D01*
X258425119Y-97190866D01*
X258443532Y-97179830D01*
X258462938Y-97170651D01*
X258483150Y-97163419D01*
X258503974Y-97158203D01*
X258525209Y-97155053D01*
X258546650Y-97154000D01*
X258984150Y-97154000D01*
X259005591Y-97155053D01*
X259005591Y-97155053D01*
G37*
D13*
X258765400Y-97629000D03*
D23*
X215275000Y-114900000D03*
X213975000Y-114900000D03*
X214625000Y-113000000D03*
X214625000Y-114900000D03*
X213975000Y-113000000D03*
X215275000Y-113000000D03*
D10*
G36*
X216440191Y-116101053D02*
G01*
X216461426Y-116104203D01*
X216482250Y-116109419D01*
X216502462Y-116116651D01*
X216521868Y-116125830D01*
X216540281Y-116136866D01*
X216557524Y-116149654D01*
X216573430Y-116164070D01*
X216587846Y-116179976D01*
X216600634Y-116197219D01*
X216611670Y-116215632D01*
X216620849Y-116235038D01*
X216628081Y-116255250D01*
X216633297Y-116276074D01*
X216636447Y-116297309D01*
X216637500Y-116318750D01*
X216637500Y-116831250D01*
X216636447Y-116852691D01*
X216633297Y-116873926D01*
X216628081Y-116894750D01*
X216620849Y-116914962D01*
X216611670Y-116934368D01*
X216600634Y-116952781D01*
X216587846Y-116970024D01*
X216573430Y-116985930D01*
X216557524Y-117000346D01*
X216540281Y-117013134D01*
X216521868Y-117024170D01*
X216502462Y-117033349D01*
X216482250Y-117040581D01*
X216461426Y-117045797D01*
X216440191Y-117048947D01*
X216418750Y-117050000D01*
X215981250Y-117050000D01*
X215959809Y-117048947D01*
X215938574Y-117045797D01*
X215917750Y-117040581D01*
X215897538Y-117033349D01*
X215878132Y-117024170D01*
X215859719Y-117013134D01*
X215842476Y-117000346D01*
X215826570Y-116985930D01*
X215812154Y-116970024D01*
X215799366Y-116952781D01*
X215788330Y-116934368D01*
X215779151Y-116914962D01*
X215771919Y-116894750D01*
X215766703Y-116873926D01*
X215763553Y-116852691D01*
X215762500Y-116831250D01*
X215762500Y-116318750D01*
X215763553Y-116297309D01*
X215766703Y-116276074D01*
X215771919Y-116255250D01*
X215779151Y-116235038D01*
X215788330Y-116215632D01*
X215799366Y-116197219D01*
X215812154Y-116179976D01*
X215826570Y-116164070D01*
X215842476Y-116149654D01*
X215859719Y-116136866D01*
X215878132Y-116125830D01*
X215897538Y-116116651D01*
X215917750Y-116109419D01*
X215938574Y-116104203D01*
X215959809Y-116101053D01*
X215981250Y-116100000D01*
X216418750Y-116100000D01*
X216440191Y-116101053D01*
X216440191Y-116101053D01*
G37*
D13*
X216200000Y-116575000D03*
D10*
G36*
X214865191Y-116101053D02*
G01*
X214886426Y-116104203D01*
X214907250Y-116109419D01*
X214927462Y-116116651D01*
X214946868Y-116125830D01*
X214965281Y-116136866D01*
X214982524Y-116149654D01*
X214998430Y-116164070D01*
X215012846Y-116179976D01*
X215025634Y-116197219D01*
X215036670Y-116215632D01*
X215045849Y-116235038D01*
X215053081Y-116255250D01*
X215058297Y-116276074D01*
X215061447Y-116297309D01*
X215062500Y-116318750D01*
X215062500Y-116831250D01*
X215061447Y-116852691D01*
X215058297Y-116873926D01*
X215053081Y-116894750D01*
X215045849Y-116914962D01*
X215036670Y-116934368D01*
X215025634Y-116952781D01*
X215012846Y-116970024D01*
X214998430Y-116985930D01*
X214982524Y-117000346D01*
X214965281Y-117013134D01*
X214946868Y-117024170D01*
X214927462Y-117033349D01*
X214907250Y-117040581D01*
X214886426Y-117045797D01*
X214865191Y-117048947D01*
X214843750Y-117050000D01*
X214406250Y-117050000D01*
X214384809Y-117048947D01*
X214363574Y-117045797D01*
X214342750Y-117040581D01*
X214322538Y-117033349D01*
X214303132Y-117024170D01*
X214284719Y-117013134D01*
X214267476Y-117000346D01*
X214251570Y-116985930D01*
X214237154Y-116970024D01*
X214224366Y-116952781D01*
X214213330Y-116934368D01*
X214204151Y-116914962D01*
X214196919Y-116894750D01*
X214191703Y-116873926D01*
X214188553Y-116852691D01*
X214187500Y-116831250D01*
X214187500Y-116318750D01*
X214188553Y-116297309D01*
X214191703Y-116276074D01*
X214196919Y-116255250D01*
X214204151Y-116235038D01*
X214213330Y-116215632D01*
X214224366Y-116197219D01*
X214237154Y-116179976D01*
X214251570Y-116164070D01*
X214267476Y-116149654D01*
X214284719Y-116136866D01*
X214303132Y-116125830D01*
X214322538Y-116116651D01*
X214342750Y-116109419D01*
X214363574Y-116104203D01*
X214384809Y-116101053D01*
X214406250Y-116100000D01*
X214843750Y-116100000D01*
X214865191Y-116101053D01*
X214865191Y-116101053D01*
G37*
D13*
X214625000Y-116575000D03*
D10*
G36*
X240502691Y-120801053D02*
G01*
X240523926Y-120804203D01*
X240544750Y-120809419D01*
X240564962Y-120816651D01*
X240584368Y-120825830D01*
X240602781Y-120836866D01*
X240620024Y-120849654D01*
X240635930Y-120864070D01*
X240650346Y-120879976D01*
X240663134Y-120897219D01*
X240674170Y-120915632D01*
X240683349Y-120935038D01*
X240690581Y-120955250D01*
X240695797Y-120976074D01*
X240698947Y-120997309D01*
X240700000Y-121018750D01*
X240700000Y-121456250D01*
X240698947Y-121477691D01*
X240695797Y-121498926D01*
X240690581Y-121519750D01*
X240683349Y-121539962D01*
X240674170Y-121559368D01*
X240663134Y-121577781D01*
X240650346Y-121595024D01*
X240635930Y-121610930D01*
X240620024Y-121625346D01*
X240602781Y-121638134D01*
X240584368Y-121649170D01*
X240564962Y-121658349D01*
X240544750Y-121665581D01*
X240523926Y-121670797D01*
X240502691Y-121673947D01*
X240481250Y-121675000D01*
X239968750Y-121675000D01*
X239947309Y-121673947D01*
X239926074Y-121670797D01*
X239905250Y-121665581D01*
X239885038Y-121658349D01*
X239865632Y-121649170D01*
X239847219Y-121638134D01*
X239829976Y-121625346D01*
X239814070Y-121610930D01*
X239799654Y-121595024D01*
X239786866Y-121577781D01*
X239775830Y-121559368D01*
X239766651Y-121539962D01*
X239759419Y-121519750D01*
X239754203Y-121498926D01*
X239751053Y-121477691D01*
X239750000Y-121456250D01*
X239750000Y-121018750D01*
X239751053Y-120997309D01*
X239754203Y-120976074D01*
X239759419Y-120955250D01*
X239766651Y-120935038D01*
X239775830Y-120915632D01*
X239786866Y-120897219D01*
X239799654Y-120879976D01*
X239814070Y-120864070D01*
X239829976Y-120849654D01*
X239847219Y-120836866D01*
X239865632Y-120825830D01*
X239885038Y-120816651D01*
X239905250Y-120809419D01*
X239926074Y-120804203D01*
X239947309Y-120801053D01*
X239968750Y-120800000D01*
X240481250Y-120800000D01*
X240502691Y-120801053D01*
X240502691Y-120801053D01*
G37*
D13*
X240225000Y-121237500D03*
D10*
G36*
X240502691Y-122376053D02*
G01*
X240523926Y-122379203D01*
X240544750Y-122384419D01*
X240564962Y-122391651D01*
X240584368Y-122400830D01*
X240602781Y-122411866D01*
X240620024Y-122424654D01*
X240635930Y-122439070D01*
X240650346Y-122454976D01*
X240663134Y-122472219D01*
X240674170Y-122490632D01*
X240683349Y-122510038D01*
X240690581Y-122530250D01*
X240695797Y-122551074D01*
X240698947Y-122572309D01*
X240700000Y-122593750D01*
X240700000Y-123031250D01*
X240698947Y-123052691D01*
X240695797Y-123073926D01*
X240690581Y-123094750D01*
X240683349Y-123114962D01*
X240674170Y-123134368D01*
X240663134Y-123152781D01*
X240650346Y-123170024D01*
X240635930Y-123185930D01*
X240620024Y-123200346D01*
X240602781Y-123213134D01*
X240584368Y-123224170D01*
X240564962Y-123233349D01*
X240544750Y-123240581D01*
X240523926Y-123245797D01*
X240502691Y-123248947D01*
X240481250Y-123250000D01*
X239968750Y-123250000D01*
X239947309Y-123248947D01*
X239926074Y-123245797D01*
X239905250Y-123240581D01*
X239885038Y-123233349D01*
X239865632Y-123224170D01*
X239847219Y-123213134D01*
X239829976Y-123200346D01*
X239814070Y-123185930D01*
X239799654Y-123170024D01*
X239786866Y-123152781D01*
X239775830Y-123134368D01*
X239766651Y-123114962D01*
X239759419Y-123094750D01*
X239754203Y-123073926D01*
X239751053Y-123052691D01*
X239750000Y-123031250D01*
X239750000Y-122593750D01*
X239751053Y-122572309D01*
X239754203Y-122551074D01*
X239759419Y-122530250D01*
X239766651Y-122510038D01*
X239775830Y-122490632D01*
X239786866Y-122472219D01*
X239799654Y-122454976D01*
X239814070Y-122439070D01*
X239829976Y-122424654D01*
X239847219Y-122411866D01*
X239865632Y-122400830D01*
X239885038Y-122391651D01*
X239905250Y-122384419D01*
X239926074Y-122379203D01*
X239947309Y-122376053D01*
X239968750Y-122375000D01*
X240481250Y-122375000D01*
X240502691Y-122376053D01*
X240502691Y-122376053D01*
G37*
D13*
X240225000Y-122812500D03*
D10*
G36*
X204527691Y-125938553D02*
G01*
X204548926Y-125941703D01*
X204569750Y-125946919D01*
X204589962Y-125954151D01*
X204609368Y-125963330D01*
X204627781Y-125974366D01*
X204645024Y-125987154D01*
X204660930Y-126001570D01*
X204675346Y-126017476D01*
X204688134Y-126034719D01*
X204699170Y-126053132D01*
X204708349Y-126072538D01*
X204715581Y-126092750D01*
X204720797Y-126113574D01*
X204723947Y-126134809D01*
X204725000Y-126156250D01*
X204725000Y-126593750D01*
X204723947Y-126615191D01*
X204720797Y-126636426D01*
X204715581Y-126657250D01*
X204708349Y-126677462D01*
X204699170Y-126696868D01*
X204688134Y-126715281D01*
X204675346Y-126732524D01*
X204660930Y-126748430D01*
X204645024Y-126762846D01*
X204627781Y-126775634D01*
X204609368Y-126786670D01*
X204589962Y-126795849D01*
X204569750Y-126803081D01*
X204548926Y-126808297D01*
X204527691Y-126811447D01*
X204506250Y-126812500D01*
X203993750Y-126812500D01*
X203972309Y-126811447D01*
X203951074Y-126808297D01*
X203930250Y-126803081D01*
X203910038Y-126795849D01*
X203890632Y-126786670D01*
X203872219Y-126775634D01*
X203854976Y-126762846D01*
X203839070Y-126748430D01*
X203824654Y-126732524D01*
X203811866Y-126715281D01*
X203800830Y-126696868D01*
X203791651Y-126677462D01*
X203784419Y-126657250D01*
X203779203Y-126636426D01*
X203776053Y-126615191D01*
X203775000Y-126593750D01*
X203775000Y-126156250D01*
X203776053Y-126134809D01*
X203779203Y-126113574D01*
X203784419Y-126092750D01*
X203791651Y-126072538D01*
X203800830Y-126053132D01*
X203811866Y-126034719D01*
X203824654Y-126017476D01*
X203839070Y-126001570D01*
X203854976Y-125987154D01*
X203872219Y-125974366D01*
X203890632Y-125963330D01*
X203910038Y-125954151D01*
X203930250Y-125946919D01*
X203951074Y-125941703D01*
X203972309Y-125938553D01*
X203993750Y-125937500D01*
X204506250Y-125937500D01*
X204527691Y-125938553D01*
X204527691Y-125938553D01*
G37*
D13*
X204250000Y-126375000D03*
D10*
G36*
X204527691Y-127513553D02*
G01*
X204548926Y-127516703D01*
X204569750Y-127521919D01*
X204589962Y-127529151D01*
X204609368Y-127538330D01*
X204627781Y-127549366D01*
X204645024Y-127562154D01*
X204660930Y-127576570D01*
X204675346Y-127592476D01*
X204688134Y-127609719D01*
X204699170Y-127628132D01*
X204708349Y-127647538D01*
X204715581Y-127667750D01*
X204720797Y-127688574D01*
X204723947Y-127709809D01*
X204725000Y-127731250D01*
X204725000Y-128168750D01*
X204723947Y-128190191D01*
X204720797Y-128211426D01*
X204715581Y-128232250D01*
X204708349Y-128252462D01*
X204699170Y-128271868D01*
X204688134Y-128290281D01*
X204675346Y-128307524D01*
X204660930Y-128323430D01*
X204645024Y-128337846D01*
X204627781Y-128350634D01*
X204609368Y-128361670D01*
X204589962Y-128370849D01*
X204569750Y-128378081D01*
X204548926Y-128383297D01*
X204527691Y-128386447D01*
X204506250Y-128387500D01*
X203993750Y-128387500D01*
X203972309Y-128386447D01*
X203951074Y-128383297D01*
X203930250Y-128378081D01*
X203910038Y-128370849D01*
X203890632Y-128361670D01*
X203872219Y-128350634D01*
X203854976Y-128337846D01*
X203839070Y-128323430D01*
X203824654Y-128307524D01*
X203811866Y-128290281D01*
X203800830Y-128271868D01*
X203791651Y-128252462D01*
X203784419Y-128232250D01*
X203779203Y-128211426D01*
X203776053Y-128190191D01*
X203775000Y-128168750D01*
X203775000Y-127731250D01*
X203776053Y-127709809D01*
X203779203Y-127688574D01*
X203784419Y-127667750D01*
X203791651Y-127647538D01*
X203800830Y-127628132D01*
X203811866Y-127609719D01*
X203824654Y-127592476D01*
X203839070Y-127576570D01*
X203854976Y-127562154D01*
X203872219Y-127549366D01*
X203890632Y-127538330D01*
X203910038Y-127529151D01*
X203930250Y-127521919D01*
X203951074Y-127516703D01*
X203972309Y-127513553D01*
X203993750Y-127512500D01*
X204506250Y-127512500D01*
X204527691Y-127513553D01*
X204527691Y-127513553D01*
G37*
D13*
X204250000Y-127950000D03*
D10*
G36*
X240502691Y-125626053D02*
G01*
X240523926Y-125629203D01*
X240544750Y-125634419D01*
X240564962Y-125641651D01*
X240584368Y-125650830D01*
X240602781Y-125661866D01*
X240620024Y-125674654D01*
X240635930Y-125689070D01*
X240650346Y-125704976D01*
X240663134Y-125722219D01*
X240674170Y-125740632D01*
X240683349Y-125760038D01*
X240690581Y-125780250D01*
X240695797Y-125801074D01*
X240698947Y-125822309D01*
X240700000Y-125843750D01*
X240700000Y-126281250D01*
X240698947Y-126302691D01*
X240695797Y-126323926D01*
X240690581Y-126344750D01*
X240683349Y-126364962D01*
X240674170Y-126384368D01*
X240663134Y-126402781D01*
X240650346Y-126420024D01*
X240635930Y-126435930D01*
X240620024Y-126450346D01*
X240602781Y-126463134D01*
X240584368Y-126474170D01*
X240564962Y-126483349D01*
X240544750Y-126490581D01*
X240523926Y-126495797D01*
X240502691Y-126498947D01*
X240481250Y-126500000D01*
X239968750Y-126500000D01*
X239947309Y-126498947D01*
X239926074Y-126495797D01*
X239905250Y-126490581D01*
X239885038Y-126483349D01*
X239865632Y-126474170D01*
X239847219Y-126463134D01*
X239829976Y-126450346D01*
X239814070Y-126435930D01*
X239799654Y-126420024D01*
X239786866Y-126402781D01*
X239775830Y-126384368D01*
X239766651Y-126364962D01*
X239759419Y-126344750D01*
X239754203Y-126323926D01*
X239751053Y-126302691D01*
X239750000Y-126281250D01*
X239750000Y-125843750D01*
X239751053Y-125822309D01*
X239754203Y-125801074D01*
X239759419Y-125780250D01*
X239766651Y-125760038D01*
X239775830Y-125740632D01*
X239786866Y-125722219D01*
X239799654Y-125704976D01*
X239814070Y-125689070D01*
X239829976Y-125674654D01*
X239847219Y-125661866D01*
X239865632Y-125650830D01*
X239885038Y-125641651D01*
X239905250Y-125634419D01*
X239926074Y-125629203D01*
X239947309Y-125626053D01*
X239968750Y-125625000D01*
X240481250Y-125625000D01*
X240502691Y-125626053D01*
X240502691Y-125626053D01*
G37*
D13*
X240225000Y-126062500D03*
D10*
G36*
X240502691Y-124051053D02*
G01*
X240523926Y-124054203D01*
X240544750Y-124059419D01*
X240564962Y-124066651D01*
X240584368Y-124075830D01*
X240602781Y-124086866D01*
X240620024Y-124099654D01*
X240635930Y-124114070D01*
X240650346Y-124129976D01*
X240663134Y-124147219D01*
X240674170Y-124165632D01*
X240683349Y-124185038D01*
X240690581Y-124205250D01*
X240695797Y-124226074D01*
X240698947Y-124247309D01*
X240700000Y-124268750D01*
X240700000Y-124706250D01*
X240698947Y-124727691D01*
X240695797Y-124748926D01*
X240690581Y-124769750D01*
X240683349Y-124789962D01*
X240674170Y-124809368D01*
X240663134Y-124827781D01*
X240650346Y-124845024D01*
X240635930Y-124860930D01*
X240620024Y-124875346D01*
X240602781Y-124888134D01*
X240584368Y-124899170D01*
X240564962Y-124908349D01*
X240544750Y-124915581D01*
X240523926Y-124920797D01*
X240502691Y-124923947D01*
X240481250Y-124925000D01*
X239968750Y-124925000D01*
X239947309Y-124923947D01*
X239926074Y-124920797D01*
X239905250Y-124915581D01*
X239885038Y-124908349D01*
X239865632Y-124899170D01*
X239847219Y-124888134D01*
X239829976Y-124875346D01*
X239814070Y-124860930D01*
X239799654Y-124845024D01*
X239786866Y-124827781D01*
X239775830Y-124809368D01*
X239766651Y-124789962D01*
X239759419Y-124769750D01*
X239754203Y-124748926D01*
X239751053Y-124727691D01*
X239750000Y-124706250D01*
X239750000Y-124268750D01*
X239751053Y-124247309D01*
X239754203Y-124226074D01*
X239759419Y-124205250D01*
X239766651Y-124185038D01*
X239775830Y-124165632D01*
X239786866Y-124147219D01*
X239799654Y-124129976D01*
X239814070Y-124114070D01*
X239829976Y-124099654D01*
X239847219Y-124086866D01*
X239865632Y-124075830D01*
X239885038Y-124066651D01*
X239905250Y-124059419D01*
X239926074Y-124054203D01*
X239947309Y-124051053D01*
X239968750Y-124050000D01*
X240481250Y-124050000D01*
X240502691Y-124051053D01*
X240502691Y-124051053D01*
G37*
D13*
X240225000Y-124487500D03*
D10*
G36*
X242252691Y-125638553D02*
G01*
X242273926Y-125641703D01*
X242294750Y-125646919D01*
X242314962Y-125654151D01*
X242334368Y-125663330D01*
X242352781Y-125674366D01*
X242370024Y-125687154D01*
X242385930Y-125701570D01*
X242400346Y-125717476D01*
X242413134Y-125734719D01*
X242424170Y-125753132D01*
X242433349Y-125772538D01*
X242440581Y-125792750D01*
X242445797Y-125813574D01*
X242448947Y-125834809D01*
X242450000Y-125856250D01*
X242450000Y-126293750D01*
X242448947Y-126315191D01*
X242445797Y-126336426D01*
X242440581Y-126357250D01*
X242433349Y-126377462D01*
X242424170Y-126396868D01*
X242413134Y-126415281D01*
X242400346Y-126432524D01*
X242385930Y-126448430D01*
X242370024Y-126462846D01*
X242352781Y-126475634D01*
X242334368Y-126486670D01*
X242314962Y-126495849D01*
X242294750Y-126503081D01*
X242273926Y-126508297D01*
X242252691Y-126511447D01*
X242231250Y-126512500D01*
X241718750Y-126512500D01*
X241697309Y-126511447D01*
X241676074Y-126508297D01*
X241655250Y-126503081D01*
X241635038Y-126495849D01*
X241615632Y-126486670D01*
X241597219Y-126475634D01*
X241579976Y-126462846D01*
X241564070Y-126448430D01*
X241549654Y-126432524D01*
X241536866Y-126415281D01*
X241525830Y-126396868D01*
X241516651Y-126377462D01*
X241509419Y-126357250D01*
X241504203Y-126336426D01*
X241501053Y-126315191D01*
X241500000Y-126293750D01*
X241500000Y-125856250D01*
X241501053Y-125834809D01*
X241504203Y-125813574D01*
X241509419Y-125792750D01*
X241516651Y-125772538D01*
X241525830Y-125753132D01*
X241536866Y-125734719D01*
X241549654Y-125717476D01*
X241564070Y-125701570D01*
X241579976Y-125687154D01*
X241597219Y-125674366D01*
X241615632Y-125663330D01*
X241635038Y-125654151D01*
X241655250Y-125646919D01*
X241676074Y-125641703D01*
X241697309Y-125638553D01*
X241718750Y-125637500D01*
X242231250Y-125637500D01*
X242252691Y-125638553D01*
X242252691Y-125638553D01*
G37*
D13*
X241975000Y-126075000D03*
D10*
G36*
X242252691Y-124063553D02*
G01*
X242273926Y-124066703D01*
X242294750Y-124071919D01*
X242314962Y-124079151D01*
X242334368Y-124088330D01*
X242352781Y-124099366D01*
X242370024Y-124112154D01*
X242385930Y-124126570D01*
X242400346Y-124142476D01*
X242413134Y-124159719D01*
X242424170Y-124178132D01*
X242433349Y-124197538D01*
X242440581Y-124217750D01*
X242445797Y-124238574D01*
X242448947Y-124259809D01*
X242450000Y-124281250D01*
X242450000Y-124718750D01*
X242448947Y-124740191D01*
X242445797Y-124761426D01*
X242440581Y-124782250D01*
X242433349Y-124802462D01*
X242424170Y-124821868D01*
X242413134Y-124840281D01*
X242400346Y-124857524D01*
X242385930Y-124873430D01*
X242370024Y-124887846D01*
X242352781Y-124900634D01*
X242334368Y-124911670D01*
X242314962Y-124920849D01*
X242294750Y-124928081D01*
X242273926Y-124933297D01*
X242252691Y-124936447D01*
X242231250Y-124937500D01*
X241718750Y-124937500D01*
X241697309Y-124936447D01*
X241676074Y-124933297D01*
X241655250Y-124928081D01*
X241635038Y-124920849D01*
X241615632Y-124911670D01*
X241597219Y-124900634D01*
X241579976Y-124887846D01*
X241564070Y-124873430D01*
X241549654Y-124857524D01*
X241536866Y-124840281D01*
X241525830Y-124821868D01*
X241516651Y-124802462D01*
X241509419Y-124782250D01*
X241504203Y-124761426D01*
X241501053Y-124740191D01*
X241500000Y-124718750D01*
X241500000Y-124281250D01*
X241501053Y-124259809D01*
X241504203Y-124238574D01*
X241509419Y-124217750D01*
X241516651Y-124197538D01*
X241525830Y-124178132D01*
X241536866Y-124159719D01*
X241549654Y-124142476D01*
X241564070Y-124126570D01*
X241579976Y-124112154D01*
X241597219Y-124099366D01*
X241615632Y-124088330D01*
X241635038Y-124079151D01*
X241655250Y-124071919D01*
X241676074Y-124066703D01*
X241697309Y-124063553D01*
X241718750Y-124062500D01*
X242231250Y-124062500D01*
X242252691Y-124063553D01*
X242252691Y-124063553D01*
G37*
D13*
X241975000Y-124500000D03*
D10*
G36*
X204852691Y-118588553D02*
G01*
X204873926Y-118591703D01*
X204894750Y-118596919D01*
X204914962Y-118604151D01*
X204934368Y-118613330D01*
X204952781Y-118624366D01*
X204970024Y-118637154D01*
X204985930Y-118651570D01*
X205000346Y-118667476D01*
X205013134Y-118684719D01*
X205024170Y-118703132D01*
X205033349Y-118722538D01*
X205040581Y-118742750D01*
X205045797Y-118763574D01*
X205048947Y-118784809D01*
X205050000Y-118806250D01*
X205050000Y-119243750D01*
X205048947Y-119265191D01*
X205045797Y-119286426D01*
X205040581Y-119307250D01*
X205033349Y-119327462D01*
X205024170Y-119346868D01*
X205013134Y-119365281D01*
X205000346Y-119382524D01*
X204985930Y-119398430D01*
X204970024Y-119412846D01*
X204952781Y-119425634D01*
X204934368Y-119436670D01*
X204914962Y-119445849D01*
X204894750Y-119453081D01*
X204873926Y-119458297D01*
X204852691Y-119461447D01*
X204831250Y-119462500D01*
X204318750Y-119462500D01*
X204297309Y-119461447D01*
X204276074Y-119458297D01*
X204255250Y-119453081D01*
X204235038Y-119445849D01*
X204215632Y-119436670D01*
X204197219Y-119425634D01*
X204179976Y-119412846D01*
X204164070Y-119398430D01*
X204149654Y-119382524D01*
X204136866Y-119365281D01*
X204125830Y-119346868D01*
X204116651Y-119327462D01*
X204109419Y-119307250D01*
X204104203Y-119286426D01*
X204101053Y-119265191D01*
X204100000Y-119243750D01*
X204100000Y-118806250D01*
X204101053Y-118784809D01*
X204104203Y-118763574D01*
X204109419Y-118742750D01*
X204116651Y-118722538D01*
X204125830Y-118703132D01*
X204136866Y-118684719D01*
X204149654Y-118667476D01*
X204164070Y-118651570D01*
X204179976Y-118637154D01*
X204197219Y-118624366D01*
X204215632Y-118613330D01*
X204235038Y-118604151D01*
X204255250Y-118596919D01*
X204276074Y-118591703D01*
X204297309Y-118588553D01*
X204318750Y-118587500D01*
X204831250Y-118587500D01*
X204852691Y-118588553D01*
X204852691Y-118588553D01*
G37*
D13*
X204575000Y-119025000D03*
D10*
G36*
X204852691Y-120163553D02*
G01*
X204873926Y-120166703D01*
X204894750Y-120171919D01*
X204914962Y-120179151D01*
X204934368Y-120188330D01*
X204952781Y-120199366D01*
X204970024Y-120212154D01*
X204985930Y-120226570D01*
X205000346Y-120242476D01*
X205013134Y-120259719D01*
X205024170Y-120278132D01*
X205033349Y-120297538D01*
X205040581Y-120317750D01*
X205045797Y-120338574D01*
X205048947Y-120359809D01*
X205050000Y-120381250D01*
X205050000Y-120818750D01*
X205048947Y-120840191D01*
X205045797Y-120861426D01*
X205040581Y-120882250D01*
X205033349Y-120902462D01*
X205024170Y-120921868D01*
X205013134Y-120940281D01*
X205000346Y-120957524D01*
X204985930Y-120973430D01*
X204970024Y-120987846D01*
X204952781Y-121000634D01*
X204934368Y-121011670D01*
X204914962Y-121020849D01*
X204894750Y-121028081D01*
X204873926Y-121033297D01*
X204852691Y-121036447D01*
X204831250Y-121037500D01*
X204318750Y-121037500D01*
X204297309Y-121036447D01*
X204276074Y-121033297D01*
X204255250Y-121028081D01*
X204235038Y-121020849D01*
X204215632Y-121011670D01*
X204197219Y-121000634D01*
X204179976Y-120987846D01*
X204164070Y-120973430D01*
X204149654Y-120957524D01*
X204136866Y-120940281D01*
X204125830Y-120921868D01*
X204116651Y-120902462D01*
X204109419Y-120882250D01*
X204104203Y-120861426D01*
X204101053Y-120840191D01*
X204100000Y-120818750D01*
X204100000Y-120381250D01*
X204101053Y-120359809D01*
X204104203Y-120338574D01*
X204109419Y-120317750D01*
X204116651Y-120297538D01*
X204125830Y-120278132D01*
X204136866Y-120259719D01*
X204149654Y-120242476D01*
X204164070Y-120226570D01*
X204179976Y-120212154D01*
X204197219Y-120199366D01*
X204215632Y-120188330D01*
X204235038Y-120179151D01*
X204255250Y-120171919D01*
X204276074Y-120166703D01*
X204297309Y-120163553D01*
X204318750Y-120162500D01*
X204831250Y-120162500D01*
X204852691Y-120163553D01*
X204852691Y-120163553D01*
G37*
D13*
X204575000Y-120600000D03*
D10*
G36*
X241284490Y-87642453D02*
G01*
X241305725Y-87645603D01*
X241326549Y-87650819D01*
X241346761Y-87658051D01*
X241366167Y-87667230D01*
X241384580Y-87678266D01*
X241401823Y-87691054D01*
X241417729Y-87705470D01*
X241432145Y-87721376D01*
X241444933Y-87738619D01*
X241455969Y-87757032D01*
X241465148Y-87776438D01*
X241472380Y-87796650D01*
X241477596Y-87817474D01*
X241480746Y-87838709D01*
X241481799Y-87860150D01*
X241481799Y-88372650D01*
X241480746Y-88394091D01*
X241477596Y-88415326D01*
X241472380Y-88436150D01*
X241465148Y-88456362D01*
X241455969Y-88475768D01*
X241444933Y-88494181D01*
X241432145Y-88511424D01*
X241417729Y-88527330D01*
X241401823Y-88541746D01*
X241384580Y-88554534D01*
X241366167Y-88565570D01*
X241346761Y-88574749D01*
X241326549Y-88581981D01*
X241305725Y-88587197D01*
X241284490Y-88590347D01*
X241263049Y-88591400D01*
X240825549Y-88591400D01*
X240804108Y-88590347D01*
X240782873Y-88587197D01*
X240762049Y-88581981D01*
X240741837Y-88574749D01*
X240722431Y-88565570D01*
X240704018Y-88554534D01*
X240686775Y-88541746D01*
X240670869Y-88527330D01*
X240656453Y-88511424D01*
X240643665Y-88494181D01*
X240632629Y-88475768D01*
X240623450Y-88456362D01*
X240616218Y-88436150D01*
X240611002Y-88415326D01*
X240607852Y-88394091D01*
X240606799Y-88372650D01*
X240606799Y-87860150D01*
X240607852Y-87838709D01*
X240611002Y-87817474D01*
X240616218Y-87796650D01*
X240623450Y-87776438D01*
X240632629Y-87757032D01*
X240643665Y-87738619D01*
X240656453Y-87721376D01*
X240670869Y-87705470D01*
X240686775Y-87691054D01*
X240704018Y-87678266D01*
X240722431Y-87667230D01*
X240741837Y-87658051D01*
X240762049Y-87650819D01*
X240782873Y-87645603D01*
X240804108Y-87642453D01*
X240825549Y-87641400D01*
X241263049Y-87641400D01*
X241284490Y-87642453D01*
X241284490Y-87642453D01*
G37*
D13*
X241044299Y-88116400D03*
D10*
G36*
X242859490Y-87642453D02*
G01*
X242880725Y-87645603D01*
X242901549Y-87650819D01*
X242921761Y-87658051D01*
X242941167Y-87667230D01*
X242959580Y-87678266D01*
X242976823Y-87691054D01*
X242992729Y-87705470D01*
X243007145Y-87721376D01*
X243019933Y-87738619D01*
X243030969Y-87757032D01*
X243040148Y-87776438D01*
X243047380Y-87796650D01*
X243052596Y-87817474D01*
X243055746Y-87838709D01*
X243056799Y-87860150D01*
X243056799Y-88372650D01*
X243055746Y-88394091D01*
X243052596Y-88415326D01*
X243047380Y-88436150D01*
X243040148Y-88456362D01*
X243030969Y-88475768D01*
X243019933Y-88494181D01*
X243007145Y-88511424D01*
X242992729Y-88527330D01*
X242976823Y-88541746D01*
X242959580Y-88554534D01*
X242941167Y-88565570D01*
X242921761Y-88574749D01*
X242901549Y-88581981D01*
X242880725Y-88587197D01*
X242859490Y-88590347D01*
X242838049Y-88591400D01*
X242400549Y-88591400D01*
X242379108Y-88590347D01*
X242357873Y-88587197D01*
X242337049Y-88581981D01*
X242316837Y-88574749D01*
X242297431Y-88565570D01*
X242279018Y-88554534D01*
X242261775Y-88541746D01*
X242245869Y-88527330D01*
X242231453Y-88511424D01*
X242218665Y-88494181D01*
X242207629Y-88475768D01*
X242198450Y-88456362D01*
X242191218Y-88436150D01*
X242186002Y-88415326D01*
X242182852Y-88394091D01*
X242181799Y-88372650D01*
X242181799Y-87860150D01*
X242182852Y-87838709D01*
X242186002Y-87817474D01*
X242191218Y-87796650D01*
X242198450Y-87776438D01*
X242207629Y-87757032D01*
X242218665Y-87738619D01*
X242231453Y-87721376D01*
X242245869Y-87705470D01*
X242261775Y-87691054D01*
X242279018Y-87678266D01*
X242297431Y-87667230D01*
X242316837Y-87658051D01*
X242337049Y-87650819D01*
X242357873Y-87645603D01*
X242379108Y-87642453D01*
X242400549Y-87641400D01*
X242838049Y-87641400D01*
X242859490Y-87642453D01*
X242859490Y-87642453D01*
G37*
D13*
X242619299Y-88116400D03*
D21*
X224001800Y-82900000D03*
X220701800Y-82900000D03*
D10*
G36*
X227879491Y-85734653D02*
G01*
X227900726Y-85737803D01*
X227921550Y-85743019D01*
X227941762Y-85750251D01*
X227961168Y-85759430D01*
X227979581Y-85770466D01*
X227996824Y-85783254D01*
X228012730Y-85797670D01*
X228027146Y-85813576D01*
X228039934Y-85830819D01*
X228050970Y-85849232D01*
X228060149Y-85868638D01*
X228067381Y-85888850D01*
X228072597Y-85909674D01*
X228075747Y-85930909D01*
X228076800Y-85952350D01*
X228076800Y-86464850D01*
X228075747Y-86486291D01*
X228072597Y-86507526D01*
X228067381Y-86528350D01*
X228060149Y-86548562D01*
X228050970Y-86567968D01*
X228039934Y-86586381D01*
X228027146Y-86603624D01*
X228012730Y-86619530D01*
X227996824Y-86633946D01*
X227979581Y-86646734D01*
X227961168Y-86657770D01*
X227941762Y-86666949D01*
X227921550Y-86674181D01*
X227900726Y-86679397D01*
X227879491Y-86682547D01*
X227858050Y-86683600D01*
X227420550Y-86683600D01*
X227399109Y-86682547D01*
X227377874Y-86679397D01*
X227357050Y-86674181D01*
X227336838Y-86666949D01*
X227317432Y-86657770D01*
X227299019Y-86646734D01*
X227281776Y-86633946D01*
X227265870Y-86619530D01*
X227251454Y-86603624D01*
X227238666Y-86586381D01*
X227227630Y-86567968D01*
X227218451Y-86548562D01*
X227211219Y-86528350D01*
X227206003Y-86507526D01*
X227202853Y-86486291D01*
X227201800Y-86464850D01*
X227201800Y-85952350D01*
X227202853Y-85930909D01*
X227206003Y-85909674D01*
X227211219Y-85888850D01*
X227218451Y-85868638D01*
X227227630Y-85849232D01*
X227238666Y-85830819D01*
X227251454Y-85813576D01*
X227265870Y-85797670D01*
X227281776Y-85783254D01*
X227299019Y-85770466D01*
X227317432Y-85759430D01*
X227336838Y-85750251D01*
X227357050Y-85743019D01*
X227377874Y-85737803D01*
X227399109Y-85734653D01*
X227420550Y-85733600D01*
X227858050Y-85733600D01*
X227879491Y-85734653D01*
X227879491Y-85734653D01*
G37*
D13*
X227639300Y-86208600D03*
D10*
G36*
X226304491Y-85734653D02*
G01*
X226325726Y-85737803D01*
X226346550Y-85743019D01*
X226366762Y-85750251D01*
X226386168Y-85759430D01*
X226404581Y-85770466D01*
X226421824Y-85783254D01*
X226437730Y-85797670D01*
X226452146Y-85813576D01*
X226464934Y-85830819D01*
X226475970Y-85849232D01*
X226485149Y-85868638D01*
X226492381Y-85888850D01*
X226497597Y-85909674D01*
X226500747Y-85930909D01*
X226501800Y-85952350D01*
X226501800Y-86464850D01*
X226500747Y-86486291D01*
X226497597Y-86507526D01*
X226492381Y-86528350D01*
X226485149Y-86548562D01*
X226475970Y-86567968D01*
X226464934Y-86586381D01*
X226452146Y-86603624D01*
X226437730Y-86619530D01*
X226421824Y-86633946D01*
X226404581Y-86646734D01*
X226386168Y-86657770D01*
X226366762Y-86666949D01*
X226346550Y-86674181D01*
X226325726Y-86679397D01*
X226304491Y-86682547D01*
X226283050Y-86683600D01*
X225845550Y-86683600D01*
X225824109Y-86682547D01*
X225802874Y-86679397D01*
X225782050Y-86674181D01*
X225761838Y-86666949D01*
X225742432Y-86657770D01*
X225724019Y-86646734D01*
X225706776Y-86633946D01*
X225690870Y-86619530D01*
X225676454Y-86603624D01*
X225663666Y-86586381D01*
X225652630Y-86567968D01*
X225643451Y-86548562D01*
X225636219Y-86528350D01*
X225631003Y-86507526D01*
X225627853Y-86486291D01*
X225626800Y-86464850D01*
X225626800Y-85952350D01*
X225627853Y-85930909D01*
X225631003Y-85909674D01*
X225636219Y-85888850D01*
X225643451Y-85868638D01*
X225652630Y-85849232D01*
X225663666Y-85830819D01*
X225676454Y-85813576D01*
X225690870Y-85797670D01*
X225706776Y-85783254D01*
X225724019Y-85770466D01*
X225742432Y-85759430D01*
X225761838Y-85750251D01*
X225782050Y-85743019D01*
X225802874Y-85737803D01*
X225824109Y-85734653D01*
X225845550Y-85733600D01*
X226283050Y-85733600D01*
X226304491Y-85734653D01*
X226304491Y-85734653D01*
G37*
D13*
X226064300Y-86208600D03*
D22*
X241851799Y-82400000D03*
X242801799Y-84400000D03*
X240901799Y-84400000D03*
X226851800Y-82400000D03*
X227801800Y-84400000D03*
X225901800Y-84400000D03*
D21*
X239001799Y-82900000D03*
X235701799Y-82900000D03*
D10*
G36*
X226284491Y-87642453D02*
G01*
X226305726Y-87645603D01*
X226326550Y-87650819D01*
X226346762Y-87658051D01*
X226366168Y-87667230D01*
X226384581Y-87678266D01*
X226401824Y-87691054D01*
X226417730Y-87705470D01*
X226432146Y-87721376D01*
X226444934Y-87738619D01*
X226455970Y-87757032D01*
X226465149Y-87776438D01*
X226472381Y-87796650D01*
X226477597Y-87817474D01*
X226480747Y-87838709D01*
X226481800Y-87860150D01*
X226481800Y-88372650D01*
X226480747Y-88394091D01*
X226477597Y-88415326D01*
X226472381Y-88436150D01*
X226465149Y-88456362D01*
X226455970Y-88475768D01*
X226444934Y-88494181D01*
X226432146Y-88511424D01*
X226417730Y-88527330D01*
X226401824Y-88541746D01*
X226384581Y-88554534D01*
X226366168Y-88565570D01*
X226346762Y-88574749D01*
X226326550Y-88581981D01*
X226305726Y-88587197D01*
X226284491Y-88590347D01*
X226263050Y-88591400D01*
X225825550Y-88591400D01*
X225804109Y-88590347D01*
X225782874Y-88587197D01*
X225762050Y-88581981D01*
X225741838Y-88574749D01*
X225722432Y-88565570D01*
X225704019Y-88554534D01*
X225686776Y-88541746D01*
X225670870Y-88527330D01*
X225656454Y-88511424D01*
X225643666Y-88494181D01*
X225632630Y-88475768D01*
X225623451Y-88456362D01*
X225616219Y-88436150D01*
X225611003Y-88415326D01*
X225607853Y-88394091D01*
X225606800Y-88372650D01*
X225606800Y-87860150D01*
X225607853Y-87838709D01*
X225611003Y-87817474D01*
X225616219Y-87796650D01*
X225623451Y-87776438D01*
X225632630Y-87757032D01*
X225643666Y-87738619D01*
X225656454Y-87721376D01*
X225670870Y-87705470D01*
X225686776Y-87691054D01*
X225704019Y-87678266D01*
X225722432Y-87667230D01*
X225741838Y-87658051D01*
X225762050Y-87650819D01*
X225782874Y-87645603D01*
X225804109Y-87642453D01*
X225825550Y-87641400D01*
X226263050Y-87641400D01*
X226284491Y-87642453D01*
X226284491Y-87642453D01*
G37*
D13*
X226044300Y-88116400D03*
D10*
G36*
X227859491Y-87642453D02*
G01*
X227880726Y-87645603D01*
X227901550Y-87650819D01*
X227921762Y-87658051D01*
X227941168Y-87667230D01*
X227959581Y-87678266D01*
X227976824Y-87691054D01*
X227992730Y-87705470D01*
X228007146Y-87721376D01*
X228019934Y-87738619D01*
X228030970Y-87757032D01*
X228040149Y-87776438D01*
X228047381Y-87796650D01*
X228052597Y-87817474D01*
X228055747Y-87838709D01*
X228056800Y-87860150D01*
X228056800Y-88372650D01*
X228055747Y-88394091D01*
X228052597Y-88415326D01*
X228047381Y-88436150D01*
X228040149Y-88456362D01*
X228030970Y-88475768D01*
X228019934Y-88494181D01*
X228007146Y-88511424D01*
X227992730Y-88527330D01*
X227976824Y-88541746D01*
X227959581Y-88554534D01*
X227941168Y-88565570D01*
X227921762Y-88574749D01*
X227901550Y-88581981D01*
X227880726Y-88587197D01*
X227859491Y-88590347D01*
X227838050Y-88591400D01*
X227400550Y-88591400D01*
X227379109Y-88590347D01*
X227357874Y-88587197D01*
X227337050Y-88581981D01*
X227316838Y-88574749D01*
X227297432Y-88565570D01*
X227279019Y-88554534D01*
X227261776Y-88541746D01*
X227245870Y-88527330D01*
X227231454Y-88511424D01*
X227218666Y-88494181D01*
X227207630Y-88475768D01*
X227198451Y-88456362D01*
X227191219Y-88436150D01*
X227186003Y-88415326D01*
X227182853Y-88394091D01*
X227181800Y-88372650D01*
X227181800Y-87860150D01*
X227182853Y-87838709D01*
X227186003Y-87817474D01*
X227191219Y-87796650D01*
X227198451Y-87776438D01*
X227207630Y-87757032D01*
X227218666Y-87738619D01*
X227231454Y-87721376D01*
X227245870Y-87705470D01*
X227261776Y-87691054D01*
X227279019Y-87678266D01*
X227297432Y-87667230D01*
X227316838Y-87658051D01*
X227337050Y-87650819D01*
X227357874Y-87645603D01*
X227379109Y-87642453D01*
X227400550Y-87641400D01*
X227838050Y-87641400D01*
X227859491Y-87642453D01*
X227859491Y-87642453D01*
G37*
D13*
X227619300Y-88116400D03*
D10*
G36*
X254640703Y-103019322D02*
G01*
X254655264Y-103021482D01*
X254669543Y-103025059D01*
X254683403Y-103030018D01*
X254696710Y-103036312D01*
X254709336Y-103043880D01*
X254721159Y-103052648D01*
X254732066Y-103062534D01*
X254741952Y-103073441D01*
X254750720Y-103085264D01*
X254758288Y-103097890D01*
X254764582Y-103111197D01*
X254769541Y-103125057D01*
X254773118Y-103139336D01*
X254775278Y-103153897D01*
X254776000Y-103168600D01*
X254776000Y-103468600D01*
X254775278Y-103483303D01*
X254773118Y-103497864D01*
X254769541Y-103512143D01*
X254764582Y-103526003D01*
X254758288Y-103539310D01*
X254750720Y-103551936D01*
X254741952Y-103563759D01*
X254732066Y-103574666D01*
X254721159Y-103584552D01*
X254709336Y-103593320D01*
X254696710Y-103600888D01*
X254683403Y-103607182D01*
X254669543Y-103612141D01*
X254655264Y-103615718D01*
X254640703Y-103617878D01*
X254626000Y-103618600D01*
X252976000Y-103618600D01*
X252961297Y-103617878D01*
X252946736Y-103615718D01*
X252932457Y-103612141D01*
X252918597Y-103607182D01*
X252905290Y-103600888D01*
X252892664Y-103593320D01*
X252880841Y-103584552D01*
X252869934Y-103574666D01*
X252860048Y-103563759D01*
X252851280Y-103551936D01*
X252843712Y-103539310D01*
X252837418Y-103526003D01*
X252832459Y-103512143D01*
X252828882Y-103497864D01*
X252826722Y-103483303D01*
X252826000Y-103468600D01*
X252826000Y-103168600D01*
X252826722Y-103153897D01*
X252828882Y-103139336D01*
X252832459Y-103125057D01*
X252837418Y-103111197D01*
X252843712Y-103097890D01*
X252851280Y-103085264D01*
X252860048Y-103073441D01*
X252869934Y-103062534D01*
X252880841Y-103052648D01*
X252892664Y-103043880D01*
X252905290Y-103036312D01*
X252918597Y-103030018D01*
X252932457Y-103025059D01*
X252946736Y-103021482D01*
X252961297Y-103019322D01*
X252976000Y-103018600D01*
X254626000Y-103018600D01*
X254640703Y-103019322D01*
X254640703Y-103019322D01*
G37*
D14*
X253801000Y-103318600D03*
D10*
G36*
X254640703Y-101749322D02*
G01*
X254655264Y-101751482D01*
X254669543Y-101755059D01*
X254683403Y-101760018D01*
X254696710Y-101766312D01*
X254709336Y-101773880D01*
X254721159Y-101782648D01*
X254732066Y-101792534D01*
X254741952Y-101803441D01*
X254750720Y-101815264D01*
X254758288Y-101827890D01*
X254764582Y-101841197D01*
X254769541Y-101855057D01*
X254773118Y-101869336D01*
X254775278Y-101883897D01*
X254776000Y-101898600D01*
X254776000Y-102198600D01*
X254775278Y-102213303D01*
X254773118Y-102227864D01*
X254769541Y-102242143D01*
X254764582Y-102256003D01*
X254758288Y-102269310D01*
X254750720Y-102281936D01*
X254741952Y-102293759D01*
X254732066Y-102304666D01*
X254721159Y-102314552D01*
X254709336Y-102323320D01*
X254696710Y-102330888D01*
X254683403Y-102337182D01*
X254669543Y-102342141D01*
X254655264Y-102345718D01*
X254640703Y-102347878D01*
X254626000Y-102348600D01*
X252976000Y-102348600D01*
X252961297Y-102347878D01*
X252946736Y-102345718D01*
X252932457Y-102342141D01*
X252918597Y-102337182D01*
X252905290Y-102330888D01*
X252892664Y-102323320D01*
X252880841Y-102314552D01*
X252869934Y-102304666D01*
X252860048Y-102293759D01*
X252851280Y-102281936D01*
X252843712Y-102269310D01*
X252837418Y-102256003D01*
X252832459Y-102242143D01*
X252828882Y-102227864D01*
X252826722Y-102213303D01*
X252826000Y-102198600D01*
X252826000Y-101898600D01*
X252826722Y-101883897D01*
X252828882Y-101869336D01*
X252832459Y-101855057D01*
X252837418Y-101841197D01*
X252843712Y-101827890D01*
X252851280Y-101815264D01*
X252860048Y-101803441D01*
X252869934Y-101792534D01*
X252880841Y-101782648D01*
X252892664Y-101773880D01*
X252905290Y-101766312D01*
X252918597Y-101760018D01*
X252932457Y-101755059D01*
X252946736Y-101751482D01*
X252961297Y-101749322D01*
X252976000Y-101748600D01*
X254626000Y-101748600D01*
X254640703Y-101749322D01*
X254640703Y-101749322D01*
G37*
D14*
X253801000Y-102048600D03*
D10*
G36*
X254640703Y-100479322D02*
G01*
X254655264Y-100481482D01*
X254669543Y-100485059D01*
X254683403Y-100490018D01*
X254696710Y-100496312D01*
X254709336Y-100503880D01*
X254721159Y-100512648D01*
X254732066Y-100522534D01*
X254741952Y-100533441D01*
X254750720Y-100545264D01*
X254758288Y-100557890D01*
X254764582Y-100571197D01*
X254769541Y-100585057D01*
X254773118Y-100599336D01*
X254775278Y-100613897D01*
X254776000Y-100628600D01*
X254776000Y-100928600D01*
X254775278Y-100943303D01*
X254773118Y-100957864D01*
X254769541Y-100972143D01*
X254764582Y-100986003D01*
X254758288Y-100999310D01*
X254750720Y-101011936D01*
X254741952Y-101023759D01*
X254732066Y-101034666D01*
X254721159Y-101044552D01*
X254709336Y-101053320D01*
X254696710Y-101060888D01*
X254683403Y-101067182D01*
X254669543Y-101072141D01*
X254655264Y-101075718D01*
X254640703Y-101077878D01*
X254626000Y-101078600D01*
X252976000Y-101078600D01*
X252961297Y-101077878D01*
X252946736Y-101075718D01*
X252932457Y-101072141D01*
X252918597Y-101067182D01*
X252905290Y-101060888D01*
X252892664Y-101053320D01*
X252880841Y-101044552D01*
X252869934Y-101034666D01*
X252860048Y-101023759D01*
X252851280Y-101011936D01*
X252843712Y-100999310D01*
X252837418Y-100986003D01*
X252832459Y-100972143D01*
X252828882Y-100957864D01*
X252826722Y-100943303D01*
X252826000Y-100928600D01*
X252826000Y-100628600D01*
X252826722Y-100613897D01*
X252828882Y-100599336D01*
X252832459Y-100585057D01*
X252837418Y-100571197D01*
X252843712Y-100557890D01*
X252851280Y-100545264D01*
X252860048Y-100533441D01*
X252869934Y-100522534D01*
X252880841Y-100512648D01*
X252892664Y-100503880D01*
X252905290Y-100496312D01*
X252918597Y-100490018D01*
X252932457Y-100485059D01*
X252946736Y-100481482D01*
X252961297Y-100479322D01*
X252976000Y-100478600D01*
X254626000Y-100478600D01*
X254640703Y-100479322D01*
X254640703Y-100479322D01*
G37*
D14*
X253801000Y-100778600D03*
D10*
G36*
X254640703Y-99209322D02*
G01*
X254655264Y-99211482D01*
X254669543Y-99215059D01*
X254683403Y-99220018D01*
X254696710Y-99226312D01*
X254709336Y-99233880D01*
X254721159Y-99242648D01*
X254732066Y-99252534D01*
X254741952Y-99263441D01*
X254750720Y-99275264D01*
X254758288Y-99287890D01*
X254764582Y-99301197D01*
X254769541Y-99315057D01*
X254773118Y-99329336D01*
X254775278Y-99343897D01*
X254776000Y-99358600D01*
X254776000Y-99658600D01*
X254775278Y-99673303D01*
X254773118Y-99687864D01*
X254769541Y-99702143D01*
X254764582Y-99716003D01*
X254758288Y-99729310D01*
X254750720Y-99741936D01*
X254741952Y-99753759D01*
X254732066Y-99764666D01*
X254721159Y-99774552D01*
X254709336Y-99783320D01*
X254696710Y-99790888D01*
X254683403Y-99797182D01*
X254669543Y-99802141D01*
X254655264Y-99805718D01*
X254640703Y-99807878D01*
X254626000Y-99808600D01*
X252976000Y-99808600D01*
X252961297Y-99807878D01*
X252946736Y-99805718D01*
X252932457Y-99802141D01*
X252918597Y-99797182D01*
X252905290Y-99790888D01*
X252892664Y-99783320D01*
X252880841Y-99774552D01*
X252869934Y-99764666D01*
X252860048Y-99753759D01*
X252851280Y-99741936D01*
X252843712Y-99729310D01*
X252837418Y-99716003D01*
X252832459Y-99702143D01*
X252828882Y-99687864D01*
X252826722Y-99673303D01*
X252826000Y-99658600D01*
X252826000Y-99358600D01*
X252826722Y-99343897D01*
X252828882Y-99329336D01*
X252832459Y-99315057D01*
X252837418Y-99301197D01*
X252843712Y-99287890D01*
X252851280Y-99275264D01*
X252860048Y-99263441D01*
X252869934Y-99252534D01*
X252880841Y-99242648D01*
X252892664Y-99233880D01*
X252905290Y-99226312D01*
X252918597Y-99220018D01*
X252932457Y-99215059D01*
X252946736Y-99211482D01*
X252961297Y-99209322D01*
X252976000Y-99208600D01*
X254626000Y-99208600D01*
X254640703Y-99209322D01*
X254640703Y-99209322D01*
G37*
D14*
X253801000Y-99508600D03*
D10*
G36*
X259590703Y-99209322D02*
G01*
X259605264Y-99211482D01*
X259619543Y-99215059D01*
X259633403Y-99220018D01*
X259646710Y-99226312D01*
X259659336Y-99233880D01*
X259671159Y-99242648D01*
X259682066Y-99252534D01*
X259691952Y-99263441D01*
X259700720Y-99275264D01*
X259708288Y-99287890D01*
X259714582Y-99301197D01*
X259719541Y-99315057D01*
X259723118Y-99329336D01*
X259725278Y-99343897D01*
X259726000Y-99358600D01*
X259726000Y-99658600D01*
X259725278Y-99673303D01*
X259723118Y-99687864D01*
X259719541Y-99702143D01*
X259714582Y-99716003D01*
X259708288Y-99729310D01*
X259700720Y-99741936D01*
X259691952Y-99753759D01*
X259682066Y-99764666D01*
X259671159Y-99774552D01*
X259659336Y-99783320D01*
X259646710Y-99790888D01*
X259633403Y-99797182D01*
X259619543Y-99802141D01*
X259605264Y-99805718D01*
X259590703Y-99807878D01*
X259576000Y-99808600D01*
X257926000Y-99808600D01*
X257911297Y-99807878D01*
X257896736Y-99805718D01*
X257882457Y-99802141D01*
X257868597Y-99797182D01*
X257855290Y-99790888D01*
X257842664Y-99783320D01*
X257830841Y-99774552D01*
X257819934Y-99764666D01*
X257810048Y-99753759D01*
X257801280Y-99741936D01*
X257793712Y-99729310D01*
X257787418Y-99716003D01*
X257782459Y-99702143D01*
X257778882Y-99687864D01*
X257776722Y-99673303D01*
X257776000Y-99658600D01*
X257776000Y-99358600D01*
X257776722Y-99343897D01*
X257778882Y-99329336D01*
X257782459Y-99315057D01*
X257787418Y-99301197D01*
X257793712Y-99287890D01*
X257801280Y-99275264D01*
X257810048Y-99263441D01*
X257819934Y-99252534D01*
X257830841Y-99242648D01*
X257842664Y-99233880D01*
X257855290Y-99226312D01*
X257868597Y-99220018D01*
X257882457Y-99215059D01*
X257896736Y-99211482D01*
X257911297Y-99209322D01*
X257926000Y-99208600D01*
X259576000Y-99208600D01*
X259590703Y-99209322D01*
X259590703Y-99209322D01*
G37*
D14*
X258751000Y-99508600D03*
D10*
G36*
X259590703Y-100479322D02*
G01*
X259605264Y-100481482D01*
X259619543Y-100485059D01*
X259633403Y-100490018D01*
X259646710Y-100496312D01*
X259659336Y-100503880D01*
X259671159Y-100512648D01*
X259682066Y-100522534D01*
X259691952Y-100533441D01*
X259700720Y-100545264D01*
X259708288Y-100557890D01*
X259714582Y-100571197D01*
X259719541Y-100585057D01*
X259723118Y-100599336D01*
X259725278Y-100613897D01*
X259726000Y-100628600D01*
X259726000Y-100928600D01*
X259725278Y-100943303D01*
X259723118Y-100957864D01*
X259719541Y-100972143D01*
X259714582Y-100986003D01*
X259708288Y-100999310D01*
X259700720Y-101011936D01*
X259691952Y-101023759D01*
X259682066Y-101034666D01*
X259671159Y-101044552D01*
X259659336Y-101053320D01*
X259646710Y-101060888D01*
X259633403Y-101067182D01*
X259619543Y-101072141D01*
X259605264Y-101075718D01*
X259590703Y-101077878D01*
X259576000Y-101078600D01*
X257926000Y-101078600D01*
X257911297Y-101077878D01*
X257896736Y-101075718D01*
X257882457Y-101072141D01*
X257868597Y-101067182D01*
X257855290Y-101060888D01*
X257842664Y-101053320D01*
X257830841Y-101044552D01*
X257819934Y-101034666D01*
X257810048Y-101023759D01*
X257801280Y-101011936D01*
X257793712Y-100999310D01*
X257787418Y-100986003D01*
X257782459Y-100972143D01*
X257778882Y-100957864D01*
X257776722Y-100943303D01*
X257776000Y-100928600D01*
X257776000Y-100628600D01*
X257776722Y-100613897D01*
X257778882Y-100599336D01*
X257782459Y-100585057D01*
X257787418Y-100571197D01*
X257793712Y-100557890D01*
X257801280Y-100545264D01*
X257810048Y-100533441D01*
X257819934Y-100522534D01*
X257830841Y-100512648D01*
X257842664Y-100503880D01*
X257855290Y-100496312D01*
X257868597Y-100490018D01*
X257882457Y-100485059D01*
X257896736Y-100481482D01*
X257911297Y-100479322D01*
X257926000Y-100478600D01*
X259576000Y-100478600D01*
X259590703Y-100479322D01*
X259590703Y-100479322D01*
G37*
D14*
X258751000Y-100778600D03*
D10*
G36*
X259590703Y-101749322D02*
G01*
X259605264Y-101751482D01*
X259619543Y-101755059D01*
X259633403Y-101760018D01*
X259646710Y-101766312D01*
X259659336Y-101773880D01*
X259671159Y-101782648D01*
X259682066Y-101792534D01*
X259691952Y-101803441D01*
X259700720Y-101815264D01*
X259708288Y-101827890D01*
X259714582Y-101841197D01*
X259719541Y-101855057D01*
X259723118Y-101869336D01*
X259725278Y-101883897D01*
X259726000Y-101898600D01*
X259726000Y-102198600D01*
X259725278Y-102213303D01*
X259723118Y-102227864D01*
X259719541Y-102242143D01*
X259714582Y-102256003D01*
X259708288Y-102269310D01*
X259700720Y-102281936D01*
X259691952Y-102293759D01*
X259682066Y-102304666D01*
X259671159Y-102314552D01*
X259659336Y-102323320D01*
X259646710Y-102330888D01*
X259633403Y-102337182D01*
X259619543Y-102342141D01*
X259605264Y-102345718D01*
X259590703Y-102347878D01*
X259576000Y-102348600D01*
X257926000Y-102348600D01*
X257911297Y-102347878D01*
X257896736Y-102345718D01*
X257882457Y-102342141D01*
X257868597Y-102337182D01*
X257855290Y-102330888D01*
X257842664Y-102323320D01*
X257830841Y-102314552D01*
X257819934Y-102304666D01*
X257810048Y-102293759D01*
X257801280Y-102281936D01*
X257793712Y-102269310D01*
X257787418Y-102256003D01*
X257782459Y-102242143D01*
X257778882Y-102227864D01*
X257776722Y-102213303D01*
X257776000Y-102198600D01*
X257776000Y-101898600D01*
X257776722Y-101883897D01*
X257778882Y-101869336D01*
X257782459Y-101855057D01*
X257787418Y-101841197D01*
X257793712Y-101827890D01*
X257801280Y-101815264D01*
X257810048Y-101803441D01*
X257819934Y-101792534D01*
X257830841Y-101782648D01*
X257842664Y-101773880D01*
X257855290Y-101766312D01*
X257868597Y-101760018D01*
X257882457Y-101755059D01*
X257896736Y-101751482D01*
X257911297Y-101749322D01*
X257926000Y-101748600D01*
X259576000Y-101748600D01*
X259590703Y-101749322D01*
X259590703Y-101749322D01*
G37*
D14*
X258751000Y-102048600D03*
D10*
G36*
X259590703Y-103019322D02*
G01*
X259605264Y-103021482D01*
X259619543Y-103025059D01*
X259633403Y-103030018D01*
X259646710Y-103036312D01*
X259659336Y-103043880D01*
X259671159Y-103052648D01*
X259682066Y-103062534D01*
X259691952Y-103073441D01*
X259700720Y-103085264D01*
X259708288Y-103097890D01*
X259714582Y-103111197D01*
X259719541Y-103125057D01*
X259723118Y-103139336D01*
X259725278Y-103153897D01*
X259726000Y-103168600D01*
X259726000Y-103468600D01*
X259725278Y-103483303D01*
X259723118Y-103497864D01*
X259719541Y-103512143D01*
X259714582Y-103526003D01*
X259708288Y-103539310D01*
X259700720Y-103551936D01*
X259691952Y-103563759D01*
X259682066Y-103574666D01*
X259671159Y-103584552D01*
X259659336Y-103593320D01*
X259646710Y-103600888D01*
X259633403Y-103607182D01*
X259619543Y-103612141D01*
X259605264Y-103615718D01*
X259590703Y-103617878D01*
X259576000Y-103618600D01*
X257926000Y-103618600D01*
X257911297Y-103617878D01*
X257896736Y-103615718D01*
X257882457Y-103612141D01*
X257868597Y-103607182D01*
X257855290Y-103600888D01*
X257842664Y-103593320D01*
X257830841Y-103584552D01*
X257819934Y-103574666D01*
X257810048Y-103563759D01*
X257801280Y-103551936D01*
X257793712Y-103539310D01*
X257787418Y-103526003D01*
X257782459Y-103512143D01*
X257778882Y-103497864D01*
X257776722Y-103483303D01*
X257776000Y-103468600D01*
X257776000Y-103168600D01*
X257776722Y-103153897D01*
X257778882Y-103139336D01*
X257782459Y-103125057D01*
X257787418Y-103111197D01*
X257793712Y-103097890D01*
X257801280Y-103085264D01*
X257810048Y-103073441D01*
X257819934Y-103062534D01*
X257830841Y-103052648D01*
X257842664Y-103043880D01*
X257855290Y-103036312D01*
X257868597Y-103030018D01*
X257882457Y-103025059D01*
X257896736Y-103021482D01*
X257911297Y-103019322D01*
X257926000Y-103018600D01*
X259576000Y-103018600D01*
X259590703Y-103019322D01*
X259590703Y-103019322D01*
G37*
D14*
X258751000Y-103318600D03*
D10*
G36*
X253058091Y-127102853D02*
G01*
X253079326Y-127106003D01*
X253100150Y-127111219D01*
X253120362Y-127118451D01*
X253139768Y-127127630D01*
X253158181Y-127138666D01*
X253175424Y-127151454D01*
X253191330Y-127165870D01*
X253205746Y-127181776D01*
X253218534Y-127199019D01*
X253229570Y-127217432D01*
X253238749Y-127236838D01*
X253245981Y-127257050D01*
X253251197Y-127277874D01*
X253254347Y-127299109D01*
X253255400Y-127320550D01*
X253255400Y-127833050D01*
X253254347Y-127854491D01*
X253251197Y-127875726D01*
X253245981Y-127896550D01*
X253238749Y-127916762D01*
X253229570Y-127936168D01*
X253218534Y-127954581D01*
X253205746Y-127971824D01*
X253191330Y-127987730D01*
X253175424Y-128002146D01*
X253158181Y-128014934D01*
X253139768Y-128025970D01*
X253120362Y-128035149D01*
X253100150Y-128042381D01*
X253079326Y-128047597D01*
X253058091Y-128050747D01*
X253036650Y-128051800D01*
X252599150Y-128051800D01*
X252577709Y-128050747D01*
X252556474Y-128047597D01*
X252535650Y-128042381D01*
X252515438Y-128035149D01*
X252496032Y-128025970D01*
X252477619Y-128014934D01*
X252460376Y-128002146D01*
X252444470Y-127987730D01*
X252430054Y-127971824D01*
X252417266Y-127954581D01*
X252406230Y-127936168D01*
X252397051Y-127916762D01*
X252389819Y-127896550D01*
X252384603Y-127875726D01*
X252381453Y-127854491D01*
X252380400Y-127833050D01*
X252380400Y-127320550D01*
X252381453Y-127299109D01*
X252384603Y-127277874D01*
X252389819Y-127257050D01*
X252397051Y-127236838D01*
X252406230Y-127217432D01*
X252417266Y-127199019D01*
X252430054Y-127181776D01*
X252444470Y-127165870D01*
X252460376Y-127151454D01*
X252477619Y-127138666D01*
X252496032Y-127127630D01*
X252515438Y-127118451D01*
X252535650Y-127111219D01*
X252556474Y-127106003D01*
X252577709Y-127102853D01*
X252599150Y-127101800D01*
X253036650Y-127101800D01*
X253058091Y-127102853D01*
X253058091Y-127102853D01*
G37*
D13*
X252817900Y-127576800D03*
D10*
G36*
X254633091Y-127102853D02*
G01*
X254654326Y-127106003D01*
X254675150Y-127111219D01*
X254695362Y-127118451D01*
X254714768Y-127127630D01*
X254733181Y-127138666D01*
X254750424Y-127151454D01*
X254766330Y-127165870D01*
X254780746Y-127181776D01*
X254793534Y-127199019D01*
X254804570Y-127217432D01*
X254813749Y-127236838D01*
X254820981Y-127257050D01*
X254826197Y-127277874D01*
X254829347Y-127299109D01*
X254830400Y-127320550D01*
X254830400Y-127833050D01*
X254829347Y-127854491D01*
X254826197Y-127875726D01*
X254820981Y-127896550D01*
X254813749Y-127916762D01*
X254804570Y-127936168D01*
X254793534Y-127954581D01*
X254780746Y-127971824D01*
X254766330Y-127987730D01*
X254750424Y-128002146D01*
X254733181Y-128014934D01*
X254714768Y-128025970D01*
X254695362Y-128035149D01*
X254675150Y-128042381D01*
X254654326Y-128047597D01*
X254633091Y-128050747D01*
X254611650Y-128051800D01*
X254174150Y-128051800D01*
X254152709Y-128050747D01*
X254131474Y-128047597D01*
X254110650Y-128042381D01*
X254090438Y-128035149D01*
X254071032Y-128025970D01*
X254052619Y-128014934D01*
X254035376Y-128002146D01*
X254019470Y-127987730D01*
X254005054Y-127971824D01*
X253992266Y-127954581D01*
X253981230Y-127936168D01*
X253972051Y-127916762D01*
X253964819Y-127896550D01*
X253959603Y-127875726D01*
X253956453Y-127854491D01*
X253955400Y-127833050D01*
X253955400Y-127320550D01*
X253956453Y-127299109D01*
X253959603Y-127277874D01*
X253964819Y-127257050D01*
X253972051Y-127236838D01*
X253981230Y-127217432D01*
X253992266Y-127199019D01*
X254005054Y-127181776D01*
X254019470Y-127165870D01*
X254035376Y-127151454D01*
X254052619Y-127138666D01*
X254071032Y-127127630D01*
X254090438Y-127118451D01*
X254110650Y-127111219D01*
X254131474Y-127106003D01*
X254152709Y-127102853D01*
X254174150Y-127101800D01*
X254611650Y-127101800D01*
X254633091Y-127102853D01*
X254633091Y-127102853D01*
G37*
D13*
X254392900Y-127576800D03*
D10*
G36*
X189305891Y-120115453D02*
G01*
X189327126Y-120118603D01*
X189347950Y-120123819D01*
X189368162Y-120131051D01*
X189387568Y-120140230D01*
X189405981Y-120151266D01*
X189423224Y-120164054D01*
X189439130Y-120178470D01*
X189453546Y-120194376D01*
X189466334Y-120211619D01*
X189477370Y-120230032D01*
X189486549Y-120249438D01*
X189493781Y-120269650D01*
X189498997Y-120290474D01*
X189502147Y-120311709D01*
X189503200Y-120333150D01*
X189503200Y-120845650D01*
X189502147Y-120867091D01*
X189498997Y-120888326D01*
X189493781Y-120909150D01*
X189486549Y-120929362D01*
X189477370Y-120948768D01*
X189466334Y-120967181D01*
X189453546Y-120984424D01*
X189439130Y-121000330D01*
X189423224Y-121014746D01*
X189405981Y-121027534D01*
X189387568Y-121038570D01*
X189368162Y-121047749D01*
X189347950Y-121054981D01*
X189327126Y-121060197D01*
X189305891Y-121063347D01*
X189284450Y-121064400D01*
X188846950Y-121064400D01*
X188825509Y-121063347D01*
X188804274Y-121060197D01*
X188783450Y-121054981D01*
X188763238Y-121047749D01*
X188743832Y-121038570D01*
X188725419Y-121027534D01*
X188708176Y-121014746D01*
X188692270Y-121000330D01*
X188677854Y-120984424D01*
X188665066Y-120967181D01*
X188654030Y-120948768D01*
X188644851Y-120929362D01*
X188637619Y-120909150D01*
X188632403Y-120888326D01*
X188629253Y-120867091D01*
X188628200Y-120845650D01*
X188628200Y-120333150D01*
X188629253Y-120311709D01*
X188632403Y-120290474D01*
X188637619Y-120269650D01*
X188644851Y-120249438D01*
X188654030Y-120230032D01*
X188665066Y-120211619D01*
X188677854Y-120194376D01*
X188692270Y-120178470D01*
X188708176Y-120164054D01*
X188725419Y-120151266D01*
X188743832Y-120140230D01*
X188763238Y-120131051D01*
X188783450Y-120123819D01*
X188804274Y-120118603D01*
X188825509Y-120115453D01*
X188846950Y-120114400D01*
X189284450Y-120114400D01*
X189305891Y-120115453D01*
X189305891Y-120115453D01*
G37*
D13*
X189065700Y-120589400D03*
D10*
G36*
X190880891Y-120115453D02*
G01*
X190902126Y-120118603D01*
X190922950Y-120123819D01*
X190943162Y-120131051D01*
X190962568Y-120140230D01*
X190980981Y-120151266D01*
X190998224Y-120164054D01*
X191014130Y-120178470D01*
X191028546Y-120194376D01*
X191041334Y-120211619D01*
X191052370Y-120230032D01*
X191061549Y-120249438D01*
X191068781Y-120269650D01*
X191073997Y-120290474D01*
X191077147Y-120311709D01*
X191078200Y-120333150D01*
X191078200Y-120845650D01*
X191077147Y-120867091D01*
X191073997Y-120888326D01*
X191068781Y-120909150D01*
X191061549Y-120929362D01*
X191052370Y-120948768D01*
X191041334Y-120967181D01*
X191028546Y-120984424D01*
X191014130Y-121000330D01*
X190998224Y-121014746D01*
X190980981Y-121027534D01*
X190962568Y-121038570D01*
X190943162Y-121047749D01*
X190922950Y-121054981D01*
X190902126Y-121060197D01*
X190880891Y-121063347D01*
X190859450Y-121064400D01*
X190421950Y-121064400D01*
X190400509Y-121063347D01*
X190379274Y-121060197D01*
X190358450Y-121054981D01*
X190338238Y-121047749D01*
X190318832Y-121038570D01*
X190300419Y-121027534D01*
X190283176Y-121014746D01*
X190267270Y-121000330D01*
X190252854Y-120984424D01*
X190240066Y-120967181D01*
X190229030Y-120948768D01*
X190219851Y-120929362D01*
X190212619Y-120909150D01*
X190207403Y-120888326D01*
X190204253Y-120867091D01*
X190203200Y-120845650D01*
X190203200Y-120333150D01*
X190204253Y-120311709D01*
X190207403Y-120290474D01*
X190212619Y-120269650D01*
X190219851Y-120249438D01*
X190229030Y-120230032D01*
X190240066Y-120211619D01*
X190252854Y-120194376D01*
X190267270Y-120178470D01*
X190283176Y-120164054D01*
X190300419Y-120151266D01*
X190318832Y-120140230D01*
X190338238Y-120131051D01*
X190358450Y-120123819D01*
X190379274Y-120118603D01*
X190400509Y-120115453D01*
X190421950Y-120114400D01*
X190859450Y-120114400D01*
X190880891Y-120115453D01*
X190880891Y-120115453D01*
G37*
D13*
X190640700Y-120589400D03*
D10*
G36*
X236324505Y-99626204D02*
G01*
X236348773Y-99629804D01*
X236372572Y-99635765D01*
X236395671Y-99644030D01*
X236417850Y-99654520D01*
X236438893Y-99667132D01*
X236458599Y-99681747D01*
X236476777Y-99698223D01*
X236493253Y-99716401D01*
X236507868Y-99736107D01*
X236520480Y-99757150D01*
X236530970Y-99779329D01*
X236539235Y-99802428D01*
X236545196Y-99826227D01*
X236548796Y-99850495D01*
X236550000Y-99874999D01*
X236550000Y-100725001D01*
X236548796Y-100749505D01*
X236545196Y-100773773D01*
X236539235Y-100797572D01*
X236530970Y-100820671D01*
X236520480Y-100842850D01*
X236507868Y-100863893D01*
X236493253Y-100883599D01*
X236476777Y-100901777D01*
X236458599Y-100918253D01*
X236438893Y-100932868D01*
X236417850Y-100945480D01*
X236395671Y-100955970D01*
X236372572Y-100964235D01*
X236348773Y-100970196D01*
X236324505Y-100973796D01*
X236300001Y-100975000D01*
X235399999Y-100975000D01*
X235375495Y-100973796D01*
X235351227Y-100970196D01*
X235327428Y-100964235D01*
X235304329Y-100955970D01*
X235282150Y-100945480D01*
X235261107Y-100932868D01*
X235241401Y-100918253D01*
X235223223Y-100901777D01*
X235206747Y-100883599D01*
X235192132Y-100863893D01*
X235179520Y-100842850D01*
X235169030Y-100820671D01*
X235160765Y-100797572D01*
X235154804Y-100773773D01*
X235151204Y-100749505D01*
X235150000Y-100725001D01*
X235150000Y-99874999D01*
X235151204Y-99850495D01*
X235154804Y-99826227D01*
X235160765Y-99802428D01*
X235169030Y-99779329D01*
X235179520Y-99757150D01*
X235192132Y-99736107D01*
X235206747Y-99716401D01*
X235223223Y-99698223D01*
X235241401Y-99681747D01*
X235261107Y-99667132D01*
X235282150Y-99654520D01*
X235304329Y-99644030D01*
X235327428Y-99635765D01*
X235351227Y-99629804D01*
X235375495Y-99626204D01*
X235399999Y-99625000D01*
X236300001Y-99625000D01*
X236324505Y-99626204D01*
X236324505Y-99626204D01*
G37*
D24*
X235850000Y-100300000D03*
D10*
G36*
X233624505Y-99626204D02*
G01*
X233648773Y-99629804D01*
X233672572Y-99635765D01*
X233695671Y-99644030D01*
X233717850Y-99654520D01*
X233738893Y-99667132D01*
X233758599Y-99681747D01*
X233776777Y-99698223D01*
X233793253Y-99716401D01*
X233807868Y-99736107D01*
X233820480Y-99757150D01*
X233830970Y-99779329D01*
X233839235Y-99802428D01*
X233845196Y-99826227D01*
X233848796Y-99850495D01*
X233850000Y-99874999D01*
X233850000Y-100725001D01*
X233848796Y-100749505D01*
X233845196Y-100773773D01*
X233839235Y-100797572D01*
X233830970Y-100820671D01*
X233820480Y-100842850D01*
X233807868Y-100863893D01*
X233793253Y-100883599D01*
X233776777Y-100901777D01*
X233758599Y-100918253D01*
X233738893Y-100932868D01*
X233717850Y-100945480D01*
X233695671Y-100955970D01*
X233672572Y-100964235D01*
X233648773Y-100970196D01*
X233624505Y-100973796D01*
X233600001Y-100975000D01*
X232699999Y-100975000D01*
X232675495Y-100973796D01*
X232651227Y-100970196D01*
X232627428Y-100964235D01*
X232604329Y-100955970D01*
X232582150Y-100945480D01*
X232561107Y-100932868D01*
X232541401Y-100918253D01*
X232523223Y-100901777D01*
X232506747Y-100883599D01*
X232492132Y-100863893D01*
X232479520Y-100842850D01*
X232469030Y-100820671D01*
X232460765Y-100797572D01*
X232454804Y-100773773D01*
X232451204Y-100749505D01*
X232450000Y-100725001D01*
X232450000Y-99874999D01*
X232451204Y-99850495D01*
X232454804Y-99826227D01*
X232460765Y-99802428D01*
X232469030Y-99779329D01*
X232479520Y-99757150D01*
X232492132Y-99736107D01*
X232506747Y-99716401D01*
X232523223Y-99698223D01*
X232541401Y-99681747D01*
X232561107Y-99667132D01*
X232582150Y-99654520D01*
X232604329Y-99644030D01*
X232627428Y-99635765D01*
X232651227Y-99629804D01*
X232675495Y-99626204D01*
X232699999Y-99625000D01*
X233600001Y-99625000D01*
X233624505Y-99626204D01*
X233624505Y-99626204D01*
G37*
D24*
X233150000Y-100300000D03*
D10*
G36*
X233277691Y-96063553D02*
G01*
X233298926Y-96066703D01*
X233319750Y-96071919D01*
X233339962Y-96079151D01*
X233359368Y-96088330D01*
X233377781Y-96099366D01*
X233395024Y-96112154D01*
X233410930Y-96126570D01*
X233425346Y-96142476D01*
X233438134Y-96159719D01*
X233449170Y-96178132D01*
X233458349Y-96197538D01*
X233465581Y-96217750D01*
X233470797Y-96238574D01*
X233473947Y-96259809D01*
X233475000Y-96281250D01*
X233475000Y-96718750D01*
X233473947Y-96740191D01*
X233470797Y-96761426D01*
X233465581Y-96782250D01*
X233458349Y-96802462D01*
X233449170Y-96821868D01*
X233438134Y-96840281D01*
X233425346Y-96857524D01*
X233410930Y-96873430D01*
X233395024Y-96887846D01*
X233377781Y-96900634D01*
X233359368Y-96911670D01*
X233339962Y-96920849D01*
X233319750Y-96928081D01*
X233298926Y-96933297D01*
X233277691Y-96936447D01*
X233256250Y-96937500D01*
X232743750Y-96937500D01*
X232722309Y-96936447D01*
X232701074Y-96933297D01*
X232680250Y-96928081D01*
X232660038Y-96920849D01*
X232640632Y-96911670D01*
X232622219Y-96900634D01*
X232604976Y-96887846D01*
X232589070Y-96873430D01*
X232574654Y-96857524D01*
X232561866Y-96840281D01*
X232550830Y-96821868D01*
X232541651Y-96802462D01*
X232534419Y-96782250D01*
X232529203Y-96761426D01*
X232526053Y-96740191D01*
X232525000Y-96718750D01*
X232525000Y-96281250D01*
X232526053Y-96259809D01*
X232529203Y-96238574D01*
X232534419Y-96217750D01*
X232541651Y-96197538D01*
X232550830Y-96178132D01*
X232561866Y-96159719D01*
X232574654Y-96142476D01*
X232589070Y-96126570D01*
X232604976Y-96112154D01*
X232622219Y-96099366D01*
X232640632Y-96088330D01*
X232660038Y-96079151D01*
X232680250Y-96071919D01*
X232701074Y-96066703D01*
X232722309Y-96063553D01*
X232743750Y-96062500D01*
X233256250Y-96062500D01*
X233277691Y-96063553D01*
X233277691Y-96063553D01*
G37*
D13*
X233000000Y-96500000D03*
D10*
G36*
X233277691Y-94488553D02*
G01*
X233298926Y-94491703D01*
X233319750Y-94496919D01*
X233339962Y-94504151D01*
X233359368Y-94513330D01*
X233377781Y-94524366D01*
X233395024Y-94537154D01*
X233410930Y-94551570D01*
X233425346Y-94567476D01*
X233438134Y-94584719D01*
X233449170Y-94603132D01*
X233458349Y-94622538D01*
X233465581Y-94642750D01*
X233470797Y-94663574D01*
X233473947Y-94684809D01*
X233475000Y-94706250D01*
X233475000Y-95143750D01*
X233473947Y-95165191D01*
X233470797Y-95186426D01*
X233465581Y-95207250D01*
X233458349Y-95227462D01*
X233449170Y-95246868D01*
X233438134Y-95265281D01*
X233425346Y-95282524D01*
X233410930Y-95298430D01*
X233395024Y-95312846D01*
X233377781Y-95325634D01*
X233359368Y-95336670D01*
X233339962Y-95345849D01*
X233319750Y-95353081D01*
X233298926Y-95358297D01*
X233277691Y-95361447D01*
X233256250Y-95362500D01*
X232743750Y-95362500D01*
X232722309Y-95361447D01*
X232701074Y-95358297D01*
X232680250Y-95353081D01*
X232660038Y-95345849D01*
X232640632Y-95336670D01*
X232622219Y-95325634D01*
X232604976Y-95312846D01*
X232589070Y-95298430D01*
X232574654Y-95282524D01*
X232561866Y-95265281D01*
X232550830Y-95246868D01*
X232541651Y-95227462D01*
X232534419Y-95207250D01*
X232529203Y-95186426D01*
X232526053Y-95165191D01*
X232525000Y-95143750D01*
X232525000Y-94706250D01*
X232526053Y-94684809D01*
X232529203Y-94663574D01*
X232534419Y-94642750D01*
X232541651Y-94622538D01*
X232550830Y-94603132D01*
X232561866Y-94584719D01*
X232574654Y-94567476D01*
X232589070Y-94551570D01*
X232604976Y-94537154D01*
X232622219Y-94524366D01*
X232640632Y-94513330D01*
X232660038Y-94504151D01*
X232680250Y-94496919D01*
X232701074Y-94491703D01*
X232722309Y-94488553D01*
X232743750Y-94487500D01*
X233256250Y-94487500D01*
X233277691Y-94488553D01*
X233277691Y-94488553D01*
G37*
D13*
X233000000Y-94925000D03*
D10*
G36*
X242879490Y-85734653D02*
G01*
X242900725Y-85737803D01*
X242921549Y-85743019D01*
X242941761Y-85750251D01*
X242961167Y-85759430D01*
X242979580Y-85770466D01*
X242996823Y-85783254D01*
X243012729Y-85797670D01*
X243027145Y-85813576D01*
X243039933Y-85830819D01*
X243050969Y-85849232D01*
X243060148Y-85868638D01*
X243067380Y-85888850D01*
X243072596Y-85909674D01*
X243075746Y-85930909D01*
X243076799Y-85952350D01*
X243076799Y-86464850D01*
X243075746Y-86486291D01*
X243072596Y-86507526D01*
X243067380Y-86528350D01*
X243060148Y-86548562D01*
X243050969Y-86567968D01*
X243039933Y-86586381D01*
X243027145Y-86603624D01*
X243012729Y-86619530D01*
X242996823Y-86633946D01*
X242979580Y-86646734D01*
X242961167Y-86657770D01*
X242941761Y-86666949D01*
X242921549Y-86674181D01*
X242900725Y-86679397D01*
X242879490Y-86682547D01*
X242858049Y-86683600D01*
X242420549Y-86683600D01*
X242399108Y-86682547D01*
X242377873Y-86679397D01*
X242357049Y-86674181D01*
X242336837Y-86666949D01*
X242317431Y-86657770D01*
X242299018Y-86646734D01*
X242281775Y-86633946D01*
X242265869Y-86619530D01*
X242251453Y-86603624D01*
X242238665Y-86586381D01*
X242227629Y-86567968D01*
X242218450Y-86548562D01*
X242211218Y-86528350D01*
X242206002Y-86507526D01*
X242202852Y-86486291D01*
X242201799Y-86464850D01*
X242201799Y-85952350D01*
X242202852Y-85930909D01*
X242206002Y-85909674D01*
X242211218Y-85888850D01*
X242218450Y-85868638D01*
X242227629Y-85849232D01*
X242238665Y-85830819D01*
X242251453Y-85813576D01*
X242265869Y-85797670D01*
X242281775Y-85783254D01*
X242299018Y-85770466D01*
X242317431Y-85759430D01*
X242336837Y-85750251D01*
X242357049Y-85743019D01*
X242377873Y-85737803D01*
X242399108Y-85734653D01*
X242420549Y-85733600D01*
X242858049Y-85733600D01*
X242879490Y-85734653D01*
X242879490Y-85734653D01*
G37*
D13*
X242639299Y-86208600D03*
D10*
G36*
X241304490Y-85734653D02*
G01*
X241325725Y-85737803D01*
X241346549Y-85743019D01*
X241366761Y-85750251D01*
X241386167Y-85759430D01*
X241404580Y-85770466D01*
X241421823Y-85783254D01*
X241437729Y-85797670D01*
X241452145Y-85813576D01*
X241464933Y-85830819D01*
X241475969Y-85849232D01*
X241485148Y-85868638D01*
X241492380Y-85888850D01*
X241497596Y-85909674D01*
X241500746Y-85930909D01*
X241501799Y-85952350D01*
X241501799Y-86464850D01*
X241500746Y-86486291D01*
X241497596Y-86507526D01*
X241492380Y-86528350D01*
X241485148Y-86548562D01*
X241475969Y-86567968D01*
X241464933Y-86586381D01*
X241452145Y-86603624D01*
X241437729Y-86619530D01*
X241421823Y-86633946D01*
X241404580Y-86646734D01*
X241386167Y-86657770D01*
X241366761Y-86666949D01*
X241346549Y-86674181D01*
X241325725Y-86679397D01*
X241304490Y-86682547D01*
X241283049Y-86683600D01*
X240845549Y-86683600D01*
X240824108Y-86682547D01*
X240802873Y-86679397D01*
X240782049Y-86674181D01*
X240761837Y-86666949D01*
X240742431Y-86657770D01*
X240724018Y-86646734D01*
X240706775Y-86633946D01*
X240690869Y-86619530D01*
X240676453Y-86603624D01*
X240663665Y-86586381D01*
X240652629Y-86567968D01*
X240643450Y-86548562D01*
X240636218Y-86528350D01*
X240631002Y-86507526D01*
X240627852Y-86486291D01*
X240626799Y-86464850D01*
X240626799Y-85952350D01*
X240627852Y-85930909D01*
X240631002Y-85909674D01*
X240636218Y-85888850D01*
X240643450Y-85868638D01*
X240652629Y-85849232D01*
X240663665Y-85830819D01*
X240676453Y-85813576D01*
X240690869Y-85797670D01*
X240706775Y-85783254D01*
X240724018Y-85770466D01*
X240742431Y-85759430D01*
X240761837Y-85750251D01*
X240782049Y-85743019D01*
X240802873Y-85737803D01*
X240824108Y-85734653D01*
X240845549Y-85733600D01*
X241283049Y-85733600D01*
X241304490Y-85734653D01*
X241304490Y-85734653D01*
G37*
D13*
X241064299Y-86208600D03*
D10*
G36*
X196618291Y-120115453D02*
G01*
X196639526Y-120118603D01*
X196660350Y-120123819D01*
X196680562Y-120131051D01*
X196699968Y-120140230D01*
X196718381Y-120151266D01*
X196735624Y-120164054D01*
X196751530Y-120178470D01*
X196765946Y-120194376D01*
X196778734Y-120211619D01*
X196789770Y-120230032D01*
X196798949Y-120249438D01*
X196806181Y-120269650D01*
X196811397Y-120290474D01*
X196814547Y-120311709D01*
X196815600Y-120333150D01*
X196815600Y-120845650D01*
X196814547Y-120867091D01*
X196811397Y-120888326D01*
X196806181Y-120909150D01*
X196798949Y-120929362D01*
X196789770Y-120948768D01*
X196778734Y-120967181D01*
X196765946Y-120984424D01*
X196751530Y-121000330D01*
X196735624Y-121014746D01*
X196718381Y-121027534D01*
X196699968Y-121038570D01*
X196680562Y-121047749D01*
X196660350Y-121054981D01*
X196639526Y-121060197D01*
X196618291Y-121063347D01*
X196596850Y-121064400D01*
X196159350Y-121064400D01*
X196137909Y-121063347D01*
X196116674Y-121060197D01*
X196095850Y-121054981D01*
X196075638Y-121047749D01*
X196056232Y-121038570D01*
X196037819Y-121027534D01*
X196020576Y-121014746D01*
X196004670Y-121000330D01*
X195990254Y-120984424D01*
X195977466Y-120967181D01*
X195966430Y-120948768D01*
X195957251Y-120929362D01*
X195950019Y-120909150D01*
X195944803Y-120888326D01*
X195941653Y-120867091D01*
X195940600Y-120845650D01*
X195940600Y-120333150D01*
X195941653Y-120311709D01*
X195944803Y-120290474D01*
X195950019Y-120269650D01*
X195957251Y-120249438D01*
X195966430Y-120230032D01*
X195977466Y-120211619D01*
X195990254Y-120194376D01*
X196004670Y-120178470D01*
X196020576Y-120164054D01*
X196037819Y-120151266D01*
X196056232Y-120140230D01*
X196075638Y-120131051D01*
X196095850Y-120123819D01*
X196116674Y-120118603D01*
X196137909Y-120115453D01*
X196159350Y-120114400D01*
X196596850Y-120114400D01*
X196618291Y-120115453D01*
X196618291Y-120115453D01*
G37*
D13*
X196378100Y-120589400D03*
D10*
G36*
X198193291Y-120115453D02*
G01*
X198214526Y-120118603D01*
X198235350Y-120123819D01*
X198255562Y-120131051D01*
X198274968Y-120140230D01*
X198293381Y-120151266D01*
X198310624Y-120164054D01*
X198326530Y-120178470D01*
X198340946Y-120194376D01*
X198353734Y-120211619D01*
X198364770Y-120230032D01*
X198373949Y-120249438D01*
X198381181Y-120269650D01*
X198386397Y-120290474D01*
X198389547Y-120311709D01*
X198390600Y-120333150D01*
X198390600Y-120845650D01*
X198389547Y-120867091D01*
X198386397Y-120888326D01*
X198381181Y-120909150D01*
X198373949Y-120929362D01*
X198364770Y-120948768D01*
X198353734Y-120967181D01*
X198340946Y-120984424D01*
X198326530Y-121000330D01*
X198310624Y-121014746D01*
X198293381Y-121027534D01*
X198274968Y-121038570D01*
X198255562Y-121047749D01*
X198235350Y-121054981D01*
X198214526Y-121060197D01*
X198193291Y-121063347D01*
X198171850Y-121064400D01*
X197734350Y-121064400D01*
X197712909Y-121063347D01*
X197691674Y-121060197D01*
X197670850Y-121054981D01*
X197650638Y-121047749D01*
X197631232Y-121038570D01*
X197612819Y-121027534D01*
X197595576Y-121014746D01*
X197579670Y-121000330D01*
X197565254Y-120984424D01*
X197552466Y-120967181D01*
X197541430Y-120948768D01*
X197532251Y-120929362D01*
X197525019Y-120909150D01*
X197519803Y-120888326D01*
X197516653Y-120867091D01*
X197515600Y-120845650D01*
X197515600Y-120333150D01*
X197516653Y-120311709D01*
X197519803Y-120290474D01*
X197525019Y-120269650D01*
X197532251Y-120249438D01*
X197541430Y-120230032D01*
X197552466Y-120211619D01*
X197565254Y-120194376D01*
X197579670Y-120178470D01*
X197595576Y-120164054D01*
X197612819Y-120151266D01*
X197631232Y-120140230D01*
X197650638Y-120131051D01*
X197670850Y-120123819D01*
X197691674Y-120118603D01*
X197712909Y-120115453D01*
X197734350Y-120114400D01*
X198171850Y-120114400D01*
X198193291Y-120115453D01*
X198193291Y-120115453D01*
G37*
D13*
X197953100Y-120589400D03*
D10*
G36*
X235549505Y-97201204D02*
G01*
X235573773Y-97204804D01*
X235597572Y-97210765D01*
X235620671Y-97219030D01*
X235642850Y-97229520D01*
X235663893Y-97242132D01*
X235683599Y-97256747D01*
X235701777Y-97273223D01*
X235718253Y-97291401D01*
X235732868Y-97311107D01*
X235745480Y-97332150D01*
X235755970Y-97354329D01*
X235764235Y-97377428D01*
X235770196Y-97401227D01*
X235773796Y-97425495D01*
X235775000Y-97449999D01*
X235775000Y-98350001D01*
X235773796Y-98374505D01*
X235770196Y-98398773D01*
X235764235Y-98422572D01*
X235755970Y-98445671D01*
X235745480Y-98467850D01*
X235732868Y-98488893D01*
X235718253Y-98508599D01*
X235701777Y-98526777D01*
X235683599Y-98543253D01*
X235663893Y-98557868D01*
X235642850Y-98570480D01*
X235620671Y-98580970D01*
X235597572Y-98589235D01*
X235573773Y-98595196D01*
X235549505Y-98598796D01*
X235525001Y-98600000D01*
X234674999Y-98600000D01*
X234650495Y-98598796D01*
X234626227Y-98595196D01*
X234602428Y-98589235D01*
X234579329Y-98580970D01*
X234557150Y-98570480D01*
X234536107Y-98557868D01*
X234516401Y-98543253D01*
X234498223Y-98526777D01*
X234481747Y-98508599D01*
X234467132Y-98488893D01*
X234454520Y-98467850D01*
X234444030Y-98445671D01*
X234435765Y-98422572D01*
X234429804Y-98398773D01*
X234426204Y-98374505D01*
X234425000Y-98350001D01*
X234425000Y-97449999D01*
X234426204Y-97425495D01*
X234429804Y-97401227D01*
X234435765Y-97377428D01*
X234444030Y-97354329D01*
X234454520Y-97332150D01*
X234467132Y-97311107D01*
X234481747Y-97291401D01*
X234498223Y-97273223D01*
X234516401Y-97256747D01*
X234536107Y-97242132D01*
X234557150Y-97229520D01*
X234579329Y-97219030D01*
X234602428Y-97210765D01*
X234626227Y-97204804D01*
X234650495Y-97201204D01*
X234674999Y-97200000D01*
X235525001Y-97200000D01*
X235549505Y-97201204D01*
X235549505Y-97201204D01*
G37*
D24*
X235100000Y-97900000D03*
D10*
G36*
X235549505Y-94501204D02*
G01*
X235573773Y-94504804D01*
X235597572Y-94510765D01*
X235620671Y-94519030D01*
X235642850Y-94529520D01*
X235663893Y-94542132D01*
X235683599Y-94556747D01*
X235701777Y-94573223D01*
X235718253Y-94591401D01*
X235732868Y-94611107D01*
X235745480Y-94632150D01*
X235755970Y-94654329D01*
X235764235Y-94677428D01*
X235770196Y-94701227D01*
X235773796Y-94725495D01*
X235775000Y-94749999D01*
X235775000Y-95650001D01*
X235773796Y-95674505D01*
X235770196Y-95698773D01*
X235764235Y-95722572D01*
X235755970Y-95745671D01*
X235745480Y-95767850D01*
X235732868Y-95788893D01*
X235718253Y-95808599D01*
X235701777Y-95826777D01*
X235683599Y-95843253D01*
X235663893Y-95857868D01*
X235642850Y-95870480D01*
X235620671Y-95880970D01*
X235597572Y-95889235D01*
X235573773Y-95895196D01*
X235549505Y-95898796D01*
X235525001Y-95900000D01*
X234674999Y-95900000D01*
X234650495Y-95898796D01*
X234626227Y-95895196D01*
X234602428Y-95889235D01*
X234579329Y-95880970D01*
X234557150Y-95870480D01*
X234536107Y-95857868D01*
X234516401Y-95843253D01*
X234498223Y-95826777D01*
X234481747Y-95808599D01*
X234467132Y-95788893D01*
X234454520Y-95767850D01*
X234444030Y-95745671D01*
X234435765Y-95722572D01*
X234429804Y-95698773D01*
X234426204Y-95674505D01*
X234425000Y-95650001D01*
X234425000Y-94749999D01*
X234426204Y-94725495D01*
X234429804Y-94701227D01*
X234435765Y-94677428D01*
X234444030Y-94654329D01*
X234454520Y-94632150D01*
X234467132Y-94611107D01*
X234481747Y-94591401D01*
X234498223Y-94573223D01*
X234516401Y-94556747D01*
X234536107Y-94542132D01*
X234557150Y-94529520D01*
X234579329Y-94519030D01*
X234602428Y-94510765D01*
X234626227Y-94504804D01*
X234650495Y-94501204D01*
X234674999Y-94500000D01*
X235525001Y-94500000D01*
X235549505Y-94501204D01*
X235549505Y-94501204D01*
G37*
D24*
X235100000Y-95200000D03*
M02*
