G04 #@! TF.GenerationSoftware,KiCad,Pcbnew,(5.1.4)-1*
G04 #@! TF.CreationDate,2019-12-18T10:15:03+01:00*
G04 #@! TF.ProjectId,StudiokiController,53747564-696f-46b6-9943-6f6e74726f6c,rev?*
G04 #@! TF.SameCoordinates,Original*
G04 #@! TF.FileFunction,Soldermask,Top*
G04 #@! TF.FilePolarity,Negative*
%FSLAX46Y46*%
G04 Gerber Fmt 4.6, Leading zero omitted, Abs format (unit mm)*
G04 Created by KiCad (PCBNEW (5.1.4)-1) date 2019-12-18 10:15:03*
%MOMM*%
%LPD*%
G04 APERTURE LIST*
%ADD10C,0.100000*%
G04 APERTURE END LIST*
D10*
G36*
X182687600Y-72098800D02*
G01*
X177687600Y-72098800D01*
X177687600Y-77098800D01*
X182687600Y-77098800D01*
X182687600Y-72098800D01*
G37*
X182687600Y-72098800D02*
X177687600Y-72098800D01*
X177687600Y-77098800D01*
X182687600Y-77098800D01*
X182687600Y-72098800D01*
G36*
X177687600Y-61098800D02*
G01*
X182687600Y-61098800D01*
X182687600Y-56098800D01*
X177687600Y-56098800D01*
X177687600Y-58098800D01*
X177687600Y-61098800D01*
G37*
X177687600Y-61098800D02*
X182687600Y-61098800D01*
X182687600Y-56098800D01*
X177687600Y-56098800D01*
X177687600Y-58098800D01*
X177687600Y-61098800D01*
G36*
X206100560Y-129942018D02*
G01*
X206110362Y-129942500D01*
X207295000Y-129942500D01*
X207295000Y-131882500D01*
X206110362Y-131882500D01*
X206100560Y-131882982D01*
X206075000Y-131885500D01*
X206049440Y-131882982D01*
X206039638Y-131882500D01*
X205994623Y-131882500D01*
X205993269Y-131881776D01*
X205964804Y-131874646D01*
X205953461Y-131873529D01*
X205836587Y-131838076D01*
X205728882Y-131780506D01*
X205728880Y-131780505D01*
X205634473Y-131703027D01*
X205556995Y-131608619D01*
X205556994Y-131608618D01*
X205499424Y-131500912D01*
X205463971Y-131384038D01*
X205455000Y-131292953D01*
X205455000Y-130532046D01*
X205463971Y-130440961D01*
X205499425Y-130324087D01*
X205556995Y-130216381D01*
X205634474Y-130121973D01*
X205728882Y-130044494D01*
X205836588Y-129986924D01*
X205953462Y-129951471D01*
X205964805Y-129950354D01*
X205984031Y-129946529D01*
X205993758Y-129942500D01*
X206039638Y-129942500D01*
X206049440Y-129942018D01*
X206075000Y-129939500D01*
X206100560Y-129942018D01*
X206100560Y-129942018D01*
G37*
G36*
X213100560Y-129942018D02*
G01*
X213110362Y-129942500D01*
X213155377Y-129942500D01*
X213156731Y-129943224D01*
X213185195Y-129950354D01*
X213196538Y-129951471D01*
X213313412Y-129986924D01*
X213421118Y-130044494D01*
X213421120Y-130044495D01*
X213421119Y-130044495D01*
X213515527Y-130121973D01*
X213593005Y-130216380D01*
X213593006Y-130216382D01*
X213650576Y-130324087D01*
X213686029Y-130440961D01*
X213695000Y-130532046D01*
X213695000Y-131292954D01*
X213686029Y-131384039D01*
X213650576Y-131500913D01*
X213593006Y-131608619D01*
X213515527Y-131703027D01*
X213421119Y-131780506D01*
X213313413Y-131838076D01*
X213196539Y-131873529D01*
X213185196Y-131874646D01*
X213165969Y-131878470D01*
X213156241Y-131882500D01*
X213110362Y-131882500D01*
X213100560Y-131882982D01*
X213075000Y-131885500D01*
X213049440Y-131882982D01*
X213039638Y-131882500D01*
X211855000Y-131882500D01*
X211855000Y-129942500D01*
X213039638Y-129942500D01*
X213049440Y-129942018D01*
X213075000Y-129939500D01*
X213100560Y-129942018D01*
X213100560Y-129942018D01*
G37*
G36*
X209345000Y-131882500D02*
G01*
X207805000Y-131882500D01*
X207805000Y-129942500D01*
X209345000Y-129942500D01*
X209345000Y-131882500D01*
X209345000Y-131882500D01*
G37*
G36*
X211345000Y-131882500D02*
G01*
X209805000Y-131882500D01*
X209805000Y-129942500D01*
X211345000Y-129942500D01*
X211345000Y-131882500D01*
X211345000Y-131882500D01*
G37*
G36*
X185460800Y-131433800D02*
G01*
X184120800Y-131433800D01*
X184120800Y-129843800D01*
X185460800Y-129843800D01*
X185460800Y-131433800D01*
X185460800Y-131433800D01*
G37*
G36*
X192773200Y-131433800D02*
G01*
X191433200Y-131433800D01*
X191433200Y-129843800D01*
X192773200Y-129843800D01*
X192773200Y-131433800D01*
X192773200Y-131433800D01*
G37*
G36*
X195585600Y-131433800D02*
G01*
X194245600Y-131433800D01*
X194245600Y-129843800D01*
X195585600Y-129843800D01*
X195585600Y-131433800D01*
X195585600Y-131433800D01*
G37*
G36*
X188273200Y-131433800D02*
G01*
X186933200Y-131433800D01*
X186933200Y-129843800D01*
X188273200Y-129843800D01*
X188273200Y-131433800D01*
X188273200Y-131433800D01*
G37*
G36*
X200085600Y-131433800D02*
G01*
X198745600Y-131433800D01*
X198745600Y-129843800D01*
X200085600Y-129843800D01*
X200085600Y-131433800D01*
X200085600Y-131433800D01*
G37*
G36*
X180960800Y-131433800D02*
G01*
X179620800Y-131433800D01*
X179620800Y-129843800D01*
X180960800Y-129843800D01*
X180960800Y-131433800D01*
X180960800Y-131433800D01*
G37*
G36*
X207220342Y-127481815D02*
G01*
X207292310Y-127496130D01*
X207343901Y-127517500D01*
X207427890Y-127552289D01*
X207427891Y-127552290D01*
X207549909Y-127633819D01*
X207653681Y-127737591D01*
X207718949Y-127835272D01*
X207735211Y-127859610D01*
X207747029Y-127888142D01*
X207791370Y-127995190D01*
X207803145Y-128054387D01*
X207820000Y-128139124D01*
X207820000Y-128285876D01*
X207791370Y-128429809D01*
X207735211Y-128565390D01*
X207735210Y-128565391D01*
X207653681Y-128687409D01*
X207549909Y-128791181D01*
X207452228Y-128856449D01*
X207427890Y-128872711D01*
X207348469Y-128905608D01*
X207292310Y-128928870D01*
X207148376Y-128957500D01*
X207001624Y-128957500D01*
X206857690Y-128928870D01*
X206801531Y-128905608D01*
X206722110Y-128872711D01*
X206697772Y-128856449D01*
X206600091Y-128791181D01*
X206496319Y-128687409D01*
X206414790Y-128565391D01*
X206414789Y-128565390D01*
X206358630Y-128429809D01*
X206330000Y-128285876D01*
X206330000Y-128139124D01*
X206346855Y-128054387D01*
X206358630Y-127995190D01*
X206402971Y-127888142D01*
X206414789Y-127859610D01*
X206431051Y-127835272D01*
X206496319Y-127737591D01*
X206600091Y-127633819D01*
X206722109Y-127552290D01*
X206722110Y-127552289D01*
X206806099Y-127517500D01*
X206857690Y-127496130D01*
X206929658Y-127481815D01*
X207001624Y-127467500D01*
X207148376Y-127467500D01*
X207220342Y-127481815D01*
X207220342Y-127481815D01*
G37*
G36*
X212220342Y-127481815D02*
G01*
X212292310Y-127496130D01*
X212343901Y-127517500D01*
X212427890Y-127552289D01*
X212427891Y-127552290D01*
X212549909Y-127633819D01*
X212653681Y-127737591D01*
X212718949Y-127835272D01*
X212735211Y-127859610D01*
X212747029Y-127888142D01*
X212791370Y-127995190D01*
X212803145Y-128054387D01*
X212820000Y-128139124D01*
X212820000Y-128285876D01*
X212791370Y-128429809D01*
X212735211Y-128565390D01*
X212735210Y-128565391D01*
X212653681Y-128687409D01*
X212549909Y-128791181D01*
X212452228Y-128856449D01*
X212427890Y-128872711D01*
X212348469Y-128905608D01*
X212292310Y-128928870D01*
X212148376Y-128957500D01*
X212001624Y-128957500D01*
X211857690Y-128928870D01*
X211801531Y-128905608D01*
X211722110Y-128872711D01*
X211697772Y-128856449D01*
X211600091Y-128791181D01*
X211496319Y-128687409D01*
X211414790Y-128565391D01*
X211414789Y-128565390D01*
X211358630Y-128429809D01*
X211330000Y-128285876D01*
X211330000Y-128139124D01*
X211346855Y-128054387D01*
X211358630Y-127995190D01*
X211402971Y-127888142D01*
X211414789Y-127859610D01*
X211431051Y-127835272D01*
X211496319Y-127737591D01*
X211600091Y-127633819D01*
X211722109Y-127552290D01*
X211722110Y-127552289D01*
X211806099Y-127517500D01*
X211857690Y-127496130D01*
X211929658Y-127481815D01*
X212001624Y-127467500D01*
X212148376Y-127467500D01*
X212220342Y-127481815D01*
X212220342Y-127481815D01*
G37*
G36*
X211095000Y-128907500D02*
G01*
X210655000Y-128907500D01*
X210655000Y-127517500D01*
X211095000Y-127517500D01*
X211095000Y-128907500D01*
X211095000Y-128907500D01*
G37*
G36*
X209795000Y-128907500D02*
G01*
X209355000Y-128907500D01*
X209355000Y-127517500D01*
X209795000Y-127517500D01*
X209795000Y-128907500D01*
X209795000Y-128907500D01*
G37*
G36*
X208495000Y-128907500D02*
G01*
X208055000Y-128907500D01*
X208055000Y-127517500D01*
X208495000Y-127517500D01*
X208495000Y-128907500D01*
X208495000Y-128907500D01*
G37*
G36*
X210445000Y-128907500D02*
G01*
X210005000Y-128907500D01*
X210005000Y-127517500D01*
X210445000Y-127517500D01*
X210445000Y-128907500D01*
X210445000Y-128907500D01*
G37*
G36*
X209145000Y-128907500D02*
G01*
X208705000Y-128907500D01*
X208705000Y-127517500D01*
X209145000Y-127517500D01*
X209145000Y-128907500D01*
X209145000Y-128907500D01*
G37*
G36*
X204601024Y-127496408D02*
G01*
X204634472Y-127506555D01*
X204665288Y-127523026D01*
X204692303Y-127545197D01*
X204714474Y-127572212D01*
X204730945Y-127603028D01*
X204741092Y-127636476D01*
X204745000Y-127676158D01*
X204745000Y-128223842D01*
X204741092Y-128263524D01*
X204730945Y-128296972D01*
X204714474Y-128327788D01*
X204692303Y-128354803D01*
X204665288Y-128376974D01*
X204634472Y-128393445D01*
X204601024Y-128403592D01*
X204561342Y-128407500D01*
X203938658Y-128407500D01*
X203898976Y-128403592D01*
X203865528Y-128393445D01*
X203834712Y-128376974D01*
X203807697Y-128354803D01*
X203785526Y-128327788D01*
X203769055Y-128296972D01*
X203758908Y-128263524D01*
X203755000Y-128223842D01*
X203755000Y-127676158D01*
X203758908Y-127636476D01*
X203769055Y-127603028D01*
X203785526Y-127572212D01*
X203807697Y-127545197D01*
X203834712Y-127523026D01*
X203865528Y-127506555D01*
X203898976Y-127496408D01*
X203938658Y-127492500D01*
X204561342Y-127492500D01*
X204601024Y-127496408D01*
X204601024Y-127496408D01*
G37*
G36*
X254706424Y-127085708D02*
G01*
X254739872Y-127095855D01*
X254770688Y-127112326D01*
X254797703Y-127134497D01*
X254819874Y-127161512D01*
X254836345Y-127192328D01*
X254846492Y-127225776D01*
X254850400Y-127265458D01*
X254850400Y-127888142D01*
X254846492Y-127927824D01*
X254836345Y-127961272D01*
X254819874Y-127992088D01*
X254797703Y-128019103D01*
X254770688Y-128041274D01*
X254739872Y-128057745D01*
X254706424Y-128067892D01*
X254666742Y-128071800D01*
X254119058Y-128071800D01*
X254079376Y-128067892D01*
X254045928Y-128057745D01*
X254015112Y-128041274D01*
X253988097Y-128019103D01*
X253965926Y-127992088D01*
X253949455Y-127961272D01*
X253939308Y-127927824D01*
X253935400Y-127888142D01*
X253935400Y-127265458D01*
X253939308Y-127225776D01*
X253949455Y-127192328D01*
X253965926Y-127161512D01*
X253988097Y-127134497D01*
X254015112Y-127112326D01*
X254045928Y-127095855D01*
X254079376Y-127085708D01*
X254119058Y-127081800D01*
X254666742Y-127081800D01*
X254706424Y-127085708D01*
X254706424Y-127085708D01*
G37*
G36*
X253131424Y-127085708D02*
G01*
X253164872Y-127095855D01*
X253195688Y-127112326D01*
X253222703Y-127134497D01*
X253244874Y-127161512D01*
X253261345Y-127192328D01*
X253271492Y-127225776D01*
X253275400Y-127265458D01*
X253275400Y-127888142D01*
X253271492Y-127927824D01*
X253261345Y-127961272D01*
X253244874Y-127992088D01*
X253222703Y-128019103D01*
X253195688Y-128041274D01*
X253164872Y-128057745D01*
X253131424Y-128067892D01*
X253091742Y-128071800D01*
X252544058Y-128071800D01*
X252504376Y-128067892D01*
X252470928Y-128057745D01*
X252440112Y-128041274D01*
X252413097Y-128019103D01*
X252390926Y-127992088D01*
X252374455Y-127961272D01*
X252364308Y-127927824D01*
X252360400Y-127888142D01*
X252360400Y-127265458D01*
X252364308Y-127225776D01*
X252374455Y-127192328D01*
X252390926Y-127161512D01*
X252413097Y-127134497D01*
X252440112Y-127112326D01*
X252470928Y-127095855D01*
X252504376Y-127085708D01*
X252544058Y-127081800D01*
X253091742Y-127081800D01*
X253131424Y-127085708D01*
X253131424Y-127085708D01*
G37*
G36*
X204601024Y-125921408D02*
G01*
X204634472Y-125931555D01*
X204665288Y-125948026D01*
X204692303Y-125970197D01*
X204714474Y-125997212D01*
X204730945Y-126028028D01*
X204741092Y-126061476D01*
X204745000Y-126101158D01*
X204745000Y-126648842D01*
X204741092Y-126688524D01*
X204730945Y-126721972D01*
X204714474Y-126752788D01*
X204692303Y-126779803D01*
X204665288Y-126801974D01*
X204634472Y-126818445D01*
X204601024Y-126828592D01*
X204561342Y-126832500D01*
X203938658Y-126832500D01*
X203898976Y-126828592D01*
X203865528Y-126818445D01*
X203834712Y-126801974D01*
X203807697Y-126779803D01*
X203785526Y-126752788D01*
X203769055Y-126721972D01*
X203758908Y-126688524D01*
X203755000Y-126648842D01*
X203755000Y-126101158D01*
X203758908Y-126061476D01*
X203769055Y-126028028D01*
X203785526Y-125997212D01*
X203807697Y-125970197D01*
X203834712Y-125948026D01*
X203865528Y-125931555D01*
X203898976Y-125921408D01*
X203938658Y-125917500D01*
X204561342Y-125917500D01*
X204601024Y-125921408D01*
X204601024Y-125921408D01*
G37*
G36*
X242326024Y-125621408D02*
G01*
X242359472Y-125631555D01*
X242390288Y-125648026D01*
X242417303Y-125670197D01*
X242439474Y-125697212D01*
X242455945Y-125728028D01*
X242466092Y-125761476D01*
X242470000Y-125801158D01*
X242470000Y-126348842D01*
X242466092Y-126388524D01*
X242455945Y-126421972D01*
X242439474Y-126452788D01*
X242417303Y-126479803D01*
X242390288Y-126501974D01*
X242359472Y-126518445D01*
X242326024Y-126528592D01*
X242286342Y-126532500D01*
X241663658Y-126532500D01*
X241623976Y-126528592D01*
X241590528Y-126518445D01*
X241559712Y-126501974D01*
X241532697Y-126479803D01*
X241510526Y-126452788D01*
X241494055Y-126421972D01*
X241483908Y-126388524D01*
X241480000Y-126348842D01*
X241480000Y-125801158D01*
X241483908Y-125761476D01*
X241494055Y-125728028D01*
X241510526Y-125697212D01*
X241532697Y-125670197D01*
X241559712Y-125648026D01*
X241590528Y-125631555D01*
X241623976Y-125621408D01*
X241663658Y-125617500D01*
X242286342Y-125617500D01*
X242326024Y-125621408D01*
X242326024Y-125621408D01*
G37*
G36*
X240576024Y-125608908D02*
G01*
X240609472Y-125619055D01*
X240640288Y-125635526D01*
X240667303Y-125657697D01*
X240689474Y-125684712D01*
X240705945Y-125715528D01*
X240716092Y-125748976D01*
X240720000Y-125788658D01*
X240720000Y-126336342D01*
X240716092Y-126376024D01*
X240705945Y-126409472D01*
X240689474Y-126440288D01*
X240667303Y-126467303D01*
X240640288Y-126489474D01*
X240609472Y-126505945D01*
X240576024Y-126516092D01*
X240536342Y-126520000D01*
X239913658Y-126520000D01*
X239873976Y-126516092D01*
X239840528Y-126505945D01*
X239809712Y-126489474D01*
X239782697Y-126467303D01*
X239760526Y-126440288D01*
X239744055Y-126409472D01*
X239733908Y-126376024D01*
X239730000Y-126336342D01*
X239730000Y-125788658D01*
X239733908Y-125748976D01*
X239744055Y-125715528D01*
X239760526Y-125684712D01*
X239782697Y-125657697D01*
X239809712Y-125635526D01*
X239840528Y-125619055D01*
X239873976Y-125608908D01*
X239913658Y-125605000D01*
X240536342Y-125605000D01*
X240576024Y-125608908D01*
X240576024Y-125608908D01*
G37*
G36*
X238507000Y-126198000D02*
G01*
X236467000Y-126198000D01*
X236467000Y-125258000D01*
X238507000Y-125258000D01*
X238507000Y-126198000D01*
X238507000Y-126198000D01*
G37*
G36*
X221507000Y-126198000D02*
G01*
X219467000Y-126198000D01*
X219467000Y-125258000D01*
X221507000Y-125258000D01*
X221507000Y-126198000D01*
X221507000Y-126198000D01*
G37*
G36*
X208031364Y-125352587D02*
G01*
X208051911Y-125358820D01*
X208070842Y-125368939D01*
X208087440Y-125382560D01*
X208101061Y-125399158D01*
X208111180Y-125418089D01*
X208117413Y-125438636D01*
X208120000Y-125464907D01*
X208120000Y-125875093D01*
X208117413Y-125901364D01*
X208111180Y-125921911D01*
X208101061Y-125940842D01*
X208087440Y-125957440D01*
X208070842Y-125971061D01*
X208051911Y-125981180D01*
X208031364Y-125987413D01*
X208005093Y-125990000D01*
X206244907Y-125990000D01*
X206218636Y-125987413D01*
X206198089Y-125981180D01*
X206179158Y-125971061D01*
X206162560Y-125957440D01*
X206148939Y-125940842D01*
X206138820Y-125921911D01*
X206132587Y-125901364D01*
X206130000Y-125875093D01*
X206130000Y-125464907D01*
X206132587Y-125438636D01*
X206138820Y-125418089D01*
X206148939Y-125399158D01*
X206162560Y-125382560D01*
X206179158Y-125368939D01*
X206198089Y-125358820D01*
X206218636Y-125352587D01*
X206244907Y-125350000D01*
X208005093Y-125350000D01*
X208031364Y-125352587D01*
X208031364Y-125352587D01*
G37*
G36*
X212981364Y-125352587D02*
G01*
X213001911Y-125358820D01*
X213020842Y-125368939D01*
X213037440Y-125382560D01*
X213051061Y-125399158D01*
X213061180Y-125418089D01*
X213067413Y-125438636D01*
X213070000Y-125464907D01*
X213070000Y-125875093D01*
X213067413Y-125901364D01*
X213061180Y-125921911D01*
X213051061Y-125940842D01*
X213037440Y-125957440D01*
X213020842Y-125971061D01*
X213001911Y-125981180D01*
X212981364Y-125987413D01*
X212955093Y-125990000D01*
X211194907Y-125990000D01*
X211168636Y-125987413D01*
X211148089Y-125981180D01*
X211129158Y-125971061D01*
X211112560Y-125957440D01*
X211098939Y-125940842D01*
X211088820Y-125921911D01*
X211082587Y-125901364D01*
X211080000Y-125875093D01*
X211080000Y-125464907D01*
X211082587Y-125438636D01*
X211088820Y-125418089D01*
X211098939Y-125399158D01*
X211112560Y-125382560D01*
X211129158Y-125368939D01*
X211148089Y-125358820D01*
X211168636Y-125352587D01*
X211194907Y-125350000D01*
X212955093Y-125350000D01*
X212981364Y-125352587D01*
X212981364Y-125352587D01*
G37*
G36*
X260622548Y-124118787D02*
G01*
X260786546Y-124168536D01*
X260937683Y-124249320D01*
X261070159Y-124358041D01*
X261178880Y-124490517D01*
X261259664Y-124641654D01*
X261309413Y-124805652D01*
X261326210Y-124976200D01*
X261309413Y-125146748D01*
X261259664Y-125310746D01*
X261178880Y-125461883D01*
X261070159Y-125594359D01*
X260937683Y-125703080D01*
X260786546Y-125783864D01*
X260622548Y-125833613D01*
X260494743Y-125846200D01*
X260409257Y-125846200D01*
X260281452Y-125833613D01*
X260117454Y-125783864D01*
X259966317Y-125703080D01*
X259833841Y-125594359D01*
X259725120Y-125461883D01*
X259644336Y-125310746D01*
X259594587Y-125146748D01*
X259577790Y-124976200D01*
X259594587Y-124805652D01*
X259644336Y-124641654D01*
X259725120Y-124490517D01*
X259833841Y-124358041D01*
X259966317Y-124249320D01*
X260117454Y-124168536D01*
X260281452Y-124118787D01*
X260409257Y-124106200D01*
X260494743Y-124106200D01*
X260622548Y-124118787D01*
X260622548Y-124118787D01*
G37*
G36*
X253702000Y-125846200D02*
G01*
X251962000Y-125846200D01*
X251962000Y-124106200D01*
X253702000Y-124106200D01*
X253702000Y-125846200D01*
X253702000Y-125846200D01*
G37*
G36*
X258082548Y-124118787D02*
G01*
X258246546Y-124168536D01*
X258397683Y-124249320D01*
X258530159Y-124358041D01*
X258638880Y-124490517D01*
X258719664Y-124641654D01*
X258769413Y-124805652D01*
X258786210Y-124976200D01*
X258769413Y-125146748D01*
X258719664Y-125310746D01*
X258638880Y-125461883D01*
X258530159Y-125594359D01*
X258397683Y-125703080D01*
X258246546Y-125783864D01*
X258082548Y-125833613D01*
X257954743Y-125846200D01*
X257869257Y-125846200D01*
X257741452Y-125833613D01*
X257577454Y-125783864D01*
X257426317Y-125703080D01*
X257293841Y-125594359D01*
X257185120Y-125461883D01*
X257104336Y-125310746D01*
X257054587Y-125146748D01*
X257037790Y-124976200D01*
X257054587Y-124805652D01*
X257104336Y-124641654D01*
X257185120Y-124490517D01*
X257293841Y-124358041D01*
X257426317Y-124249320D01*
X257577454Y-124168536D01*
X257741452Y-124118787D01*
X257869257Y-124106200D01*
X257954743Y-124106200D01*
X258082548Y-124118787D01*
X258082548Y-124118787D01*
G37*
G36*
X255542548Y-124118787D02*
G01*
X255706546Y-124168536D01*
X255857683Y-124249320D01*
X255990159Y-124358041D01*
X256098880Y-124490517D01*
X256179664Y-124641654D01*
X256229413Y-124805652D01*
X256246210Y-124976200D01*
X256229413Y-125146748D01*
X256179664Y-125310746D01*
X256098880Y-125461883D01*
X255990159Y-125594359D01*
X255857683Y-125703080D01*
X255706546Y-125783864D01*
X255542548Y-125833613D01*
X255414743Y-125846200D01*
X255329257Y-125846200D01*
X255201452Y-125833613D01*
X255037454Y-125783864D01*
X254886317Y-125703080D01*
X254753841Y-125594359D01*
X254645120Y-125461883D01*
X254564336Y-125310746D01*
X254514587Y-125146748D01*
X254497790Y-124976200D01*
X254514587Y-124805652D01*
X254564336Y-124641654D01*
X254645120Y-124490517D01*
X254753841Y-124358041D01*
X254886317Y-124249320D01*
X255037454Y-124168536D01*
X255201452Y-124118787D01*
X255329257Y-124106200D01*
X255414743Y-124106200D01*
X255542548Y-124118787D01*
X255542548Y-124118787D01*
G37*
G36*
X242326024Y-124046408D02*
G01*
X242359472Y-124056555D01*
X242390288Y-124073026D01*
X242417303Y-124095197D01*
X242439474Y-124122212D01*
X242455945Y-124153028D01*
X242466092Y-124186476D01*
X242470000Y-124226158D01*
X242470000Y-124773842D01*
X242466092Y-124813524D01*
X242455945Y-124846972D01*
X242439474Y-124877788D01*
X242417303Y-124904803D01*
X242390288Y-124926974D01*
X242359472Y-124943445D01*
X242326024Y-124953592D01*
X242286342Y-124957500D01*
X241663658Y-124957500D01*
X241623976Y-124953592D01*
X241590528Y-124943445D01*
X241559712Y-124926974D01*
X241532697Y-124904803D01*
X241510526Y-124877788D01*
X241494055Y-124846972D01*
X241483908Y-124813524D01*
X241480000Y-124773842D01*
X241480000Y-124226158D01*
X241483908Y-124186476D01*
X241494055Y-124153028D01*
X241510526Y-124122212D01*
X241532697Y-124095197D01*
X241559712Y-124073026D01*
X241590528Y-124056555D01*
X241623976Y-124046408D01*
X241663658Y-124042500D01*
X242286342Y-124042500D01*
X242326024Y-124046408D01*
X242326024Y-124046408D01*
G37*
G36*
X240576024Y-124033908D02*
G01*
X240609472Y-124044055D01*
X240640288Y-124060526D01*
X240667303Y-124082697D01*
X240689474Y-124109712D01*
X240705945Y-124140528D01*
X240716092Y-124173976D01*
X240720000Y-124213658D01*
X240720000Y-124761342D01*
X240716092Y-124801024D01*
X240705945Y-124834472D01*
X240689474Y-124865288D01*
X240667303Y-124892303D01*
X240640288Y-124914474D01*
X240609472Y-124930945D01*
X240576024Y-124941092D01*
X240536342Y-124945000D01*
X239913658Y-124945000D01*
X239873976Y-124941092D01*
X239840528Y-124930945D01*
X239809712Y-124914474D01*
X239782697Y-124892303D01*
X239760526Y-124865288D01*
X239744055Y-124834472D01*
X239733908Y-124801024D01*
X239730000Y-124761342D01*
X239730000Y-124213658D01*
X239733908Y-124173976D01*
X239744055Y-124140528D01*
X239760526Y-124109712D01*
X239782697Y-124082697D01*
X239809712Y-124060526D01*
X239840528Y-124044055D01*
X239873976Y-124033908D01*
X239913658Y-124030000D01*
X240536342Y-124030000D01*
X240576024Y-124033908D01*
X240576024Y-124033908D01*
G37*
G36*
X238507000Y-124928000D02*
G01*
X236467000Y-124928000D01*
X236467000Y-123988000D01*
X238507000Y-123988000D01*
X238507000Y-124928000D01*
X238507000Y-124928000D01*
G37*
G36*
X221507000Y-124928000D02*
G01*
X219467000Y-124928000D01*
X219467000Y-123988000D01*
X221507000Y-123988000D01*
X221507000Y-124928000D01*
X221507000Y-124928000D01*
G37*
G36*
X212981364Y-124082587D02*
G01*
X213001911Y-124088820D01*
X213020842Y-124098939D01*
X213037440Y-124112560D01*
X213051061Y-124129158D01*
X213061180Y-124148089D01*
X213067413Y-124168636D01*
X213070000Y-124194907D01*
X213070000Y-124605093D01*
X213067413Y-124631364D01*
X213061180Y-124651911D01*
X213051061Y-124670842D01*
X213037440Y-124687440D01*
X213020842Y-124701061D01*
X213001911Y-124711180D01*
X212981364Y-124717413D01*
X212955093Y-124720000D01*
X211194907Y-124720000D01*
X211168636Y-124717413D01*
X211148089Y-124711180D01*
X211129158Y-124701061D01*
X211112560Y-124687440D01*
X211098939Y-124670842D01*
X211088820Y-124651911D01*
X211082587Y-124631364D01*
X211080000Y-124605093D01*
X211080000Y-124194907D01*
X211082587Y-124168636D01*
X211088820Y-124148089D01*
X211098939Y-124129158D01*
X211112560Y-124112560D01*
X211129158Y-124098939D01*
X211148089Y-124088820D01*
X211168636Y-124082587D01*
X211194907Y-124080000D01*
X212955093Y-124080000D01*
X212981364Y-124082587D01*
X212981364Y-124082587D01*
G37*
G36*
X208031364Y-124082587D02*
G01*
X208051911Y-124088820D01*
X208070842Y-124098939D01*
X208087440Y-124112560D01*
X208101061Y-124129158D01*
X208111180Y-124148089D01*
X208117413Y-124168636D01*
X208120000Y-124194907D01*
X208120000Y-124605093D01*
X208117413Y-124631364D01*
X208111180Y-124651911D01*
X208101061Y-124670842D01*
X208087440Y-124687440D01*
X208070842Y-124701061D01*
X208051911Y-124711180D01*
X208031364Y-124717413D01*
X208005093Y-124720000D01*
X206244907Y-124720000D01*
X206218636Y-124717413D01*
X206198089Y-124711180D01*
X206179158Y-124701061D01*
X206162560Y-124687440D01*
X206148939Y-124670842D01*
X206138820Y-124651911D01*
X206132587Y-124631364D01*
X206130000Y-124605093D01*
X206130000Y-124194907D01*
X206132587Y-124168636D01*
X206138820Y-124148089D01*
X206148939Y-124129158D01*
X206162560Y-124112560D01*
X206179158Y-124098939D01*
X206198089Y-124088820D01*
X206218636Y-124082587D01*
X206244907Y-124080000D01*
X208005093Y-124080000D01*
X208031364Y-124082587D01*
X208031364Y-124082587D01*
G37*
G36*
X238507000Y-123658000D02*
G01*
X236467000Y-123658000D01*
X236467000Y-122718000D01*
X238507000Y-122718000D01*
X238507000Y-123658000D01*
X238507000Y-123658000D01*
G37*
G36*
X221507000Y-123658000D02*
G01*
X219467000Y-123658000D01*
X219467000Y-122718000D01*
X221507000Y-122718000D01*
X221507000Y-123658000D01*
X221507000Y-123658000D01*
G37*
G36*
X188273200Y-123473800D02*
G01*
X186933200Y-123473800D01*
X186933200Y-121883800D01*
X188273200Y-121883800D01*
X188273200Y-123473800D01*
X188273200Y-123473800D01*
G37*
G36*
X192773200Y-123473800D02*
G01*
X191433200Y-123473800D01*
X191433200Y-121883800D01*
X192773200Y-121883800D01*
X192773200Y-123473800D01*
X192773200Y-123473800D01*
G37*
G36*
X180960800Y-123473800D02*
G01*
X179620800Y-123473800D01*
X179620800Y-121883800D01*
X180960800Y-121883800D01*
X180960800Y-123473800D01*
X180960800Y-123473800D01*
G37*
G36*
X185460800Y-123473800D02*
G01*
X184120800Y-123473800D01*
X184120800Y-121883800D01*
X185460800Y-121883800D01*
X185460800Y-123473800D01*
X185460800Y-123473800D01*
G37*
G36*
X195585600Y-123473800D02*
G01*
X194245600Y-123473800D01*
X194245600Y-121883800D01*
X195585600Y-121883800D01*
X195585600Y-123473800D01*
X195585600Y-123473800D01*
G37*
G36*
X200085600Y-123473800D02*
G01*
X198745600Y-123473800D01*
X198745600Y-121883800D01*
X200085600Y-121883800D01*
X200085600Y-123473800D01*
X200085600Y-123473800D01*
G37*
G36*
X212981364Y-122812587D02*
G01*
X213001911Y-122818820D01*
X213020842Y-122828939D01*
X213037440Y-122842560D01*
X213051061Y-122859158D01*
X213061180Y-122878089D01*
X213067413Y-122898636D01*
X213070000Y-122924907D01*
X213070000Y-123335093D01*
X213067413Y-123361364D01*
X213061180Y-123381911D01*
X213051061Y-123400842D01*
X213037440Y-123417440D01*
X213020842Y-123431061D01*
X213001911Y-123441180D01*
X212981364Y-123447413D01*
X212955093Y-123450000D01*
X211194907Y-123450000D01*
X211168636Y-123447413D01*
X211148089Y-123441180D01*
X211129158Y-123431061D01*
X211112560Y-123417440D01*
X211098939Y-123400842D01*
X211088820Y-123381911D01*
X211082587Y-123361364D01*
X211080000Y-123335093D01*
X211080000Y-122924907D01*
X211082587Y-122898636D01*
X211088820Y-122878089D01*
X211098939Y-122859158D01*
X211112560Y-122842560D01*
X211129158Y-122828939D01*
X211148089Y-122818820D01*
X211168636Y-122812587D01*
X211194907Y-122810000D01*
X212955093Y-122810000D01*
X212981364Y-122812587D01*
X212981364Y-122812587D01*
G37*
G36*
X208031364Y-122812587D02*
G01*
X208051911Y-122818820D01*
X208070842Y-122828939D01*
X208087440Y-122842560D01*
X208101061Y-122859158D01*
X208111180Y-122878089D01*
X208117413Y-122898636D01*
X208120000Y-122924907D01*
X208120000Y-123335093D01*
X208117413Y-123361364D01*
X208111180Y-123381911D01*
X208101061Y-123400842D01*
X208087440Y-123417440D01*
X208070842Y-123431061D01*
X208051911Y-123441180D01*
X208031364Y-123447413D01*
X208005093Y-123450000D01*
X206244907Y-123450000D01*
X206218636Y-123447413D01*
X206198089Y-123441180D01*
X206179158Y-123431061D01*
X206162560Y-123417440D01*
X206148939Y-123400842D01*
X206138820Y-123381911D01*
X206132587Y-123361364D01*
X206130000Y-123335093D01*
X206130000Y-122924907D01*
X206132587Y-122898636D01*
X206138820Y-122878089D01*
X206148939Y-122859158D01*
X206162560Y-122842560D01*
X206179158Y-122828939D01*
X206198089Y-122818820D01*
X206218636Y-122812587D01*
X206244907Y-122810000D01*
X208005093Y-122810000D01*
X208031364Y-122812587D01*
X208031364Y-122812587D01*
G37*
G36*
X240576024Y-122358908D02*
G01*
X240609472Y-122369055D01*
X240640288Y-122385526D01*
X240667303Y-122407697D01*
X240689474Y-122434712D01*
X240705945Y-122465528D01*
X240716092Y-122498976D01*
X240720000Y-122538658D01*
X240720000Y-123086342D01*
X240716092Y-123126024D01*
X240705945Y-123159472D01*
X240689474Y-123190288D01*
X240667303Y-123217303D01*
X240640288Y-123239474D01*
X240609472Y-123255945D01*
X240576024Y-123266092D01*
X240536342Y-123270000D01*
X239913658Y-123270000D01*
X239873976Y-123266092D01*
X239840528Y-123255945D01*
X239809712Y-123239474D01*
X239782697Y-123217303D01*
X239760526Y-123190288D01*
X239744055Y-123159472D01*
X239733908Y-123126024D01*
X239730000Y-123086342D01*
X239730000Y-122538658D01*
X239733908Y-122498976D01*
X239744055Y-122465528D01*
X239760526Y-122434712D01*
X239782697Y-122407697D01*
X239809712Y-122385526D01*
X239840528Y-122369055D01*
X239873976Y-122358908D01*
X239913658Y-122355000D01*
X240536342Y-122355000D01*
X240576024Y-122358908D01*
X240576024Y-122358908D01*
G37*
G36*
X218525624Y-121588508D02*
G01*
X218559072Y-121598655D01*
X218589888Y-121615126D01*
X218616903Y-121637297D01*
X218639074Y-121664312D01*
X218655545Y-121695128D01*
X218665692Y-121728576D01*
X218669600Y-121768258D01*
X218669600Y-122390942D01*
X218665692Y-122430624D01*
X218655545Y-122464072D01*
X218639074Y-122494888D01*
X218616903Y-122521903D01*
X218589888Y-122544074D01*
X218559072Y-122560545D01*
X218525624Y-122570692D01*
X218485942Y-122574600D01*
X217938258Y-122574600D01*
X217898576Y-122570692D01*
X217865128Y-122560545D01*
X217834312Y-122544074D01*
X217807297Y-122521903D01*
X217785126Y-122494888D01*
X217768655Y-122464072D01*
X217758508Y-122430624D01*
X217754600Y-122390942D01*
X217754600Y-121768258D01*
X217758508Y-121728576D01*
X217768655Y-121695128D01*
X217785126Y-121664312D01*
X217807297Y-121637297D01*
X217834312Y-121615126D01*
X217865128Y-121598655D01*
X217898576Y-121588508D01*
X217938258Y-121584600D01*
X218485942Y-121584600D01*
X218525624Y-121588508D01*
X218525624Y-121588508D01*
G37*
G36*
X216950624Y-121588508D02*
G01*
X216984072Y-121598655D01*
X217014888Y-121615126D01*
X217041903Y-121637297D01*
X217064074Y-121664312D01*
X217080545Y-121695128D01*
X217090692Y-121728576D01*
X217094600Y-121768258D01*
X217094600Y-122390942D01*
X217090692Y-122430624D01*
X217080545Y-122464072D01*
X217064074Y-122494888D01*
X217041903Y-122521903D01*
X217014888Y-122544074D01*
X216984072Y-122560545D01*
X216950624Y-122570692D01*
X216910942Y-122574600D01*
X216363258Y-122574600D01*
X216323576Y-122570692D01*
X216290128Y-122560545D01*
X216259312Y-122544074D01*
X216232297Y-122521903D01*
X216210126Y-122494888D01*
X216193655Y-122464072D01*
X216183508Y-122430624D01*
X216179600Y-122390942D01*
X216179600Y-121768258D01*
X216183508Y-121728576D01*
X216193655Y-121695128D01*
X216210126Y-121664312D01*
X216232297Y-121637297D01*
X216259312Y-121615126D01*
X216290128Y-121598655D01*
X216323576Y-121588508D01*
X216363258Y-121584600D01*
X216910942Y-121584600D01*
X216950624Y-121588508D01*
X216950624Y-121588508D01*
G37*
G36*
X238507000Y-122388000D02*
G01*
X236467000Y-122388000D01*
X236467000Y-121448000D01*
X238507000Y-121448000D01*
X238507000Y-122388000D01*
X238507000Y-122388000D01*
G37*
G36*
X221507000Y-122388000D02*
G01*
X219467000Y-122388000D01*
X219467000Y-121448000D01*
X221507000Y-121448000D01*
X221507000Y-122388000D01*
X221507000Y-122388000D01*
G37*
G36*
X212981364Y-121542587D02*
G01*
X213001911Y-121548820D01*
X213020842Y-121558939D01*
X213037440Y-121572560D01*
X213051061Y-121589158D01*
X213061180Y-121608089D01*
X213067413Y-121628636D01*
X213070000Y-121654907D01*
X213070000Y-122065093D01*
X213067413Y-122091364D01*
X213061180Y-122111911D01*
X213051061Y-122130842D01*
X213037440Y-122147440D01*
X213020842Y-122161061D01*
X213001911Y-122171180D01*
X212981364Y-122177413D01*
X212955093Y-122180000D01*
X211194907Y-122180000D01*
X211168636Y-122177413D01*
X211148089Y-122171180D01*
X211129158Y-122161061D01*
X211112560Y-122147440D01*
X211098939Y-122130842D01*
X211088820Y-122111911D01*
X211082587Y-122091364D01*
X211080000Y-122065093D01*
X211080000Y-121654907D01*
X211082587Y-121628636D01*
X211088820Y-121608089D01*
X211098939Y-121589158D01*
X211112560Y-121572560D01*
X211129158Y-121558939D01*
X211148089Y-121548820D01*
X211168636Y-121542587D01*
X211194907Y-121540000D01*
X212955093Y-121540000D01*
X212981364Y-121542587D01*
X212981364Y-121542587D01*
G37*
G36*
X208031364Y-121542587D02*
G01*
X208051911Y-121548820D01*
X208070842Y-121558939D01*
X208087440Y-121572560D01*
X208101061Y-121589158D01*
X208111180Y-121608089D01*
X208117413Y-121628636D01*
X208120000Y-121654907D01*
X208120000Y-122065093D01*
X208117413Y-122091364D01*
X208111180Y-122111911D01*
X208101061Y-122130842D01*
X208087440Y-122147440D01*
X208070842Y-122161061D01*
X208051911Y-122171180D01*
X208031364Y-122177413D01*
X208005093Y-122180000D01*
X206244907Y-122180000D01*
X206218636Y-122177413D01*
X206198089Y-122171180D01*
X206179158Y-122161061D01*
X206162560Y-122147440D01*
X206148939Y-122130842D01*
X206138820Y-122111911D01*
X206132587Y-122091364D01*
X206130000Y-122065093D01*
X206130000Y-121654907D01*
X206132587Y-121628636D01*
X206138820Y-121608089D01*
X206148939Y-121589158D01*
X206162560Y-121572560D01*
X206179158Y-121558939D01*
X206198089Y-121548820D01*
X206218636Y-121542587D01*
X206244907Y-121540000D01*
X208005093Y-121540000D01*
X208031364Y-121542587D01*
X208031364Y-121542587D01*
G37*
G36*
X240576024Y-120783908D02*
G01*
X240609472Y-120794055D01*
X240640288Y-120810526D01*
X240667303Y-120832697D01*
X240689474Y-120859712D01*
X240705945Y-120890528D01*
X240716092Y-120923976D01*
X240720000Y-120963658D01*
X240720000Y-121511342D01*
X240716092Y-121551024D01*
X240705945Y-121584472D01*
X240689474Y-121615288D01*
X240667303Y-121642303D01*
X240640288Y-121664474D01*
X240609472Y-121680945D01*
X240576024Y-121691092D01*
X240536342Y-121695000D01*
X239913658Y-121695000D01*
X239873976Y-121691092D01*
X239840528Y-121680945D01*
X239809712Y-121664474D01*
X239782697Y-121642303D01*
X239760526Y-121615288D01*
X239744055Y-121584472D01*
X239733908Y-121551024D01*
X239730000Y-121511342D01*
X239730000Y-120963658D01*
X239733908Y-120923976D01*
X239744055Y-120890528D01*
X239760526Y-120859712D01*
X239782697Y-120832697D01*
X239809712Y-120810526D01*
X239840528Y-120794055D01*
X239873976Y-120783908D01*
X239913658Y-120780000D01*
X240536342Y-120780000D01*
X240576024Y-120783908D01*
X240576024Y-120783908D01*
G37*
G36*
X238507000Y-121118000D02*
G01*
X236467000Y-121118000D01*
X236467000Y-120178000D01*
X238507000Y-120178000D01*
X238507000Y-121118000D01*
X238507000Y-121118000D01*
G37*
G36*
X221507000Y-121118000D02*
G01*
X219467000Y-121118000D01*
X219467000Y-120178000D01*
X221507000Y-120178000D01*
X221507000Y-121118000D01*
X221507000Y-121118000D01*
G37*
G36*
X182066824Y-120098308D02*
G01*
X182100272Y-120108455D01*
X182131088Y-120124926D01*
X182158103Y-120147097D01*
X182180274Y-120174112D01*
X182196745Y-120204928D01*
X182206892Y-120238376D01*
X182210800Y-120278058D01*
X182210800Y-120900742D01*
X182206892Y-120940424D01*
X182196745Y-120973872D01*
X182180274Y-121004688D01*
X182158103Y-121031703D01*
X182131088Y-121053874D01*
X182100272Y-121070345D01*
X182066824Y-121080492D01*
X182027142Y-121084400D01*
X181479458Y-121084400D01*
X181439776Y-121080492D01*
X181406328Y-121070345D01*
X181375512Y-121053874D01*
X181348497Y-121031703D01*
X181326326Y-121004688D01*
X181309855Y-120973872D01*
X181299708Y-120940424D01*
X181295800Y-120900742D01*
X181295800Y-120278058D01*
X181299708Y-120238376D01*
X181309855Y-120204928D01*
X181326326Y-120174112D01*
X181348497Y-120147097D01*
X181375512Y-120124926D01*
X181406328Y-120108455D01*
X181439776Y-120098308D01*
X181479458Y-120094400D01*
X182027142Y-120094400D01*
X182066824Y-120098308D01*
X182066824Y-120098308D01*
G37*
G36*
X183641824Y-120098308D02*
G01*
X183675272Y-120108455D01*
X183706088Y-120124926D01*
X183733103Y-120147097D01*
X183755274Y-120174112D01*
X183771745Y-120204928D01*
X183781892Y-120238376D01*
X183785800Y-120278058D01*
X183785800Y-120900742D01*
X183781892Y-120940424D01*
X183771745Y-120973872D01*
X183755274Y-121004688D01*
X183733103Y-121031703D01*
X183706088Y-121053874D01*
X183675272Y-121070345D01*
X183641824Y-121080492D01*
X183602142Y-121084400D01*
X183054458Y-121084400D01*
X183014776Y-121080492D01*
X182981328Y-121070345D01*
X182950512Y-121053874D01*
X182923497Y-121031703D01*
X182901326Y-121004688D01*
X182884855Y-120973872D01*
X182874708Y-120940424D01*
X182870800Y-120900742D01*
X182870800Y-120278058D01*
X182874708Y-120238376D01*
X182884855Y-120204928D01*
X182901326Y-120174112D01*
X182923497Y-120147097D01*
X182950512Y-120124926D01*
X182981328Y-120108455D01*
X183014776Y-120098308D01*
X183054458Y-120094400D01*
X183602142Y-120094400D01*
X183641824Y-120098308D01*
X183641824Y-120098308D01*
G37*
G36*
X189379224Y-120098308D02*
G01*
X189412672Y-120108455D01*
X189443488Y-120124926D01*
X189470503Y-120147097D01*
X189492674Y-120174112D01*
X189509145Y-120204928D01*
X189519292Y-120238376D01*
X189523200Y-120278058D01*
X189523200Y-120900742D01*
X189519292Y-120940424D01*
X189509145Y-120973872D01*
X189492674Y-121004688D01*
X189470503Y-121031703D01*
X189443488Y-121053874D01*
X189412672Y-121070345D01*
X189379224Y-121080492D01*
X189339542Y-121084400D01*
X188791858Y-121084400D01*
X188752176Y-121080492D01*
X188718728Y-121070345D01*
X188687912Y-121053874D01*
X188660897Y-121031703D01*
X188638726Y-121004688D01*
X188622255Y-120973872D01*
X188612108Y-120940424D01*
X188608200Y-120900742D01*
X188608200Y-120278058D01*
X188612108Y-120238376D01*
X188622255Y-120204928D01*
X188638726Y-120174112D01*
X188660897Y-120147097D01*
X188687912Y-120124926D01*
X188718728Y-120108455D01*
X188752176Y-120098308D01*
X188791858Y-120094400D01*
X189339542Y-120094400D01*
X189379224Y-120098308D01*
X189379224Y-120098308D01*
G37*
G36*
X196691624Y-120098308D02*
G01*
X196725072Y-120108455D01*
X196755888Y-120124926D01*
X196782903Y-120147097D01*
X196805074Y-120174112D01*
X196821545Y-120204928D01*
X196831692Y-120238376D01*
X196835600Y-120278058D01*
X196835600Y-120900742D01*
X196831692Y-120940424D01*
X196821545Y-120973872D01*
X196805074Y-121004688D01*
X196782903Y-121031703D01*
X196755888Y-121053874D01*
X196725072Y-121070345D01*
X196691624Y-121080492D01*
X196651942Y-121084400D01*
X196104258Y-121084400D01*
X196064576Y-121080492D01*
X196031128Y-121070345D01*
X196000312Y-121053874D01*
X195973297Y-121031703D01*
X195951126Y-121004688D01*
X195934655Y-120973872D01*
X195924508Y-120940424D01*
X195920600Y-120900742D01*
X195920600Y-120278058D01*
X195924508Y-120238376D01*
X195934655Y-120204928D01*
X195951126Y-120174112D01*
X195973297Y-120147097D01*
X196000312Y-120124926D01*
X196031128Y-120108455D01*
X196064576Y-120098308D01*
X196104258Y-120094400D01*
X196651942Y-120094400D01*
X196691624Y-120098308D01*
X196691624Y-120098308D01*
G37*
G36*
X190954224Y-120098308D02*
G01*
X190987672Y-120108455D01*
X191018488Y-120124926D01*
X191045503Y-120147097D01*
X191067674Y-120174112D01*
X191084145Y-120204928D01*
X191094292Y-120238376D01*
X191098200Y-120278058D01*
X191098200Y-120900742D01*
X191094292Y-120940424D01*
X191084145Y-120973872D01*
X191067674Y-121004688D01*
X191045503Y-121031703D01*
X191018488Y-121053874D01*
X190987672Y-121070345D01*
X190954224Y-121080492D01*
X190914542Y-121084400D01*
X190366858Y-121084400D01*
X190327176Y-121080492D01*
X190293728Y-121070345D01*
X190262912Y-121053874D01*
X190235897Y-121031703D01*
X190213726Y-121004688D01*
X190197255Y-120973872D01*
X190187108Y-120940424D01*
X190183200Y-120900742D01*
X190183200Y-120278058D01*
X190187108Y-120238376D01*
X190197255Y-120204928D01*
X190213726Y-120174112D01*
X190235897Y-120147097D01*
X190262912Y-120124926D01*
X190293728Y-120108455D01*
X190327176Y-120098308D01*
X190366858Y-120094400D01*
X190914542Y-120094400D01*
X190954224Y-120098308D01*
X190954224Y-120098308D01*
G37*
G36*
X198266624Y-120098308D02*
G01*
X198300072Y-120108455D01*
X198330888Y-120124926D01*
X198357903Y-120147097D01*
X198380074Y-120174112D01*
X198396545Y-120204928D01*
X198406692Y-120238376D01*
X198410600Y-120278058D01*
X198410600Y-120900742D01*
X198406692Y-120940424D01*
X198396545Y-120973872D01*
X198380074Y-121004688D01*
X198357903Y-121031703D01*
X198330888Y-121053874D01*
X198300072Y-121070345D01*
X198266624Y-121080492D01*
X198226942Y-121084400D01*
X197679258Y-121084400D01*
X197639576Y-121080492D01*
X197606128Y-121070345D01*
X197575312Y-121053874D01*
X197548297Y-121031703D01*
X197526126Y-121004688D01*
X197509655Y-120973872D01*
X197499508Y-120940424D01*
X197495600Y-120900742D01*
X197495600Y-120278058D01*
X197499508Y-120238376D01*
X197509655Y-120204928D01*
X197526126Y-120174112D01*
X197548297Y-120147097D01*
X197575312Y-120124926D01*
X197606128Y-120108455D01*
X197639576Y-120098308D01*
X197679258Y-120094400D01*
X198226942Y-120094400D01*
X198266624Y-120098308D01*
X198266624Y-120098308D01*
G37*
G36*
X204926024Y-120146408D02*
G01*
X204959472Y-120156555D01*
X204990288Y-120173026D01*
X205017303Y-120195197D01*
X205039474Y-120222212D01*
X205055945Y-120253028D01*
X205066092Y-120286476D01*
X205070000Y-120326158D01*
X205070000Y-120873842D01*
X205066092Y-120913524D01*
X205055945Y-120946972D01*
X205039474Y-120977788D01*
X205017303Y-121004803D01*
X204990288Y-121026974D01*
X204959472Y-121043445D01*
X204926024Y-121053592D01*
X204886342Y-121057500D01*
X204263658Y-121057500D01*
X204223976Y-121053592D01*
X204190528Y-121043445D01*
X204159712Y-121026974D01*
X204132697Y-121004803D01*
X204110526Y-120977788D01*
X204094055Y-120946972D01*
X204083908Y-120913524D01*
X204080000Y-120873842D01*
X204080000Y-120326158D01*
X204083908Y-120286476D01*
X204094055Y-120253028D01*
X204110526Y-120222212D01*
X204132697Y-120195197D01*
X204159712Y-120173026D01*
X204190528Y-120156555D01*
X204223976Y-120146408D01*
X204263658Y-120142500D01*
X204886342Y-120142500D01*
X204926024Y-120146408D01*
X204926024Y-120146408D01*
G37*
G36*
X218551124Y-119937508D02*
G01*
X218584572Y-119947655D01*
X218615388Y-119964126D01*
X218642403Y-119986297D01*
X218664574Y-120013312D01*
X218681045Y-120044128D01*
X218691192Y-120077576D01*
X218695100Y-120117258D01*
X218695100Y-120739942D01*
X218691192Y-120779624D01*
X218681045Y-120813072D01*
X218664574Y-120843888D01*
X218642403Y-120870903D01*
X218615388Y-120893074D01*
X218584572Y-120909545D01*
X218551124Y-120919692D01*
X218511442Y-120923600D01*
X217963758Y-120923600D01*
X217924076Y-120919692D01*
X217890628Y-120909545D01*
X217859812Y-120893074D01*
X217832797Y-120870903D01*
X217810626Y-120843888D01*
X217794155Y-120813072D01*
X217784008Y-120779624D01*
X217780100Y-120739942D01*
X217780100Y-120117258D01*
X217784008Y-120077576D01*
X217794155Y-120044128D01*
X217810626Y-120013312D01*
X217832797Y-119986297D01*
X217859812Y-119964126D01*
X217890628Y-119947655D01*
X217924076Y-119937508D01*
X217963758Y-119933600D01*
X218511442Y-119933600D01*
X218551124Y-119937508D01*
X218551124Y-119937508D01*
G37*
G36*
X216976124Y-119937508D02*
G01*
X217009572Y-119947655D01*
X217040388Y-119964126D01*
X217067403Y-119986297D01*
X217089574Y-120013312D01*
X217106045Y-120044128D01*
X217116192Y-120077576D01*
X217120100Y-120117258D01*
X217120100Y-120739942D01*
X217116192Y-120779624D01*
X217106045Y-120813072D01*
X217089574Y-120843888D01*
X217067403Y-120870903D01*
X217040388Y-120893074D01*
X217009572Y-120909545D01*
X216976124Y-120919692D01*
X216936442Y-120923600D01*
X216388758Y-120923600D01*
X216349076Y-120919692D01*
X216315628Y-120909545D01*
X216284812Y-120893074D01*
X216257797Y-120870903D01*
X216235626Y-120843888D01*
X216219155Y-120813072D01*
X216209008Y-120779624D01*
X216205100Y-120739942D01*
X216205100Y-120117258D01*
X216209008Y-120077576D01*
X216219155Y-120044128D01*
X216235626Y-120013312D01*
X216257797Y-119986297D01*
X216284812Y-119964126D01*
X216315628Y-119947655D01*
X216349076Y-119937508D01*
X216388758Y-119933600D01*
X216936442Y-119933600D01*
X216976124Y-119937508D01*
X216976124Y-119937508D01*
G37*
G36*
X208031364Y-120272587D02*
G01*
X208051911Y-120278820D01*
X208070842Y-120288939D01*
X208087440Y-120302560D01*
X208101061Y-120319158D01*
X208111180Y-120338089D01*
X208117413Y-120358636D01*
X208120000Y-120384907D01*
X208120000Y-120795093D01*
X208117413Y-120821364D01*
X208111180Y-120841911D01*
X208101061Y-120860842D01*
X208087440Y-120877440D01*
X208070842Y-120891061D01*
X208051911Y-120901180D01*
X208031364Y-120907413D01*
X208005093Y-120910000D01*
X206244907Y-120910000D01*
X206218636Y-120907413D01*
X206198089Y-120901180D01*
X206179158Y-120891061D01*
X206162560Y-120877440D01*
X206148939Y-120860842D01*
X206138820Y-120841911D01*
X206132587Y-120821364D01*
X206130000Y-120795093D01*
X206130000Y-120384907D01*
X206132587Y-120358636D01*
X206138820Y-120338089D01*
X206148939Y-120319158D01*
X206162560Y-120302560D01*
X206179158Y-120288939D01*
X206198089Y-120278820D01*
X206218636Y-120272587D01*
X206244907Y-120270000D01*
X208005093Y-120270000D01*
X208031364Y-120272587D01*
X208031364Y-120272587D01*
G37*
G36*
X212981364Y-120272587D02*
G01*
X213001911Y-120278820D01*
X213020842Y-120288939D01*
X213037440Y-120302560D01*
X213051061Y-120319158D01*
X213061180Y-120338089D01*
X213067413Y-120358636D01*
X213070000Y-120384907D01*
X213070000Y-120795093D01*
X213067413Y-120821364D01*
X213061180Y-120841911D01*
X213051061Y-120860842D01*
X213037440Y-120877440D01*
X213020842Y-120891061D01*
X213001911Y-120901180D01*
X212981364Y-120907413D01*
X212955093Y-120910000D01*
X211194907Y-120910000D01*
X211168636Y-120907413D01*
X211148089Y-120901180D01*
X211129158Y-120891061D01*
X211112560Y-120877440D01*
X211098939Y-120860842D01*
X211088820Y-120841911D01*
X211082587Y-120821364D01*
X211080000Y-120795093D01*
X211080000Y-120384907D01*
X211082587Y-120358636D01*
X211088820Y-120338089D01*
X211098939Y-120319158D01*
X211112560Y-120302560D01*
X211129158Y-120288939D01*
X211148089Y-120278820D01*
X211168636Y-120272587D01*
X211194907Y-120270000D01*
X212955093Y-120270000D01*
X212981364Y-120272587D01*
X212981364Y-120272587D01*
G37*
G36*
X260622548Y-119043787D02*
G01*
X260786546Y-119093536D01*
X260937683Y-119174320D01*
X261070159Y-119283041D01*
X261178880Y-119415517D01*
X261259664Y-119566654D01*
X261309413Y-119730652D01*
X261326210Y-119901200D01*
X261309413Y-120071748D01*
X261259664Y-120235746D01*
X261178880Y-120386883D01*
X261070159Y-120519359D01*
X260937683Y-120628080D01*
X260786546Y-120708864D01*
X260622548Y-120758613D01*
X260494743Y-120771200D01*
X260409257Y-120771200D01*
X260281452Y-120758613D01*
X260117454Y-120708864D01*
X259966317Y-120628080D01*
X259833841Y-120519359D01*
X259725120Y-120386883D01*
X259644336Y-120235746D01*
X259594587Y-120071748D01*
X259577790Y-119901200D01*
X259594587Y-119730652D01*
X259644336Y-119566654D01*
X259725120Y-119415517D01*
X259833841Y-119283041D01*
X259966317Y-119174320D01*
X260117454Y-119093536D01*
X260281452Y-119043787D01*
X260409257Y-119031200D01*
X260494743Y-119031200D01*
X260622548Y-119043787D01*
X260622548Y-119043787D01*
G37*
G36*
X258082548Y-119043787D02*
G01*
X258246546Y-119093536D01*
X258397683Y-119174320D01*
X258530159Y-119283041D01*
X258638880Y-119415517D01*
X258719664Y-119566654D01*
X258769413Y-119730652D01*
X258786210Y-119901200D01*
X258769413Y-120071748D01*
X258719664Y-120235746D01*
X258638880Y-120386883D01*
X258530159Y-120519359D01*
X258397683Y-120628080D01*
X258246546Y-120708864D01*
X258082548Y-120758613D01*
X257954743Y-120771200D01*
X257869257Y-120771200D01*
X257741452Y-120758613D01*
X257577454Y-120708864D01*
X257426317Y-120628080D01*
X257293841Y-120519359D01*
X257185120Y-120386883D01*
X257104336Y-120235746D01*
X257054587Y-120071748D01*
X257037790Y-119901200D01*
X257054587Y-119730652D01*
X257104336Y-119566654D01*
X257185120Y-119415517D01*
X257293841Y-119283041D01*
X257426317Y-119174320D01*
X257577454Y-119093536D01*
X257741452Y-119043787D01*
X257869257Y-119031200D01*
X257954743Y-119031200D01*
X258082548Y-119043787D01*
X258082548Y-119043787D01*
G37*
G36*
X255542548Y-119043787D02*
G01*
X255706546Y-119093536D01*
X255857683Y-119174320D01*
X255990159Y-119283041D01*
X256098880Y-119415517D01*
X256179664Y-119566654D01*
X256229413Y-119730652D01*
X256246210Y-119901200D01*
X256229413Y-120071748D01*
X256179664Y-120235746D01*
X256098880Y-120386883D01*
X255990159Y-120519359D01*
X255857683Y-120628080D01*
X255706546Y-120708864D01*
X255542548Y-120758613D01*
X255414743Y-120771200D01*
X255329257Y-120771200D01*
X255201452Y-120758613D01*
X255037454Y-120708864D01*
X254886317Y-120628080D01*
X254753841Y-120519359D01*
X254645120Y-120386883D01*
X254564336Y-120235746D01*
X254514587Y-120071748D01*
X254497790Y-119901200D01*
X254514587Y-119730652D01*
X254564336Y-119566654D01*
X254645120Y-119415517D01*
X254753841Y-119283041D01*
X254886317Y-119174320D01*
X255037454Y-119093536D01*
X255201452Y-119043787D01*
X255329257Y-119031200D01*
X255414743Y-119031200D01*
X255542548Y-119043787D01*
X255542548Y-119043787D01*
G37*
G36*
X253702000Y-120771200D02*
G01*
X251962000Y-120771200D01*
X251962000Y-119031200D01*
X253702000Y-119031200D01*
X253702000Y-120771200D01*
X253702000Y-120771200D01*
G37*
G36*
X232507000Y-120748000D02*
G01*
X227467000Y-120748000D01*
X227467000Y-115708000D01*
X232507000Y-115708000D01*
X232507000Y-120748000D01*
X232507000Y-120748000D01*
G37*
G36*
X238507000Y-119848000D02*
G01*
X236467000Y-119848000D01*
X236467000Y-118908000D01*
X238507000Y-118908000D01*
X238507000Y-119848000D01*
X238507000Y-119848000D01*
G37*
G36*
X221507000Y-119848000D02*
G01*
X219467000Y-119848000D01*
X219467000Y-118908000D01*
X221507000Y-118908000D01*
X221507000Y-119848000D01*
X221507000Y-119848000D01*
G37*
G36*
X212981364Y-119002587D02*
G01*
X213001911Y-119008820D01*
X213020842Y-119018939D01*
X213037440Y-119032560D01*
X213051061Y-119049158D01*
X213061180Y-119068089D01*
X213067413Y-119088636D01*
X213070000Y-119114907D01*
X213070000Y-119525093D01*
X213067413Y-119551364D01*
X213061180Y-119571911D01*
X213051061Y-119590842D01*
X213037440Y-119607440D01*
X213020842Y-119621061D01*
X213001911Y-119631180D01*
X212981364Y-119637413D01*
X212955093Y-119640000D01*
X211194907Y-119640000D01*
X211168636Y-119637413D01*
X211148089Y-119631180D01*
X211129158Y-119621061D01*
X211112560Y-119607440D01*
X211098939Y-119590842D01*
X211088820Y-119571911D01*
X211082587Y-119551364D01*
X211080000Y-119525093D01*
X211080000Y-119114907D01*
X211082587Y-119088636D01*
X211088820Y-119068089D01*
X211098939Y-119049158D01*
X211112560Y-119032560D01*
X211129158Y-119018939D01*
X211148089Y-119008820D01*
X211168636Y-119002587D01*
X211194907Y-119000000D01*
X212955093Y-119000000D01*
X212981364Y-119002587D01*
X212981364Y-119002587D01*
G37*
G36*
X208031364Y-119002587D02*
G01*
X208051911Y-119008820D01*
X208070842Y-119018939D01*
X208087440Y-119032560D01*
X208101061Y-119049158D01*
X208111180Y-119068089D01*
X208117413Y-119088636D01*
X208120000Y-119114907D01*
X208120000Y-119525093D01*
X208117413Y-119551364D01*
X208111180Y-119571911D01*
X208101061Y-119590842D01*
X208087440Y-119607440D01*
X208070842Y-119621061D01*
X208051911Y-119631180D01*
X208031364Y-119637413D01*
X208005093Y-119640000D01*
X206244907Y-119640000D01*
X206218636Y-119637413D01*
X206198089Y-119631180D01*
X206179158Y-119621061D01*
X206162560Y-119607440D01*
X206148939Y-119590842D01*
X206138820Y-119571911D01*
X206132587Y-119551364D01*
X206130000Y-119525093D01*
X206130000Y-119114907D01*
X206132587Y-119088636D01*
X206138820Y-119068089D01*
X206148939Y-119049158D01*
X206162560Y-119032560D01*
X206179158Y-119018939D01*
X206198089Y-119008820D01*
X206218636Y-119002587D01*
X206244907Y-119000000D01*
X208005093Y-119000000D01*
X208031364Y-119002587D01*
X208031364Y-119002587D01*
G37*
G36*
X204926024Y-118571408D02*
G01*
X204959472Y-118581555D01*
X204990288Y-118598026D01*
X205017303Y-118620197D01*
X205039474Y-118647212D01*
X205055945Y-118678028D01*
X205066092Y-118711476D01*
X205070000Y-118751158D01*
X205070000Y-119298842D01*
X205066092Y-119338524D01*
X205055945Y-119371972D01*
X205039474Y-119402788D01*
X205017303Y-119429803D01*
X204990288Y-119451974D01*
X204959472Y-119468445D01*
X204926024Y-119478592D01*
X204886342Y-119482500D01*
X204263658Y-119482500D01*
X204223976Y-119478592D01*
X204190528Y-119468445D01*
X204159712Y-119451974D01*
X204132697Y-119429803D01*
X204110526Y-119402788D01*
X204094055Y-119371972D01*
X204083908Y-119338524D01*
X204080000Y-119298842D01*
X204080000Y-118751158D01*
X204083908Y-118711476D01*
X204094055Y-118678028D01*
X204110526Y-118647212D01*
X204132697Y-118620197D01*
X204159712Y-118598026D01*
X204190528Y-118581555D01*
X204223976Y-118571408D01*
X204263658Y-118567500D01*
X204886342Y-118567500D01*
X204926024Y-118571408D01*
X204926024Y-118571408D01*
G37*
G36*
X243557524Y-118337308D02*
G01*
X243590972Y-118347455D01*
X243621788Y-118363926D01*
X243648803Y-118386097D01*
X243670974Y-118413112D01*
X243687445Y-118443928D01*
X243697592Y-118477376D01*
X243701500Y-118517058D01*
X243701500Y-119139742D01*
X243697592Y-119179424D01*
X243687445Y-119212872D01*
X243670974Y-119243688D01*
X243648803Y-119270703D01*
X243621788Y-119292874D01*
X243590972Y-119309345D01*
X243557524Y-119319492D01*
X243517842Y-119323400D01*
X242970158Y-119323400D01*
X242930476Y-119319492D01*
X242897028Y-119309345D01*
X242866212Y-119292874D01*
X242839197Y-119270703D01*
X242817026Y-119243688D01*
X242800555Y-119212872D01*
X242790408Y-119179424D01*
X242786500Y-119139742D01*
X242786500Y-118517058D01*
X242790408Y-118477376D01*
X242800555Y-118443928D01*
X242817026Y-118413112D01*
X242839197Y-118386097D01*
X242866212Y-118363926D01*
X242897028Y-118347455D01*
X242930476Y-118337308D01*
X242970158Y-118333400D01*
X243517842Y-118333400D01*
X243557524Y-118337308D01*
X243557524Y-118337308D01*
G37*
G36*
X241982524Y-118337308D02*
G01*
X242015972Y-118347455D01*
X242046788Y-118363926D01*
X242073803Y-118386097D01*
X242095974Y-118413112D01*
X242112445Y-118443928D01*
X242122592Y-118477376D01*
X242126500Y-118517058D01*
X242126500Y-119139742D01*
X242122592Y-119179424D01*
X242112445Y-119212872D01*
X242095974Y-119243688D01*
X242073803Y-119270703D01*
X242046788Y-119292874D01*
X242015972Y-119309345D01*
X241982524Y-119319492D01*
X241942842Y-119323400D01*
X241395158Y-119323400D01*
X241355476Y-119319492D01*
X241322028Y-119309345D01*
X241291212Y-119292874D01*
X241264197Y-119270703D01*
X241242026Y-119243688D01*
X241225555Y-119212872D01*
X241215408Y-119179424D01*
X241211500Y-119139742D01*
X241211500Y-118517058D01*
X241215408Y-118477376D01*
X241225555Y-118443928D01*
X241242026Y-118413112D01*
X241264197Y-118386097D01*
X241291212Y-118363926D01*
X241322028Y-118347455D01*
X241355476Y-118337308D01*
X241395158Y-118333400D01*
X241942842Y-118333400D01*
X241982524Y-118337308D01*
X241982524Y-118337308D01*
G37*
G36*
X245220324Y-118330108D02*
G01*
X245253772Y-118340255D01*
X245284588Y-118356726D01*
X245311603Y-118378897D01*
X245333774Y-118405912D01*
X245350245Y-118436728D01*
X245360392Y-118470176D01*
X245364300Y-118509858D01*
X245364300Y-119132542D01*
X245360392Y-119172224D01*
X245350245Y-119205672D01*
X245333774Y-119236488D01*
X245311603Y-119263503D01*
X245284588Y-119285674D01*
X245253772Y-119302145D01*
X245220324Y-119312292D01*
X245180642Y-119316200D01*
X244632958Y-119316200D01*
X244593276Y-119312292D01*
X244559828Y-119302145D01*
X244529012Y-119285674D01*
X244501997Y-119263503D01*
X244479826Y-119236488D01*
X244463355Y-119205672D01*
X244453208Y-119172224D01*
X244449300Y-119132542D01*
X244449300Y-118509858D01*
X244453208Y-118470176D01*
X244463355Y-118436728D01*
X244479826Y-118405912D01*
X244501997Y-118378897D01*
X244529012Y-118356726D01*
X244559828Y-118340255D01*
X244593276Y-118330108D01*
X244632958Y-118326200D01*
X245180642Y-118326200D01*
X245220324Y-118330108D01*
X245220324Y-118330108D01*
G37*
G36*
X246795324Y-118330108D02*
G01*
X246828772Y-118340255D01*
X246859588Y-118356726D01*
X246886603Y-118378897D01*
X246908774Y-118405912D01*
X246925245Y-118436728D01*
X246935392Y-118470176D01*
X246939300Y-118509858D01*
X246939300Y-119132542D01*
X246935392Y-119172224D01*
X246925245Y-119205672D01*
X246908774Y-119236488D01*
X246886603Y-119263503D01*
X246859588Y-119285674D01*
X246828772Y-119302145D01*
X246795324Y-119312292D01*
X246755642Y-119316200D01*
X246207958Y-119316200D01*
X246168276Y-119312292D01*
X246134828Y-119302145D01*
X246104012Y-119285674D01*
X246076997Y-119263503D01*
X246054826Y-119236488D01*
X246038355Y-119205672D01*
X246028208Y-119172224D01*
X246024300Y-119132542D01*
X246024300Y-118509858D01*
X246028208Y-118470176D01*
X246038355Y-118436728D01*
X246054826Y-118405912D01*
X246076997Y-118378897D01*
X246104012Y-118356726D01*
X246134828Y-118340255D01*
X246168276Y-118330108D01*
X246207958Y-118326200D01*
X246755642Y-118326200D01*
X246795324Y-118330108D01*
X246795324Y-118330108D01*
G37*
G36*
X187719239Y-112593742D02*
G01*
X187719241Y-112593743D01*
X187719242Y-112593743D01*
X187813285Y-112632697D01*
X188305242Y-112836472D01*
X188355715Y-112870197D01*
X188832629Y-113188860D01*
X189281139Y-113637370D01*
X189502584Y-113968787D01*
X189633527Y-114164757D01*
X189876257Y-114750760D01*
X190000000Y-115372857D01*
X190000000Y-116007141D01*
X189876521Y-116627912D01*
X189876256Y-116629241D01*
X189833558Y-116732323D01*
X189633527Y-117215241D01*
X189633526Y-117215242D01*
X189281139Y-117742628D01*
X188832629Y-118191138D01*
X188511196Y-118405912D01*
X188305242Y-118543526D01*
X188085613Y-118634499D01*
X187719242Y-118786255D01*
X187719241Y-118786255D01*
X187719239Y-118786256D01*
X187097142Y-118909999D01*
X186462858Y-118909999D01*
X185840761Y-118786256D01*
X185840759Y-118786255D01*
X185840758Y-118786255D01*
X185474387Y-118634499D01*
X185254758Y-118543526D01*
X185048804Y-118405912D01*
X184727371Y-118191138D01*
X184278861Y-117742628D01*
X183926474Y-117215242D01*
X183926473Y-117215241D01*
X183726442Y-116732323D01*
X183683744Y-116629241D01*
X183683480Y-116627912D01*
X183560000Y-116007141D01*
X183560000Y-115372857D01*
X183683743Y-114750760D01*
X183926473Y-114164757D01*
X184057416Y-113968787D01*
X184278861Y-113637370D01*
X184727371Y-113188860D01*
X185204285Y-112870197D01*
X185254758Y-112836472D01*
X185746715Y-112632697D01*
X185840758Y-112593743D01*
X185840759Y-112593743D01*
X185840761Y-112593742D01*
X186462858Y-112469999D01*
X187097142Y-112469999D01*
X187719239Y-112593742D01*
X187719239Y-112593742D01*
G37*
G36*
X268219238Y-112593742D02*
G01*
X268219240Y-112593743D01*
X268219241Y-112593743D01*
X268313284Y-112632697D01*
X268805241Y-112836472D01*
X268855714Y-112870197D01*
X269332628Y-113188860D01*
X269781138Y-113637370D01*
X270002583Y-113968787D01*
X270133526Y-114164757D01*
X270376256Y-114750760D01*
X270499999Y-115372857D01*
X270499999Y-116007141D01*
X270376520Y-116627912D01*
X270376255Y-116629241D01*
X270333557Y-116732323D01*
X270133526Y-117215241D01*
X270133525Y-117215242D01*
X269781138Y-117742628D01*
X269332628Y-118191138D01*
X269011195Y-118405912D01*
X268805241Y-118543526D01*
X268585612Y-118634499D01*
X268219241Y-118786255D01*
X268219240Y-118786255D01*
X268219238Y-118786256D01*
X267597141Y-118909999D01*
X266962857Y-118909999D01*
X266340760Y-118786256D01*
X266340758Y-118786255D01*
X266340757Y-118786255D01*
X265974386Y-118634499D01*
X265754757Y-118543526D01*
X265548803Y-118405912D01*
X265227370Y-118191138D01*
X264778860Y-117742628D01*
X264426473Y-117215242D01*
X264426472Y-117215241D01*
X264226441Y-116732323D01*
X264183743Y-116629241D01*
X264183479Y-116627912D01*
X264059999Y-116007141D01*
X264059999Y-115372857D01*
X264183742Y-114750760D01*
X264426472Y-114164757D01*
X264557415Y-113968787D01*
X264778860Y-113637370D01*
X265227370Y-113188860D01*
X265704284Y-112870197D01*
X265754757Y-112836472D01*
X266246714Y-112632697D01*
X266340757Y-112593743D01*
X266340758Y-112593743D01*
X266340760Y-112593742D01*
X266962857Y-112469999D01*
X267597141Y-112469999D01*
X268219238Y-112593742D01*
X268219238Y-112593742D01*
G37*
G36*
X221507000Y-118578000D02*
G01*
X219467000Y-118578000D01*
X219467000Y-117638000D01*
X221507000Y-117638000D01*
X221507000Y-118578000D01*
X221507000Y-118578000D01*
G37*
G36*
X238507000Y-118578000D02*
G01*
X236467000Y-118578000D01*
X236467000Y-117638000D01*
X238507000Y-117638000D01*
X238507000Y-118578000D01*
X238507000Y-118578000D01*
G37*
G36*
X208031364Y-117732587D02*
G01*
X208051911Y-117738820D01*
X208070842Y-117748939D01*
X208087440Y-117762560D01*
X208101061Y-117779158D01*
X208111180Y-117798089D01*
X208117413Y-117818636D01*
X208120000Y-117844907D01*
X208120000Y-118255093D01*
X208117413Y-118281364D01*
X208111180Y-118301911D01*
X208101061Y-118320842D01*
X208087440Y-118337440D01*
X208070842Y-118351061D01*
X208051911Y-118361180D01*
X208031364Y-118367413D01*
X208005093Y-118370000D01*
X206244907Y-118370000D01*
X206218636Y-118367413D01*
X206198089Y-118361180D01*
X206179158Y-118351061D01*
X206162560Y-118337440D01*
X206148939Y-118320842D01*
X206138820Y-118301911D01*
X206132587Y-118281364D01*
X206130000Y-118255093D01*
X206130000Y-117844907D01*
X206132587Y-117818636D01*
X206138820Y-117798089D01*
X206148939Y-117779158D01*
X206162560Y-117762560D01*
X206179158Y-117748939D01*
X206198089Y-117738820D01*
X206218636Y-117732587D01*
X206244907Y-117730000D01*
X208005093Y-117730000D01*
X208031364Y-117732587D01*
X208031364Y-117732587D01*
G37*
G36*
X212981364Y-117732587D02*
G01*
X213001911Y-117738820D01*
X213020842Y-117748939D01*
X213037440Y-117762560D01*
X213051061Y-117779158D01*
X213061180Y-117798089D01*
X213067413Y-117818636D01*
X213070000Y-117844907D01*
X213070000Y-118255093D01*
X213067413Y-118281364D01*
X213061180Y-118301911D01*
X213051061Y-118320842D01*
X213037440Y-118337440D01*
X213020842Y-118351061D01*
X213001911Y-118361180D01*
X212981364Y-118367413D01*
X212955093Y-118370000D01*
X211194907Y-118370000D01*
X211168636Y-118367413D01*
X211148089Y-118361180D01*
X211129158Y-118351061D01*
X211112560Y-118337440D01*
X211098939Y-118320842D01*
X211088820Y-118301911D01*
X211082587Y-118281364D01*
X211080000Y-118255093D01*
X211080000Y-117844907D01*
X211082587Y-117818636D01*
X211088820Y-117798089D01*
X211098939Y-117779158D01*
X211112560Y-117762560D01*
X211129158Y-117748939D01*
X211148089Y-117738820D01*
X211168636Y-117732587D01*
X211194907Y-117730000D01*
X212955093Y-117730000D01*
X212981364Y-117732587D01*
X212981364Y-117732587D01*
G37*
G36*
X246795324Y-116552108D02*
G01*
X246828772Y-116562255D01*
X246859588Y-116578726D01*
X246886603Y-116600897D01*
X246908774Y-116627912D01*
X246925245Y-116658728D01*
X246935392Y-116692176D01*
X246939300Y-116731858D01*
X246939300Y-117354542D01*
X246935392Y-117394224D01*
X246925245Y-117427672D01*
X246908774Y-117458488D01*
X246886603Y-117485503D01*
X246859588Y-117507674D01*
X246828772Y-117524145D01*
X246795324Y-117534292D01*
X246755642Y-117538200D01*
X246207958Y-117538200D01*
X246168276Y-117534292D01*
X246134828Y-117524145D01*
X246104012Y-117507674D01*
X246076997Y-117485503D01*
X246054826Y-117458488D01*
X246038355Y-117427672D01*
X246028208Y-117394224D01*
X246024300Y-117354542D01*
X246024300Y-116731858D01*
X246028208Y-116692176D01*
X246038355Y-116658728D01*
X246054826Y-116627912D01*
X246076997Y-116600897D01*
X246104012Y-116578726D01*
X246134828Y-116562255D01*
X246168276Y-116552108D01*
X246207958Y-116548200D01*
X246755642Y-116548200D01*
X246795324Y-116552108D01*
X246795324Y-116552108D01*
G37*
G36*
X245220324Y-116552108D02*
G01*
X245253772Y-116562255D01*
X245284588Y-116578726D01*
X245311603Y-116600897D01*
X245333774Y-116627912D01*
X245350245Y-116658728D01*
X245360392Y-116692176D01*
X245364300Y-116731858D01*
X245364300Y-117354542D01*
X245360392Y-117394224D01*
X245350245Y-117427672D01*
X245333774Y-117458488D01*
X245311603Y-117485503D01*
X245284588Y-117507674D01*
X245253772Y-117524145D01*
X245220324Y-117534292D01*
X245180642Y-117538200D01*
X244632958Y-117538200D01*
X244593276Y-117534292D01*
X244559828Y-117524145D01*
X244529012Y-117507674D01*
X244501997Y-117485503D01*
X244479826Y-117458488D01*
X244463355Y-117427672D01*
X244453208Y-117394224D01*
X244449300Y-117354542D01*
X244449300Y-116731858D01*
X244453208Y-116692176D01*
X244463355Y-116658728D01*
X244479826Y-116627912D01*
X244501997Y-116600897D01*
X244529012Y-116578726D01*
X244559828Y-116562255D01*
X244593276Y-116552108D01*
X244632958Y-116548200D01*
X245180642Y-116548200D01*
X245220324Y-116552108D01*
X245220324Y-116552108D01*
G37*
G36*
X243557524Y-116546608D02*
G01*
X243590972Y-116556755D01*
X243621788Y-116573226D01*
X243648803Y-116595397D01*
X243670974Y-116622412D01*
X243687445Y-116653228D01*
X243697592Y-116686676D01*
X243701500Y-116726358D01*
X243701500Y-117349042D01*
X243697592Y-117388724D01*
X243687445Y-117422172D01*
X243670974Y-117452988D01*
X243648803Y-117480003D01*
X243621788Y-117502174D01*
X243590972Y-117518645D01*
X243557524Y-117528792D01*
X243517842Y-117532700D01*
X242970158Y-117532700D01*
X242930476Y-117528792D01*
X242897028Y-117518645D01*
X242866212Y-117502174D01*
X242839197Y-117480003D01*
X242817026Y-117452988D01*
X242800555Y-117422172D01*
X242790408Y-117388724D01*
X242786500Y-117349042D01*
X242786500Y-116726358D01*
X242790408Y-116686676D01*
X242800555Y-116653228D01*
X242817026Y-116622412D01*
X242839197Y-116595397D01*
X242866212Y-116573226D01*
X242897028Y-116556755D01*
X242930476Y-116546608D01*
X242970158Y-116542700D01*
X243517842Y-116542700D01*
X243557524Y-116546608D01*
X243557524Y-116546608D01*
G37*
G36*
X241982524Y-116546608D02*
G01*
X242015972Y-116556755D01*
X242046788Y-116573226D01*
X242073803Y-116595397D01*
X242095974Y-116622412D01*
X242112445Y-116653228D01*
X242122592Y-116686676D01*
X242126500Y-116726358D01*
X242126500Y-117349042D01*
X242122592Y-117388724D01*
X242112445Y-117422172D01*
X242095974Y-117452988D01*
X242073803Y-117480003D01*
X242046788Y-117502174D01*
X242015972Y-117518645D01*
X241982524Y-117528792D01*
X241942842Y-117532700D01*
X241395158Y-117532700D01*
X241355476Y-117528792D01*
X241322028Y-117518645D01*
X241291212Y-117502174D01*
X241264197Y-117480003D01*
X241242026Y-117452988D01*
X241225555Y-117422172D01*
X241215408Y-117388724D01*
X241211500Y-117349042D01*
X241211500Y-116726358D01*
X241215408Y-116686676D01*
X241225555Y-116653228D01*
X241242026Y-116622412D01*
X241264197Y-116595397D01*
X241291212Y-116573226D01*
X241322028Y-116556755D01*
X241355476Y-116546608D01*
X241395158Y-116542700D01*
X241942842Y-116542700D01*
X241982524Y-116546608D01*
X241982524Y-116546608D01*
G37*
G36*
X238507000Y-117308000D02*
G01*
X236467000Y-117308000D01*
X236467000Y-116368000D01*
X238507000Y-116368000D01*
X238507000Y-117308000D01*
X238507000Y-117308000D01*
G37*
G36*
X221507000Y-117308000D02*
G01*
X219467000Y-117308000D01*
X219467000Y-116368000D01*
X221507000Y-116368000D01*
X221507000Y-117308000D01*
X221507000Y-117308000D01*
G37*
G36*
X212981364Y-116462587D02*
G01*
X213001911Y-116468820D01*
X213020842Y-116478939D01*
X213037440Y-116492560D01*
X213051061Y-116509158D01*
X213061180Y-116528089D01*
X213067413Y-116548636D01*
X213070000Y-116574907D01*
X213070000Y-116985093D01*
X213067413Y-117011364D01*
X213061180Y-117031911D01*
X213051061Y-117050842D01*
X213037440Y-117067440D01*
X213020842Y-117081061D01*
X213001911Y-117091180D01*
X212981364Y-117097413D01*
X212955093Y-117100000D01*
X211194907Y-117100000D01*
X211168636Y-117097413D01*
X211148089Y-117091180D01*
X211129158Y-117081061D01*
X211112560Y-117067440D01*
X211098939Y-117050842D01*
X211088820Y-117031911D01*
X211082587Y-117011364D01*
X211080000Y-116985093D01*
X211080000Y-116574907D01*
X211082587Y-116548636D01*
X211088820Y-116528089D01*
X211098939Y-116509158D01*
X211112560Y-116492560D01*
X211129158Y-116478939D01*
X211148089Y-116468820D01*
X211168636Y-116462587D01*
X211194907Y-116460000D01*
X212955093Y-116460000D01*
X212981364Y-116462587D01*
X212981364Y-116462587D01*
G37*
G36*
X208031364Y-116462587D02*
G01*
X208051911Y-116468820D01*
X208070842Y-116478939D01*
X208087440Y-116492560D01*
X208101061Y-116509158D01*
X208111180Y-116528089D01*
X208117413Y-116548636D01*
X208120000Y-116574907D01*
X208120000Y-116985093D01*
X208117413Y-117011364D01*
X208111180Y-117031911D01*
X208101061Y-117050842D01*
X208087440Y-117067440D01*
X208070842Y-117081061D01*
X208051911Y-117091180D01*
X208031364Y-117097413D01*
X208005093Y-117100000D01*
X206244907Y-117100000D01*
X206218636Y-117097413D01*
X206198089Y-117091180D01*
X206179158Y-117081061D01*
X206162560Y-117067440D01*
X206148939Y-117050842D01*
X206138820Y-117031911D01*
X206132587Y-117011364D01*
X206130000Y-116985093D01*
X206130000Y-116574907D01*
X206132587Y-116548636D01*
X206138820Y-116528089D01*
X206148939Y-116509158D01*
X206162560Y-116492560D01*
X206179158Y-116478939D01*
X206198089Y-116468820D01*
X206218636Y-116462587D01*
X206244907Y-116460000D01*
X208005093Y-116460000D01*
X208031364Y-116462587D01*
X208031364Y-116462587D01*
G37*
G36*
X216513524Y-116083908D02*
G01*
X216546972Y-116094055D01*
X216577788Y-116110526D01*
X216604803Y-116132697D01*
X216626974Y-116159712D01*
X216643445Y-116190528D01*
X216653592Y-116223976D01*
X216657500Y-116263658D01*
X216657500Y-116886342D01*
X216653592Y-116926024D01*
X216643445Y-116959472D01*
X216626974Y-116990288D01*
X216604803Y-117017303D01*
X216577788Y-117039474D01*
X216546972Y-117055945D01*
X216513524Y-117066092D01*
X216473842Y-117070000D01*
X215926158Y-117070000D01*
X215886476Y-117066092D01*
X215853028Y-117055945D01*
X215822212Y-117039474D01*
X215795197Y-117017303D01*
X215773026Y-116990288D01*
X215756555Y-116959472D01*
X215746408Y-116926024D01*
X215742500Y-116886342D01*
X215742500Y-116263658D01*
X215746408Y-116223976D01*
X215756555Y-116190528D01*
X215773026Y-116159712D01*
X215795197Y-116132697D01*
X215822212Y-116110526D01*
X215853028Y-116094055D01*
X215886476Y-116083908D01*
X215926158Y-116080000D01*
X216473842Y-116080000D01*
X216513524Y-116083908D01*
X216513524Y-116083908D01*
G37*
G36*
X214938524Y-116083908D02*
G01*
X214971972Y-116094055D01*
X215002788Y-116110526D01*
X215029803Y-116132697D01*
X215051974Y-116159712D01*
X215068445Y-116190528D01*
X215078592Y-116223976D01*
X215082500Y-116263658D01*
X215082500Y-116886342D01*
X215078592Y-116926024D01*
X215068445Y-116959472D01*
X215051974Y-116990288D01*
X215029803Y-117017303D01*
X215002788Y-117039474D01*
X214971972Y-117055945D01*
X214938524Y-117066092D01*
X214898842Y-117070000D01*
X214351158Y-117070000D01*
X214311476Y-117066092D01*
X214278028Y-117055945D01*
X214247212Y-117039474D01*
X214220197Y-117017303D01*
X214198026Y-116990288D01*
X214181555Y-116959472D01*
X214171408Y-116926024D01*
X214167500Y-116886342D01*
X214167500Y-116263658D01*
X214171408Y-116223976D01*
X214181555Y-116190528D01*
X214198026Y-116159712D01*
X214220197Y-116132697D01*
X214247212Y-116110526D01*
X214278028Y-116094055D01*
X214311476Y-116083908D01*
X214351158Y-116080000D01*
X214898842Y-116080000D01*
X214938524Y-116083908D01*
X214938524Y-116083908D01*
G37*
G36*
X238507000Y-116038000D02*
G01*
X236467000Y-116038000D01*
X236467000Y-115098000D01*
X238507000Y-115098000D01*
X238507000Y-116038000D01*
X238507000Y-116038000D01*
G37*
G36*
X221507000Y-116038000D02*
G01*
X219467000Y-116038000D01*
X219467000Y-115098000D01*
X221507000Y-115098000D01*
X221507000Y-116038000D01*
X221507000Y-116038000D01*
G37*
G36*
X246795324Y-114774108D02*
G01*
X246828772Y-114784255D01*
X246859588Y-114800726D01*
X246886603Y-114822897D01*
X246908774Y-114849912D01*
X246925245Y-114880728D01*
X246935392Y-114914176D01*
X246939300Y-114953858D01*
X246939300Y-115576542D01*
X246935392Y-115616224D01*
X246925245Y-115649672D01*
X246908774Y-115680488D01*
X246886603Y-115707503D01*
X246859588Y-115729674D01*
X246828772Y-115746145D01*
X246795324Y-115756292D01*
X246755642Y-115760200D01*
X246207958Y-115760200D01*
X246168276Y-115756292D01*
X246134828Y-115746145D01*
X246104012Y-115729674D01*
X246076997Y-115707503D01*
X246054826Y-115680488D01*
X246038355Y-115649672D01*
X246028208Y-115616224D01*
X246024300Y-115576542D01*
X246024300Y-114953858D01*
X246028208Y-114914176D01*
X246038355Y-114880728D01*
X246054826Y-114849912D01*
X246076997Y-114822897D01*
X246104012Y-114800726D01*
X246134828Y-114784255D01*
X246168276Y-114774108D01*
X246207958Y-114770200D01*
X246755642Y-114770200D01*
X246795324Y-114774108D01*
X246795324Y-114774108D01*
G37*
G36*
X245220324Y-114774108D02*
G01*
X245253772Y-114784255D01*
X245284588Y-114800726D01*
X245311603Y-114822897D01*
X245333774Y-114849912D01*
X245350245Y-114880728D01*
X245360392Y-114914176D01*
X245364300Y-114953858D01*
X245364300Y-115576542D01*
X245360392Y-115616224D01*
X245350245Y-115649672D01*
X245333774Y-115680488D01*
X245311603Y-115707503D01*
X245284588Y-115729674D01*
X245253772Y-115746145D01*
X245220324Y-115756292D01*
X245180642Y-115760200D01*
X244632958Y-115760200D01*
X244593276Y-115756292D01*
X244559828Y-115746145D01*
X244529012Y-115729674D01*
X244501997Y-115707503D01*
X244479826Y-115680488D01*
X244463355Y-115649672D01*
X244453208Y-115616224D01*
X244449300Y-115576542D01*
X244449300Y-114953858D01*
X244453208Y-114914176D01*
X244463355Y-114880728D01*
X244479826Y-114849912D01*
X244501997Y-114822897D01*
X244529012Y-114800726D01*
X244559828Y-114784255D01*
X244593276Y-114774108D01*
X244632958Y-114770200D01*
X245180642Y-114770200D01*
X245220324Y-114774108D01*
X245220324Y-114774108D01*
G37*
G36*
X243557524Y-114755908D02*
G01*
X243590972Y-114766055D01*
X243621788Y-114782526D01*
X243648803Y-114804697D01*
X243670974Y-114831712D01*
X243687445Y-114862528D01*
X243697592Y-114895976D01*
X243701500Y-114935658D01*
X243701500Y-115558342D01*
X243697592Y-115598024D01*
X243687445Y-115631472D01*
X243670974Y-115662288D01*
X243648803Y-115689303D01*
X243621788Y-115711474D01*
X243590972Y-115727945D01*
X243557524Y-115738092D01*
X243517842Y-115742000D01*
X242970158Y-115742000D01*
X242930476Y-115738092D01*
X242897028Y-115727945D01*
X242866212Y-115711474D01*
X242839197Y-115689303D01*
X242817026Y-115662288D01*
X242800555Y-115631472D01*
X242790408Y-115598024D01*
X242786500Y-115558342D01*
X242786500Y-114935658D01*
X242790408Y-114895976D01*
X242800555Y-114862528D01*
X242817026Y-114831712D01*
X242839197Y-114804697D01*
X242866212Y-114782526D01*
X242897028Y-114766055D01*
X242930476Y-114755908D01*
X242970158Y-114752000D01*
X243517842Y-114752000D01*
X243557524Y-114755908D01*
X243557524Y-114755908D01*
G37*
G36*
X241982524Y-114755908D02*
G01*
X242015972Y-114766055D01*
X242046788Y-114782526D01*
X242073803Y-114804697D01*
X242095974Y-114831712D01*
X242112445Y-114862528D01*
X242122592Y-114895976D01*
X242126500Y-114935658D01*
X242126500Y-115558342D01*
X242122592Y-115598024D01*
X242112445Y-115631472D01*
X242095974Y-115662288D01*
X242073803Y-115689303D01*
X242046788Y-115711474D01*
X242015972Y-115727945D01*
X241982524Y-115738092D01*
X241942842Y-115742000D01*
X241395158Y-115742000D01*
X241355476Y-115738092D01*
X241322028Y-115727945D01*
X241291212Y-115711474D01*
X241264197Y-115689303D01*
X241242026Y-115662288D01*
X241225555Y-115631472D01*
X241215408Y-115598024D01*
X241211500Y-115558342D01*
X241211500Y-114935658D01*
X241215408Y-114895976D01*
X241225555Y-114862528D01*
X241242026Y-114831712D01*
X241264197Y-114804697D01*
X241291212Y-114782526D01*
X241322028Y-114766055D01*
X241355476Y-114755908D01*
X241395158Y-114752000D01*
X241942842Y-114752000D01*
X241982524Y-114755908D01*
X241982524Y-114755908D01*
G37*
G36*
X260622548Y-113968787D02*
G01*
X260786546Y-114018536D01*
X260937683Y-114099320D01*
X261070159Y-114208041D01*
X261178880Y-114340517D01*
X261259664Y-114491654D01*
X261309413Y-114655652D01*
X261326210Y-114826200D01*
X261309413Y-114996748D01*
X261259664Y-115160746D01*
X261178880Y-115311883D01*
X261070159Y-115444359D01*
X260937683Y-115553080D01*
X260786546Y-115633864D01*
X260622548Y-115683613D01*
X260494743Y-115696200D01*
X260409257Y-115696200D01*
X260281452Y-115683613D01*
X260117454Y-115633864D01*
X259966317Y-115553080D01*
X259833841Y-115444359D01*
X259725120Y-115311883D01*
X259644336Y-115160746D01*
X259594587Y-114996748D01*
X259577790Y-114826200D01*
X259594587Y-114655652D01*
X259644336Y-114491654D01*
X259725120Y-114340517D01*
X259833841Y-114208041D01*
X259966317Y-114099320D01*
X260117454Y-114018536D01*
X260281452Y-113968787D01*
X260409257Y-113956200D01*
X260494743Y-113956200D01*
X260622548Y-113968787D01*
X260622548Y-113968787D01*
G37*
G36*
X253702000Y-115696200D02*
G01*
X251962000Y-115696200D01*
X251962000Y-113956200D01*
X253702000Y-113956200D01*
X253702000Y-115696200D01*
X253702000Y-115696200D01*
G37*
G36*
X255542548Y-113968787D02*
G01*
X255706546Y-114018536D01*
X255857683Y-114099320D01*
X255990159Y-114208041D01*
X256098880Y-114340517D01*
X256179664Y-114491654D01*
X256229413Y-114655652D01*
X256246210Y-114826200D01*
X256229413Y-114996748D01*
X256179664Y-115160746D01*
X256098880Y-115311883D01*
X255990159Y-115444359D01*
X255857683Y-115553080D01*
X255706546Y-115633864D01*
X255542548Y-115683613D01*
X255414743Y-115696200D01*
X255329257Y-115696200D01*
X255201452Y-115683613D01*
X255037454Y-115633864D01*
X254886317Y-115553080D01*
X254753841Y-115444359D01*
X254645120Y-115311883D01*
X254564336Y-115160746D01*
X254514587Y-114996748D01*
X254497790Y-114826200D01*
X254514587Y-114655652D01*
X254564336Y-114491654D01*
X254645120Y-114340517D01*
X254753841Y-114208041D01*
X254886317Y-114099320D01*
X255037454Y-114018536D01*
X255201452Y-113968787D01*
X255329257Y-113956200D01*
X255414743Y-113956200D01*
X255542548Y-113968787D01*
X255542548Y-113968787D01*
G37*
G36*
X258082548Y-113968787D02*
G01*
X258246546Y-114018536D01*
X258397683Y-114099320D01*
X258530159Y-114208041D01*
X258638880Y-114340517D01*
X258719664Y-114491654D01*
X258769413Y-114655652D01*
X258786210Y-114826200D01*
X258769413Y-114996748D01*
X258719664Y-115160746D01*
X258638880Y-115311883D01*
X258530159Y-115444359D01*
X258397683Y-115553080D01*
X258246546Y-115633864D01*
X258082548Y-115683613D01*
X257954743Y-115696200D01*
X257869257Y-115696200D01*
X257741452Y-115683613D01*
X257577454Y-115633864D01*
X257426317Y-115553080D01*
X257293841Y-115444359D01*
X257185120Y-115311883D01*
X257104336Y-115160746D01*
X257054587Y-114996748D01*
X257037790Y-114826200D01*
X257054587Y-114655652D01*
X257104336Y-114491654D01*
X257185120Y-114340517D01*
X257293841Y-114208041D01*
X257426317Y-114099320D01*
X257577454Y-114018536D01*
X257741452Y-113968787D01*
X257869257Y-113956200D01*
X257954743Y-113956200D01*
X258082548Y-113968787D01*
X258082548Y-113968787D01*
G37*
G36*
X217451024Y-114396408D02*
G01*
X217484472Y-114406555D01*
X217515288Y-114423026D01*
X217542303Y-114445197D01*
X217564474Y-114472212D01*
X217580945Y-114503028D01*
X217591092Y-114536476D01*
X217595000Y-114576158D01*
X217595000Y-115123842D01*
X217591092Y-115163524D01*
X217580945Y-115196972D01*
X217564474Y-115227788D01*
X217542303Y-115254803D01*
X217515288Y-115276974D01*
X217484472Y-115293445D01*
X217451024Y-115303592D01*
X217411342Y-115307500D01*
X216788658Y-115307500D01*
X216748976Y-115303592D01*
X216715528Y-115293445D01*
X216684712Y-115276974D01*
X216657697Y-115254803D01*
X216635526Y-115227788D01*
X216619055Y-115196972D01*
X216608908Y-115163524D01*
X216605000Y-115123842D01*
X216605000Y-114576158D01*
X216608908Y-114536476D01*
X216619055Y-114503028D01*
X216635526Y-114472212D01*
X216657697Y-114445197D01*
X216684712Y-114423026D01*
X216715528Y-114406555D01*
X216748976Y-114396408D01*
X216788658Y-114392500D01*
X217411342Y-114392500D01*
X217451024Y-114396408D01*
X217451024Y-114396408D01*
G37*
G36*
X214845000Y-115245000D02*
G01*
X214405000Y-115245000D01*
X214405000Y-114555000D01*
X214845000Y-114555000D01*
X214845000Y-115245000D01*
X214845000Y-115245000D01*
G37*
G36*
X215495000Y-115245000D02*
G01*
X215055000Y-115245000D01*
X215055000Y-114555000D01*
X215495000Y-114555000D01*
X215495000Y-115245000D01*
X215495000Y-115245000D01*
G37*
G36*
X214195000Y-115245000D02*
G01*
X213755000Y-115245000D01*
X213755000Y-114555000D01*
X214195000Y-114555000D01*
X214195000Y-115245000D01*
X214195000Y-115245000D01*
G37*
G36*
X212426024Y-114158908D02*
G01*
X212459472Y-114169055D01*
X212490288Y-114185526D01*
X212517303Y-114207697D01*
X212539474Y-114234712D01*
X212555945Y-114265528D01*
X212566092Y-114298976D01*
X212570000Y-114338658D01*
X212570000Y-114886342D01*
X212566092Y-114926024D01*
X212555945Y-114959472D01*
X212539474Y-114990288D01*
X212517303Y-115017303D01*
X212490288Y-115039474D01*
X212459472Y-115055945D01*
X212426024Y-115066092D01*
X212386342Y-115070000D01*
X211763658Y-115070000D01*
X211723976Y-115066092D01*
X211690528Y-115055945D01*
X211659712Y-115039474D01*
X211632697Y-115017303D01*
X211610526Y-114990288D01*
X211594055Y-114959472D01*
X211583908Y-114926024D01*
X211580000Y-114886342D01*
X211580000Y-114338658D01*
X211583908Y-114298976D01*
X211594055Y-114265528D01*
X211610526Y-114234712D01*
X211632697Y-114207697D01*
X211659712Y-114185526D01*
X211690528Y-114169055D01*
X211723976Y-114158908D01*
X211763658Y-114155000D01*
X212386342Y-114155000D01*
X212426024Y-114158908D01*
X212426024Y-114158908D01*
G37*
G36*
X221507000Y-114768000D02*
G01*
X219467000Y-114768000D01*
X219467000Y-113828000D01*
X221507000Y-113828000D01*
X221507000Y-114768000D01*
X221507000Y-114768000D01*
G37*
G36*
X238507000Y-114768000D02*
G01*
X236467000Y-114768000D01*
X236467000Y-113828000D01*
X238507000Y-113828000D01*
X238507000Y-114768000D01*
X238507000Y-114768000D01*
G37*
G36*
X217451024Y-112821408D02*
G01*
X217484472Y-112831555D01*
X217515288Y-112848026D01*
X217542303Y-112870197D01*
X217564474Y-112897212D01*
X217580945Y-112928028D01*
X217591092Y-112961476D01*
X217595000Y-113001158D01*
X217595000Y-113548842D01*
X217591092Y-113588524D01*
X217580945Y-113621972D01*
X217564474Y-113652788D01*
X217542303Y-113679803D01*
X217515288Y-113701974D01*
X217484472Y-113718445D01*
X217451024Y-113728592D01*
X217411342Y-113732500D01*
X216788658Y-113732500D01*
X216748976Y-113728592D01*
X216715528Y-113718445D01*
X216684712Y-113701974D01*
X216657697Y-113679803D01*
X216635526Y-113652788D01*
X216619055Y-113621972D01*
X216608908Y-113588524D01*
X216605000Y-113548842D01*
X216605000Y-113001158D01*
X216608908Y-112961476D01*
X216619055Y-112928028D01*
X216635526Y-112897212D01*
X216657697Y-112870197D01*
X216684712Y-112848026D01*
X216715528Y-112831555D01*
X216748976Y-112821408D01*
X216788658Y-112817500D01*
X217411342Y-112817500D01*
X217451024Y-112821408D01*
X217451024Y-112821408D01*
G37*
G36*
X221507000Y-113498000D02*
G01*
X219467000Y-113498000D01*
X219467000Y-112558000D01*
X221507000Y-112558000D01*
X221507000Y-113498000D01*
X221507000Y-113498000D01*
G37*
G36*
X238507000Y-113498000D02*
G01*
X236467000Y-113498000D01*
X236467000Y-112558000D01*
X238507000Y-112558000D01*
X238507000Y-113498000D01*
X238507000Y-113498000D01*
G37*
G36*
X212426024Y-112583908D02*
G01*
X212459472Y-112594055D01*
X212490288Y-112610526D01*
X212517303Y-112632697D01*
X212539474Y-112659712D01*
X212555945Y-112690528D01*
X212566092Y-112723976D01*
X212570000Y-112763658D01*
X212570000Y-113311342D01*
X212566092Y-113351024D01*
X212555945Y-113384472D01*
X212539474Y-113415288D01*
X212517303Y-113442303D01*
X212490288Y-113464474D01*
X212459472Y-113480945D01*
X212426024Y-113491092D01*
X212386342Y-113495000D01*
X211763658Y-113495000D01*
X211723976Y-113491092D01*
X211690528Y-113480945D01*
X211659712Y-113464474D01*
X211632697Y-113442303D01*
X211610526Y-113415288D01*
X211594055Y-113384472D01*
X211583908Y-113351024D01*
X211580000Y-113311342D01*
X211580000Y-112763658D01*
X211583908Y-112723976D01*
X211594055Y-112690528D01*
X211610526Y-112659712D01*
X211632697Y-112632697D01*
X211659712Y-112610526D01*
X211690528Y-112594055D01*
X211723976Y-112583908D01*
X211763658Y-112580000D01*
X212386342Y-112580000D01*
X212426024Y-112583908D01*
X212426024Y-112583908D01*
G37*
G36*
X215495000Y-113345000D02*
G01*
X215055000Y-113345000D01*
X215055000Y-112655000D01*
X215495000Y-112655000D01*
X215495000Y-113345000D01*
X215495000Y-113345000D01*
G37*
G36*
X214845000Y-113345000D02*
G01*
X214405000Y-113345000D01*
X214405000Y-112655000D01*
X214845000Y-112655000D01*
X214845000Y-113345000D01*
X214845000Y-113345000D01*
G37*
G36*
X214195000Y-113345000D02*
G01*
X213755000Y-113345000D01*
X213755000Y-112655000D01*
X214195000Y-112655000D01*
X214195000Y-113345000D01*
X214195000Y-113345000D01*
G37*
G36*
X221507000Y-112228000D02*
G01*
X219467000Y-112228000D01*
X219467000Y-111288000D01*
X221507000Y-111288000D01*
X221507000Y-112228000D01*
X221507000Y-112228000D01*
G37*
G36*
X238507000Y-112228000D02*
G01*
X236467000Y-112228000D01*
X236467000Y-111288000D01*
X238507000Y-111288000D01*
X238507000Y-112228000D01*
X238507000Y-112228000D01*
G37*
G36*
X213363524Y-110883908D02*
G01*
X213396972Y-110894055D01*
X213427788Y-110910526D01*
X213454803Y-110932697D01*
X213476974Y-110959712D01*
X213493445Y-110990528D01*
X213503592Y-111023976D01*
X213507500Y-111063658D01*
X213507500Y-111686342D01*
X213503592Y-111726024D01*
X213493445Y-111759472D01*
X213476974Y-111790288D01*
X213454803Y-111817303D01*
X213427788Y-111839474D01*
X213396972Y-111855945D01*
X213363524Y-111866092D01*
X213323842Y-111870000D01*
X212776158Y-111870000D01*
X212736476Y-111866092D01*
X212703028Y-111855945D01*
X212672212Y-111839474D01*
X212645197Y-111817303D01*
X212623026Y-111790288D01*
X212606555Y-111759472D01*
X212596408Y-111726024D01*
X212592500Y-111686342D01*
X212592500Y-111063658D01*
X212596408Y-111023976D01*
X212606555Y-110990528D01*
X212623026Y-110959712D01*
X212645197Y-110932697D01*
X212672212Y-110910526D01*
X212703028Y-110894055D01*
X212736476Y-110883908D01*
X212776158Y-110880000D01*
X213323842Y-110880000D01*
X213363524Y-110883908D01*
X213363524Y-110883908D01*
G37*
G36*
X214938524Y-110883908D02*
G01*
X214971972Y-110894055D01*
X215002788Y-110910526D01*
X215029803Y-110932697D01*
X215051974Y-110959712D01*
X215068445Y-110990528D01*
X215078592Y-111023976D01*
X215082500Y-111063658D01*
X215082500Y-111686342D01*
X215078592Y-111726024D01*
X215068445Y-111759472D01*
X215051974Y-111790288D01*
X215029803Y-111817303D01*
X215002788Y-111839474D01*
X214971972Y-111855945D01*
X214938524Y-111866092D01*
X214898842Y-111870000D01*
X214351158Y-111870000D01*
X214311476Y-111866092D01*
X214278028Y-111855945D01*
X214247212Y-111839474D01*
X214220197Y-111817303D01*
X214198026Y-111790288D01*
X214181555Y-111759472D01*
X214171408Y-111726024D01*
X214167500Y-111686342D01*
X214167500Y-111063658D01*
X214171408Y-111023976D01*
X214181555Y-110990528D01*
X214198026Y-110959712D01*
X214220197Y-110932697D01*
X214247212Y-110910526D01*
X214278028Y-110894055D01*
X214311476Y-110883908D01*
X214351158Y-110880000D01*
X214898842Y-110880000D01*
X214938524Y-110883908D01*
X214938524Y-110883908D01*
G37*
G36*
X238507000Y-110958000D02*
G01*
X236467000Y-110958000D01*
X236467000Y-110018000D01*
X238507000Y-110018000D01*
X238507000Y-110958000D01*
X238507000Y-110958000D01*
G37*
G36*
X221507000Y-110958000D02*
G01*
X219467000Y-110958000D01*
X219467000Y-110018000D01*
X221507000Y-110018000D01*
X221507000Y-110958000D01*
X221507000Y-110958000D01*
G37*
G36*
X269666290Y-106988020D02*
G01*
X269666292Y-106988021D01*
X269666293Y-106988021D01*
X269988409Y-107121446D01*
X270147176Y-107227531D01*
X270273532Y-107311959D01*
X270278310Y-107315152D01*
X270524848Y-107561690D01*
X270718554Y-107851591D01*
X270846086Y-108159480D01*
X270851980Y-108173710D01*
X270920000Y-108515670D01*
X270920000Y-108864330D01*
X270889693Y-109016695D01*
X270851979Y-109206293D01*
X270718554Y-109528409D01*
X270524848Y-109818310D01*
X270278310Y-110064848D01*
X269988409Y-110258554D01*
X269666293Y-110391979D01*
X269666292Y-110391979D01*
X269666290Y-110391980D01*
X269324330Y-110460000D01*
X268975670Y-110460000D01*
X268633710Y-110391980D01*
X268633708Y-110391979D01*
X268633707Y-110391979D01*
X268311591Y-110258554D01*
X268021690Y-110064848D01*
X267775152Y-109818310D01*
X267581446Y-109528409D01*
X267448021Y-109206293D01*
X267410308Y-109016695D01*
X267380000Y-108864330D01*
X267380000Y-108515670D01*
X267448020Y-108173710D01*
X267453914Y-108159480D01*
X267581446Y-107851591D01*
X267775152Y-107561690D01*
X268021690Y-107315152D01*
X268026469Y-107311959D01*
X268152824Y-107227531D01*
X268311591Y-107121446D01*
X268633707Y-106988021D01*
X268633708Y-106988021D01*
X268633710Y-106988020D01*
X268975670Y-106920000D01*
X269324330Y-106920000D01*
X269666290Y-106988020D01*
X269666290Y-106988020D01*
G37*
G36*
X264466692Y-107613041D02*
G01*
X264466694Y-107613042D01*
X264466695Y-107613042D01*
X264526394Y-107637770D01*
X264670519Y-107697469D01*
X264853958Y-107820039D01*
X265009961Y-107976042D01*
X265132531Y-108159481D01*
X265216959Y-108363308D01*
X265260000Y-108579690D01*
X265260000Y-108800310D01*
X265216959Y-109016692D01*
X265132531Y-109220519D01*
X265009961Y-109403958D01*
X264853958Y-109559961D01*
X264670519Y-109682531D01*
X264526394Y-109742229D01*
X264466695Y-109766958D01*
X264466694Y-109766958D01*
X264466692Y-109766959D01*
X264250310Y-109810000D01*
X264029690Y-109810000D01*
X263813308Y-109766959D01*
X263813306Y-109766958D01*
X263813305Y-109766958D01*
X263753606Y-109742229D01*
X263609481Y-109682531D01*
X263426042Y-109559961D01*
X263270039Y-109403958D01*
X263147469Y-109220519D01*
X263063041Y-109016692D01*
X263020000Y-108800310D01*
X263020000Y-108579690D01*
X263063041Y-108363308D01*
X263147469Y-108159481D01*
X263270039Y-107976042D01*
X263426042Y-107820039D01*
X263609481Y-107697469D01*
X263753606Y-107637770D01*
X263813305Y-107613042D01*
X263813306Y-107613042D01*
X263813308Y-107613041D01*
X264029690Y-107570000D01*
X264250310Y-107570000D01*
X264466692Y-107613041D01*
X264466692Y-107613041D01*
G37*
G36*
X221507000Y-109688000D02*
G01*
X219467000Y-109688000D01*
X219467000Y-108748000D01*
X221507000Y-108748000D01*
X221507000Y-109688000D01*
X221507000Y-109688000D01*
G37*
G36*
X238507000Y-109688000D02*
G01*
X236467000Y-109688000D01*
X236467000Y-108748000D01*
X238507000Y-108748000D01*
X238507000Y-109688000D01*
X238507000Y-109688000D01*
G37*
G36*
X230092000Y-109238000D02*
G01*
X229152000Y-109238000D01*
X229152000Y-107198000D01*
X230092000Y-107198000D01*
X230092000Y-109238000D01*
X230092000Y-109238000D01*
G37*
G36*
X232632000Y-109238000D02*
G01*
X231692000Y-109238000D01*
X231692000Y-107198000D01*
X232632000Y-107198000D01*
X232632000Y-109238000D01*
X232632000Y-109238000D01*
G37*
G36*
X228822000Y-109238000D02*
G01*
X227882000Y-109238000D01*
X227882000Y-107198000D01*
X228822000Y-107198000D01*
X228822000Y-109238000D01*
X228822000Y-109238000D01*
G37*
G36*
X227552000Y-109238000D02*
G01*
X226612000Y-109238000D01*
X226612000Y-107198000D01*
X227552000Y-107198000D01*
X227552000Y-109238000D01*
X227552000Y-109238000D01*
G37*
G36*
X233902000Y-109238000D02*
G01*
X232962000Y-109238000D01*
X232962000Y-107198000D01*
X233902000Y-107198000D01*
X233902000Y-109238000D01*
X233902000Y-109238000D01*
G37*
G36*
X225012000Y-109238000D02*
G01*
X224072000Y-109238000D01*
X224072000Y-107198000D01*
X225012000Y-107198000D01*
X225012000Y-109238000D01*
X225012000Y-109238000D01*
G37*
G36*
X226282000Y-109238000D02*
G01*
X225342000Y-109238000D01*
X225342000Y-107198000D01*
X226282000Y-107198000D01*
X226282000Y-109238000D01*
X226282000Y-109238000D01*
G37*
G36*
X235172000Y-109238000D02*
G01*
X234232000Y-109238000D01*
X234232000Y-107198000D01*
X235172000Y-107198000D01*
X235172000Y-109238000D01*
X235172000Y-109238000D01*
G37*
G36*
X231362000Y-109238000D02*
G01*
X230422000Y-109238000D01*
X230422000Y-107198000D01*
X231362000Y-107198000D01*
X231362000Y-109238000D01*
X231362000Y-109238000D01*
G37*
G36*
X223742000Y-109238000D02*
G01*
X222802000Y-109238000D01*
X222802000Y-107198000D01*
X223742000Y-107198000D01*
X223742000Y-109238000D01*
X223742000Y-109238000D01*
G37*
G36*
X261976692Y-105158041D02*
G01*
X261976694Y-105158042D01*
X261976695Y-105158042D01*
X262036394Y-105182770D01*
X262180519Y-105242469D01*
X262363958Y-105365039D01*
X262519961Y-105521042D01*
X262642531Y-105704481D01*
X262726959Y-105908308D01*
X262770000Y-106124690D01*
X262770000Y-106345310D01*
X262726959Y-106561692D01*
X262642531Y-106765519D01*
X262642530Y-106765520D01*
X262519962Y-106948957D01*
X262363957Y-107104962D01*
X262339285Y-107121447D01*
X262180519Y-107227531D01*
X262036394Y-107287230D01*
X261976695Y-107311958D01*
X261976694Y-107311958D01*
X261976692Y-107311959D01*
X261760310Y-107355000D01*
X261539690Y-107355000D01*
X261323308Y-107311959D01*
X261323306Y-107311958D01*
X261323305Y-107311958D01*
X261263606Y-107287229D01*
X261119481Y-107227531D01*
X260960715Y-107121447D01*
X260936043Y-107104962D01*
X260780038Y-106948957D01*
X260657470Y-106765520D01*
X260657469Y-106765519D01*
X260573041Y-106561692D01*
X260530000Y-106345310D01*
X260530000Y-106124690D01*
X260573041Y-105908308D01*
X260657469Y-105704481D01*
X260780039Y-105521042D01*
X260936042Y-105365039D01*
X261119481Y-105242469D01*
X261263606Y-105182771D01*
X261323305Y-105158042D01*
X261323306Y-105158042D01*
X261323308Y-105158041D01*
X261539690Y-105115000D01*
X261760310Y-105115000D01*
X261976692Y-105158041D01*
X261976692Y-105158041D01*
G37*
G36*
X270775400Y-105295800D02*
G01*
X267735400Y-105295800D01*
X267735400Y-102255800D01*
X270775400Y-102255800D01*
X270775400Y-105295800D01*
X270775400Y-105295800D01*
G37*
G36*
X274476692Y-102608041D02*
G01*
X274476694Y-102608042D01*
X274476695Y-102608042D01*
X274536394Y-102632771D01*
X274680519Y-102692469D01*
X274680520Y-102692470D01*
X274863957Y-102815038D01*
X275019962Y-102971043D01*
X275051029Y-103017539D01*
X275142531Y-103154481D01*
X275226959Y-103358308D01*
X275270000Y-103574690D01*
X275270000Y-103795310D01*
X275226959Y-104011692D01*
X275142531Y-104215519D01*
X275019961Y-104398958D01*
X274863958Y-104554961D01*
X274680519Y-104677531D01*
X274536394Y-104737229D01*
X274476695Y-104761958D01*
X274476694Y-104761958D01*
X274476692Y-104761959D01*
X274260310Y-104805000D01*
X274039690Y-104805000D01*
X273823308Y-104761959D01*
X273823306Y-104761958D01*
X273823305Y-104761958D01*
X273763606Y-104737229D01*
X273619481Y-104677531D01*
X273436042Y-104554961D01*
X273280039Y-104398958D01*
X273157469Y-104215519D01*
X273073041Y-104011692D01*
X273030000Y-103795310D01*
X273030000Y-103574690D01*
X273073041Y-103358308D01*
X273157469Y-103154481D01*
X273248971Y-103017539D01*
X273280038Y-102971043D01*
X273436043Y-102815038D01*
X273619480Y-102692470D01*
X273619481Y-102692469D01*
X273763606Y-102632771D01*
X273823305Y-102608042D01*
X273823306Y-102608042D01*
X273823308Y-102608041D01*
X274039690Y-102565000D01*
X274260310Y-102565000D01*
X274476692Y-102608041D01*
X274476692Y-102608041D01*
G37*
G36*
X254707364Y-103001187D02*
G01*
X254727911Y-103007420D01*
X254746842Y-103017539D01*
X254763440Y-103031160D01*
X254777061Y-103047758D01*
X254787180Y-103066689D01*
X254793413Y-103087236D01*
X254796000Y-103113507D01*
X254796000Y-103523693D01*
X254793413Y-103549964D01*
X254787180Y-103570511D01*
X254777061Y-103589442D01*
X254763440Y-103606040D01*
X254746842Y-103619661D01*
X254727911Y-103629780D01*
X254707364Y-103636013D01*
X254681093Y-103638600D01*
X252920907Y-103638600D01*
X252894636Y-103636013D01*
X252874089Y-103629780D01*
X252855158Y-103619661D01*
X252838560Y-103606040D01*
X252824939Y-103589442D01*
X252814820Y-103570511D01*
X252808587Y-103549964D01*
X252806000Y-103523693D01*
X252806000Y-103113507D01*
X252808587Y-103087236D01*
X252814820Y-103066689D01*
X252824939Y-103047758D01*
X252838560Y-103031160D01*
X252855158Y-103017539D01*
X252874089Y-103007420D01*
X252894636Y-103001187D01*
X252920907Y-102998600D01*
X254681093Y-102998600D01*
X254707364Y-103001187D01*
X254707364Y-103001187D01*
G37*
G36*
X259657364Y-103001187D02*
G01*
X259677911Y-103007420D01*
X259696842Y-103017539D01*
X259713440Y-103031160D01*
X259727061Y-103047758D01*
X259737180Y-103066689D01*
X259743413Y-103087236D01*
X259746000Y-103113507D01*
X259746000Y-103523693D01*
X259743413Y-103549964D01*
X259737180Y-103570511D01*
X259727061Y-103589442D01*
X259713440Y-103606040D01*
X259696842Y-103619661D01*
X259677911Y-103629780D01*
X259657364Y-103636013D01*
X259631093Y-103638600D01*
X257870907Y-103638600D01*
X257844636Y-103636013D01*
X257824089Y-103629780D01*
X257805158Y-103619661D01*
X257788560Y-103606040D01*
X257774939Y-103589442D01*
X257764820Y-103570511D01*
X257758587Y-103549964D01*
X257756000Y-103523693D01*
X257756000Y-103113507D01*
X257758587Y-103087236D01*
X257764820Y-103066689D01*
X257774939Y-103047758D01*
X257788560Y-103031160D01*
X257805158Y-103017539D01*
X257824089Y-103007420D01*
X257844636Y-103001187D01*
X257870907Y-102998600D01*
X259631093Y-102998600D01*
X259657364Y-103001187D01*
X259657364Y-103001187D01*
G37*
G36*
X254707364Y-101731187D02*
G01*
X254727911Y-101737420D01*
X254746842Y-101747539D01*
X254763440Y-101761160D01*
X254777061Y-101777758D01*
X254787180Y-101796689D01*
X254793413Y-101817236D01*
X254796000Y-101843507D01*
X254796000Y-102253693D01*
X254793413Y-102279964D01*
X254787180Y-102300511D01*
X254777061Y-102319442D01*
X254763440Y-102336040D01*
X254746842Y-102349661D01*
X254727911Y-102359780D01*
X254707364Y-102366013D01*
X254681093Y-102368600D01*
X252920907Y-102368600D01*
X252894636Y-102366013D01*
X252874089Y-102359780D01*
X252855158Y-102349661D01*
X252838560Y-102336040D01*
X252824939Y-102319442D01*
X252814820Y-102300511D01*
X252808587Y-102279964D01*
X252806000Y-102253693D01*
X252806000Y-101843507D01*
X252808587Y-101817236D01*
X252814820Y-101796689D01*
X252824939Y-101777758D01*
X252838560Y-101761160D01*
X252855158Y-101747539D01*
X252874089Y-101737420D01*
X252894636Y-101731187D01*
X252920907Y-101728600D01*
X254681093Y-101728600D01*
X254707364Y-101731187D01*
X254707364Y-101731187D01*
G37*
G36*
X259657364Y-101731187D02*
G01*
X259677911Y-101737420D01*
X259696842Y-101747539D01*
X259713440Y-101761160D01*
X259727061Y-101777758D01*
X259737180Y-101796689D01*
X259743413Y-101817236D01*
X259746000Y-101843507D01*
X259746000Y-102253693D01*
X259743413Y-102279964D01*
X259737180Y-102300511D01*
X259727061Y-102319442D01*
X259713440Y-102336040D01*
X259696842Y-102349661D01*
X259677911Y-102359780D01*
X259657364Y-102366013D01*
X259631093Y-102368600D01*
X257870907Y-102368600D01*
X257844636Y-102366013D01*
X257824089Y-102359780D01*
X257805158Y-102349661D01*
X257788560Y-102336040D01*
X257774939Y-102319442D01*
X257764820Y-102300511D01*
X257758587Y-102279964D01*
X257756000Y-102253693D01*
X257756000Y-101843507D01*
X257758587Y-101817236D01*
X257764820Y-101796689D01*
X257774939Y-101777758D01*
X257788560Y-101761160D01*
X257805158Y-101747539D01*
X257824089Y-101737420D01*
X257844636Y-101731187D01*
X257870907Y-101728600D01*
X259631093Y-101728600D01*
X259657364Y-101731187D01*
X259657364Y-101731187D01*
G37*
G36*
X264466692Y-100108041D02*
G01*
X264466694Y-100108042D01*
X264466695Y-100108042D01*
X264526394Y-100132770D01*
X264670519Y-100192469D01*
X264670520Y-100192470D01*
X264853957Y-100315038D01*
X265009962Y-100471043D01*
X265034494Y-100507758D01*
X265132531Y-100654481D01*
X265165169Y-100733276D01*
X265208711Y-100838394D01*
X265216959Y-100858308D01*
X265260000Y-101074690D01*
X265260000Y-101295310D01*
X265216959Y-101511692D01*
X265132531Y-101715519D01*
X265009961Y-101898958D01*
X264853958Y-102054961D01*
X264670519Y-102177531D01*
X264526394Y-102237229D01*
X264466695Y-102261958D01*
X264466694Y-102261958D01*
X264466692Y-102261959D01*
X264250310Y-102305000D01*
X264029690Y-102305000D01*
X263813308Y-102261959D01*
X263813306Y-102261958D01*
X263813305Y-102261958D01*
X263753606Y-102237230D01*
X263609481Y-102177531D01*
X263426042Y-102054961D01*
X263270039Y-101898958D01*
X263147469Y-101715519D01*
X263063041Y-101511692D01*
X263020000Y-101295310D01*
X263020000Y-101074690D01*
X263063041Y-100858308D01*
X263071290Y-100838394D01*
X263114831Y-100733276D01*
X263147469Y-100654481D01*
X263245506Y-100507758D01*
X263270038Y-100471043D01*
X263426043Y-100315038D01*
X263609480Y-100192470D01*
X263609481Y-100192469D01*
X263753606Y-100132770D01*
X263813305Y-100108042D01*
X263813306Y-100108042D01*
X263813308Y-100108041D01*
X264029690Y-100065000D01*
X264250310Y-100065000D01*
X264466692Y-100108041D01*
X264466692Y-100108041D01*
G37*
G36*
X219006100Y-101277100D02*
G01*
X217238900Y-101277100D01*
X217238900Y-99509900D01*
X219006100Y-99509900D01*
X219006100Y-101277100D01*
X219006100Y-101277100D01*
G37*
G36*
X215718627Y-99519032D02*
G01*
X215755716Y-99522685D01*
X215862116Y-99554961D01*
X215922276Y-99573210D01*
X216075776Y-99655258D01*
X216210323Y-99765677D01*
X216320742Y-99900224D01*
X216402790Y-100053724D01*
X216402790Y-100053725D01*
X216453315Y-100220284D01*
X216453315Y-100220286D01*
X216470376Y-100393500D01*
X216459348Y-100505463D01*
X216453315Y-100566716D01*
X216437576Y-100618600D01*
X216402790Y-100733276D01*
X216320742Y-100886776D01*
X216210323Y-101021323D01*
X216075776Y-101131742D01*
X215922276Y-101213790D01*
X215866755Y-101230632D01*
X215755716Y-101264315D01*
X215718627Y-101267968D01*
X215625911Y-101277100D01*
X215539089Y-101277100D01*
X215446373Y-101267968D01*
X215409284Y-101264315D01*
X215298245Y-101230632D01*
X215242724Y-101213790D01*
X215089224Y-101131742D01*
X214954677Y-101021323D01*
X214844258Y-100886776D01*
X214762210Y-100733276D01*
X214727424Y-100618600D01*
X214711685Y-100566716D01*
X214705652Y-100505463D01*
X214694624Y-100393500D01*
X214711685Y-100220286D01*
X214711685Y-100220284D01*
X214762210Y-100053725D01*
X214762210Y-100053724D01*
X214844258Y-99900224D01*
X214954677Y-99765677D01*
X215089224Y-99655258D01*
X215242724Y-99573210D01*
X215302884Y-99554961D01*
X215409284Y-99522685D01*
X215446373Y-99519032D01*
X215539089Y-99509900D01*
X215625911Y-99509900D01*
X215718627Y-99519032D01*
X215718627Y-99519032D01*
G37*
G36*
X254707364Y-100461187D02*
G01*
X254727911Y-100467420D01*
X254746842Y-100477539D01*
X254763440Y-100491160D01*
X254777061Y-100507758D01*
X254787180Y-100526689D01*
X254793413Y-100547236D01*
X254796000Y-100573507D01*
X254796000Y-100983693D01*
X254793413Y-101009964D01*
X254787180Y-101030511D01*
X254777061Y-101049442D01*
X254763440Y-101066040D01*
X254746842Y-101079661D01*
X254727911Y-101089780D01*
X254707364Y-101096013D01*
X254681093Y-101098600D01*
X252920907Y-101098600D01*
X252894636Y-101096013D01*
X252874089Y-101089780D01*
X252855158Y-101079661D01*
X252838560Y-101066040D01*
X252824939Y-101049442D01*
X252814820Y-101030511D01*
X252808587Y-101009964D01*
X252806000Y-100983693D01*
X252806000Y-100573507D01*
X252808587Y-100547236D01*
X252814820Y-100526689D01*
X252824939Y-100507758D01*
X252838560Y-100491160D01*
X252855158Y-100477539D01*
X252874089Y-100467420D01*
X252894636Y-100461187D01*
X252920907Y-100458600D01*
X254681093Y-100458600D01*
X254707364Y-100461187D01*
X254707364Y-100461187D01*
G37*
G36*
X259657364Y-100461187D02*
G01*
X259677911Y-100467420D01*
X259696842Y-100477539D01*
X259713440Y-100491160D01*
X259727061Y-100507758D01*
X259737180Y-100526689D01*
X259743413Y-100547236D01*
X259746000Y-100573507D01*
X259746000Y-100983693D01*
X259743413Y-101009964D01*
X259737180Y-101030511D01*
X259727061Y-101049442D01*
X259713440Y-101066040D01*
X259696842Y-101079661D01*
X259677911Y-101089780D01*
X259657364Y-101096013D01*
X259631093Y-101098600D01*
X257870907Y-101098600D01*
X257844636Y-101096013D01*
X257824089Y-101089780D01*
X257805158Y-101079661D01*
X257788560Y-101066040D01*
X257774939Y-101049442D01*
X257764820Y-101030511D01*
X257758587Y-101009964D01*
X257756000Y-100983693D01*
X257756000Y-100573507D01*
X257758587Y-100547236D01*
X257764820Y-100526689D01*
X257774939Y-100507758D01*
X257788560Y-100491160D01*
X257805158Y-100477539D01*
X257824089Y-100467420D01*
X257844636Y-100461187D01*
X257870907Y-100458600D01*
X259631093Y-100458600D01*
X259657364Y-100461187D01*
X259657364Y-100461187D01*
G37*
G36*
X236413394Y-99609210D02*
G01*
X236449782Y-99620248D01*
X236483313Y-99638171D01*
X236512707Y-99662293D01*
X236536829Y-99691687D01*
X236554752Y-99725218D01*
X236565790Y-99761606D01*
X236570000Y-99804352D01*
X236570000Y-100795648D01*
X236565790Y-100838394D01*
X236554752Y-100874782D01*
X236536829Y-100908313D01*
X236512707Y-100937707D01*
X236483313Y-100961829D01*
X236449782Y-100979752D01*
X236413394Y-100990790D01*
X236370648Y-100995000D01*
X235329352Y-100995000D01*
X235286606Y-100990790D01*
X235250218Y-100979752D01*
X235216687Y-100961829D01*
X235187293Y-100937707D01*
X235163171Y-100908313D01*
X235145248Y-100874782D01*
X235134210Y-100838394D01*
X235130000Y-100795648D01*
X235130000Y-99804352D01*
X235134210Y-99761606D01*
X235145248Y-99725218D01*
X235163171Y-99691687D01*
X235187293Y-99662293D01*
X235216687Y-99638171D01*
X235250218Y-99620248D01*
X235286606Y-99609210D01*
X235329352Y-99605000D01*
X236370648Y-99605000D01*
X236413394Y-99609210D01*
X236413394Y-99609210D01*
G37*
G36*
X233713394Y-99609210D02*
G01*
X233749782Y-99620248D01*
X233783313Y-99638171D01*
X233812707Y-99662293D01*
X233836829Y-99691687D01*
X233854752Y-99725218D01*
X233865790Y-99761606D01*
X233870000Y-99804352D01*
X233870000Y-100795648D01*
X233865790Y-100838394D01*
X233854752Y-100874782D01*
X233836829Y-100908313D01*
X233812707Y-100937707D01*
X233783313Y-100961829D01*
X233749782Y-100979752D01*
X233713394Y-100990790D01*
X233670648Y-100995000D01*
X232629352Y-100995000D01*
X232586606Y-100990790D01*
X232550218Y-100979752D01*
X232516687Y-100961829D01*
X232487293Y-100937707D01*
X232463171Y-100908313D01*
X232445248Y-100874782D01*
X232434210Y-100838394D01*
X232430000Y-100795648D01*
X232430000Y-99804352D01*
X232434210Y-99761606D01*
X232445248Y-99725218D01*
X232463171Y-99691687D01*
X232487293Y-99662293D01*
X232516687Y-99638171D01*
X232550218Y-99620248D01*
X232586606Y-99609210D01*
X232629352Y-99605000D01*
X233670648Y-99605000D01*
X233713394Y-99609210D01*
X233713394Y-99609210D01*
G37*
G36*
X231636000Y-100897000D02*
G01*
X229596000Y-100897000D01*
X229596000Y-99357000D01*
X231636000Y-99357000D01*
X231636000Y-100897000D01*
X231636000Y-100897000D01*
G37*
G36*
X269698768Y-97234212D02*
G01*
X269975390Y-97348793D01*
X270224344Y-97515139D01*
X270436061Y-97726856D01*
X270602407Y-97975810D01*
X270716988Y-98252432D01*
X270775400Y-98546093D01*
X270775400Y-98845507D01*
X270716988Y-99139168D01*
X270602407Y-99415790D01*
X270436061Y-99664744D01*
X270224344Y-99876461D01*
X269975390Y-100042807D01*
X269698768Y-100157388D01*
X269405107Y-100215800D01*
X269105693Y-100215800D01*
X268812032Y-100157388D01*
X268535410Y-100042807D01*
X268286456Y-99876461D01*
X268074739Y-99664744D01*
X267908393Y-99415790D01*
X267793812Y-99139168D01*
X267735400Y-98845507D01*
X267735400Y-98546093D01*
X267793812Y-98252432D01*
X267908393Y-97975810D01*
X268074739Y-97726856D01*
X268286456Y-97515139D01*
X268535410Y-97348793D01*
X268812032Y-97234212D01*
X269105693Y-97175800D01*
X269405107Y-97175800D01*
X269698768Y-97234212D01*
X269698768Y-97234212D01*
G37*
G36*
X254707364Y-99191187D02*
G01*
X254727911Y-99197420D01*
X254746842Y-99207539D01*
X254763440Y-99221160D01*
X254777061Y-99237758D01*
X254787180Y-99256689D01*
X254793413Y-99277236D01*
X254796000Y-99303507D01*
X254796000Y-99713693D01*
X254793413Y-99739964D01*
X254787180Y-99760511D01*
X254777061Y-99779442D01*
X254763440Y-99796040D01*
X254746842Y-99809661D01*
X254727911Y-99819780D01*
X254707364Y-99826013D01*
X254681093Y-99828600D01*
X252920907Y-99828600D01*
X252894636Y-99826013D01*
X252874089Y-99819780D01*
X252855158Y-99809661D01*
X252838560Y-99796040D01*
X252824939Y-99779442D01*
X252814820Y-99760511D01*
X252808587Y-99739964D01*
X252806000Y-99713693D01*
X252806000Y-99303507D01*
X252808587Y-99277236D01*
X252814820Y-99256689D01*
X252824939Y-99237758D01*
X252838560Y-99221160D01*
X252855158Y-99207539D01*
X252874089Y-99197420D01*
X252894636Y-99191187D01*
X252920907Y-99188600D01*
X254681093Y-99188600D01*
X254707364Y-99191187D01*
X254707364Y-99191187D01*
G37*
G36*
X259657364Y-99191187D02*
G01*
X259677911Y-99197420D01*
X259696842Y-99207539D01*
X259713440Y-99221160D01*
X259727061Y-99237758D01*
X259737180Y-99256689D01*
X259743413Y-99277236D01*
X259746000Y-99303507D01*
X259746000Y-99713693D01*
X259743413Y-99739964D01*
X259737180Y-99760511D01*
X259727061Y-99779442D01*
X259713440Y-99796040D01*
X259696842Y-99809661D01*
X259677911Y-99819780D01*
X259657364Y-99826013D01*
X259631093Y-99828600D01*
X257870907Y-99828600D01*
X257844636Y-99826013D01*
X257824089Y-99819780D01*
X257805158Y-99809661D01*
X257788560Y-99796040D01*
X257774939Y-99779442D01*
X257764820Y-99760511D01*
X257758587Y-99739964D01*
X257756000Y-99713693D01*
X257756000Y-99303507D01*
X257758587Y-99277236D01*
X257764820Y-99256689D01*
X257774939Y-99237758D01*
X257788560Y-99221160D01*
X257805158Y-99207539D01*
X257824089Y-99197420D01*
X257844636Y-99191187D01*
X257870907Y-99188600D01*
X259631093Y-99188600D01*
X259657364Y-99191187D01*
X259657364Y-99191187D01*
G37*
G36*
X274476692Y-97608041D02*
G01*
X274476694Y-97608042D01*
X274476695Y-97608042D01*
X274536394Y-97632771D01*
X274680519Y-97692469D01*
X274680520Y-97692470D01*
X274863957Y-97815038D01*
X275019962Y-97971043D01*
X275023147Y-97975810D01*
X275142531Y-98154481D01*
X275226959Y-98358308D01*
X275270000Y-98574690D01*
X275270000Y-98795310D01*
X275226959Y-99011692D01*
X275142531Y-99215519D01*
X275129205Y-99235463D01*
X275019962Y-99398957D01*
X274863957Y-99554962D01*
X274789069Y-99605000D01*
X274680519Y-99677531D01*
X274536394Y-99737229D01*
X274476695Y-99761958D01*
X274476694Y-99761958D01*
X274476692Y-99761959D01*
X274260310Y-99805000D01*
X274039690Y-99805000D01*
X273823308Y-99761959D01*
X273823306Y-99761958D01*
X273823305Y-99761958D01*
X273763606Y-99737229D01*
X273619481Y-99677531D01*
X273510931Y-99605000D01*
X273436043Y-99554962D01*
X273280038Y-99398957D01*
X273170795Y-99235463D01*
X273157469Y-99215519D01*
X273073041Y-99011692D01*
X273030000Y-98795310D01*
X273030000Y-98574690D01*
X273073041Y-98358308D01*
X273157469Y-98154481D01*
X273276853Y-97975810D01*
X273280038Y-97971043D01*
X273436043Y-97815038D01*
X273619480Y-97692470D01*
X273619481Y-97692469D01*
X273763606Y-97632771D01*
X273823305Y-97608042D01*
X273823306Y-97608042D01*
X273823308Y-97608041D01*
X274039690Y-97565000D01*
X274260310Y-97565000D01*
X274476692Y-97608041D01*
X274476692Y-97608041D01*
G37*
G36*
X225336000Y-99747000D02*
G01*
X223296000Y-99747000D01*
X223296000Y-95907000D01*
X225336000Y-95907000D01*
X225336000Y-99747000D01*
X225336000Y-99747000D01*
G37*
G36*
X218258627Y-96979032D02*
G01*
X218295716Y-96982685D01*
X218406755Y-97016368D01*
X218462276Y-97033210D01*
X218615776Y-97115258D01*
X218750323Y-97225677D01*
X218860742Y-97360224D01*
X218942790Y-97513724D01*
X218942790Y-97513725D01*
X218993315Y-97680284D01*
X218993315Y-97680286D01*
X219010376Y-97853500D01*
X218998798Y-97971043D01*
X218993315Y-98026716D01*
X218973064Y-98093474D01*
X218942790Y-98193276D01*
X218860742Y-98346776D01*
X218750323Y-98481323D01*
X218615776Y-98591742D01*
X218462276Y-98673790D01*
X218406755Y-98690632D01*
X218295716Y-98724315D01*
X218258627Y-98727968D01*
X218165911Y-98737100D01*
X218079089Y-98737100D01*
X217986373Y-98727968D01*
X217949284Y-98724315D01*
X217838245Y-98690632D01*
X217782724Y-98673790D01*
X217629224Y-98591742D01*
X217494677Y-98481323D01*
X217384258Y-98346776D01*
X217302210Y-98193276D01*
X217271936Y-98093474D01*
X217251685Y-98026716D01*
X217246202Y-97971043D01*
X217234624Y-97853500D01*
X217251685Y-97680286D01*
X217251685Y-97680284D01*
X217302210Y-97513725D01*
X217302210Y-97513724D01*
X217384258Y-97360224D01*
X217494677Y-97225677D01*
X217629224Y-97115258D01*
X217782724Y-97033210D01*
X217838245Y-97016368D01*
X217949284Y-96982685D01*
X217986373Y-96979032D01*
X218079089Y-96969900D01*
X218165911Y-96969900D01*
X218258627Y-96979032D01*
X218258627Y-96979032D01*
G37*
G36*
X215718627Y-96979032D02*
G01*
X215755716Y-96982685D01*
X215866755Y-97016368D01*
X215922276Y-97033210D01*
X216075776Y-97115258D01*
X216210323Y-97225677D01*
X216320742Y-97360224D01*
X216402790Y-97513724D01*
X216402790Y-97513725D01*
X216453315Y-97680284D01*
X216453315Y-97680286D01*
X216470376Y-97853500D01*
X216458798Y-97971043D01*
X216453315Y-98026716D01*
X216433064Y-98093474D01*
X216402790Y-98193276D01*
X216320742Y-98346776D01*
X216210323Y-98481323D01*
X216075776Y-98591742D01*
X215922276Y-98673790D01*
X215866755Y-98690632D01*
X215755716Y-98724315D01*
X215718627Y-98727968D01*
X215625911Y-98737100D01*
X215539089Y-98737100D01*
X215446373Y-98727968D01*
X215409284Y-98724315D01*
X215298245Y-98690632D01*
X215242724Y-98673790D01*
X215089224Y-98591742D01*
X214954677Y-98481323D01*
X214844258Y-98346776D01*
X214762210Y-98193276D01*
X214731936Y-98093474D01*
X214711685Y-98026716D01*
X214706202Y-97971043D01*
X214694624Y-97853500D01*
X214711685Y-97680286D01*
X214711685Y-97680284D01*
X214762210Y-97513725D01*
X214762210Y-97513724D01*
X214844258Y-97360224D01*
X214954677Y-97225677D01*
X215089224Y-97115258D01*
X215242724Y-97033210D01*
X215298245Y-97016368D01*
X215409284Y-96982685D01*
X215446373Y-96979032D01*
X215539089Y-96969900D01*
X215625911Y-96969900D01*
X215718627Y-96979032D01*
X215718627Y-96979032D01*
G37*
G36*
X235638394Y-97184210D02*
G01*
X235674782Y-97195248D01*
X235708313Y-97213171D01*
X235737707Y-97237293D01*
X235761829Y-97266687D01*
X235779752Y-97300218D01*
X235790790Y-97336606D01*
X235795000Y-97379352D01*
X235795000Y-98420648D01*
X235790790Y-98463394D01*
X235779752Y-98499782D01*
X235761829Y-98533313D01*
X235737707Y-98562707D01*
X235708313Y-98586829D01*
X235674782Y-98604752D01*
X235638394Y-98615790D01*
X235595648Y-98620000D01*
X234604352Y-98620000D01*
X234561606Y-98615790D01*
X234525218Y-98604752D01*
X234491687Y-98586829D01*
X234462293Y-98562707D01*
X234438171Y-98533313D01*
X234420248Y-98499782D01*
X234409210Y-98463394D01*
X234405000Y-98420648D01*
X234405000Y-97379352D01*
X234409210Y-97336606D01*
X234420248Y-97300218D01*
X234438171Y-97266687D01*
X234462293Y-97237293D01*
X234491687Y-97213171D01*
X234525218Y-97195248D01*
X234561606Y-97184210D01*
X234604352Y-97180000D01*
X235595648Y-97180000D01*
X235638394Y-97184210D01*
X235638394Y-97184210D01*
G37*
G36*
X231636000Y-98597000D02*
G01*
X229596000Y-98597000D01*
X229596000Y-97057000D01*
X231636000Y-97057000D01*
X231636000Y-98597000D01*
X231636000Y-98597000D01*
G37*
G36*
X257503924Y-97137908D02*
G01*
X257537372Y-97148055D01*
X257568188Y-97164526D01*
X257595203Y-97186697D01*
X257617374Y-97213712D01*
X257633845Y-97244528D01*
X257643992Y-97277976D01*
X257647900Y-97317658D01*
X257647900Y-97940342D01*
X257643992Y-97980024D01*
X257633845Y-98013472D01*
X257617374Y-98044288D01*
X257595203Y-98071303D01*
X257568188Y-98093474D01*
X257537372Y-98109945D01*
X257503924Y-98120092D01*
X257464242Y-98124000D01*
X256916558Y-98124000D01*
X256876876Y-98120092D01*
X256843428Y-98109945D01*
X256812612Y-98093474D01*
X256785597Y-98071303D01*
X256763426Y-98044288D01*
X256746955Y-98013472D01*
X256736808Y-97980024D01*
X256732900Y-97940342D01*
X256732900Y-97317658D01*
X256736808Y-97277976D01*
X256746955Y-97244528D01*
X256763426Y-97213712D01*
X256785597Y-97186697D01*
X256812612Y-97164526D01*
X256843428Y-97148055D01*
X256876876Y-97137908D01*
X256916558Y-97134000D01*
X257464242Y-97134000D01*
X257503924Y-97137908D01*
X257503924Y-97137908D01*
G37*
G36*
X259078924Y-97137908D02*
G01*
X259112372Y-97148055D01*
X259143188Y-97164526D01*
X259170203Y-97186697D01*
X259192374Y-97213712D01*
X259208845Y-97244528D01*
X259218992Y-97277976D01*
X259222900Y-97317658D01*
X259222900Y-97940342D01*
X259218992Y-97980024D01*
X259208845Y-98013472D01*
X259192374Y-98044288D01*
X259170203Y-98071303D01*
X259143188Y-98093474D01*
X259112372Y-98109945D01*
X259078924Y-98120092D01*
X259039242Y-98124000D01*
X258491558Y-98124000D01*
X258451876Y-98120092D01*
X258418428Y-98109945D01*
X258387612Y-98093474D01*
X258360597Y-98071303D01*
X258338426Y-98044288D01*
X258321955Y-98013472D01*
X258311808Y-97980024D01*
X258307900Y-97940342D01*
X258307900Y-97317658D01*
X258311808Y-97277976D01*
X258321955Y-97244528D01*
X258338426Y-97213712D01*
X258360597Y-97186697D01*
X258387612Y-97164526D01*
X258418428Y-97148055D01*
X258451876Y-97137908D01*
X258491558Y-97134000D01*
X259039242Y-97134000D01*
X259078924Y-97137908D01*
X259078924Y-97137908D01*
G37*
G36*
X261976692Y-95058041D02*
G01*
X261976694Y-95058042D01*
X261976695Y-95058042D01*
X262036394Y-95082770D01*
X262180519Y-95142469D01*
X262180520Y-95142470D01*
X262339287Y-95248554D01*
X262363958Y-95265039D01*
X262519961Y-95421042D01*
X262642531Y-95604481D01*
X262687403Y-95712811D01*
X262726325Y-95806776D01*
X262726959Y-95808308D01*
X262770000Y-96024690D01*
X262770000Y-96245310D01*
X262743378Y-96379150D01*
X262726958Y-96461695D01*
X262711532Y-96498937D01*
X262642531Y-96665519D01*
X262642530Y-96665520D01*
X262519962Y-96848957D01*
X262363957Y-97004962D01*
X262286076Y-97057000D01*
X262180519Y-97127531D01*
X262091205Y-97164526D01*
X261976695Y-97211958D01*
X261976694Y-97211958D01*
X261976692Y-97211959D01*
X261760310Y-97255000D01*
X261539690Y-97255000D01*
X261323308Y-97211959D01*
X261323306Y-97211958D01*
X261323305Y-97211958D01*
X261208795Y-97164526D01*
X261119481Y-97127531D01*
X261013924Y-97057000D01*
X260936043Y-97004962D01*
X260780038Y-96848957D01*
X260657470Y-96665520D01*
X260657469Y-96665519D01*
X260588468Y-96498937D01*
X260573042Y-96461695D01*
X260556623Y-96379150D01*
X260530000Y-96245310D01*
X260530000Y-96024690D01*
X260573041Y-95808308D01*
X260573676Y-95806776D01*
X260612597Y-95712811D01*
X260657469Y-95604481D01*
X260780039Y-95421042D01*
X260936042Y-95265039D01*
X260960714Y-95248554D01*
X261119480Y-95142470D01*
X261119481Y-95142469D01*
X261263606Y-95082771D01*
X261323305Y-95058042D01*
X261323306Y-95058042D01*
X261323308Y-95058041D01*
X261539690Y-95015000D01*
X261760310Y-95015000D01*
X261976692Y-95058041D01*
X261976692Y-95058041D01*
G37*
G36*
X190680847Y-95963826D02*
G01*
X190680849Y-95963827D01*
X190680850Y-95963827D01*
X190793682Y-96010564D01*
X190895226Y-96078413D01*
X190981587Y-96164774D01*
X191035398Y-96245308D01*
X191049437Y-96266320D01*
X191096174Y-96379153D01*
X191120000Y-96498935D01*
X191120000Y-96621065D01*
X191096174Y-96740847D01*
X191052216Y-96846972D01*
X191049436Y-96853682D01*
X190981587Y-96955226D01*
X190895226Y-97041587D01*
X190793682Y-97109436D01*
X190680850Y-97156173D01*
X190680849Y-97156173D01*
X190680847Y-97156174D01*
X190561065Y-97180000D01*
X190438935Y-97180000D01*
X190319153Y-97156174D01*
X190319151Y-97156173D01*
X190319150Y-97156173D01*
X190206318Y-97109436D01*
X190104774Y-97041587D01*
X190018413Y-96955226D01*
X189950564Y-96853682D01*
X189947785Y-96846972D01*
X189903826Y-96740847D01*
X189880000Y-96621065D01*
X189880000Y-96498935D01*
X189903826Y-96379153D01*
X189950563Y-96266320D01*
X189964603Y-96245308D01*
X190018413Y-96164774D01*
X190104774Y-96078413D01*
X190206318Y-96010564D01*
X190319150Y-95963827D01*
X190319151Y-95963827D01*
X190319153Y-95963826D01*
X190438935Y-95940000D01*
X190561065Y-95940000D01*
X190680847Y-95963826D01*
X190680847Y-95963826D01*
G37*
G36*
X205920847Y-95963826D02*
G01*
X205920849Y-95963827D01*
X205920850Y-95963827D01*
X206033682Y-96010564D01*
X206135226Y-96078413D01*
X206221587Y-96164774D01*
X206275398Y-96245308D01*
X206289437Y-96266320D01*
X206336174Y-96379153D01*
X206360000Y-96498935D01*
X206360000Y-96621065D01*
X206336174Y-96740847D01*
X206292216Y-96846972D01*
X206289436Y-96853682D01*
X206221587Y-96955226D01*
X206135226Y-97041587D01*
X206033682Y-97109436D01*
X205920850Y-97156173D01*
X205920849Y-97156173D01*
X205920847Y-97156174D01*
X205801065Y-97180000D01*
X205678935Y-97180000D01*
X205559153Y-97156174D01*
X205559151Y-97156173D01*
X205559150Y-97156173D01*
X205446318Y-97109436D01*
X205344774Y-97041587D01*
X205258413Y-96955226D01*
X205190564Y-96853682D01*
X205187785Y-96846972D01*
X205143826Y-96740847D01*
X205120000Y-96621065D01*
X205120000Y-96498935D01*
X205143826Y-96379153D01*
X205190563Y-96266320D01*
X205204603Y-96245308D01*
X205258413Y-96164774D01*
X205344774Y-96078413D01*
X205446318Y-96010564D01*
X205559150Y-95963827D01*
X205559151Y-95963827D01*
X205559153Y-95963826D01*
X205678935Y-95940000D01*
X205801065Y-95940000D01*
X205920847Y-95963826D01*
X205920847Y-95963826D01*
G37*
G36*
X233351024Y-96046408D02*
G01*
X233384472Y-96056555D01*
X233415288Y-96073026D01*
X233442303Y-96095197D01*
X233464474Y-96122212D01*
X233480945Y-96153028D01*
X233491092Y-96186476D01*
X233495000Y-96226158D01*
X233495000Y-96773842D01*
X233491092Y-96813524D01*
X233480945Y-96846972D01*
X233464474Y-96877788D01*
X233442303Y-96904803D01*
X233415288Y-96926974D01*
X233384472Y-96943445D01*
X233351024Y-96953592D01*
X233311342Y-96957500D01*
X232688658Y-96957500D01*
X232648976Y-96953592D01*
X232615528Y-96943445D01*
X232584712Y-96926974D01*
X232557697Y-96904803D01*
X232535526Y-96877788D01*
X232519055Y-96846972D01*
X232508908Y-96813524D01*
X232505000Y-96773842D01*
X232505000Y-96226158D01*
X232508908Y-96186476D01*
X232519055Y-96153028D01*
X232535526Y-96122212D01*
X232557697Y-96095197D01*
X232584712Y-96073026D01*
X232615528Y-96056555D01*
X232648976Y-96046408D01*
X232688658Y-96042500D01*
X233311342Y-96042500D01*
X233351024Y-96046408D01*
X233351024Y-96046408D01*
G37*
G36*
X231636000Y-96297000D02*
G01*
X229596000Y-96297000D01*
X229596000Y-94757000D01*
X231636000Y-94757000D01*
X231636000Y-96297000D01*
X231636000Y-96297000D01*
G37*
G36*
X215718627Y-94439032D02*
G01*
X215755716Y-94442685D01*
X215866755Y-94476368D01*
X215922276Y-94493210D01*
X216075776Y-94575258D01*
X216210323Y-94685677D01*
X216320742Y-94820224D01*
X216402790Y-94973724D01*
X216402790Y-94973725D01*
X216453315Y-95140284D01*
X216453315Y-95140286D01*
X216470376Y-95313500D01*
X216459783Y-95421042D01*
X216453315Y-95486716D01*
X216419632Y-95597755D01*
X216402790Y-95653276D01*
X216320742Y-95806776D01*
X216210323Y-95941323D01*
X216075776Y-96051742D01*
X215922276Y-96133790D01*
X215888080Y-96144163D01*
X215755716Y-96184315D01*
X215718627Y-96187968D01*
X215625911Y-96197100D01*
X215539089Y-96197100D01*
X215446373Y-96187968D01*
X215409284Y-96184315D01*
X215276920Y-96144163D01*
X215242724Y-96133790D01*
X215089224Y-96051742D01*
X214954677Y-95941323D01*
X214844258Y-95806776D01*
X214762210Y-95653276D01*
X214745368Y-95597755D01*
X214711685Y-95486716D01*
X214705217Y-95421042D01*
X214694624Y-95313500D01*
X214711685Y-95140286D01*
X214711685Y-95140284D01*
X214762210Y-94973725D01*
X214762210Y-94973724D01*
X214844258Y-94820224D01*
X214954677Y-94685677D01*
X215089224Y-94575258D01*
X215242724Y-94493210D01*
X215298245Y-94476368D01*
X215409284Y-94442685D01*
X215446373Y-94439032D01*
X215539089Y-94429900D01*
X215625911Y-94429900D01*
X215718627Y-94439032D01*
X215718627Y-94439032D01*
G37*
G36*
X218258627Y-94439032D02*
G01*
X218295716Y-94442685D01*
X218406755Y-94476368D01*
X218462276Y-94493210D01*
X218615776Y-94575258D01*
X218750323Y-94685677D01*
X218860742Y-94820224D01*
X218942790Y-94973724D01*
X218942790Y-94973725D01*
X218993315Y-95140284D01*
X218993315Y-95140286D01*
X219010376Y-95313500D01*
X218999783Y-95421042D01*
X218993315Y-95486716D01*
X218959632Y-95597755D01*
X218942790Y-95653276D01*
X218860742Y-95806776D01*
X218750323Y-95941323D01*
X218615776Y-96051742D01*
X218462276Y-96133790D01*
X218428080Y-96144163D01*
X218295716Y-96184315D01*
X218258627Y-96187968D01*
X218165911Y-96197100D01*
X218079089Y-96197100D01*
X217986373Y-96187968D01*
X217949284Y-96184315D01*
X217816920Y-96144163D01*
X217782724Y-96133790D01*
X217629224Y-96051742D01*
X217494677Y-95941323D01*
X217384258Y-95806776D01*
X217302210Y-95653276D01*
X217285368Y-95597755D01*
X217251685Y-95486716D01*
X217245217Y-95421042D01*
X217234624Y-95313500D01*
X217251685Y-95140286D01*
X217251685Y-95140284D01*
X217302210Y-94973725D01*
X217302210Y-94973724D01*
X217384258Y-94820224D01*
X217494677Y-94685677D01*
X217629224Y-94575258D01*
X217782724Y-94493210D01*
X217838245Y-94476368D01*
X217949284Y-94442685D01*
X217986373Y-94439032D01*
X218079089Y-94429900D01*
X218165911Y-94429900D01*
X218258627Y-94439032D01*
X218258627Y-94439032D01*
G37*
G36*
X235638394Y-94484210D02*
G01*
X235674782Y-94495248D01*
X235708313Y-94513171D01*
X235737707Y-94537293D01*
X235761829Y-94566687D01*
X235779752Y-94600218D01*
X235790790Y-94636606D01*
X235795000Y-94679352D01*
X235795000Y-95720648D01*
X235790790Y-95763394D01*
X235779752Y-95799782D01*
X235761829Y-95833313D01*
X235737707Y-95862707D01*
X235708313Y-95886829D01*
X235674782Y-95904752D01*
X235638394Y-95915790D01*
X235595648Y-95920000D01*
X234604352Y-95920000D01*
X234561606Y-95915790D01*
X234525218Y-95904752D01*
X234491687Y-95886829D01*
X234462293Y-95862707D01*
X234438171Y-95833313D01*
X234420248Y-95799782D01*
X234409210Y-95763394D01*
X234405000Y-95720648D01*
X234405000Y-94679352D01*
X234409210Y-94636606D01*
X234420248Y-94600218D01*
X234438171Y-94566687D01*
X234462293Y-94537293D01*
X234491687Y-94513171D01*
X234525218Y-94495248D01*
X234561606Y-94484210D01*
X234604352Y-94480000D01*
X235595648Y-94480000D01*
X235638394Y-94484210D01*
X235638394Y-94484210D01*
G37*
G36*
X269666290Y-91978020D02*
G01*
X269666292Y-91978021D01*
X269666293Y-91978021D01*
X269988409Y-92111446D01*
X270278310Y-92305152D01*
X270524848Y-92551690D01*
X270718554Y-92841591D01*
X270846086Y-93149480D01*
X270851980Y-93163710D01*
X270920000Y-93505670D01*
X270920000Y-93854330D01*
X270889693Y-94006695D01*
X270851979Y-94196293D01*
X270718554Y-94518409D01*
X270599724Y-94696250D01*
X270524849Y-94808309D01*
X270278309Y-95054849D01*
X270273530Y-95058042D01*
X269988409Y-95248554D01*
X269666293Y-95381979D01*
X269666292Y-95381979D01*
X269666290Y-95381980D01*
X269324330Y-95450000D01*
X268975670Y-95450000D01*
X268633710Y-95381980D01*
X268633708Y-95381979D01*
X268633707Y-95381979D01*
X268311591Y-95248554D01*
X268026470Y-95058042D01*
X268021691Y-95054849D01*
X267775151Y-94808309D01*
X267700276Y-94696250D01*
X267581446Y-94518409D01*
X267448021Y-94196293D01*
X267410308Y-94006695D01*
X267380000Y-93854330D01*
X267380000Y-93505670D01*
X267448020Y-93163710D01*
X267453914Y-93149480D01*
X267581446Y-92841591D01*
X267775152Y-92551690D01*
X268021690Y-92305152D01*
X268311591Y-92111446D01*
X268633707Y-91978021D01*
X268633708Y-91978021D01*
X268633710Y-91978020D01*
X268975670Y-91910000D01*
X269324330Y-91910000D01*
X269666290Y-91978020D01*
X269666290Y-91978020D01*
G37*
G36*
X233351024Y-94471408D02*
G01*
X233384472Y-94481555D01*
X233415288Y-94498026D01*
X233442303Y-94520197D01*
X233464474Y-94547212D01*
X233480945Y-94578028D01*
X233491092Y-94611476D01*
X233495000Y-94651158D01*
X233495000Y-95198842D01*
X233491092Y-95238524D01*
X233480945Y-95271972D01*
X233464474Y-95302788D01*
X233442303Y-95329803D01*
X233415288Y-95351974D01*
X233384472Y-95368445D01*
X233351024Y-95378592D01*
X233311342Y-95382500D01*
X232688658Y-95382500D01*
X232648976Y-95378592D01*
X232615528Y-95368445D01*
X232584712Y-95351974D01*
X232557697Y-95329803D01*
X232535526Y-95302788D01*
X232519055Y-95271972D01*
X232508908Y-95238524D01*
X232505000Y-95198842D01*
X232505000Y-94651158D01*
X232508908Y-94611476D01*
X232519055Y-94578028D01*
X232535526Y-94547212D01*
X232557697Y-94520197D01*
X232584712Y-94498026D01*
X232615528Y-94481555D01*
X232648976Y-94471408D01*
X232688658Y-94467500D01*
X233311342Y-94467500D01*
X233351024Y-94471408D01*
X233351024Y-94471408D01*
G37*
G36*
X264466692Y-92603041D02*
G01*
X264466694Y-92603042D01*
X264466695Y-92603042D01*
X264526394Y-92627770D01*
X264670519Y-92687469D01*
X264853958Y-92810039D01*
X265009961Y-92966042D01*
X265132531Y-93149481D01*
X265216959Y-93353308D01*
X265260000Y-93569690D01*
X265260000Y-93790310D01*
X265216959Y-94006692D01*
X265132531Y-94210519D01*
X265132530Y-94210520D01*
X265009962Y-94393957D01*
X264853957Y-94549962D01*
X264816097Y-94575259D01*
X264670519Y-94672531D01*
X264526394Y-94732229D01*
X264466695Y-94756958D01*
X264466694Y-94756958D01*
X264466692Y-94756959D01*
X264250310Y-94800000D01*
X264029690Y-94800000D01*
X263813308Y-94756959D01*
X263813306Y-94756958D01*
X263813305Y-94756958D01*
X263753606Y-94732229D01*
X263609481Y-94672531D01*
X263463903Y-94575259D01*
X263426043Y-94549962D01*
X263270038Y-94393957D01*
X263147470Y-94210520D01*
X263147469Y-94210519D01*
X263063041Y-94006692D01*
X263020000Y-93790310D01*
X263020000Y-93569690D01*
X263063041Y-93353308D01*
X263147469Y-93149481D01*
X263270039Y-92966042D01*
X263426042Y-92810039D01*
X263609481Y-92687469D01*
X263753606Y-92627771D01*
X263813305Y-92603042D01*
X263813306Y-92603042D01*
X263813308Y-92603041D01*
X264029690Y-92560000D01*
X264250310Y-92560000D01*
X264466692Y-92603041D01*
X264466692Y-92603041D01*
G37*
G36*
X218258627Y-91899032D02*
G01*
X218295716Y-91902685D01*
X218406755Y-91936368D01*
X218462276Y-91953210D01*
X218615776Y-92035258D01*
X218750323Y-92145677D01*
X218860742Y-92280224D01*
X218942790Y-92433724D01*
X218942790Y-92433725D01*
X218993315Y-92600284D01*
X218996123Y-92628791D01*
X219010376Y-92773500D01*
X219003669Y-92841591D01*
X218993315Y-92946716D01*
X218987452Y-92966043D01*
X218942790Y-93113276D01*
X218860742Y-93266776D01*
X218750323Y-93401323D01*
X218615776Y-93511742D01*
X218462276Y-93593790D01*
X218406755Y-93610632D01*
X218295716Y-93644315D01*
X218258627Y-93647968D01*
X218165911Y-93657100D01*
X218079089Y-93657100D01*
X217986373Y-93647968D01*
X217949284Y-93644315D01*
X217838245Y-93610632D01*
X217782724Y-93593790D01*
X217629224Y-93511742D01*
X217494677Y-93401323D01*
X217384258Y-93266776D01*
X217302210Y-93113276D01*
X217257548Y-92966043D01*
X217251685Y-92946716D01*
X217241331Y-92841591D01*
X217234624Y-92773500D01*
X217248877Y-92628791D01*
X217251685Y-92600284D01*
X217302210Y-92433725D01*
X217302210Y-92433724D01*
X217384258Y-92280224D01*
X217494677Y-92145677D01*
X217629224Y-92035258D01*
X217782724Y-91953210D01*
X217838245Y-91936368D01*
X217949284Y-91902685D01*
X217986373Y-91899032D01*
X218079089Y-91889900D01*
X218165911Y-91889900D01*
X218258627Y-91899032D01*
X218258627Y-91899032D01*
G37*
G36*
X215718627Y-91899032D02*
G01*
X215755716Y-91902685D01*
X215866755Y-91936368D01*
X215922276Y-91953210D01*
X216075776Y-92035258D01*
X216210323Y-92145677D01*
X216320742Y-92280224D01*
X216402790Y-92433724D01*
X216402790Y-92433725D01*
X216453315Y-92600284D01*
X216456123Y-92628791D01*
X216470376Y-92773500D01*
X216463669Y-92841591D01*
X216453315Y-92946716D01*
X216447452Y-92966043D01*
X216402790Y-93113276D01*
X216320742Y-93266776D01*
X216210323Y-93401323D01*
X216075776Y-93511742D01*
X215922276Y-93593790D01*
X215866755Y-93610632D01*
X215755716Y-93644315D01*
X215718627Y-93647968D01*
X215625911Y-93657100D01*
X215539089Y-93657100D01*
X215446373Y-93647968D01*
X215409284Y-93644315D01*
X215298245Y-93610632D01*
X215242724Y-93593790D01*
X215089224Y-93511742D01*
X214954677Y-93401323D01*
X214844258Y-93266776D01*
X214762210Y-93113276D01*
X214717548Y-92966043D01*
X214711685Y-92946716D01*
X214701331Y-92841591D01*
X214694624Y-92773500D01*
X214708877Y-92628791D01*
X214711685Y-92600284D01*
X214762210Y-92433725D01*
X214762210Y-92433724D01*
X214844258Y-92280224D01*
X214954677Y-92145677D01*
X215089224Y-92035258D01*
X215242724Y-91953210D01*
X215298245Y-91936368D01*
X215409284Y-91902685D01*
X215446373Y-91899032D01*
X215539089Y-91889900D01*
X215625911Y-91889900D01*
X215718627Y-91899032D01*
X215718627Y-91899032D01*
G37*
G36*
X218258627Y-89359032D02*
G01*
X218295716Y-89362685D01*
X218406755Y-89396368D01*
X218462276Y-89413210D01*
X218615776Y-89495258D01*
X218750323Y-89605677D01*
X218860742Y-89740224D01*
X218942790Y-89893724D01*
X218942790Y-89893725D01*
X218993315Y-90060284D01*
X218993315Y-90060286D01*
X219010376Y-90233500D01*
X218996123Y-90378209D01*
X218993315Y-90406716D01*
X218959632Y-90517755D01*
X218942790Y-90573276D01*
X218860742Y-90726776D01*
X218750323Y-90861323D01*
X218615776Y-90971742D01*
X218462276Y-91053790D01*
X218406755Y-91070632D01*
X218295716Y-91104315D01*
X218258627Y-91107968D01*
X218165911Y-91117100D01*
X218079089Y-91117100D01*
X217986373Y-91107968D01*
X217949284Y-91104315D01*
X217838245Y-91070632D01*
X217782724Y-91053790D01*
X217629224Y-90971742D01*
X217494677Y-90861323D01*
X217384258Y-90726776D01*
X217302210Y-90573276D01*
X217285368Y-90517755D01*
X217251685Y-90406716D01*
X217248877Y-90378209D01*
X217234624Y-90233500D01*
X217251685Y-90060286D01*
X217251685Y-90060284D01*
X217302210Y-89893725D01*
X217302210Y-89893724D01*
X217384258Y-89740224D01*
X217494677Y-89605677D01*
X217629224Y-89495258D01*
X217782724Y-89413210D01*
X217838245Y-89396368D01*
X217949284Y-89362685D01*
X217986373Y-89359032D01*
X218079089Y-89349900D01*
X218165911Y-89349900D01*
X218258627Y-89359032D01*
X218258627Y-89359032D01*
G37*
G36*
X215718627Y-89359032D02*
G01*
X215755716Y-89362685D01*
X215866755Y-89396368D01*
X215922276Y-89413210D01*
X216075776Y-89495258D01*
X216210323Y-89605677D01*
X216320742Y-89740224D01*
X216402790Y-89893724D01*
X216402790Y-89893725D01*
X216453315Y-90060284D01*
X216453315Y-90060286D01*
X216470376Y-90233500D01*
X216456123Y-90378209D01*
X216453315Y-90406716D01*
X216419632Y-90517755D01*
X216402790Y-90573276D01*
X216320742Y-90726776D01*
X216210323Y-90861323D01*
X216075776Y-90971742D01*
X215922276Y-91053790D01*
X215866755Y-91070632D01*
X215755716Y-91104315D01*
X215718627Y-91107968D01*
X215625911Y-91117100D01*
X215539089Y-91117100D01*
X215446373Y-91107968D01*
X215409284Y-91104315D01*
X215298245Y-91070632D01*
X215242724Y-91053790D01*
X215089224Y-90971742D01*
X214954677Y-90861323D01*
X214844258Y-90726776D01*
X214762210Y-90573276D01*
X214745368Y-90517755D01*
X214711685Y-90406716D01*
X214708877Y-90378209D01*
X214694624Y-90233500D01*
X214711685Y-90060286D01*
X214711685Y-90060284D01*
X214762210Y-89893725D01*
X214762210Y-89893724D01*
X214844258Y-89740224D01*
X214954677Y-89605677D01*
X215089224Y-89495258D01*
X215242724Y-89413210D01*
X215298245Y-89396368D01*
X215409284Y-89362685D01*
X215446373Y-89359032D01*
X215539089Y-89349900D01*
X215625911Y-89349900D01*
X215718627Y-89359032D01*
X215718627Y-89359032D01*
G37*
G36*
X256357823Y-87625308D02*
G01*
X256391271Y-87635455D01*
X256422087Y-87651926D01*
X256449102Y-87674097D01*
X256471273Y-87701112D01*
X256487744Y-87731928D01*
X256497891Y-87765376D01*
X256501799Y-87805058D01*
X256501799Y-88427742D01*
X256497891Y-88467424D01*
X256487744Y-88500872D01*
X256471273Y-88531688D01*
X256449102Y-88558703D01*
X256422087Y-88580874D01*
X256391271Y-88597345D01*
X256357823Y-88607492D01*
X256318141Y-88611400D01*
X255770457Y-88611400D01*
X255730775Y-88607492D01*
X255697327Y-88597345D01*
X255666511Y-88580874D01*
X255639496Y-88558703D01*
X255617325Y-88531688D01*
X255600854Y-88500872D01*
X255590707Y-88467424D01*
X255586799Y-88427742D01*
X255586799Y-87805058D01*
X255590707Y-87765376D01*
X255600854Y-87731928D01*
X255617325Y-87701112D01*
X255639496Y-87674097D01*
X255666511Y-87651926D01*
X255697327Y-87635455D01*
X255730775Y-87625308D01*
X255770457Y-87621400D01*
X256318141Y-87621400D01*
X256357823Y-87625308D01*
X256357823Y-87625308D01*
G37*
G36*
X241357823Y-87625308D02*
G01*
X241391271Y-87635455D01*
X241422087Y-87651926D01*
X241449102Y-87674097D01*
X241471273Y-87701112D01*
X241487744Y-87731928D01*
X241497891Y-87765376D01*
X241501799Y-87805058D01*
X241501799Y-88427742D01*
X241497891Y-88467424D01*
X241487744Y-88500872D01*
X241471273Y-88531688D01*
X241449102Y-88558703D01*
X241422087Y-88580874D01*
X241391271Y-88597345D01*
X241357823Y-88607492D01*
X241318141Y-88611400D01*
X240770457Y-88611400D01*
X240730775Y-88607492D01*
X240697327Y-88597345D01*
X240666511Y-88580874D01*
X240639496Y-88558703D01*
X240617325Y-88531688D01*
X240600854Y-88500872D01*
X240590707Y-88467424D01*
X240586799Y-88427742D01*
X240586799Y-87805058D01*
X240590707Y-87765376D01*
X240600854Y-87731928D01*
X240617325Y-87701112D01*
X240639496Y-87674097D01*
X240666511Y-87651926D01*
X240697327Y-87635455D01*
X240730775Y-87625308D01*
X240770457Y-87621400D01*
X241318141Y-87621400D01*
X241357823Y-87625308D01*
X241357823Y-87625308D01*
G37*
G36*
X242932823Y-87625308D02*
G01*
X242966271Y-87635455D01*
X242997087Y-87651926D01*
X243024102Y-87674097D01*
X243046273Y-87701112D01*
X243062744Y-87731928D01*
X243072891Y-87765376D01*
X243076799Y-87805058D01*
X243076799Y-88427742D01*
X243072891Y-88467424D01*
X243062744Y-88500872D01*
X243046273Y-88531688D01*
X243024102Y-88558703D01*
X242997087Y-88580874D01*
X242966271Y-88597345D01*
X242932823Y-88607492D01*
X242893141Y-88611400D01*
X242345457Y-88611400D01*
X242305775Y-88607492D01*
X242272327Y-88597345D01*
X242241511Y-88580874D01*
X242214496Y-88558703D01*
X242192325Y-88531688D01*
X242175854Y-88500872D01*
X242165707Y-88467424D01*
X242161799Y-88427742D01*
X242161799Y-87805058D01*
X242165707Y-87765376D01*
X242175854Y-87731928D01*
X242192325Y-87701112D01*
X242214496Y-87674097D01*
X242241511Y-87651926D01*
X242272327Y-87635455D01*
X242305775Y-87625308D01*
X242345457Y-87621400D01*
X242893141Y-87621400D01*
X242932823Y-87625308D01*
X242932823Y-87625308D01*
G37*
G36*
X226357824Y-87625308D02*
G01*
X226391272Y-87635455D01*
X226422088Y-87651926D01*
X226449103Y-87674097D01*
X226471274Y-87701112D01*
X226487745Y-87731928D01*
X226497892Y-87765376D01*
X226501800Y-87805058D01*
X226501800Y-88427742D01*
X226497892Y-88467424D01*
X226487745Y-88500872D01*
X226471274Y-88531688D01*
X226449103Y-88558703D01*
X226422088Y-88580874D01*
X226391272Y-88597345D01*
X226357824Y-88607492D01*
X226318142Y-88611400D01*
X225770458Y-88611400D01*
X225730776Y-88607492D01*
X225697328Y-88597345D01*
X225666512Y-88580874D01*
X225639497Y-88558703D01*
X225617326Y-88531688D01*
X225600855Y-88500872D01*
X225590708Y-88467424D01*
X225586800Y-88427742D01*
X225586800Y-87805058D01*
X225590708Y-87765376D01*
X225600855Y-87731928D01*
X225617326Y-87701112D01*
X225639497Y-87674097D01*
X225666512Y-87651926D01*
X225697328Y-87635455D01*
X225730776Y-87625308D01*
X225770458Y-87621400D01*
X226318142Y-87621400D01*
X226357824Y-87625308D01*
X226357824Y-87625308D01*
G37*
G36*
X227932824Y-87625308D02*
G01*
X227966272Y-87635455D01*
X227997088Y-87651926D01*
X228024103Y-87674097D01*
X228046274Y-87701112D01*
X228062745Y-87731928D01*
X228072892Y-87765376D01*
X228076800Y-87805058D01*
X228076800Y-88427742D01*
X228072892Y-88467424D01*
X228062745Y-88500872D01*
X228046274Y-88531688D01*
X228024103Y-88558703D01*
X227997088Y-88580874D01*
X227966272Y-88597345D01*
X227932824Y-88607492D01*
X227893142Y-88611400D01*
X227345458Y-88611400D01*
X227305776Y-88607492D01*
X227272328Y-88597345D01*
X227241512Y-88580874D01*
X227214497Y-88558703D01*
X227192326Y-88531688D01*
X227175855Y-88500872D01*
X227165708Y-88467424D01*
X227161800Y-88427742D01*
X227161800Y-87805058D01*
X227165708Y-87765376D01*
X227175855Y-87731928D01*
X227192326Y-87701112D01*
X227214497Y-87674097D01*
X227241512Y-87651926D01*
X227272328Y-87635455D01*
X227305776Y-87625308D01*
X227345458Y-87621400D01*
X227893142Y-87621400D01*
X227932824Y-87625308D01*
X227932824Y-87625308D01*
G37*
G36*
X257932823Y-87625308D02*
G01*
X257966271Y-87635455D01*
X257997087Y-87651926D01*
X258024102Y-87674097D01*
X258046273Y-87701112D01*
X258062744Y-87731928D01*
X258072891Y-87765376D01*
X258076799Y-87805058D01*
X258076799Y-88427742D01*
X258072891Y-88467424D01*
X258062744Y-88500872D01*
X258046273Y-88531688D01*
X258024102Y-88558703D01*
X257997087Y-88580874D01*
X257966271Y-88597345D01*
X257932823Y-88607492D01*
X257893141Y-88611400D01*
X257345457Y-88611400D01*
X257305775Y-88607492D01*
X257272327Y-88597345D01*
X257241511Y-88580874D01*
X257214496Y-88558703D01*
X257192325Y-88531688D01*
X257175854Y-88500872D01*
X257165707Y-88467424D01*
X257161799Y-88427742D01*
X257161799Y-87805058D01*
X257165707Y-87765376D01*
X257175854Y-87731928D01*
X257192325Y-87701112D01*
X257214496Y-87674097D01*
X257241511Y-87651926D01*
X257272327Y-87635455D01*
X257305775Y-87625308D01*
X257345457Y-87621400D01*
X257893141Y-87621400D01*
X257932823Y-87625308D01*
X257932823Y-87625308D01*
G37*
G36*
X257952823Y-85717508D02*
G01*
X257986271Y-85727655D01*
X258017087Y-85744126D01*
X258044102Y-85766297D01*
X258066273Y-85793312D01*
X258082744Y-85824128D01*
X258092891Y-85857576D01*
X258096799Y-85897258D01*
X258096799Y-86519942D01*
X258092891Y-86559624D01*
X258082744Y-86593072D01*
X258066273Y-86623888D01*
X258044102Y-86650903D01*
X258017087Y-86673074D01*
X257986271Y-86689545D01*
X257952823Y-86699692D01*
X257913141Y-86703600D01*
X257365457Y-86703600D01*
X257325775Y-86699692D01*
X257292327Y-86689545D01*
X257261511Y-86673074D01*
X257234496Y-86650903D01*
X257212325Y-86623888D01*
X257195854Y-86593072D01*
X257185707Y-86559624D01*
X257181799Y-86519942D01*
X257181799Y-85897258D01*
X257185707Y-85857576D01*
X257195854Y-85824128D01*
X257212325Y-85793312D01*
X257234496Y-85766297D01*
X257261511Y-85744126D01*
X257292327Y-85727655D01*
X257325775Y-85717508D01*
X257365457Y-85713600D01*
X257913141Y-85713600D01*
X257952823Y-85717508D01*
X257952823Y-85717508D01*
G37*
G36*
X226377824Y-85717508D02*
G01*
X226411272Y-85727655D01*
X226442088Y-85744126D01*
X226469103Y-85766297D01*
X226491274Y-85793312D01*
X226507745Y-85824128D01*
X226517892Y-85857576D01*
X226521800Y-85897258D01*
X226521800Y-86519942D01*
X226517892Y-86559624D01*
X226507745Y-86593072D01*
X226491274Y-86623888D01*
X226469103Y-86650903D01*
X226442088Y-86673074D01*
X226411272Y-86689545D01*
X226377824Y-86699692D01*
X226338142Y-86703600D01*
X225790458Y-86703600D01*
X225750776Y-86699692D01*
X225717328Y-86689545D01*
X225686512Y-86673074D01*
X225659497Y-86650903D01*
X225637326Y-86623888D01*
X225620855Y-86593072D01*
X225610708Y-86559624D01*
X225606800Y-86519942D01*
X225606800Y-85897258D01*
X225610708Y-85857576D01*
X225620855Y-85824128D01*
X225637326Y-85793312D01*
X225659497Y-85766297D01*
X225686512Y-85744126D01*
X225717328Y-85727655D01*
X225750776Y-85717508D01*
X225790458Y-85713600D01*
X226338142Y-85713600D01*
X226377824Y-85717508D01*
X226377824Y-85717508D01*
G37*
G36*
X242952823Y-85717508D02*
G01*
X242986271Y-85727655D01*
X243017087Y-85744126D01*
X243044102Y-85766297D01*
X243066273Y-85793312D01*
X243082744Y-85824128D01*
X243092891Y-85857576D01*
X243096799Y-85897258D01*
X243096799Y-86519942D01*
X243092891Y-86559624D01*
X243082744Y-86593072D01*
X243066273Y-86623888D01*
X243044102Y-86650903D01*
X243017087Y-86673074D01*
X242986271Y-86689545D01*
X242952823Y-86699692D01*
X242913141Y-86703600D01*
X242365457Y-86703600D01*
X242325775Y-86699692D01*
X242292327Y-86689545D01*
X242261511Y-86673074D01*
X242234496Y-86650903D01*
X242212325Y-86623888D01*
X242195854Y-86593072D01*
X242185707Y-86559624D01*
X242181799Y-86519942D01*
X242181799Y-85897258D01*
X242185707Y-85857576D01*
X242195854Y-85824128D01*
X242212325Y-85793312D01*
X242234496Y-85766297D01*
X242261511Y-85744126D01*
X242292327Y-85727655D01*
X242325775Y-85717508D01*
X242365457Y-85713600D01*
X242913141Y-85713600D01*
X242952823Y-85717508D01*
X242952823Y-85717508D01*
G37*
G36*
X241377823Y-85717508D02*
G01*
X241411271Y-85727655D01*
X241442087Y-85744126D01*
X241469102Y-85766297D01*
X241491273Y-85793312D01*
X241507744Y-85824128D01*
X241517891Y-85857576D01*
X241521799Y-85897258D01*
X241521799Y-86519942D01*
X241517891Y-86559624D01*
X241507744Y-86593072D01*
X241491273Y-86623888D01*
X241469102Y-86650903D01*
X241442087Y-86673074D01*
X241411271Y-86689545D01*
X241377823Y-86699692D01*
X241338141Y-86703600D01*
X240790457Y-86703600D01*
X240750775Y-86699692D01*
X240717327Y-86689545D01*
X240686511Y-86673074D01*
X240659496Y-86650903D01*
X240637325Y-86623888D01*
X240620854Y-86593072D01*
X240610707Y-86559624D01*
X240606799Y-86519942D01*
X240606799Y-85897258D01*
X240610707Y-85857576D01*
X240620854Y-85824128D01*
X240637325Y-85793312D01*
X240659496Y-85766297D01*
X240686511Y-85744126D01*
X240717327Y-85727655D01*
X240750775Y-85717508D01*
X240790457Y-85713600D01*
X241338141Y-85713600D01*
X241377823Y-85717508D01*
X241377823Y-85717508D01*
G37*
G36*
X227952824Y-85717508D02*
G01*
X227986272Y-85727655D01*
X228017088Y-85744126D01*
X228044103Y-85766297D01*
X228066274Y-85793312D01*
X228082745Y-85824128D01*
X228092892Y-85857576D01*
X228096800Y-85897258D01*
X228096800Y-86519942D01*
X228092892Y-86559624D01*
X228082745Y-86593072D01*
X228066274Y-86623888D01*
X228044103Y-86650903D01*
X228017088Y-86673074D01*
X227986272Y-86689545D01*
X227952824Y-86699692D01*
X227913142Y-86703600D01*
X227365458Y-86703600D01*
X227325776Y-86699692D01*
X227292328Y-86689545D01*
X227261512Y-86673074D01*
X227234497Y-86650903D01*
X227212326Y-86623888D01*
X227195855Y-86593072D01*
X227185708Y-86559624D01*
X227181800Y-86519942D01*
X227181800Y-85897258D01*
X227185708Y-85857576D01*
X227195855Y-85824128D01*
X227212326Y-85793312D01*
X227234497Y-85766297D01*
X227261512Y-85744126D01*
X227292328Y-85727655D01*
X227325776Y-85717508D01*
X227365458Y-85713600D01*
X227913142Y-85713600D01*
X227952824Y-85717508D01*
X227952824Y-85717508D01*
G37*
G36*
X256377823Y-85717508D02*
G01*
X256411271Y-85727655D01*
X256442087Y-85744126D01*
X256469102Y-85766297D01*
X256491273Y-85793312D01*
X256507744Y-85824128D01*
X256517891Y-85857576D01*
X256521799Y-85897258D01*
X256521799Y-86519942D01*
X256517891Y-86559624D01*
X256507744Y-86593072D01*
X256491273Y-86623888D01*
X256469102Y-86650903D01*
X256442087Y-86673074D01*
X256411271Y-86689545D01*
X256377823Y-86699692D01*
X256338141Y-86703600D01*
X255790457Y-86703600D01*
X255750775Y-86699692D01*
X255717327Y-86689545D01*
X255686511Y-86673074D01*
X255659496Y-86650903D01*
X255637325Y-86623888D01*
X255620854Y-86593072D01*
X255610707Y-86559624D01*
X255606799Y-86519942D01*
X255606799Y-85897258D01*
X255610707Y-85857576D01*
X255620854Y-85824128D01*
X255637325Y-85793312D01*
X255659496Y-85766297D01*
X255686511Y-85744126D01*
X255717327Y-85727655D01*
X255750775Y-85717508D01*
X255790457Y-85713600D01*
X256338141Y-85713600D01*
X256377823Y-85717508D01*
X256377823Y-85717508D01*
G37*
G36*
X228221800Y-84870000D02*
G01*
X227381800Y-84870000D01*
X227381800Y-83930000D01*
X228221800Y-83930000D01*
X228221800Y-84870000D01*
X228221800Y-84870000D01*
G37*
G36*
X226321800Y-84870000D02*
G01*
X225481800Y-84870000D01*
X225481800Y-83930000D01*
X226321800Y-83930000D01*
X226321800Y-84870000D01*
X226321800Y-84870000D01*
G37*
G36*
X241321799Y-84870000D02*
G01*
X240481799Y-84870000D01*
X240481799Y-83930000D01*
X241321799Y-83930000D01*
X241321799Y-84870000D01*
X241321799Y-84870000D01*
G37*
G36*
X243221799Y-84870000D02*
G01*
X242381799Y-84870000D01*
X242381799Y-83930000D01*
X243221799Y-83930000D01*
X243221799Y-84870000D01*
X243221799Y-84870000D01*
G37*
G36*
X256321799Y-84870000D02*
G01*
X255481799Y-84870000D01*
X255481799Y-83930000D01*
X256321799Y-83930000D01*
X256321799Y-84870000D01*
X256321799Y-84870000D01*
G37*
G36*
X258221799Y-84870000D02*
G01*
X257381799Y-84870000D01*
X257381799Y-83930000D01*
X258221799Y-83930000D01*
X258221799Y-84870000D01*
X258221799Y-84870000D01*
G37*
G36*
X221171800Y-83520000D02*
G01*
X220231800Y-83520000D01*
X220231800Y-82280000D01*
X221171800Y-82280000D01*
X221171800Y-83520000D01*
X221171800Y-83520000D01*
G37*
G36*
X254471799Y-83520000D02*
G01*
X253531799Y-83520000D01*
X253531799Y-82280000D01*
X254471799Y-82280000D01*
X254471799Y-83520000D01*
X254471799Y-83520000D01*
G37*
G36*
X251171799Y-83520000D02*
G01*
X250231799Y-83520000D01*
X250231799Y-82280000D01*
X251171799Y-82280000D01*
X251171799Y-83520000D01*
X251171799Y-83520000D01*
G37*
G36*
X224471800Y-83520000D02*
G01*
X223531800Y-83520000D01*
X223531800Y-82280000D01*
X224471800Y-82280000D01*
X224471800Y-83520000D01*
X224471800Y-83520000D01*
G37*
G36*
X239471799Y-83520000D02*
G01*
X238531799Y-83520000D01*
X238531799Y-82280000D01*
X239471799Y-82280000D01*
X239471799Y-83520000D01*
X239471799Y-83520000D01*
G37*
G36*
X236171799Y-83520000D02*
G01*
X235231799Y-83520000D01*
X235231799Y-82280000D01*
X236171799Y-82280000D01*
X236171799Y-83520000D01*
X236171799Y-83520000D01*
G37*
G36*
X227271800Y-82870000D02*
G01*
X226431800Y-82870000D01*
X226431800Y-81930000D01*
X227271800Y-81930000D01*
X227271800Y-82870000D01*
X227271800Y-82870000D01*
G37*
G36*
X242271799Y-82870000D02*
G01*
X241431799Y-82870000D01*
X241431799Y-81930000D01*
X242271799Y-81930000D01*
X242271799Y-82870000D01*
X242271799Y-82870000D01*
G37*
G36*
X257271799Y-82870000D02*
G01*
X256431799Y-82870000D01*
X256431799Y-81930000D01*
X257271799Y-81930000D01*
X257271799Y-82870000D01*
X257271799Y-82870000D01*
G37*
G36*
X256420649Y-78471717D02*
G01*
X256420651Y-78471718D01*
X256420652Y-78471718D01*
X256469782Y-78492068D01*
X256588388Y-78541197D01*
X256588389Y-78541198D01*
X256739347Y-78642064D01*
X256867732Y-78770449D01*
X256934976Y-78871088D01*
X256968599Y-78921408D01*
X257038079Y-79089147D01*
X257073499Y-79267217D01*
X257073499Y-79448777D01*
X257038079Y-79626847D01*
X256968599Y-79794586D01*
X256968598Y-79794587D01*
X256867732Y-79945545D01*
X256739347Y-80073930D01*
X256638708Y-80141174D01*
X256588388Y-80174797D01*
X256469782Y-80223925D01*
X256420652Y-80244276D01*
X256420651Y-80244276D01*
X256420649Y-80244277D01*
X256242579Y-80279697D01*
X256061019Y-80279697D01*
X255882949Y-80244277D01*
X255882947Y-80244276D01*
X255882946Y-80244276D01*
X255833816Y-80223925D01*
X255715210Y-80174797D01*
X255664890Y-80141174D01*
X255564251Y-80073930D01*
X255435866Y-79945545D01*
X255335000Y-79794587D01*
X255334999Y-79794586D01*
X255265519Y-79626847D01*
X255230099Y-79448777D01*
X255230099Y-79267217D01*
X255265519Y-79089147D01*
X255334999Y-78921408D01*
X255368622Y-78871088D01*
X255435866Y-78770449D01*
X255564251Y-78642064D01*
X255715209Y-78541198D01*
X255715210Y-78541197D01*
X255833816Y-78492068D01*
X255882946Y-78471718D01*
X255882947Y-78471718D01*
X255882949Y-78471717D01*
X256061019Y-78436297D01*
X256242579Y-78436297D01*
X256420649Y-78471717D01*
X256420649Y-78471717D01*
G37*
G36*
X248820649Y-78471717D02*
G01*
X248820651Y-78471718D01*
X248820652Y-78471718D01*
X248869782Y-78492068D01*
X248988388Y-78541197D01*
X248988389Y-78541198D01*
X249139347Y-78642064D01*
X249267732Y-78770449D01*
X249334976Y-78871088D01*
X249368599Y-78921408D01*
X249438079Y-79089147D01*
X249473499Y-79267217D01*
X249473499Y-79448777D01*
X249438079Y-79626847D01*
X249368599Y-79794586D01*
X249368598Y-79794587D01*
X249267732Y-79945545D01*
X249139347Y-80073930D01*
X249038708Y-80141174D01*
X248988388Y-80174797D01*
X248869782Y-80223925D01*
X248820652Y-80244276D01*
X248820651Y-80244276D01*
X248820649Y-80244277D01*
X248642579Y-80279697D01*
X248461019Y-80279697D01*
X248282949Y-80244277D01*
X248282947Y-80244276D01*
X248282946Y-80244276D01*
X248233816Y-80223925D01*
X248115210Y-80174797D01*
X248064890Y-80141174D01*
X247964251Y-80073930D01*
X247835866Y-79945545D01*
X247735000Y-79794587D01*
X247734999Y-79794586D01*
X247665519Y-79626847D01*
X247630099Y-79448777D01*
X247630099Y-79267217D01*
X247665519Y-79089147D01*
X247734999Y-78921408D01*
X247768622Y-78871088D01*
X247835866Y-78770449D01*
X247964251Y-78642064D01*
X248115209Y-78541198D01*
X248115210Y-78541197D01*
X248233816Y-78492068D01*
X248282946Y-78471718D01*
X248282947Y-78471718D01*
X248282949Y-78471717D01*
X248461019Y-78436297D01*
X248642579Y-78436297D01*
X248820649Y-78471717D01*
X248820649Y-78471717D01*
G37*
G36*
X226420650Y-78471717D02*
G01*
X226420652Y-78471718D01*
X226420653Y-78471718D01*
X226469783Y-78492068D01*
X226588389Y-78541197D01*
X226588390Y-78541198D01*
X226739348Y-78642064D01*
X226867733Y-78770449D01*
X226934977Y-78871088D01*
X226968600Y-78921408D01*
X227038080Y-79089147D01*
X227073500Y-79267217D01*
X227073500Y-79448777D01*
X227038080Y-79626847D01*
X226968600Y-79794586D01*
X226968599Y-79794587D01*
X226867733Y-79945545D01*
X226739348Y-80073930D01*
X226638709Y-80141174D01*
X226588389Y-80174797D01*
X226469783Y-80223925D01*
X226420653Y-80244276D01*
X226420652Y-80244276D01*
X226420650Y-80244277D01*
X226242580Y-80279697D01*
X226061020Y-80279697D01*
X225882950Y-80244277D01*
X225882948Y-80244276D01*
X225882947Y-80244276D01*
X225833817Y-80223925D01*
X225715211Y-80174797D01*
X225664891Y-80141174D01*
X225564252Y-80073930D01*
X225435867Y-79945545D01*
X225335001Y-79794587D01*
X225335000Y-79794586D01*
X225265520Y-79626847D01*
X225230100Y-79448777D01*
X225230100Y-79267217D01*
X225265520Y-79089147D01*
X225335000Y-78921408D01*
X225368623Y-78871088D01*
X225435867Y-78770449D01*
X225564252Y-78642064D01*
X225715210Y-78541198D01*
X225715211Y-78541197D01*
X225833817Y-78492068D01*
X225882947Y-78471718D01*
X225882948Y-78471718D01*
X225882950Y-78471717D01*
X226061020Y-78436297D01*
X226242580Y-78436297D01*
X226420650Y-78471717D01*
X226420650Y-78471717D01*
G37*
G36*
X218820650Y-78471717D02*
G01*
X218820652Y-78471718D01*
X218820653Y-78471718D01*
X218869783Y-78492068D01*
X218988389Y-78541197D01*
X218988390Y-78541198D01*
X219139348Y-78642064D01*
X219267733Y-78770449D01*
X219334977Y-78871088D01*
X219368600Y-78921408D01*
X219438080Y-79089147D01*
X219473500Y-79267217D01*
X219473500Y-79448777D01*
X219438080Y-79626847D01*
X219368600Y-79794586D01*
X219368599Y-79794587D01*
X219267733Y-79945545D01*
X219139348Y-80073930D01*
X219038709Y-80141174D01*
X218988389Y-80174797D01*
X218869783Y-80223925D01*
X218820653Y-80244276D01*
X218820652Y-80244276D01*
X218820650Y-80244277D01*
X218642580Y-80279697D01*
X218461020Y-80279697D01*
X218282950Y-80244277D01*
X218282948Y-80244276D01*
X218282947Y-80244276D01*
X218233817Y-80223925D01*
X218115211Y-80174797D01*
X218064891Y-80141174D01*
X217964252Y-80073930D01*
X217835867Y-79945545D01*
X217735001Y-79794587D01*
X217735000Y-79794586D01*
X217665520Y-79626847D01*
X217630100Y-79448777D01*
X217630100Y-79267217D01*
X217665520Y-79089147D01*
X217735000Y-78921408D01*
X217768623Y-78871088D01*
X217835867Y-78770449D01*
X217964252Y-78642064D01*
X218115210Y-78541198D01*
X218115211Y-78541197D01*
X218233817Y-78492068D01*
X218282947Y-78471718D01*
X218282948Y-78471718D01*
X218282950Y-78471717D01*
X218461020Y-78436297D01*
X218642580Y-78436297D01*
X218820650Y-78471717D01*
X218820650Y-78471717D01*
G37*
G36*
X241420649Y-78471717D02*
G01*
X241420651Y-78471718D01*
X241420652Y-78471718D01*
X241469782Y-78492068D01*
X241588388Y-78541197D01*
X241588389Y-78541198D01*
X241739347Y-78642064D01*
X241867732Y-78770449D01*
X241934976Y-78871088D01*
X241968599Y-78921408D01*
X242038079Y-79089147D01*
X242073499Y-79267217D01*
X242073499Y-79448777D01*
X242038079Y-79626847D01*
X241968599Y-79794586D01*
X241968598Y-79794587D01*
X241867732Y-79945545D01*
X241739347Y-80073930D01*
X241638708Y-80141174D01*
X241588388Y-80174797D01*
X241469782Y-80223925D01*
X241420652Y-80244276D01*
X241420651Y-80244276D01*
X241420649Y-80244277D01*
X241242579Y-80279697D01*
X241061019Y-80279697D01*
X240882949Y-80244277D01*
X240882947Y-80244276D01*
X240882946Y-80244276D01*
X240833816Y-80223925D01*
X240715210Y-80174797D01*
X240664890Y-80141174D01*
X240564251Y-80073930D01*
X240435866Y-79945545D01*
X240335000Y-79794587D01*
X240334999Y-79794586D01*
X240265519Y-79626847D01*
X240230099Y-79448777D01*
X240230099Y-79267217D01*
X240265519Y-79089147D01*
X240334999Y-78921408D01*
X240368622Y-78871088D01*
X240435866Y-78770449D01*
X240564251Y-78642064D01*
X240715209Y-78541198D01*
X240715210Y-78541197D01*
X240833816Y-78492068D01*
X240882946Y-78471718D01*
X240882947Y-78471718D01*
X240882949Y-78471717D01*
X241061019Y-78436297D01*
X241242579Y-78436297D01*
X241420649Y-78471717D01*
X241420649Y-78471717D01*
G37*
G36*
X233820649Y-78471717D02*
G01*
X233820651Y-78471718D01*
X233820652Y-78471718D01*
X233869782Y-78492068D01*
X233988388Y-78541197D01*
X233988389Y-78541198D01*
X234139347Y-78642064D01*
X234267732Y-78770449D01*
X234334976Y-78871088D01*
X234368599Y-78921408D01*
X234438079Y-79089147D01*
X234473499Y-79267217D01*
X234473499Y-79448777D01*
X234438079Y-79626847D01*
X234368599Y-79794586D01*
X234368598Y-79794587D01*
X234267732Y-79945545D01*
X234139347Y-80073930D01*
X234038708Y-80141174D01*
X233988388Y-80174797D01*
X233869782Y-80223925D01*
X233820652Y-80244276D01*
X233820651Y-80244276D01*
X233820649Y-80244277D01*
X233642579Y-80279697D01*
X233461019Y-80279697D01*
X233282949Y-80244277D01*
X233282947Y-80244276D01*
X233282946Y-80244276D01*
X233233816Y-80223925D01*
X233115210Y-80174797D01*
X233064890Y-80141174D01*
X232964251Y-80073930D01*
X232835866Y-79945545D01*
X232735000Y-79794587D01*
X232734999Y-79794586D01*
X232665519Y-79626847D01*
X232630099Y-79448777D01*
X232630099Y-79267217D01*
X232665519Y-79089147D01*
X232734999Y-78921408D01*
X232768622Y-78871088D01*
X232835866Y-78770449D01*
X232964251Y-78642064D01*
X233115209Y-78541198D01*
X233115210Y-78541197D01*
X233233816Y-78492068D01*
X233282946Y-78471718D01*
X233282947Y-78471718D01*
X233282949Y-78471717D01*
X233461019Y-78436297D01*
X233642579Y-78436297D01*
X233820649Y-78471717D01*
X233820649Y-78471717D01*
G37*
G36*
X180314980Y-73826817D02*
G01*
X180415703Y-73846852D01*
X180497773Y-73880847D01*
X180558016Y-73905800D01*
X180558017Y-73905801D01*
X180686095Y-73991379D01*
X180795021Y-74100305D01*
X180849331Y-74181587D01*
X180880600Y-74228384D01*
X180889320Y-74249436D01*
X180939548Y-74370697D01*
X180969600Y-74521781D01*
X180969600Y-74675819D01*
X180939548Y-74826903D01*
X180905017Y-74910268D01*
X180880600Y-74969216D01*
X180880599Y-74969217D01*
X180795021Y-75097295D01*
X180686095Y-75206221D01*
X180583563Y-75274730D01*
X180558016Y-75291800D01*
X180499068Y-75316217D01*
X180415703Y-75350748D01*
X180314980Y-75370783D01*
X180264620Y-75380800D01*
X180110580Y-75380800D01*
X180060220Y-75370783D01*
X179959497Y-75350748D01*
X179876132Y-75316217D01*
X179817184Y-75291800D01*
X179791637Y-75274730D01*
X179689105Y-75206221D01*
X179580179Y-75097295D01*
X179494601Y-74969217D01*
X179494600Y-74969216D01*
X179470183Y-74910268D01*
X179435652Y-74826903D01*
X179405600Y-74675819D01*
X179405600Y-74521781D01*
X179435652Y-74370697D01*
X179485880Y-74249436D01*
X179494600Y-74228384D01*
X179525869Y-74181587D01*
X179580179Y-74100305D01*
X179689105Y-73991379D01*
X179817183Y-73905801D01*
X179817184Y-73905800D01*
X179877427Y-73880847D01*
X179959497Y-73846852D01*
X180060220Y-73826817D01*
X180110580Y-73816800D01*
X180264620Y-73816800D01*
X180314980Y-73826817D01*
X180314980Y-73826817D01*
G37*
G36*
X205920847Y-73103826D02*
G01*
X205920849Y-73103827D01*
X205920850Y-73103827D01*
X206033682Y-73150564D01*
X206135226Y-73218413D01*
X206221586Y-73304773D01*
X206289437Y-73406320D01*
X206336174Y-73519153D01*
X206360000Y-73638935D01*
X206360000Y-73761065D01*
X206348914Y-73816800D01*
X206336173Y-73880850D01*
X206289436Y-73993682D01*
X206221587Y-74095226D01*
X206135226Y-74181587D01*
X206033682Y-74249436D01*
X205920850Y-74296173D01*
X205920849Y-74296173D01*
X205920847Y-74296174D01*
X205801065Y-74320000D01*
X205678935Y-74320000D01*
X205559153Y-74296174D01*
X205559151Y-74296173D01*
X205559150Y-74296173D01*
X205446318Y-74249436D01*
X205344774Y-74181587D01*
X205258413Y-74095226D01*
X205190564Y-73993682D01*
X205143827Y-73880850D01*
X205131087Y-73816800D01*
X205120000Y-73761065D01*
X205120000Y-73638935D01*
X205143826Y-73519153D01*
X205190563Y-73406320D01*
X205258414Y-73304773D01*
X205344774Y-73218413D01*
X205446318Y-73150564D01*
X205559150Y-73103827D01*
X205559151Y-73103827D01*
X205559153Y-73103826D01*
X205678935Y-73080000D01*
X205801065Y-73080000D01*
X205920847Y-73103826D01*
X205920847Y-73103826D01*
G37*
G36*
X188580000Y-74320000D02*
G01*
X187340000Y-74320000D01*
X187340000Y-73080000D01*
X188580000Y-73080000D01*
X188580000Y-74320000D01*
X188580000Y-74320000D01*
G37*
G36*
X187719239Y-63293743D02*
G01*
X187719241Y-63293744D01*
X187719242Y-63293744D01*
X187741740Y-63303063D01*
X188305242Y-63536473D01*
X188379575Y-63586141D01*
X188832629Y-63888861D01*
X189281139Y-64337371D01*
X189542474Y-64728488D01*
X189633527Y-64864758D01*
X189876257Y-65450761D01*
X190000000Y-66072858D01*
X190000000Y-66707142D01*
X189892905Y-67245545D01*
X189876256Y-67329242D01*
X189815965Y-67474796D01*
X189633527Y-67915242D01*
X189633526Y-67915243D01*
X189281139Y-68442629D01*
X188832629Y-68891139D01*
X188495748Y-69116235D01*
X188305242Y-69243527D01*
X187890877Y-69415163D01*
X187719242Y-69486256D01*
X187719241Y-69486256D01*
X187719239Y-69486257D01*
X187097142Y-69610000D01*
X186462858Y-69610000D01*
X185840761Y-69486257D01*
X185840759Y-69486256D01*
X185840758Y-69486256D01*
X185669123Y-69415163D01*
X185254758Y-69243527D01*
X185064252Y-69116235D01*
X184727371Y-68891139D01*
X184278861Y-68442629D01*
X183926474Y-67915243D01*
X183926473Y-67915242D01*
X183744035Y-67474796D01*
X183683744Y-67329242D01*
X183667096Y-67245545D01*
X183560000Y-66707142D01*
X183560000Y-66072858D01*
X183683743Y-65450761D01*
X183926473Y-64864758D01*
X184017526Y-64728488D01*
X184278861Y-64337371D01*
X184727371Y-63888861D01*
X185180425Y-63586141D01*
X185254758Y-63536473D01*
X185818260Y-63303063D01*
X185840758Y-63293744D01*
X185840759Y-63293744D01*
X185840761Y-63293743D01*
X186462858Y-63170000D01*
X187097142Y-63170000D01*
X187719239Y-63293743D01*
X187719239Y-63293743D01*
G37*
G36*
X268219238Y-63293743D02*
G01*
X268219240Y-63293744D01*
X268219241Y-63293744D01*
X268241739Y-63303063D01*
X268805241Y-63536473D01*
X268879574Y-63586141D01*
X269332628Y-63888861D01*
X269781138Y-64337371D01*
X270042473Y-64728488D01*
X270133526Y-64864758D01*
X270376256Y-65450761D01*
X270499999Y-66072858D01*
X270499999Y-66707142D01*
X270392904Y-67245545D01*
X270376255Y-67329242D01*
X270315964Y-67474796D01*
X270133526Y-67915242D01*
X270133525Y-67915243D01*
X269781138Y-68442629D01*
X269332628Y-68891139D01*
X268995747Y-69116235D01*
X268805241Y-69243527D01*
X268390876Y-69415163D01*
X268219241Y-69486256D01*
X268219240Y-69486256D01*
X268219238Y-69486257D01*
X267597141Y-69610000D01*
X266962857Y-69610000D01*
X266340760Y-69486257D01*
X266340758Y-69486256D01*
X266340757Y-69486256D01*
X266169122Y-69415163D01*
X265754757Y-69243527D01*
X265564251Y-69116235D01*
X265227370Y-68891139D01*
X264778860Y-68442629D01*
X264426473Y-67915243D01*
X264426472Y-67915242D01*
X264244034Y-67474796D01*
X264183743Y-67329242D01*
X264167095Y-67245545D01*
X264059999Y-66707142D01*
X264059999Y-66072858D01*
X264183742Y-65450761D01*
X264426472Y-64864758D01*
X264517525Y-64728488D01*
X264778860Y-64337371D01*
X265227370Y-63888861D01*
X265680424Y-63586141D01*
X265754757Y-63536473D01*
X266318259Y-63303063D01*
X266340757Y-63293744D01*
X266340758Y-63293744D01*
X266340760Y-63293743D01*
X266962857Y-63170000D01*
X267597141Y-63170000D01*
X268219238Y-63293743D01*
X268219238Y-63293743D01*
G37*
G36*
X226420650Y-65771717D02*
G01*
X226420652Y-65771718D01*
X226420653Y-65771718D01*
X226469783Y-65792068D01*
X226588389Y-65841197D01*
X226588390Y-65841198D01*
X226739348Y-65942064D01*
X226867733Y-66070449D01*
X226934977Y-66171088D01*
X226968600Y-66221408D01*
X227038080Y-66389147D01*
X227073500Y-66567217D01*
X227073500Y-66748777D01*
X227038080Y-66926847D01*
X226968600Y-67094586D01*
X226968599Y-67094587D01*
X226867733Y-67245545D01*
X226739348Y-67373930D01*
X226638709Y-67441174D01*
X226588389Y-67474797D01*
X226469783Y-67523926D01*
X226420653Y-67544276D01*
X226420652Y-67544276D01*
X226420650Y-67544277D01*
X226242580Y-67579697D01*
X226061020Y-67579697D01*
X225882950Y-67544277D01*
X225882948Y-67544276D01*
X225882947Y-67544276D01*
X225833817Y-67523926D01*
X225715211Y-67474797D01*
X225664891Y-67441174D01*
X225564252Y-67373930D01*
X225435867Y-67245545D01*
X225335001Y-67094587D01*
X225335000Y-67094586D01*
X225265520Y-66926847D01*
X225230100Y-66748777D01*
X225230100Y-66567217D01*
X225265520Y-66389147D01*
X225335000Y-66221408D01*
X225368623Y-66171088D01*
X225435867Y-66070449D01*
X225564252Y-65942064D01*
X225715210Y-65841198D01*
X225715211Y-65841197D01*
X225833817Y-65792068D01*
X225882947Y-65771718D01*
X225882948Y-65771718D01*
X225882950Y-65771717D01*
X226061020Y-65736297D01*
X226242580Y-65736297D01*
X226420650Y-65771717D01*
X226420650Y-65771717D01*
G37*
G36*
X256420649Y-65771717D02*
G01*
X256420651Y-65771718D01*
X256420652Y-65771718D01*
X256469782Y-65792068D01*
X256588388Y-65841197D01*
X256588389Y-65841198D01*
X256739347Y-65942064D01*
X256867732Y-66070449D01*
X256934976Y-66171088D01*
X256968599Y-66221408D01*
X257038079Y-66389147D01*
X257073499Y-66567217D01*
X257073499Y-66748777D01*
X257038079Y-66926847D01*
X256968599Y-67094586D01*
X256968598Y-67094587D01*
X256867732Y-67245545D01*
X256739347Y-67373930D01*
X256638708Y-67441174D01*
X256588388Y-67474797D01*
X256469782Y-67523926D01*
X256420652Y-67544276D01*
X256420651Y-67544276D01*
X256420649Y-67544277D01*
X256242579Y-67579697D01*
X256061019Y-67579697D01*
X255882949Y-67544277D01*
X255882947Y-67544276D01*
X255882946Y-67544276D01*
X255833816Y-67523926D01*
X255715210Y-67474797D01*
X255664890Y-67441174D01*
X255564251Y-67373930D01*
X255435866Y-67245545D01*
X255335000Y-67094587D01*
X255334999Y-67094586D01*
X255265519Y-66926847D01*
X255230099Y-66748777D01*
X255230099Y-66567217D01*
X255265519Y-66389147D01*
X255334999Y-66221408D01*
X255368622Y-66171088D01*
X255435866Y-66070449D01*
X255564251Y-65942064D01*
X255715209Y-65841198D01*
X255715210Y-65841197D01*
X255833816Y-65792068D01*
X255882946Y-65771718D01*
X255882947Y-65771718D01*
X255882949Y-65771717D01*
X256061019Y-65736297D01*
X256242579Y-65736297D01*
X256420649Y-65771717D01*
X256420649Y-65771717D01*
G37*
G36*
X241420649Y-65771717D02*
G01*
X241420651Y-65771718D01*
X241420652Y-65771718D01*
X241469782Y-65792068D01*
X241588388Y-65841197D01*
X241588389Y-65841198D01*
X241739347Y-65942064D01*
X241867732Y-66070449D01*
X241934976Y-66171088D01*
X241968599Y-66221408D01*
X242038079Y-66389147D01*
X242073499Y-66567217D01*
X242073499Y-66748777D01*
X242038079Y-66926847D01*
X241968599Y-67094586D01*
X241968598Y-67094587D01*
X241867732Y-67245545D01*
X241739347Y-67373930D01*
X241638708Y-67441174D01*
X241588388Y-67474797D01*
X241469782Y-67523926D01*
X241420652Y-67544276D01*
X241420651Y-67544276D01*
X241420649Y-67544277D01*
X241242579Y-67579697D01*
X241061019Y-67579697D01*
X240882949Y-67544277D01*
X240882947Y-67544276D01*
X240882946Y-67544276D01*
X240833816Y-67523926D01*
X240715210Y-67474797D01*
X240664890Y-67441174D01*
X240564251Y-67373930D01*
X240435866Y-67245545D01*
X240335000Y-67094587D01*
X240334999Y-67094586D01*
X240265519Y-66926847D01*
X240230099Y-66748777D01*
X240230099Y-66567217D01*
X240265519Y-66389147D01*
X240334999Y-66221408D01*
X240368622Y-66171088D01*
X240435866Y-66070449D01*
X240564251Y-65942064D01*
X240715209Y-65841198D01*
X240715210Y-65841197D01*
X240833816Y-65792068D01*
X240882946Y-65771718D01*
X240882947Y-65771718D01*
X240882949Y-65771717D01*
X241061019Y-65736297D01*
X241242579Y-65736297D01*
X241420649Y-65771717D01*
X241420649Y-65771717D01*
G37*
G36*
X199549974Y-65235756D02*
G01*
X199629185Y-65251512D01*
X199778416Y-65313325D01*
X199912720Y-65403064D01*
X200026936Y-65517280D01*
X200116675Y-65651584D01*
X200178488Y-65800815D01*
X200194244Y-65880026D01*
X200206585Y-65942066D01*
X200210000Y-65959237D01*
X200210000Y-66120763D01*
X200178488Y-66279185D01*
X200116675Y-66428416D01*
X200026936Y-66562720D01*
X199912720Y-66676936D01*
X199778416Y-66766675D01*
X199629185Y-66828488D01*
X199549974Y-66844244D01*
X199470765Y-66860000D01*
X199309235Y-66860000D01*
X199230026Y-66844244D01*
X199150815Y-66828488D01*
X199001584Y-66766675D01*
X198867280Y-66676936D01*
X198753064Y-66562720D01*
X198663325Y-66428416D01*
X198601512Y-66279185D01*
X198570000Y-66120763D01*
X198570000Y-65959237D01*
X198573416Y-65942066D01*
X198585756Y-65880026D01*
X198601512Y-65800815D01*
X198663325Y-65651584D01*
X198753064Y-65517280D01*
X198867280Y-65403064D01*
X199001584Y-65313325D01*
X199150815Y-65251512D01*
X199230026Y-65235756D01*
X199309235Y-65220000D01*
X199470765Y-65220000D01*
X199549974Y-65235756D01*
X199549974Y-65235756D01*
G37*
G36*
X218820650Y-63231717D02*
G01*
X218820652Y-63231718D01*
X218820653Y-63231718D01*
X218869783Y-63252068D01*
X218988389Y-63301197D01*
X218991183Y-63303064D01*
X219139348Y-63402064D01*
X219267733Y-63530449D01*
X219304945Y-63586141D01*
X219368600Y-63681408D01*
X219438080Y-63849147D01*
X219473500Y-64027217D01*
X219473500Y-64208777D01*
X219442086Y-64366709D01*
X219438079Y-64386850D01*
X219417728Y-64435980D01*
X219368600Y-64554586D01*
X219334977Y-64604906D01*
X219267733Y-64705545D01*
X219139348Y-64833930D01*
X219093210Y-64864758D01*
X218988389Y-64934797D01*
X218869783Y-64983926D01*
X218820653Y-65004276D01*
X218820652Y-65004276D01*
X218820650Y-65004277D01*
X218642580Y-65039697D01*
X218461020Y-65039697D01*
X218282950Y-65004277D01*
X218282948Y-65004276D01*
X218282947Y-65004276D01*
X218233817Y-64983926D01*
X218115211Y-64934797D01*
X218010390Y-64864758D01*
X217964252Y-64833930D01*
X217835867Y-64705545D01*
X217768623Y-64604906D01*
X217735000Y-64554586D01*
X217685872Y-64435980D01*
X217665521Y-64386850D01*
X217661515Y-64366709D01*
X217630100Y-64208777D01*
X217630100Y-64027217D01*
X217665520Y-63849147D01*
X217735000Y-63681408D01*
X217798655Y-63586141D01*
X217835867Y-63530449D01*
X217964252Y-63402064D01*
X218112417Y-63303064D01*
X218115211Y-63301197D01*
X218233817Y-63252068D01*
X218282947Y-63231718D01*
X218282948Y-63231718D01*
X218282950Y-63231717D01*
X218461020Y-63196297D01*
X218642580Y-63196297D01*
X218820650Y-63231717D01*
X218820650Y-63231717D01*
G37*
G36*
X248820649Y-63231717D02*
G01*
X248820651Y-63231718D01*
X248820652Y-63231718D01*
X248869782Y-63252068D01*
X248988388Y-63301197D01*
X248991182Y-63303064D01*
X249139347Y-63402064D01*
X249267732Y-63530449D01*
X249304944Y-63586141D01*
X249368599Y-63681408D01*
X249438079Y-63849147D01*
X249473499Y-64027217D01*
X249473499Y-64208777D01*
X249442085Y-64366709D01*
X249438078Y-64386850D01*
X249417727Y-64435980D01*
X249368599Y-64554586D01*
X249334976Y-64604906D01*
X249267732Y-64705545D01*
X249139347Y-64833930D01*
X249093209Y-64864758D01*
X248988388Y-64934797D01*
X248869782Y-64983926D01*
X248820652Y-65004276D01*
X248820651Y-65004276D01*
X248820649Y-65004277D01*
X248642579Y-65039697D01*
X248461019Y-65039697D01*
X248282949Y-65004277D01*
X248282947Y-65004276D01*
X248282946Y-65004276D01*
X248233816Y-64983926D01*
X248115210Y-64934797D01*
X248010389Y-64864758D01*
X247964251Y-64833930D01*
X247835866Y-64705545D01*
X247768622Y-64604906D01*
X247734999Y-64554586D01*
X247685871Y-64435980D01*
X247665520Y-64386850D01*
X247661514Y-64366709D01*
X247630099Y-64208777D01*
X247630099Y-64027217D01*
X247665519Y-63849147D01*
X247734999Y-63681408D01*
X247798654Y-63586141D01*
X247835866Y-63530449D01*
X247964251Y-63402064D01*
X248112416Y-63303064D01*
X248115210Y-63301197D01*
X248233816Y-63252068D01*
X248282946Y-63231718D01*
X248282947Y-63231718D01*
X248282949Y-63231717D01*
X248461019Y-63196297D01*
X248642579Y-63196297D01*
X248820649Y-63231717D01*
X248820649Y-63231717D01*
G37*
G36*
X233820649Y-63231717D02*
G01*
X233820651Y-63231718D01*
X233820652Y-63231718D01*
X233869782Y-63252068D01*
X233988388Y-63301197D01*
X233991182Y-63303064D01*
X234139347Y-63402064D01*
X234267732Y-63530449D01*
X234304944Y-63586141D01*
X234368599Y-63681408D01*
X234438079Y-63849147D01*
X234473499Y-64027217D01*
X234473499Y-64208777D01*
X234442085Y-64366709D01*
X234438078Y-64386850D01*
X234417727Y-64435980D01*
X234368599Y-64554586D01*
X234334976Y-64604906D01*
X234267732Y-64705545D01*
X234139347Y-64833930D01*
X234093209Y-64864758D01*
X233988388Y-64934797D01*
X233869782Y-64983926D01*
X233820652Y-65004276D01*
X233820651Y-65004276D01*
X233820649Y-65004277D01*
X233642579Y-65039697D01*
X233461019Y-65039697D01*
X233282949Y-65004277D01*
X233282947Y-65004276D01*
X233282946Y-65004276D01*
X233233816Y-64983926D01*
X233115210Y-64934797D01*
X233010389Y-64864758D01*
X232964251Y-64833930D01*
X232835866Y-64705545D01*
X232768622Y-64604906D01*
X232734999Y-64554586D01*
X232685871Y-64435980D01*
X232665520Y-64386850D01*
X232661514Y-64366709D01*
X232630099Y-64208777D01*
X232630099Y-64027217D01*
X232665519Y-63849147D01*
X232734999Y-63681408D01*
X232798654Y-63586141D01*
X232835866Y-63530449D01*
X232964251Y-63402064D01*
X233112416Y-63303064D01*
X233115210Y-63301197D01*
X233233816Y-63252068D01*
X233282946Y-63231718D01*
X233282947Y-63231718D01*
X233282949Y-63231717D01*
X233461019Y-63196297D01*
X233642579Y-63196297D01*
X233820649Y-63231717D01*
X233820649Y-63231717D01*
G37*
G36*
X194549974Y-63135756D02*
G01*
X194629185Y-63151512D01*
X194778416Y-63213325D01*
X194912720Y-63303064D01*
X195026936Y-63417280D01*
X195116675Y-63551584D01*
X195178488Y-63700815D01*
X195178488Y-63700817D01*
X195210000Y-63859235D01*
X195210000Y-64020765D01*
X195208716Y-64027219D01*
X195178488Y-64179185D01*
X195116675Y-64328416D01*
X195026936Y-64462720D01*
X194912720Y-64576936D01*
X194778416Y-64666675D01*
X194629185Y-64728488D01*
X194549974Y-64744244D01*
X194470765Y-64760000D01*
X194309235Y-64760000D01*
X194230026Y-64744244D01*
X194150815Y-64728488D01*
X194001584Y-64666675D01*
X193867280Y-64576936D01*
X193753064Y-64462720D01*
X193663325Y-64328416D01*
X193601512Y-64179185D01*
X193571284Y-64027219D01*
X193570000Y-64020765D01*
X193570000Y-63859235D01*
X193601512Y-63700817D01*
X193601512Y-63700815D01*
X193663325Y-63551584D01*
X193753064Y-63417280D01*
X193867280Y-63303064D01*
X194001584Y-63213325D01*
X194150815Y-63151512D01*
X194230026Y-63135756D01*
X194309235Y-63120000D01*
X194470765Y-63120000D01*
X194549974Y-63135756D01*
X194549974Y-63135756D01*
G37*
G36*
X180314980Y-57826817D02*
G01*
X180415703Y-57846852D01*
X180499068Y-57881383D01*
X180558016Y-57905800D01*
X180558017Y-57905801D01*
X180686095Y-57991379D01*
X180795021Y-58100305D01*
X180863530Y-58202837D01*
X180880600Y-58228384D01*
X180905017Y-58287332D01*
X180939548Y-58370697D01*
X180969600Y-58521781D01*
X180969600Y-58675819D01*
X180939548Y-58826903D01*
X180905017Y-58910268D01*
X180880600Y-58969216D01*
X180880599Y-58969217D01*
X180795021Y-59097295D01*
X180686095Y-59206221D01*
X180583563Y-59274730D01*
X180558016Y-59291800D01*
X180499068Y-59316217D01*
X180415703Y-59350748D01*
X180314980Y-59370783D01*
X180264620Y-59380800D01*
X180110580Y-59380800D01*
X180060220Y-59370783D01*
X179959497Y-59350748D01*
X179876132Y-59316217D01*
X179817184Y-59291800D01*
X179791637Y-59274730D01*
X179689105Y-59206221D01*
X179580179Y-59097295D01*
X179494601Y-58969217D01*
X179494600Y-58969216D01*
X179470183Y-58910268D01*
X179435652Y-58826903D01*
X179405600Y-58675819D01*
X179405600Y-58521781D01*
X179435652Y-58370697D01*
X179470183Y-58287332D01*
X179494600Y-58228384D01*
X179511670Y-58202837D01*
X179580179Y-58100305D01*
X179689105Y-57991379D01*
X179817183Y-57905801D01*
X179817184Y-57905800D01*
X179876132Y-57881383D01*
X179959497Y-57846852D01*
X180060220Y-57826817D01*
X180110580Y-57816800D01*
X180264620Y-57816800D01*
X180314980Y-57826817D01*
X180314980Y-57826817D01*
G37*
G36*
X265949999Y-54660000D02*
G01*
X263309999Y-54660000D01*
X263309999Y-52020000D01*
X265949999Y-52020000D01*
X265949999Y-54660000D01*
X265949999Y-54660000D01*
G37*
G36*
X190950000Y-54660000D02*
G01*
X188310000Y-54660000D01*
X188310000Y-52020000D01*
X190950000Y-52020000D01*
X190950000Y-54660000D01*
X190950000Y-54660000D01*
G37*
G36*
X195015030Y-52070727D02*
G01*
X195255255Y-52170231D01*
X195471451Y-52314689D01*
X195655311Y-52498549D01*
X195799769Y-52714745D01*
X195899273Y-52954970D01*
X195950000Y-53209991D01*
X195950000Y-53470009D01*
X195899273Y-53725030D01*
X195799769Y-53965255D01*
X195655311Y-54181451D01*
X195471451Y-54365311D01*
X195255255Y-54509769D01*
X195015030Y-54609273D01*
X194760009Y-54660000D01*
X194499991Y-54660000D01*
X194244970Y-54609273D01*
X194004745Y-54509769D01*
X193788549Y-54365311D01*
X193604689Y-54181451D01*
X193460231Y-53965255D01*
X193360727Y-53725030D01*
X193310000Y-53470009D01*
X193310000Y-53209991D01*
X193360727Y-52954970D01*
X193460231Y-52714745D01*
X193604689Y-52498549D01*
X193788549Y-52314689D01*
X194004745Y-52170231D01*
X194244970Y-52070727D01*
X194499991Y-52020000D01*
X194760009Y-52020000D01*
X195015030Y-52070727D01*
X195015030Y-52070727D01*
G37*
G36*
X200015030Y-52070727D02*
G01*
X200255255Y-52170231D01*
X200471451Y-52314689D01*
X200655311Y-52498549D01*
X200799769Y-52714745D01*
X200899273Y-52954970D01*
X200950000Y-53209991D01*
X200950000Y-53470009D01*
X200899273Y-53725030D01*
X200799769Y-53965255D01*
X200655311Y-54181451D01*
X200471451Y-54365311D01*
X200255255Y-54509769D01*
X200015030Y-54609273D01*
X199760009Y-54660000D01*
X199499991Y-54660000D01*
X199244970Y-54609273D01*
X199004745Y-54509769D01*
X198788549Y-54365311D01*
X198604689Y-54181451D01*
X198460231Y-53965255D01*
X198360727Y-53725030D01*
X198310000Y-53470009D01*
X198310000Y-53209991D01*
X198360727Y-52954970D01*
X198460231Y-52714745D01*
X198604689Y-52498549D01*
X198788549Y-52314689D01*
X199004745Y-52170231D01*
X199244970Y-52070727D01*
X199499991Y-52020000D01*
X199760009Y-52020000D01*
X200015030Y-52070727D01*
X200015030Y-52070727D01*
G37*
G36*
X230949999Y-54660000D02*
G01*
X228309999Y-54660000D01*
X228309999Y-52020000D01*
X230949999Y-52020000D01*
X230949999Y-54660000D01*
X230949999Y-54660000D01*
G37*
G36*
X235015029Y-52070727D02*
G01*
X235255254Y-52170231D01*
X235471450Y-52314689D01*
X235655310Y-52498549D01*
X235799768Y-52714745D01*
X235899272Y-52954970D01*
X235949999Y-53209991D01*
X235949999Y-53470009D01*
X235899272Y-53725030D01*
X235799768Y-53965255D01*
X235655310Y-54181451D01*
X235471450Y-54365311D01*
X235255254Y-54509769D01*
X235015029Y-54609273D01*
X234760008Y-54660000D01*
X234499990Y-54660000D01*
X234244969Y-54609273D01*
X234004744Y-54509769D01*
X233788548Y-54365311D01*
X233604688Y-54181451D01*
X233460230Y-53965255D01*
X233360726Y-53725030D01*
X233309999Y-53470009D01*
X233309999Y-53209991D01*
X233360726Y-52954970D01*
X233460230Y-52714745D01*
X233604688Y-52498549D01*
X233788548Y-52314689D01*
X234004744Y-52170231D01*
X234244969Y-52070727D01*
X234499990Y-52020000D01*
X234760008Y-52020000D01*
X235015029Y-52070727D01*
X235015029Y-52070727D01*
G37*
G36*
X240015029Y-52070727D02*
G01*
X240255254Y-52170231D01*
X240471450Y-52314689D01*
X240655310Y-52498549D01*
X240799768Y-52714745D01*
X240899272Y-52954970D01*
X240949999Y-53209991D01*
X240949999Y-53470009D01*
X240899272Y-53725030D01*
X240799768Y-53965255D01*
X240655310Y-54181451D01*
X240471450Y-54365311D01*
X240255254Y-54509769D01*
X240015029Y-54609273D01*
X239760008Y-54660000D01*
X239499990Y-54660000D01*
X239244969Y-54609273D01*
X239004744Y-54509769D01*
X238788548Y-54365311D01*
X238604688Y-54181451D01*
X238460230Y-53965255D01*
X238360726Y-53725030D01*
X238309999Y-53470009D01*
X238309999Y-53209991D01*
X238360726Y-52954970D01*
X238460230Y-52714745D01*
X238604688Y-52498549D01*
X238788548Y-52314689D01*
X239004744Y-52170231D01*
X239244969Y-52070727D01*
X239499990Y-52020000D01*
X239760008Y-52020000D01*
X240015029Y-52070727D01*
X240015029Y-52070727D01*
G37*
G36*
X245949999Y-54660000D02*
G01*
X243309999Y-54660000D01*
X243309999Y-52020000D01*
X245949999Y-52020000D01*
X245949999Y-54660000D01*
X245949999Y-54660000D01*
G37*
G36*
X250015029Y-52070727D02*
G01*
X250255254Y-52170231D01*
X250471450Y-52314689D01*
X250655310Y-52498549D01*
X250799768Y-52714745D01*
X250899272Y-52954970D01*
X250949999Y-53209991D01*
X250949999Y-53470009D01*
X250899272Y-53725030D01*
X250799768Y-53965255D01*
X250655310Y-54181451D01*
X250471450Y-54365311D01*
X250255254Y-54509769D01*
X250015029Y-54609273D01*
X249760008Y-54660000D01*
X249499990Y-54660000D01*
X249244969Y-54609273D01*
X249004744Y-54509769D01*
X248788548Y-54365311D01*
X248604688Y-54181451D01*
X248460230Y-53965255D01*
X248360726Y-53725030D01*
X248309999Y-53470009D01*
X248309999Y-53209991D01*
X248360726Y-52954970D01*
X248460230Y-52714745D01*
X248604688Y-52498549D01*
X248788548Y-52314689D01*
X249004744Y-52170231D01*
X249244969Y-52070727D01*
X249499990Y-52020000D01*
X249760008Y-52020000D01*
X250015029Y-52070727D01*
X250015029Y-52070727D01*
G37*
G36*
X255015029Y-52070727D02*
G01*
X255255254Y-52170231D01*
X255471450Y-52314689D01*
X255655310Y-52498549D01*
X255799768Y-52714745D01*
X255899272Y-52954970D01*
X255949999Y-53209991D01*
X255949999Y-53470009D01*
X255899272Y-53725030D01*
X255799768Y-53965255D01*
X255655310Y-54181451D01*
X255471450Y-54365311D01*
X255255254Y-54509769D01*
X255015029Y-54609273D01*
X254760008Y-54660000D01*
X254499990Y-54660000D01*
X254244969Y-54609273D01*
X254004744Y-54509769D01*
X253788548Y-54365311D01*
X253604688Y-54181451D01*
X253460230Y-53965255D01*
X253360726Y-53725030D01*
X253309999Y-53470009D01*
X253309999Y-53209991D01*
X253360726Y-52954970D01*
X253460230Y-52714745D01*
X253604688Y-52498549D01*
X253788548Y-52314689D01*
X254004744Y-52170231D01*
X254244969Y-52070727D01*
X254499990Y-52020000D01*
X254760008Y-52020000D01*
X255015029Y-52070727D01*
X255015029Y-52070727D01*
G37*
G36*
X215950000Y-54660000D02*
G01*
X213310000Y-54660000D01*
X213310000Y-52020000D01*
X215950000Y-52020000D01*
X215950000Y-54660000D01*
X215950000Y-54660000D01*
G37*
G36*
X220015030Y-52070727D02*
G01*
X220255255Y-52170231D01*
X220471451Y-52314689D01*
X220655311Y-52498549D01*
X220799769Y-52714745D01*
X220899273Y-52954970D01*
X220950000Y-53209991D01*
X220950000Y-53470009D01*
X220899273Y-53725030D01*
X220799769Y-53965255D01*
X220655311Y-54181451D01*
X220471451Y-54365311D01*
X220255255Y-54509769D01*
X220015030Y-54609273D01*
X219760009Y-54660000D01*
X219499991Y-54660000D01*
X219244970Y-54609273D01*
X219004745Y-54509769D01*
X218788549Y-54365311D01*
X218604689Y-54181451D01*
X218460231Y-53965255D01*
X218360727Y-53725030D01*
X218310000Y-53470009D01*
X218310000Y-53209991D01*
X218360727Y-52954970D01*
X218460231Y-52714745D01*
X218604689Y-52498549D01*
X218788549Y-52314689D01*
X219004745Y-52170231D01*
X219244970Y-52070727D01*
X219499991Y-52020000D01*
X219760009Y-52020000D01*
X220015030Y-52070727D01*
X220015030Y-52070727D01*
G37*
G36*
X225015030Y-52070727D02*
G01*
X225255255Y-52170231D01*
X225471451Y-52314689D01*
X225655311Y-52498549D01*
X225799769Y-52714745D01*
X225899273Y-52954970D01*
X225950000Y-53209991D01*
X225950000Y-53470009D01*
X225899273Y-53725030D01*
X225799769Y-53965255D01*
X225655311Y-54181451D01*
X225471451Y-54365311D01*
X225255255Y-54509769D01*
X225015030Y-54609273D01*
X224760009Y-54660000D01*
X224499991Y-54660000D01*
X224244970Y-54609273D01*
X224004745Y-54509769D01*
X223788549Y-54365311D01*
X223604689Y-54181451D01*
X223460231Y-53965255D01*
X223360727Y-53725030D01*
X223310000Y-53470009D01*
X223310000Y-53209991D01*
X223360727Y-52954970D01*
X223460231Y-52714745D01*
X223604689Y-52498549D01*
X223788549Y-52314689D01*
X224004745Y-52170231D01*
X224244970Y-52070727D01*
X224499991Y-52020000D01*
X224760009Y-52020000D01*
X225015030Y-52070727D01*
X225015030Y-52070727D01*
G37*
G36*
X270015029Y-52070727D02*
G01*
X270255254Y-52170231D01*
X270471450Y-52314689D01*
X270655310Y-52498549D01*
X270799768Y-52714745D01*
X270899272Y-52954970D01*
X270949999Y-53209991D01*
X270949999Y-53470009D01*
X270899272Y-53725030D01*
X270799768Y-53965255D01*
X270655310Y-54181451D01*
X270471450Y-54365311D01*
X270255254Y-54509769D01*
X270015029Y-54609273D01*
X269760008Y-54660000D01*
X269499990Y-54660000D01*
X269244969Y-54609273D01*
X269004744Y-54509769D01*
X268788548Y-54365311D01*
X268604688Y-54181451D01*
X268460230Y-53965255D01*
X268360726Y-53725030D01*
X268309999Y-53470009D01*
X268309999Y-53209991D01*
X268360726Y-52954970D01*
X268460230Y-52714745D01*
X268604688Y-52498549D01*
X268788548Y-52314689D01*
X269004744Y-52170231D01*
X269244969Y-52070727D01*
X269499990Y-52020000D01*
X269760008Y-52020000D01*
X270015029Y-52070727D01*
X270015029Y-52070727D01*
G37*
M02*
