G04 #@! TF.GenerationSoftware,KiCad,Pcbnew,(5.1.4)-1*
G04 #@! TF.CreationDate,2019-12-18T10:15:03+01:00*
G04 #@! TF.ProjectId,StudiokiController,53747564-696f-46b6-9943-6f6e74726f6c,rev?*
G04 #@! TF.SameCoordinates,Original*
G04 #@! TF.FileFunction,Legend,Top*
G04 #@! TF.FilePolarity,Positive*
%FSLAX46Y46*%
G04 Gerber Fmt 4.6, Leading zero omitted, Abs format (unit mm)*
G04 Created by KiCad (PCBNEW (5.1.4)-1) date 2019-12-18 10:15:03*
%MOMM*%
%LPD*%
G04 APERTURE LIST*
%ADD10C,0.150000*%
%ADD11C,0.300000*%
%ADD12C,0.400000*%
%ADD13C,0.120000*%
%ADD14C,0.127000*%
%ADD15C,0.200000*%
%ADD16C,0.254000*%
%ADD17C,0.152400*%
%ADD18C,0.050000*%
G04 APERTURE END LIST*
D10*
X263071600Y-130567180D02*
X263071600Y-131281466D01*
X263023980Y-131424323D01*
X262928742Y-131519561D01*
X262785885Y-131567180D01*
X262690647Y-131567180D01*
X263976361Y-131567180D02*
X263976361Y-131043371D01*
X263928742Y-130948133D01*
X263833504Y-130900514D01*
X263643028Y-130900514D01*
X263547790Y-130948133D01*
X263976361Y-131519561D02*
X263881123Y-131567180D01*
X263643028Y-131567180D01*
X263547790Y-131519561D01*
X263500171Y-131424323D01*
X263500171Y-131329085D01*
X263547790Y-131233847D01*
X263643028Y-131186228D01*
X263881123Y-131186228D01*
X263976361Y-131138609D01*
X264452552Y-130900514D02*
X264452552Y-131567180D01*
X264452552Y-130995752D02*
X264500171Y-130948133D01*
X264595409Y-130900514D01*
X264738266Y-130900514D01*
X264833504Y-130948133D01*
X264881123Y-131043371D01*
X264881123Y-131567180D01*
X265309695Y-130329085D02*
X265404933Y-130281466D01*
X265547790Y-130281466D01*
X265643028Y-130329085D01*
X265690647Y-130424323D01*
X265690647Y-130519561D01*
X265643028Y-130614800D01*
X265309695Y-130948133D01*
X265690647Y-130948133D01*
X267404933Y-131567180D02*
X266833504Y-131567180D01*
X267119219Y-131567180D02*
X267119219Y-130567180D01*
X267023980Y-130710038D01*
X266928742Y-130805276D01*
X266833504Y-130852895D01*
X267785885Y-130662419D02*
X267833504Y-130614800D01*
X267928742Y-130567180D01*
X268166838Y-130567180D01*
X268262076Y-130614800D01*
X268309695Y-130662419D01*
X268357314Y-130757657D01*
X268357314Y-130852895D01*
X268309695Y-130995752D01*
X267738266Y-131567180D01*
X268357314Y-131567180D01*
X268785885Y-131186228D02*
X269547790Y-131186228D01*
X269976361Y-130662419D02*
X270023980Y-130614800D01*
X270119219Y-130567180D01*
X270357314Y-130567180D01*
X270452552Y-130614800D01*
X270500171Y-130662419D01*
X270547790Y-130757657D01*
X270547790Y-130852895D01*
X270500171Y-130995752D01*
X269928742Y-131567180D01*
X270547790Y-131567180D01*
X271166838Y-130567180D02*
X271262076Y-130567180D01*
X271357314Y-130614800D01*
X271404933Y-130662419D01*
X271452552Y-130757657D01*
X271500171Y-130948133D01*
X271500171Y-131186228D01*
X271452552Y-131376704D01*
X271404933Y-131471942D01*
X271357314Y-131519561D01*
X271262076Y-131567180D01*
X271166838Y-131567180D01*
X271071600Y-131519561D01*
X271023980Y-131471942D01*
X270976361Y-131376704D01*
X270928742Y-131186228D01*
X270928742Y-130948133D01*
X270976361Y-130757657D01*
X271023980Y-130662419D01*
X271071600Y-130614800D01*
X271166838Y-130567180D01*
X272452552Y-131567180D02*
X271881123Y-131567180D01*
X272166838Y-131567180D02*
X272166838Y-130567180D01*
X272071600Y-130710038D01*
X271976361Y-130805276D01*
X271881123Y-130852895D01*
X272928742Y-131567180D02*
X273119219Y-131567180D01*
X273214457Y-131519561D01*
X273262076Y-131471942D01*
X273357314Y-131329085D01*
X273404933Y-131138609D01*
X273404933Y-130757657D01*
X273357314Y-130662419D01*
X273309695Y-130614800D01*
X273214457Y-130567180D01*
X273023980Y-130567180D01*
X272928742Y-130614800D01*
X272881123Y-130662419D01*
X272833504Y-130757657D01*
X272833504Y-130995752D01*
X272881123Y-131090990D01*
X272928742Y-131138609D01*
X273023980Y-131186228D01*
X273214457Y-131186228D01*
X273309695Y-131138609D01*
X273357314Y-131090990D01*
X273404933Y-130995752D01*
X262006533Y-129487561D02*
X262149390Y-129535180D01*
X262387485Y-129535180D01*
X262482723Y-129487561D01*
X262530342Y-129439942D01*
X262577961Y-129344704D01*
X262577961Y-129249466D01*
X262530342Y-129154228D01*
X262482723Y-129106609D01*
X262387485Y-129058990D01*
X262197009Y-129011371D01*
X262101771Y-128963752D01*
X262054152Y-128916133D01*
X262006533Y-128820895D01*
X262006533Y-128725657D01*
X262054152Y-128630419D01*
X262101771Y-128582800D01*
X262197009Y-128535180D01*
X262435104Y-128535180D01*
X262577961Y-128582800D01*
X262863676Y-128868514D02*
X263244628Y-128868514D01*
X263006533Y-128535180D02*
X263006533Y-129392323D01*
X263054152Y-129487561D01*
X263149390Y-129535180D01*
X263244628Y-129535180D01*
X264006533Y-128868514D02*
X264006533Y-129535180D01*
X263577961Y-128868514D02*
X263577961Y-129392323D01*
X263625580Y-129487561D01*
X263720819Y-129535180D01*
X263863676Y-129535180D01*
X263958914Y-129487561D01*
X264006533Y-129439942D01*
X264911295Y-129535180D02*
X264911295Y-128535180D01*
X264911295Y-129487561D02*
X264816057Y-129535180D01*
X264625580Y-129535180D01*
X264530342Y-129487561D01*
X264482723Y-129439942D01*
X264435104Y-129344704D01*
X264435104Y-129058990D01*
X264482723Y-128963752D01*
X264530342Y-128916133D01*
X264625580Y-128868514D01*
X264816057Y-128868514D01*
X264911295Y-128916133D01*
X265387485Y-129535180D02*
X265387485Y-128868514D01*
X265387485Y-128535180D02*
X265339866Y-128582800D01*
X265387485Y-128630419D01*
X265435104Y-128582800D01*
X265387485Y-128535180D01*
X265387485Y-128630419D01*
X266006533Y-129535180D02*
X265911295Y-129487561D01*
X265863676Y-129439942D01*
X265816057Y-129344704D01*
X265816057Y-129058990D01*
X265863676Y-128963752D01*
X265911295Y-128916133D01*
X266006533Y-128868514D01*
X266149390Y-128868514D01*
X266244628Y-128916133D01*
X266292247Y-128963752D01*
X266339866Y-129058990D01*
X266339866Y-129344704D01*
X266292247Y-129439942D01*
X266244628Y-129487561D01*
X266149390Y-129535180D01*
X266006533Y-129535180D01*
X266768438Y-129535180D02*
X266768438Y-128535180D01*
X266863676Y-129154228D02*
X267149390Y-129535180D01*
X267149390Y-128868514D02*
X266768438Y-129249466D01*
X267577961Y-129535180D02*
X267577961Y-128868514D01*
X267577961Y-128535180D02*
X267530342Y-128582800D01*
X267577961Y-128630419D01*
X267625580Y-128582800D01*
X267577961Y-128535180D01*
X267577961Y-128630419D01*
X269387485Y-129439942D02*
X269339866Y-129487561D01*
X269197009Y-129535180D01*
X269101771Y-129535180D01*
X268958914Y-129487561D01*
X268863676Y-129392323D01*
X268816057Y-129297085D01*
X268768438Y-129106609D01*
X268768438Y-128963752D01*
X268816057Y-128773276D01*
X268863676Y-128678038D01*
X268958914Y-128582800D01*
X269101771Y-128535180D01*
X269197009Y-128535180D01*
X269339866Y-128582800D01*
X269387485Y-128630419D01*
X269958914Y-129535180D02*
X269863676Y-129487561D01*
X269816057Y-129439942D01*
X269768438Y-129344704D01*
X269768438Y-129058990D01*
X269816057Y-128963752D01*
X269863676Y-128916133D01*
X269958914Y-128868514D01*
X270101771Y-128868514D01*
X270197009Y-128916133D01*
X270244628Y-128963752D01*
X270292247Y-129058990D01*
X270292247Y-129344704D01*
X270244628Y-129439942D01*
X270197009Y-129487561D01*
X270101771Y-129535180D01*
X269958914Y-129535180D01*
X270720819Y-128868514D02*
X270720819Y-129535180D01*
X270720819Y-128963752D02*
X270768438Y-128916133D01*
X270863676Y-128868514D01*
X271006533Y-128868514D01*
X271101771Y-128916133D01*
X271149390Y-129011371D01*
X271149390Y-129535180D01*
X271482723Y-128868514D02*
X271863676Y-128868514D01*
X271625580Y-128535180D02*
X271625580Y-129392323D01*
X271673200Y-129487561D01*
X271768438Y-129535180D01*
X271863676Y-129535180D01*
X272197009Y-129535180D02*
X272197009Y-128868514D01*
X272197009Y-129058990D02*
X272244628Y-128963752D01*
X272292247Y-128916133D01*
X272387485Y-128868514D01*
X272482723Y-128868514D01*
X272958914Y-129535180D02*
X272863676Y-129487561D01*
X272816057Y-129439942D01*
X272768438Y-129344704D01*
X272768438Y-129058990D01*
X272816057Y-128963752D01*
X272863676Y-128916133D01*
X272958914Y-128868514D01*
X273101771Y-128868514D01*
X273197009Y-128916133D01*
X273244628Y-128963752D01*
X273292247Y-129058990D01*
X273292247Y-129344704D01*
X273244628Y-129439942D01*
X273197009Y-129487561D01*
X273101771Y-129535180D01*
X272958914Y-129535180D01*
X273863676Y-129535180D02*
X273768438Y-129487561D01*
X273720819Y-129392323D01*
X273720819Y-128535180D01*
X274387485Y-129535180D02*
X274292247Y-129487561D01*
X274244628Y-129392323D01*
X274244628Y-128535180D01*
D11*
X198920171Y-60950361D02*
X198920171Y-58950361D01*
X200063028Y-60950361D01*
X200063028Y-58950361D01*
X195487847Y-61001161D02*
X194535466Y-61001161D01*
X194535466Y-59001161D01*
D12*
X188309428Y-60975361D02*
X188309428Y-58975361D01*
X189071333Y-58975361D01*
X189261809Y-59070600D01*
X189357047Y-59165838D01*
X189452285Y-59356314D01*
X189452285Y-59642028D01*
X189357047Y-59832504D01*
X189261809Y-59927742D01*
X189071333Y-60022980D01*
X188309428Y-60022980D01*
X190309428Y-59927742D02*
X190976095Y-59927742D01*
X191261809Y-60975361D02*
X190309428Y-60975361D01*
X190309428Y-58975361D01*
X191261809Y-58975361D01*
D10*
X209232666Y-90625561D02*
X209375523Y-90673180D01*
X209613619Y-90673180D01*
X209708857Y-90625561D01*
X209756476Y-90577942D01*
X209804095Y-90482704D01*
X209804095Y-90387466D01*
X209756476Y-90292228D01*
X209708857Y-90244609D01*
X209613619Y-90196990D01*
X209423142Y-90149371D01*
X209327904Y-90101752D01*
X209280285Y-90054133D01*
X209232666Y-89958895D01*
X209232666Y-89863657D01*
X209280285Y-89768419D01*
X209327904Y-89720800D01*
X209423142Y-89673180D01*
X209661238Y-89673180D01*
X209804095Y-89720800D01*
X210137428Y-89673180D02*
X210375523Y-90673180D01*
X210566000Y-89958895D01*
X210756476Y-90673180D01*
X210994571Y-89673180D01*
X211280285Y-89673180D02*
X211899333Y-89673180D01*
X211566000Y-90054133D01*
X211708857Y-90054133D01*
X211804095Y-90101752D01*
X211851714Y-90149371D01*
X211899333Y-90244609D01*
X211899333Y-90482704D01*
X211851714Y-90577942D01*
X211804095Y-90625561D01*
X211708857Y-90673180D01*
X211423142Y-90673180D01*
X211327904Y-90625561D01*
X211280285Y-90577942D01*
X209232666Y-93317961D02*
X209375523Y-93365580D01*
X209613619Y-93365580D01*
X209708857Y-93317961D01*
X209756476Y-93270342D01*
X209804095Y-93175104D01*
X209804095Y-93079866D01*
X209756476Y-92984628D01*
X209708857Y-92937009D01*
X209613619Y-92889390D01*
X209423142Y-92841771D01*
X209327904Y-92794152D01*
X209280285Y-92746533D01*
X209232666Y-92651295D01*
X209232666Y-92556057D01*
X209280285Y-92460819D01*
X209327904Y-92413200D01*
X209423142Y-92365580D01*
X209661238Y-92365580D01*
X209804095Y-92413200D01*
X210137428Y-92365580D02*
X210375523Y-93365580D01*
X210566000Y-92651295D01*
X210756476Y-93365580D01*
X210994571Y-92365580D01*
X211327904Y-92460819D02*
X211375523Y-92413200D01*
X211470761Y-92365580D01*
X211708857Y-92365580D01*
X211804095Y-92413200D01*
X211851714Y-92460819D01*
X211899333Y-92556057D01*
X211899333Y-92651295D01*
X211851714Y-92794152D01*
X211280285Y-93365580D01*
X211899333Y-93365580D01*
X209402514Y-95807161D02*
X209545371Y-95854780D01*
X209783466Y-95854780D01*
X209878704Y-95807161D01*
X209926323Y-95759542D01*
X209973942Y-95664304D01*
X209973942Y-95569066D01*
X209926323Y-95473828D01*
X209878704Y-95426209D01*
X209783466Y-95378590D01*
X209592990Y-95330971D01*
X209497752Y-95283352D01*
X209450133Y-95235733D01*
X209402514Y-95140495D01*
X209402514Y-95045257D01*
X209450133Y-94950019D01*
X209497752Y-94902400D01*
X209592990Y-94854780D01*
X209831085Y-94854780D01*
X209973942Y-94902400D01*
X210402514Y-95854780D02*
X210402514Y-94854780D01*
X210640609Y-94854780D01*
X210783466Y-94902400D01*
X210878704Y-94997638D01*
X210926323Y-95092876D01*
X210973942Y-95283352D01*
X210973942Y-95426209D01*
X210926323Y-95616685D01*
X210878704Y-95711923D01*
X210783466Y-95807161D01*
X210640609Y-95854780D01*
X210402514Y-95854780D01*
X211354895Y-95569066D02*
X211831085Y-95569066D01*
X211259657Y-95854780D02*
X211592990Y-94854780D01*
X211926323Y-95854780D01*
X209870800Y-98445580D02*
X209870800Y-97445580D01*
X210537466Y-97445580D02*
X210727942Y-97445580D01*
X210823180Y-97493200D01*
X210918419Y-97588438D01*
X210966038Y-97778914D01*
X210966038Y-98112247D01*
X210918419Y-98302723D01*
X210823180Y-98397961D01*
X210727942Y-98445580D01*
X210537466Y-98445580D01*
X210442228Y-98397961D01*
X210346990Y-98302723D01*
X210299371Y-98112247D01*
X210299371Y-97778914D01*
X210346990Y-97588438D01*
X210442228Y-97493200D01*
X210537466Y-97445580D01*
X211346990Y-97540819D02*
X211394609Y-97493200D01*
X211489847Y-97445580D01*
X211727942Y-97445580D01*
X211823180Y-97493200D01*
X211870800Y-97540819D01*
X211918419Y-97636057D01*
X211918419Y-97731295D01*
X211870800Y-97874152D01*
X211299371Y-98445580D01*
X211918419Y-98445580D01*
X210132704Y-100614171D02*
X210466038Y-100614171D01*
X210608895Y-101137980D02*
X210132704Y-101137980D01*
X210132704Y-100137980D01*
X210608895Y-100137980D01*
X211037466Y-101137980D02*
X211037466Y-100137980D01*
X211608895Y-101137980D01*
X211608895Y-100137980D01*
X222300895Y-89771600D02*
X222205657Y-89723980D01*
X222062800Y-89723980D01*
X221919942Y-89771600D01*
X221824704Y-89866838D01*
X221777085Y-89962076D01*
X221729466Y-90152552D01*
X221729466Y-90295409D01*
X221777085Y-90485885D01*
X221824704Y-90581123D01*
X221919942Y-90676361D01*
X222062800Y-90723980D01*
X222158038Y-90723980D01*
X222300895Y-90676361D01*
X222348514Y-90628742D01*
X222348514Y-90295409D01*
X222158038Y-90295409D01*
X222777085Y-90723980D02*
X222777085Y-89723980D01*
X223348514Y-90723980D01*
X223348514Y-89723980D01*
X223824704Y-90723980D02*
X223824704Y-89723980D01*
X224062800Y-89723980D01*
X224205657Y-89771600D01*
X224300895Y-89866838D01*
X224348514Y-89962076D01*
X224396133Y-90152552D01*
X224396133Y-90295409D01*
X224348514Y-90485885D01*
X224300895Y-90581123D01*
X224205657Y-90676361D01*
X224062800Y-90723980D01*
X223824704Y-90723980D01*
X221831066Y-93114761D02*
X221973923Y-93162380D01*
X222212019Y-93162380D01*
X222307257Y-93114761D01*
X222354876Y-93067142D01*
X222402495Y-92971904D01*
X222402495Y-92876666D01*
X222354876Y-92781428D01*
X222307257Y-92733809D01*
X222212019Y-92686190D01*
X222021542Y-92638571D01*
X221926304Y-92590952D01*
X221878685Y-92543333D01*
X221831066Y-92448095D01*
X221831066Y-92352857D01*
X221878685Y-92257619D01*
X221926304Y-92210000D01*
X222021542Y-92162380D01*
X222259638Y-92162380D01*
X222402495Y-92210000D01*
X222735828Y-92162380D02*
X222973923Y-93162380D01*
X223164400Y-92448095D01*
X223354876Y-93162380D01*
X223592971Y-92162380D01*
X224497733Y-93162380D02*
X223926304Y-93162380D01*
X224212019Y-93162380D02*
X224212019Y-92162380D01*
X224116780Y-92305238D01*
X224021542Y-92400476D01*
X223926304Y-92448095D01*
X221905580Y-102279295D02*
X221905580Y-101660247D01*
X222286533Y-101993580D01*
X222286533Y-101850723D01*
X222334152Y-101755485D01*
X222381771Y-101707866D01*
X222477009Y-101660247D01*
X222715104Y-101660247D01*
X222810342Y-101707866D01*
X222857961Y-101755485D01*
X222905580Y-101850723D01*
X222905580Y-102136438D01*
X222857961Y-102231676D01*
X222810342Y-102279295D01*
X221905580Y-101374533D02*
X222905580Y-101041200D01*
X221905580Y-100707866D01*
X221905580Y-100469771D02*
X221905580Y-99850723D01*
X222286533Y-100184057D01*
X222286533Y-100041200D01*
X222334152Y-99945961D01*
X222381771Y-99898342D01*
X222477009Y-99850723D01*
X222715104Y-99850723D01*
X222810342Y-99898342D01*
X222857961Y-99945961D01*
X222905580Y-100041200D01*
X222905580Y-100326914D01*
X222857961Y-100422152D01*
X222810342Y-100469771D01*
X222803980Y-99044000D02*
X221803980Y-99044000D01*
X221803980Y-98377333D02*
X221803980Y-98186857D01*
X221851600Y-98091619D01*
X221946838Y-97996380D01*
X222137314Y-97948761D01*
X222470647Y-97948761D01*
X222661123Y-97996380D01*
X222756361Y-98091619D01*
X222803980Y-98186857D01*
X222803980Y-98377333D01*
X222756361Y-98472571D01*
X222661123Y-98567809D01*
X222470647Y-98615428D01*
X222137314Y-98615428D01*
X221946838Y-98567809D01*
X221851600Y-98472571D01*
X221803980Y-98377333D01*
X221803980Y-97329714D02*
X221803980Y-97234476D01*
X221851600Y-97139238D01*
X221899219Y-97091619D01*
X221994457Y-97044000D01*
X222184933Y-96996380D01*
X222423028Y-96996380D01*
X222613504Y-97044000D01*
X222708742Y-97091619D01*
X222756361Y-97139238D01*
X222803980Y-97234476D01*
X222803980Y-97329714D01*
X222756361Y-97424952D01*
X222708742Y-97472571D01*
X222613504Y-97520190D01*
X222423028Y-97567809D01*
X222184933Y-97567809D01*
X221994457Y-97520190D01*
X221899219Y-97472571D01*
X221851600Y-97424952D01*
X221803980Y-97329714D01*
X222756361Y-96169028D02*
X222803980Y-96040457D01*
X222803980Y-95826171D01*
X222756361Y-95740457D01*
X222708742Y-95697600D01*
X222613504Y-95654742D01*
X222518266Y-95654742D01*
X222423028Y-95697600D01*
X222375409Y-95740457D01*
X222327790Y-95826171D01*
X222280171Y-95997600D01*
X222232552Y-96083314D01*
X222184933Y-96126171D01*
X222089695Y-96169028D01*
X221994457Y-96169028D01*
X221899219Y-96126171D01*
X221851600Y-96083314D01*
X221803980Y-95997600D01*
X221803980Y-95783314D01*
X221851600Y-95654742D01*
X222708742Y-94754742D02*
X222756361Y-94797600D01*
X222803980Y-94926171D01*
X222803980Y-95011885D01*
X222756361Y-95140457D01*
X222661123Y-95226171D01*
X222565885Y-95269028D01*
X222375409Y-95311885D01*
X222232552Y-95311885D01*
X222042076Y-95269028D01*
X221946838Y-95226171D01*
X221851600Y-95140457D01*
X221803980Y-95011885D01*
X221803980Y-94926171D01*
X221851600Y-94797600D01*
X221899219Y-94754742D01*
X222803980Y-93940457D02*
X222803980Y-94369028D01*
X221803980Y-94369028D01*
D13*
X207875000Y-127362500D02*
X207875000Y-127812500D01*
X207875000Y-127362500D02*
X208325000Y-127362500D01*
X213475000Y-127912500D02*
X213025000Y-127912500D01*
X213475000Y-129762500D02*
X213475000Y-127912500D01*
X205675000Y-132312500D02*
X205675000Y-132062500D01*
X213475000Y-132312500D02*
X213475000Y-132062500D01*
X205675000Y-129762500D02*
X205675000Y-127912500D01*
X205675000Y-127912500D02*
X206125000Y-127912500D01*
D14*
X185100000Y-70840000D02*
X185100000Y-99340000D01*
X185100000Y-99340000D02*
X208600000Y-99340000D01*
X208600000Y-99340000D02*
X208600000Y-70840000D01*
X208600000Y-70840000D02*
X185100000Y-70840000D01*
D15*
X183890000Y-73700000D02*
G75*
G03X183890000Y-73700000I-100000J0D01*
G01*
D16*
X264380310Y-90009000D02*
G75*
G03X264380310Y-90009000I-144310J0D01*
G01*
X261150000Y-90985000D02*
X261150000Y-94685000D01*
X261150000Y-111385000D02*
X261150000Y-107685000D01*
X261150000Y-104878000D02*
X261150000Y-97492000D01*
X276850000Y-111385000D02*
X261150000Y-111385000D01*
X276850000Y-90985000D02*
X276850000Y-111385000D01*
X261150000Y-90985000D02*
X276850000Y-90985000D01*
D13*
X261829999Y-58640000D02*
X262229999Y-58640000D01*
X261829999Y-58000000D02*
X261829999Y-58640000D01*
X268371999Y-54332000D02*
X267976999Y-54728000D01*
X271017999Y-51686000D02*
X270637999Y-52066000D01*
X268622999Y-54614000D02*
X268242999Y-54994000D01*
X271283999Y-51952000D02*
X270888999Y-52348000D01*
X263081999Y-54621000D02*
X262975999Y-54728000D01*
X266017999Y-51686000D02*
X265910999Y-51793000D01*
X263347999Y-54887000D02*
X263241999Y-54994000D01*
X266283999Y-51952000D02*
X266176999Y-52059000D01*
X272189999Y-49280000D02*
X272189999Y-58400000D01*
X262069999Y-49280000D02*
X262069999Y-58400000D01*
X262069999Y-58400000D02*
X272189999Y-58400000D01*
X262069999Y-49280000D02*
X272189999Y-49280000D01*
X262069999Y-56840000D02*
X272189999Y-56840000D01*
X262069999Y-57940000D02*
X272189999Y-57940000D01*
X271809999Y-53340000D02*
G75*
G03X271809999Y-53340000I-2180000J0D01*
G01*
X266809999Y-53340000D02*
G75*
G03X266809999Y-53340000I-2180000J0D01*
G01*
D10*
X200390000Y-67240000D02*
X200390000Y-62740000D01*
X193390000Y-67240000D02*
X193390000Y-62740000D01*
X200390000Y-67240000D02*
X193390000Y-67240000D01*
X200390000Y-62740000D02*
X193390000Y-62740000D01*
D13*
X251502000Y-124976200D02*
X251502000Y-123646200D01*
X251502000Y-123646200D02*
X252832000Y-123646200D01*
X254102000Y-123646200D02*
X261782000Y-123646200D01*
X261782000Y-126306200D02*
X261782000Y-123646200D01*
X254102000Y-126306200D02*
X261782000Y-126306200D01*
X254102000Y-126306200D02*
X254102000Y-123646200D01*
X251502000Y-119901200D02*
X251502000Y-118571200D01*
X251502000Y-118571200D02*
X252832000Y-118571200D01*
X254102000Y-118571200D02*
X261782000Y-118571200D01*
X261782000Y-121231200D02*
X261782000Y-118571200D01*
X254102000Y-121231200D02*
X261782000Y-121231200D01*
X254102000Y-121231200D02*
X254102000Y-118571200D01*
X251502000Y-114826200D02*
X251502000Y-113496200D01*
X251502000Y-113496200D02*
X252832000Y-113496200D01*
X254102000Y-113496200D02*
X261782000Y-113496200D01*
X261782000Y-116156200D02*
X261782000Y-113496200D01*
X254102000Y-116156200D02*
X261782000Y-116156200D01*
X254102000Y-116156200D02*
X254102000Y-113496200D01*
X245857079Y-118311200D02*
X245531521Y-118311200D01*
X245857079Y-119331200D02*
X245531521Y-119331200D01*
X245857079Y-114755200D02*
X245531521Y-114755200D01*
X245857079Y-115775200D02*
X245531521Y-115775200D01*
X245857079Y-116533200D02*
X245531521Y-116533200D01*
X245857079Y-117553200D02*
X245531521Y-117553200D01*
X221777500Y-105993500D02*
X219237500Y-105993500D01*
X221777500Y-105993500D02*
X221777500Y-103453500D01*
X221527500Y-105743500D02*
X212177500Y-105743500D01*
X221527500Y-84883500D02*
X221527500Y-105743500D01*
X212177500Y-84883500D02*
X221527500Y-84883500D01*
X212177500Y-105743500D02*
X212177500Y-84883500D01*
X209600000Y-116165000D02*
X206150000Y-116165000D01*
X209600000Y-116165000D02*
X211550000Y-116165000D01*
X209600000Y-126285000D02*
X207650000Y-126285000D01*
X209600000Y-126285000D02*
X211550000Y-126285000D01*
D17*
X247124799Y-62820997D02*
X247124799Y-81275001D01*
X257578799Y-62820997D02*
X247124799Y-62820997D01*
X257578799Y-81275001D02*
X257578799Y-62820997D01*
X247124799Y-81275001D02*
X257578799Y-81275001D01*
D13*
X256689020Y-86718600D02*
X257014578Y-86718600D01*
X256689020Y-85698600D02*
X257014578Y-85698600D01*
X182703579Y-120079400D02*
X182378021Y-120079400D01*
X182703579Y-121099400D02*
X182378021Y-121099400D01*
X238107000Y-126918000D02*
X238487000Y-126918000D01*
X238107000Y-133338000D02*
X238107000Y-126918000D01*
X219867000Y-133338000D02*
X219867000Y-126918000D01*
X238107000Y-133338000D02*
X219867000Y-133338000D01*
X219867000Y-107593000D02*
X220867000Y-107593000D01*
X219867000Y-108373000D02*
X219867000Y-107593000D01*
X238107000Y-107593000D02*
X237107000Y-107593000D01*
X238107000Y-108373000D02*
X238107000Y-107593000D01*
X200395600Y-129888800D02*
X200395600Y-123428800D01*
X195865600Y-129888800D02*
X198465600Y-129888800D01*
X193935600Y-129888800D02*
X193935600Y-123428800D01*
X195865600Y-123428800D02*
X198465600Y-123428800D01*
X193965600Y-129888800D02*
X193935600Y-129888800D01*
X200395600Y-129888800D02*
X200365600Y-129888800D01*
X200395600Y-123428800D02*
X200365600Y-123428800D01*
X193935600Y-123428800D02*
X193965600Y-123428800D01*
X193083200Y-129888800D02*
X193083200Y-123428800D01*
X188553200Y-129888800D02*
X191153200Y-129888800D01*
X186623200Y-129888800D02*
X186623200Y-123428800D01*
X188553200Y-123428800D02*
X191153200Y-123428800D01*
X186653200Y-129888800D02*
X186623200Y-129888800D01*
X193083200Y-129888800D02*
X193053200Y-129888800D01*
X193083200Y-123428800D02*
X193053200Y-123428800D01*
X186623200Y-123428800D02*
X186653200Y-123428800D01*
X185770800Y-129888800D02*
X185770800Y-123428800D01*
X181240800Y-129888800D02*
X183840800Y-129888800D01*
X179310800Y-129888800D02*
X179310800Y-123428800D01*
X181240800Y-123428800D02*
X183840800Y-123428800D01*
X179340800Y-129888800D02*
X179310800Y-129888800D01*
X185770800Y-129888800D02*
X185740800Y-129888800D01*
X185770800Y-123428800D02*
X185740800Y-123428800D01*
X179310800Y-123428800D02*
X179340800Y-123428800D01*
X231566000Y-101237000D02*
X225556000Y-101237000D01*
X229316000Y-94417000D02*
X225556000Y-94417000D01*
X225556000Y-101237000D02*
X225556000Y-99977000D01*
X225556000Y-94417000D02*
X225556000Y-95677000D01*
X258316799Y-87381400D02*
X256031799Y-87381400D01*
X258316799Y-88851400D02*
X258316799Y-87381400D01*
X256031799Y-88851400D02*
X258316799Y-88851400D01*
X243941500Y-114512000D02*
X241656500Y-114512000D01*
X243941500Y-115982000D02*
X243941500Y-114512000D01*
X241656500Y-115982000D02*
X243941500Y-115982000D01*
X250101799Y-81900000D02*
X254001799Y-81900000D01*
X250101799Y-83900000D02*
X254001799Y-83900000D01*
X250101799Y-81900000D02*
X250101799Y-83900000D01*
X243941500Y-116302700D02*
X241656500Y-116302700D01*
X243941500Y-117772700D02*
X243941500Y-116302700D01*
X241656500Y-117772700D02*
X243941500Y-117772700D01*
X258431799Y-82640000D02*
X258431799Y-84100000D01*
X255271799Y-82640000D02*
X255271799Y-84800000D01*
X255271799Y-82640000D02*
X256201799Y-82640000D01*
X258431799Y-82640000D02*
X257501799Y-82640000D01*
X243941500Y-118093400D02*
X241656500Y-118093400D01*
X243941500Y-119563400D02*
X243941500Y-118093400D01*
X241656500Y-119563400D02*
X243941500Y-119563400D01*
X214000279Y-110865000D02*
X213674721Y-110865000D01*
X214000279Y-111885000D02*
X213674721Y-111885000D01*
X217587379Y-121569600D02*
X217261821Y-121569600D01*
X217587379Y-122589600D02*
X217261821Y-122589600D01*
X217612879Y-119918600D02*
X217287321Y-119918600D01*
X217612879Y-120938600D02*
X217287321Y-120938600D01*
X211565000Y-113662221D02*
X211565000Y-113987779D01*
X212585000Y-113662221D02*
X212585000Y-113987779D01*
X216590000Y-113899721D02*
X216590000Y-114225279D01*
X217610000Y-113899721D02*
X217610000Y-114225279D01*
X258140679Y-97119000D02*
X257815121Y-97119000D01*
X258140679Y-98139000D02*
X257815121Y-98139000D01*
X273065400Y-106315800D02*
X273065400Y-96155800D01*
X265445400Y-106315800D02*
X273065400Y-106315800D01*
X265445400Y-96155800D02*
X265445400Y-106315800D01*
X273065400Y-96155800D02*
X265445400Y-96155800D01*
X271795400Y-96155800D02*
X271795400Y-106315800D01*
X213465000Y-113250000D02*
X213465000Y-114650000D01*
X215785000Y-114650000D02*
X215785000Y-112750000D01*
X215249721Y-117085000D02*
X215575279Y-117085000D01*
X215249721Y-116065000D02*
X215575279Y-116065000D01*
X240735000Y-122187779D02*
X240735000Y-121862221D01*
X239715000Y-122187779D02*
X239715000Y-121862221D01*
X204760000Y-127325279D02*
X204760000Y-126999721D01*
X203740000Y-127325279D02*
X203740000Y-126999721D01*
X239715000Y-125112221D02*
X239715000Y-125437779D01*
X240735000Y-125112221D02*
X240735000Y-125437779D01*
X241465000Y-125124721D02*
X241465000Y-125450279D01*
X242485000Y-125124721D02*
X242485000Y-125450279D01*
X205085000Y-119975279D02*
X205085000Y-119649721D01*
X204065000Y-119975279D02*
X204065000Y-119649721D01*
X243316799Y-87381400D02*
X241031799Y-87381400D01*
X243316799Y-88851400D02*
X243316799Y-87381400D01*
X241031799Y-88851400D02*
X243316799Y-88851400D01*
X220101800Y-81900000D02*
X224001800Y-81900000D01*
X220101800Y-83900000D02*
X224001800Y-83900000D01*
X220101800Y-81900000D02*
X220101800Y-83900000D01*
X226689021Y-86718600D02*
X227014579Y-86718600D01*
X226689021Y-85698600D02*
X227014579Y-85698600D01*
X243431799Y-82640000D02*
X243431799Y-84100000D01*
X240271799Y-82640000D02*
X240271799Y-84800000D01*
X240271799Y-82640000D02*
X241201799Y-82640000D01*
X243431799Y-82640000D02*
X242501799Y-82640000D01*
X228431800Y-82640000D02*
X228431800Y-84100000D01*
X225271800Y-82640000D02*
X225271800Y-84800000D01*
X225271800Y-82640000D02*
X226201800Y-82640000D01*
X228431800Y-82640000D02*
X227501800Y-82640000D01*
X235101799Y-81900000D02*
X239001799Y-81900000D01*
X235101799Y-83900000D02*
X239001799Y-83900000D01*
X235101799Y-81900000D02*
X235101799Y-83900000D01*
X228316800Y-87381400D02*
X226031800Y-87381400D01*
X228316800Y-88851400D02*
X228316800Y-87381400D01*
X226031800Y-88851400D02*
X228316800Y-88851400D01*
X256276000Y-103973600D02*
X259726000Y-103973600D01*
X256276000Y-103973600D02*
X254326000Y-103973600D01*
X256276000Y-98853600D02*
X258226000Y-98853600D01*
X256276000Y-98853600D02*
X254326000Y-98853600D01*
X253768179Y-127066800D02*
X253442621Y-127066800D01*
X253768179Y-128086800D02*
X253442621Y-128086800D01*
D17*
X217124800Y-62820997D02*
X217124800Y-81275001D01*
X227578800Y-62820997D02*
X217124800Y-62820997D01*
X227578800Y-81275001D02*
X227578800Y-62820997D01*
X217124800Y-81275001D02*
X227578800Y-81275001D01*
D13*
X190015979Y-120079400D02*
X189690421Y-120079400D01*
X190015979Y-121099400D02*
X189690421Y-121099400D01*
X232190000Y-101235000D02*
X236100000Y-101235000D01*
X232190000Y-99365000D02*
X232190000Y-101235000D01*
X236100000Y-99365000D02*
X232190000Y-99365000D01*
X232490000Y-95549721D02*
X232490000Y-95875279D01*
X233510000Y-95549721D02*
X233510000Y-95875279D01*
X241689020Y-86718600D02*
X242014578Y-86718600D01*
X241689020Y-85698600D02*
X242014578Y-85698600D01*
D17*
X232124799Y-62820997D02*
X232124799Y-81275001D01*
X242578799Y-62820997D02*
X232124799Y-62820997D01*
X242578799Y-81275001D02*
X242578799Y-62820997D01*
X232124799Y-81275001D02*
X242578799Y-81275001D01*
D13*
X197328379Y-120079400D02*
X197002821Y-120079400D01*
X197328379Y-121099400D02*
X197002821Y-121099400D01*
X234165000Y-94240000D02*
X234165000Y-98150000D01*
X236035000Y-94240000D02*
X234165000Y-94240000D01*
X236035000Y-98150000D02*
X236035000Y-94240000D01*
X211830000Y-58640000D02*
X212230000Y-58640000D01*
X211830000Y-58000000D02*
X211830000Y-58640000D01*
X223372000Y-54332000D02*
X222977000Y-54728000D01*
X226018000Y-51686000D02*
X225638000Y-52066000D01*
X223623000Y-54614000D02*
X223243000Y-54994000D01*
X226284000Y-51952000D02*
X225889000Y-52348000D01*
X218372000Y-54332000D02*
X217977000Y-54728000D01*
X221018000Y-51686000D02*
X220638000Y-52066000D01*
X218623000Y-54614000D02*
X218243000Y-54994000D01*
X221284000Y-51952000D02*
X220889000Y-52348000D01*
X213082000Y-54621000D02*
X212976000Y-54728000D01*
X216018000Y-51686000D02*
X215911000Y-51793000D01*
X213348000Y-54887000D02*
X213242000Y-54994000D01*
X216284000Y-51952000D02*
X216177000Y-52059000D01*
X227190000Y-49280000D02*
X227190000Y-58400000D01*
X212070000Y-49280000D02*
X212070000Y-58400000D01*
X212070000Y-58400000D02*
X227190000Y-58400000D01*
X212070000Y-49280000D02*
X227190000Y-49280000D01*
X212070000Y-56840000D02*
X227190000Y-56840000D01*
X212070000Y-57940000D02*
X227190000Y-57940000D01*
X226810000Y-53340000D02*
G75*
G03X226810000Y-53340000I-2180000J0D01*
G01*
X221810000Y-53340000D02*
G75*
G03X221810000Y-53340000I-2180000J0D01*
G01*
X216810000Y-53340000D02*
G75*
G03X216810000Y-53340000I-2180000J0D01*
G01*
X241829999Y-58640000D02*
X242229999Y-58640000D01*
X241829999Y-58000000D02*
X241829999Y-58640000D01*
X253371999Y-54332000D02*
X252976999Y-54728000D01*
X256017999Y-51686000D02*
X255637999Y-52066000D01*
X253622999Y-54614000D02*
X253242999Y-54994000D01*
X256283999Y-51952000D02*
X255888999Y-52348000D01*
X248371999Y-54332000D02*
X247976999Y-54728000D01*
X251017999Y-51686000D02*
X250637999Y-52066000D01*
X248622999Y-54614000D02*
X248242999Y-54994000D01*
X251283999Y-51952000D02*
X250888999Y-52348000D01*
X243081999Y-54621000D02*
X242975999Y-54728000D01*
X246017999Y-51686000D02*
X245910999Y-51793000D01*
X243347999Y-54887000D02*
X243241999Y-54994000D01*
X246283999Y-51952000D02*
X246176999Y-52059000D01*
X257189999Y-49280000D02*
X257189999Y-58400000D01*
X242069999Y-49280000D02*
X242069999Y-58400000D01*
X242069999Y-58400000D02*
X257189999Y-58400000D01*
X242069999Y-49280000D02*
X257189999Y-49280000D01*
X242069999Y-56840000D02*
X257189999Y-56840000D01*
X242069999Y-57940000D02*
X257189999Y-57940000D01*
X256809999Y-53340000D02*
G75*
G03X256809999Y-53340000I-2180000J0D01*
G01*
X251809999Y-53340000D02*
G75*
G03X251809999Y-53340000I-2180000J0D01*
G01*
X246809999Y-53340000D02*
G75*
G03X246809999Y-53340000I-2180000J0D01*
G01*
X226829999Y-58640000D02*
X227229999Y-58640000D01*
X226829999Y-58000000D02*
X226829999Y-58640000D01*
X238371999Y-54332000D02*
X237976999Y-54728000D01*
X241017999Y-51686000D02*
X240637999Y-52066000D01*
X238622999Y-54614000D02*
X238242999Y-54994000D01*
X241283999Y-51952000D02*
X240888999Y-52348000D01*
X233371999Y-54332000D02*
X232976999Y-54728000D01*
X236017999Y-51686000D02*
X235637999Y-52066000D01*
X233622999Y-54614000D02*
X233242999Y-54994000D01*
X236283999Y-51952000D02*
X235888999Y-52348000D01*
X228081999Y-54621000D02*
X227975999Y-54728000D01*
X231017999Y-51686000D02*
X230910999Y-51793000D01*
X228347999Y-54887000D02*
X228241999Y-54994000D01*
X231283999Y-51952000D02*
X231176999Y-52059000D01*
X242189999Y-49280000D02*
X242189999Y-58400000D01*
X227069999Y-49280000D02*
X227069999Y-58400000D01*
X227069999Y-58400000D02*
X242189999Y-58400000D01*
X227069999Y-49280000D02*
X242189999Y-49280000D01*
X227069999Y-56840000D02*
X242189999Y-56840000D01*
X227069999Y-57940000D02*
X242189999Y-57940000D01*
X241809999Y-53340000D02*
G75*
G03X241809999Y-53340000I-2180000J0D01*
G01*
X236809999Y-53340000D02*
G75*
G03X236809999Y-53340000I-2180000J0D01*
G01*
X231809999Y-53340000D02*
G75*
G03X231809999Y-53340000I-2180000J0D01*
G01*
X186830000Y-58640000D02*
X187230000Y-58640000D01*
X186830000Y-58000000D02*
X186830000Y-58640000D01*
X198372000Y-54332000D02*
X197977000Y-54728000D01*
X201018000Y-51686000D02*
X200638000Y-52066000D01*
X198623000Y-54614000D02*
X198243000Y-54994000D01*
X201284000Y-51952000D02*
X200889000Y-52348000D01*
X193372000Y-54332000D02*
X192977000Y-54728000D01*
X196018000Y-51686000D02*
X195638000Y-52066000D01*
X193623000Y-54614000D02*
X193243000Y-54994000D01*
X196284000Y-51952000D02*
X195889000Y-52348000D01*
X188082000Y-54621000D02*
X187976000Y-54728000D01*
X191018000Y-51686000D02*
X190911000Y-51793000D01*
X188348000Y-54887000D02*
X188242000Y-54994000D01*
X191284000Y-51952000D02*
X191177000Y-52059000D01*
X202190000Y-49280000D02*
X202190000Y-58400000D01*
X187070000Y-49280000D02*
X187070000Y-58400000D01*
X187070000Y-58400000D02*
X202190000Y-58400000D01*
X187070000Y-49280000D02*
X202190000Y-49280000D01*
X187070000Y-56840000D02*
X202190000Y-56840000D01*
X187070000Y-57940000D02*
X202190000Y-57940000D01*
X201810000Y-53340000D02*
G75*
G03X201810000Y-53340000I-2180000J0D01*
G01*
X196810000Y-53340000D02*
G75*
G03X196810000Y-53340000I-2180000J0D01*
G01*
X191810000Y-53340000D02*
G75*
G03X191810000Y-53340000I-2180000J0D01*
G01*
X183187600Y-77598800D02*
X177187600Y-77598800D01*
X183187600Y-55598800D02*
X183187600Y-77598800D01*
X177187600Y-55598800D02*
X183187600Y-55598800D01*
X177187600Y-77598800D02*
X177187600Y-55598800D01*
D10*
X204177666Y-132015880D02*
X204177666Y-132730166D01*
X204130047Y-132873023D01*
X204034809Y-132968261D01*
X203891952Y-133015880D01*
X203796714Y-133015880D01*
X205177666Y-133015880D02*
X204606238Y-133015880D01*
X204891952Y-133015880D02*
X204891952Y-132015880D01*
X204796714Y-132158738D01*
X204701476Y-132253976D01*
X204606238Y-132301595D01*
D18*
X186256000Y-69814333D02*
X186256000Y-68414333D01*
X186789333Y-68414333D01*
X186922666Y-68481000D01*
X186989333Y-68547666D01*
X187056000Y-68681000D01*
X187056000Y-68881000D01*
X186989333Y-69014333D01*
X186922666Y-69081000D01*
X186789333Y-69147666D01*
X186256000Y-69147666D01*
X187589333Y-69747666D02*
X187789333Y-69814333D01*
X188122666Y-69814333D01*
X188256000Y-69747666D01*
X188322666Y-69681000D01*
X188389333Y-69547666D01*
X188389333Y-69414333D01*
X188322666Y-69281000D01*
X188256000Y-69214333D01*
X188122666Y-69147666D01*
X187856000Y-69081000D01*
X187722666Y-69014333D01*
X187656000Y-68947666D01*
X187589333Y-68814333D01*
X187589333Y-68681000D01*
X187656000Y-68547666D01*
X187722666Y-68481000D01*
X187856000Y-68414333D01*
X188189333Y-68414333D01*
X188389333Y-68481000D01*
X189722666Y-69814333D02*
X188922666Y-69814333D01*
X189322666Y-69814333D02*
X189322666Y-68414333D01*
X189189333Y-68614333D01*
X189056000Y-68747666D01*
X188922666Y-68814333D01*
X183078333Y-101394333D02*
X182611666Y-100727666D01*
X182278333Y-101394333D02*
X182278333Y-99994333D01*
X182811666Y-99994333D01*
X182945000Y-100061000D01*
X183011666Y-100127666D01*
X183078333Y-100261000D01*
X183078333Y-100461000D01*
X183011666Y-100594333D01*
X182945000Y-100661000D01*
X182811666Y-100727666D01*
X182278333Y-100727666D01*
X183611666Y-100994333D02*
X184278333Y-100994333D01*
X183478333Y-101394333D02*
X183945000Y-99994333D01*
X184411666Y-101394333D01*
X185678333Y-101261000D02*
X185611666Y-101327666D01*
X185411666Y-101394333D01*
X185278333Y-101394333D01*
X185078333Y-101327666D01*
X184945000Y-101194333D01*
X184878333Y-101061000D01*
X184811666Y-100794333D01*
X184811666Y-100594333D01*
X184878333Y-100327666D01*
X184945000Y-100194333D01*
X185078333Y-100061000D01*
X185278333Y-99994333D01*
X185411666Y-99994333D01*
X185611666Y-100061000D01*
X185678333Y-100127666D01*
X186545000Y-99994333D02*
X186678333Y-99994333D01*
X186811666Y-100061000D01*
X186878333Y-100127666D01*
X186945000Y-100261000D01*
X187011666Y-100527666D01*
X187011666Y-100861000D01*
X186945000Y-101127666D01*
X186878333Y-101261000D01*
X186811666Y-101327666D01*
X186678333Y-101394333D01*
X186545000Y-101394333D01*
X186411666Y-101327666D01*
X186345000Y-101261000D01*
X186278333Y-101127666D01*
X186211666Y-100861000D01*
X186211666Y-100527666D01*
X186278333Y-100261000D01*
X186345000Y-100127666D01*
X186411666Y-100061000D01*
X186545000Y-99994333D01*
X187478333Y-99994333D02*
X188345000Y-99994333D01*
X187878333Y-100527666D01*
X188078333Y-100527666D01*
X188211666Y-100594333D01*
X188278333Y-100661000D01*
X188345000Y-100794333D01*
X188345000Y-101127666D01*
X188278333Y-101261000D01*
X188211666Y-101327666D01*
X188078333Y-101394333D01*
X187678333Y-101394333D01*
X187545000Y-101327666D01*
X187478333Y-101261000D01*
X188945000Y-100861000D02*
X190011666Y-100861000D01*
X191411666Y-101394333D02*
X190611666Y-101394333D01*
X191011666Y-101394333D02*
X191011666Y-99994333D01*
X190878333Y-100194333D01*
X190745000Y-100327666D01*
X190611666Y-100394333D01*
X191945000Y-100127666D02*
X192011666Y-100061000D01*
X192145000Y-99994333D01*
X192478333Y-99994333D01*
X192611666Y-100061000D01*
X192678333Y-100127666D01*
X192745000Y-100261000D01*
X192745000Y-100394333D01*
X192678333Y-100594333D01*
X191878333Y-101394333D01*
X192745000Y-101394333D01*
X193278333Y-101327666D02*
X193478333Y-101394333D01*
X193811666Y-101394333D01*
X193945000Y-101327666D01*
X194011666Y-101261000D01*
X194078333Y-101127666D01*
X194078333Y-100994333D01*
X194011666Y-100861000D01*
X193945000Y-100794333D01*
X193811666Y-100727666D01*
X193545000Y-100661000D01*
X193411666Y-100594333D01*
X193345000Y-100527666D01*
X193278333Y-100394333D01*
X193278333Y-100261000D01*
X193345000Y-100127666D01*
X193411666Y-100061000D01*
X193545000Y-99994333D01*
X193878333Y-99994333D01*
X194078333Y-100061000D01*
X194678333Y-101394333D02*
X194678333Y-99994333D01*
X195478333Y-101394333D02*
X194878333Y-100594333D01*
X195478333Y-99994333D02*
X194678333Y-100794333D01*
D16*
X267893266Y-100657923D02*
X267893266Y-101565066D01*
X267832790Y-101746495D01*
X267711838Y-101867447D01*
X267530409Y-101927923D01*
X267409457Y-101927923D01*
X269042314Y-101081257D02*
X269042314Y-101927923D01*
X268739933Y-100597447D02*
X268437552Y-101504590D01*
X269223742Y-101504590D01*
D10*
X266320475Y-47732380D02*
X266320475Y-48446666D01*
X266272856Y-48589523D01*
X266177618Y-48684761D01*
X266034760Y-48732380D01*
X265939522Y-48732380D01*
X267320475Y-48732380D02*
X266749046Y-48732380D01*
X267034760Y-48732380D02*
X267034760Y-47732380D01*
X266939522Y-47875238D01*
X266844284Y-47970476D01*
X266749046Y-48018095D01*
X267701427Y-47827619D02*
X267749046Y-47780000D01*
X267844284Y-47732380D01*
X268082379Y-47732380D01*
X268177618Y-47780000D01*
X268225237Y-47827619D01*
X268272856Y-47922857D01*
X268272856Y-48018095D01*
X268225237Y-48160952D01*
X267653808Y-48732380D01*
X268272856Y-48732380D01*
X194324361Y-66746380D02*
X193991028Y-66270190D01*
X193752933Y-66746380D02*
X193752933Y-65746380D01*
X194133885Y-65746380D01*
X194229123Y-65794000D01*
X194276742Y-65841619D01*
X194324361Y-65936857D01*
X194324361Y-66079714D01*
X194276742Y-66174952D01*
X194229123Y-66222571D01*
X194133885Y-66270190D01*
X193752933Y-66270190D01*
X194610076Y-65746380D02*
X194943409Y-66746380D01*
X195276742Y-65746380D01*
X196133885Y-66746380D02*
X195562457Y-66746380D01*
X195848171Y-66746380D02*
X195848171Y-65746380D01*
X195752933Y-65889238D01*
X195657695Y-65984476D01*
X195562457Y-66032095D01*
X250201180Y-125301333D02*
X250915466Y-125301333D01*
X251058323Y-125348952D01*
X251153561Y-125444190D01*
X251201180Y-125587047D01*
X251201180Y-125682285D01*
X251201180Y-124777523D02*
X251201180Y-124587047D01*
X251153561Y-124491809D01*
X251105942Y-124444190D01*
X250963085Y-124348952D01*
X250772609Y-124301333D01*
X250391657Y-124301333D01*
X250296419Y-124348952D01*
X250248800Y-124396571D01*
X250201180Y-124491809D01*
X250201180Y-124682285D01*
X250248800Y-124777523D01*
X250296419Y-124825142D01*
X250391657Y-124872761D01*
X250629752Y-124872761D01*
X250724990Y-124825142D01*
X250772609Y-124777523D01*
X250820228Y-124682285D01*
X250820228Y-124491809D01*
X250772609Y-124396571D01*
X250724990Y-124348952D01*
X250629752Y-124301333D01*
X250201180Y-120221333D02*
X250915466Y-120221333D01*
X251058323Y-120268952D01*
X251153561Y-120364190D01*
X251201180Y-120507047D01*
X251201180Y-120602285D01*
X250629752Y-119602285D02*
X250582133Y-119697523D01*
X250534514Y-119745142D01*
X250439276Y-119792761D01*
X250391657Y-119792761D01*
X250296419Y-119745142D01*
X250248800Y-119697523D01*
X250201180Y-119602285D01*
X250201180Y-119411809D01*
X250248800Y-119316571D01*
X250296419Y-119268952D01*
X250391657Y-119221333D01*
X250439276Y-119221333D01*
X250534514Y-119268952D01*
X250582133Y-119316571D01*
X250629752Y-119411809D01*
X250629752Y-119602285D01*
X250677371Y-119697523D01*
X250724990Y-119745142D01*
X250820228Y-119792761D01*
X251010704Y-119792761D01*
X251105942Y-119745142D01*
X251153561Y-119697523D01*
X251201180Y-119602285D01*
X251201180Y-119411809D01*
X251153561Y-119316571D01*
X251105942Y-119268952D01*
X251010704Y-119221333D01*
X250820228Y-119221333D01*
X250724990Y-119268952D01*
X250677371Y-119316571D01*
X250629752Y-119411809D01*
X250251980Y-115090533D02*
X250966266Y-115090533D01*
X251109123Y-115138152D01*
X251204361Y-115233390D01*
X251251980Y-115376247D01*
X251251980Y-115471485D01*
X250251980Y-114709580D02*
X250251980Y-114090533D01*
X250632933Y-114423866D01*
X250632933Y-114281009D01*
X250680552Y-114185771D01*
X250728171Y-114138152D01*
X250823409Y-114090533D01*
X251061504Y-114090533D01*
X251156742Y-114138152D01*
X251204361Y-114185771D01*
X251251980Y-114281009D01*
X251251980Y-114566723D01*
X251204361Y-114661961D01*
X251156742Y-114709580D01*
X247870742Y-119324380D02*
X247537409Y-118848190D01*
X247299314Y-119324380D02*
X247299314Y-118324380D01*
X247680266Y-118324380D01*
X247775504Y-118372000D01*
X247823123Y-118419619D01*
X247870742Y-118514857D01*
X247870742Y-118657714D01*
X247823123Y-118752952D01*
X247775504Y-118800571D01*
X247680266Y-118848190D01*
X247299314Y-118848190D01*
X248823123Y-119324380D02*
X248251695Y-119324380D01*
X248537409Y-119324380D02*
X248537409Y-118324380D01*
X248442171Y-118467238D01*
X248346933Y-118562476D01*
X248251695Y-118610095D01*
X249442171Y-118324380D02*
X249537409Y-118324380D01*
X249632647Y-118372000D01*
X249680266Y-118419619D01*
X249727885Y-118514857D01*
X249775504Y-118705333D01*
X249775504Y-118943428D01*
X249727885Y-119133904D01*
X249680266Y-119229142D01*
X249632647Y-119276761D01*
X249537409Y-119324380D01*
X249442171Y-119324380D01*
X249346933Y-119276761D01*
X249299314Y-119229142D01*
X249251695Y-119133904D01*
X249204076Y-118943428D01*
X249204076Y-118705333D01*
X249251695Y-118514857D01*
X249299314Y-118419619D01*
X249346933Y-118372000D01*
X249442171Y-118324380D01*
X247889733Y-115768380D02*
X247556400Y-115292190D01*
X247318304Y-115768380D02*
X247318304Y-114768380D01*
X247699257Y-114768380D01*
X247794495Y-114816000D01*
X247842114Y-114863619D01*
X247889733Y-114958857D01*
X247889733Y-115101714D01*
X247842114Y-115196952D01*
X247794495Y-115244571D01*
X247699257Y-115292190D01*
X247318304Y-115292190D01*
X248365923Y-115768380D02*
X248556400Y-115768380D01*
X248651638Y-115720761D01*
X248699257Y-115673142D01*
X248794495Y-115530285D01*
X248842114Y-115339809D01*
X248842114Y-114958857D01*
X248794495Y-114863619D01*
X248746876Y-114816000D01*
X248651638Y-114768380D01*
X248461161Y-114768380D01*
X248365923Y-114816000D01*
X248318304Y-114863619D01*
X248270685Y-114958857D01*
X248270685Y-115196952D01*
X248318304Y-115292190D01*
X248365923Y-115339809D01*
X248461161Y-115387428D01*
X248651638Y-115387428D01*
X248746876Y-115339809D01*
X248794495Y-115292190D01*
X248842114Y-115196952D01*
X247889733Y-117546380D02*
X247556400Y-117070190D01*
X247318304Y-117546380D02*
X247318304Y-116546380D01*
X247699257Y-116546380D01*
X247794495Y-116594000D01*
X247842114Y-116641619D01*
X247889733Y-116736857D01*
X247889733Y-116879714D01*
X247842114Y-116974952D01*
X247794495Y-117022571D01*
X247699257Y-117070190D01*
X247318304Y-117070190D01*
X248223066Y-116546380D02*
X248889733Y-116546380D01*
X248461161Y-117546380D01*
X216042976Y-106449880D02*
X216042976Y-107164166D01*
X215995357Y-107307023D01*
X215900119Y-107402261D01*
X215757261Y-107449880D01*
X215662023Y-107449880D01*
X217042976Y-107449880D02*
X216471547Y-107449880D01*
X216757261Y-107449880D02*
X216757261Y-106449880D01*
X216662023Y-106592738D01*
X216566785Y-106687976D01*
X216471547Y-106735595D01*
X217662023Y-106449880D02*
X217757261Y-106449880D01*
X217852500Y-106497500D01*
X217900119Y-106545119D01*
X217947738Y-106640357D01*
X217995357Y-106830833D01*
X217995357Y-107068928D01*
X217947738Y-107259404D01*
X217900119Y-107354642D01*
X217852500Y-107402261D01*
X217757261Y-107449880D01*
X217662023Y-107449880D01*
X217566785Y-107402261D01*
X217519166Y-107354642D01*
X217471547Y-107259404D01*
X217423928Y-107068928D01*
X217423928Y-106830833D01*
X217471547Y-106640357D01*
X217519166Y-106545119D01*
X217566785Y-106497500D01*
X217662023Y-106449880D01*
X207111695Y-114768380D02*
X207111695Y-115577904D01*
X207159314Y-115673142D01*
X207206933Y-115720761D01*
X207302171Y-115768380D01*
X207492647Y-115768380D01*
X207587885Y-115720761D01*
X207635504Y-115673142D01*
X207683123Y-115577904D01*
X207683123Y-114768380D01*
X208683123Y-115768380D02*
X208111695Y-115768380D01*
X208397409Y-115768380D02*
X208397409Y-114768380D01*
X208302171Y-114911238D01*
X208206933Y-115006476D01*
X208111695Y-115054095D01*
X251341799Y-62142380D02*
X251008465Y-61666190D01*
X250770370Y-62142380D02*
X250770370Y-61142380D01*
X251151322Y-61142380D01*
X251246560Y-61190000D01*
X251294179Y-61237619D01*
X251341799Y-61332857D01*
X251341799Y-61475714D01*
X251294179Y-61570952D01*
X251246560Y-61618571D01*
X251151322Y-61666190D01*
X250770370Y-61666190D01*
X252246560Y-62142380D02*
X251770370Y-62142380D01*
X251770370Y-61142380D01*
X252532275Y-61856666D02*
X253008465Y-61856666D01*
X252437037Y-62142380D02*
X252770370Y-61142380D01*
X253103703Y-62142380D01*
X253341799Y-61142380D02*
X253960846Y-61142380D01*
X253627513Y-61523333D01*
X253770370Y-61523333D01*
X253865608Y-61570952D01*
X253913227Y-61618571D01*
X253960846Y-61713809D01*
X253960846Y-61951904D01*
X253913227Y-62047142D01*
X253865608Y-62094761D01*
X253770370Y-62142380D01*
X253484656Y-62142380D01*
X253389418Y-62094761D01*
X253341799Y-62047142D01*
X248551799Y-52763712D02*
X248551799Y-53001808D01*
X248313703Y-52906570D02*
X248551799Y-53001808D01*
X248789894Y-52906570D01*
X248408941Y-53192284D02*
X248551799Y-53001808D01*
X248694656Y-53192284D01*
X248551799Y-52763712D02*
X248551799Y-53001808D01*
X248313703Y-52906570D02*
X248551799Y-53001808D01*
X248789894Y-52906570D01*
X248408941Y-53192284D02*
X248551799Y-53001808D01*
X248694656Y-53192284D01*
X254221332Y-86711780D02*
X253887999Y-86235590D01*
X253649903Y-86711780D02*
X253649903Y-85711780D01*
X254030856Y-85711780D01*
X254126094Y-85759400D01*
X254173713Y-85807019D01*
X254221332Y-85902257D01*
X254221332Y-86045114D01*
X254173713Y-86140352D01*
X254126094Y-86187971D01*
X254030856Y-86235590D01*
X253649903Y-86235590D01*
X254792760Y-86140352D02*
X254697522Y-86092733D01*
X254649903Y-86045114D01*
X254602284Y-85949876D01*
X254602284Y-85902257D01*
X254649903Y-85807019D01*
X254697522Y-85759400D01*
X254792760Y-85711780D01*
X254983237Y-85711780D01*
X255078475Y-85759400D01*
X255126094Y-85807019D01*
X255173713Y-85902257D01*
X255173713Y-85949876D01*
X255126094Y-86045114D01*
X255078475Y-86092733D01*
X254983237Y-86140352D01*
X254792760Y-86140352D01*
X254697522Y-86187971D01*
X254649903Y-86235590D01*
X254602284Y-86330828D01*
X254602284Y-86521304D01*
X254649903Y-86616542D01*
X254697522Y-86664161D01*
X254792760Y-86711780D01*
X254983237Y-86711780D01*
X255078475Y-86664161D01*
X255126094Y-86616542D01*
X255173713Y-86521304D01*
X255173713Y-86330828D01*
X255126094Y-86235590D01*
X255078475Y-86187971D01*
X254983237Y-86140352D01*
X184777142Y-121007142D02*
X184729523Y-121054761D01*
X184586666Y-121102380D01*
X184491428Y-121102380D01*
X184348571Y-121054761D01*
X184253333Y-120959523D01*
X184205714Y-120864285D01*
X184158095Y-120673809D01*
X184158095Y-120530952D01*
X184205714Y-120340476D01*
X184253333Y-120245238D01*
X184348571Y-120150000D01*
X184491428Y-120102380D01*
X184586666Y-120102380D01*
X184729523Y-120150000D01*
X184777142Y-120197619D01*
X185729523Y-121102380D02*
X185158095Y-121102380D01*
X185443809Y-121102380D02*
X185443809Y-120102380D01*
X185348571Y-120245238D01*
X185253333Y-120340476D01*
X185158095Y-120388095D01*
X186348571Y-120102380D02*
X186443809Y-120102380D01*
X186539047Y-120150000D01*
X186586666Y-120197619D01*
X186634285Y-120292857D01*
X186681904Y-120483333D01*
X186681904Y-120721428D01*
X186634285Y-120911904D01*
X186586666Y-121007142D01*
X186539047Y-121054761D01*
X186443809Y-121102380D01*
X186348571Y-121102380D01*
X186253333Y-121054761D01*
X186205714Y-121007142D01*
X186158095Y-120911904D01*
X186110476Y-120721428D01*
X186110476Y-120483333D01*
X186158095Y-120292857D01*
X186205714Y-120197619D01*
X186253333Y-120150000D01*
X186348571Y-120102380D01*
X239049380Y-109804904D02*
X239858904Y-109804904D01*
X239954142Y-109757285D01*
X240001761Y-109709666D01*
X240049380Y-109614428D01*
X240049380Y-109423952D01*
X240001761Y-109328714D01*
X239954142Y-109281095D01*
X239858904Y-109233476D01*
X239049380Y-109233476D01*
X239144619Y-108804904D02*
X239097000Y-108757285D01*
X239049380Y-108662047D01*
X239049380Y-108423952D01*
X239097000Y-108328714D01*
X239144619Y-108281095D01*
X239239857Y-108233476D01*
X239335095Y-108233476D01*
X239477952Y-108281095D01*
X240049380Y-108852523D01*
X240049380Y-108233476D01*
X195872266Y-119581561D02*
X196015123Y-119629180D01*
X196253219Y-119629180D01*
X196348457Y-119581561D01*
X196396076Y-119533942D01*
X196443695Y-119438704D01*
X196443695Y-119343466D01*
X196396076Y-119248228D01*
X196348457Y-119200609D01*
X196253219Y-119152990D01*
X196062742Y-119105371D01*
X195967504Y-119057752D01*
X195919885Y-119010133D01*
X195872266Y-118914895D01*
X195872266Y-118819657D01*
X195919885Y-118724419D01*
X195967504Y-118676800D01*
X196062742Y-118629180D01*
X196300838Y-118629180D01*
X196443695Y-118676800D01*
X196777028Y-118629180D02*
X197015123Y-119629180D01*
X197205600Y-118914895D01*
X197396076Y-119629180D01*
X197634171Y-118629180D01*
X197919885Y-118629180D02*
X198538933Y-118629180D01*
X198205600Y-119010133D01*
X198348457Y-119010133D01*
X198443695Y-119057752D01*
X198491314Y-119105371D01*
X198538933Y-119200609D01*
X198538933Y-119438704D01*
X198491314Y-119533942D01*
X198443695Y-119581561D01*
X198348457Y-119629180D01*
X198062742Y-119629180D01*
X197967504Y-119581561D01*
X197919885Y-119533942D01*
X188658666Y-119530761D02*
X188801523Y-119578380D01*
X189039619Y-119578380D01*
X189134857Y-119530761D01*
X189182476Y-119483142D01*
X189230095Y-119387904D01*
X189230095Y-119292666D01*
X189182476Y-119197428D01*
X189134857Y-119149809D01*
X189039619Y-119102190D01*
X188849142Y-119054571D01*
X188753904Y-119006952D01*
X188706285Y-118959333D01*
X188658666Y-118864095D01*
X188658666Y-118768857D01*
X188706285Y-118673619D01*
X188753904Y-118626000D01*
X188849142Y-118578380D01*
X189087238Y-118578380D01*
X189230095Y-118626000D01*
X189563428Y-118578380D02*
X189801523Y-119578380D01*
X189992000Y-118864095D01*
X190182476Y-119578380D01*
X190420571Y-118578380D01*
X190753904Y-118673619D02*
X190801523Y-118626000D01*
X190896761Y-118578380D01*
X191134857Y-118578380D01*
X191230095Y-118626000D01*
X191277714Y-118673619D01*
X191325333Y-118768857D01*
X191325333Y-118864095D01*
X191277714Y-119006952D01*
X190706285Y-119578380D01*
X191325333Y-119578380D01*
X181241866Y-119378361D02*
X181384723Y-119425980D01*
X181622819Y-119425980D01*
X181718057Y-119378361D01*
X181765676Y-119330742D01*
X181813295Y-119235504D01*
X181813295Y-119140266D01*
X181765676Y-119045028D01*
X181718057Y-118997409D01*
X181622819Y-118949790D01*
X181432342Y-118902171D01*
X181337104Y-118854552D01*
X181289485Y-118806933D01*
X181241866Y-118711695D01*
X181241866Y-118616457D01*
X181289485Y-118521219D01*
X181337104Y-118473600D01*
X181432342Y-118425980D01*
X181670438Y-118425980D01*
X181813295Y-118473600D01*
X182146628Y-118425980D02*
X182384723Y-119425980D01*
X182575200Y-118711695D01*
X182765676Y-119425980D01*
X183003771Y-118425980D01*
X183908533Y-119425980D02*
X183337104Y-119425980D01*
X183622819Y-119425980D02*
X183622819Y-118425980D01*
X183527580Y-118568838D01*
X183432342Y-118664076D01*
X183337104Y-118711695D01*
X226704095Y-101779380D02*
X226704095Y-102588904D01*
X226751714Y-102684142D01*
X226799333Y-102731761D01*
X226894571Y-102779380D01*
X227085047Y-102779380D01*
X227180285Y-102731761D01*
X227227904Y-102684142D01*
X227275523Y-102588904D01*
X227275523Y-101779380D01*
X228180285Y-102112714D02*
X228180285Y-102779380D01*
X227942190Y-101731761D02*
X227704095Y-102446047D01*
X228323142Y-102446047D01*
X253655303Y-88594180D02*
X253655303Y-87594180D01*
X253893399Y-87594180D01*
X254036256Y-87641800D01*
X254131494Y-87737038D01*
X254179113Y-87832276D01*
X254226732Y-88022752D01*
X254226732Y-88165609D01*
X254179113Y-88356085D01*
X254131494Y-88451323D01*
X254036256Y-88546561D01*
X253893399Y-88594180D01*
X253655303Y-88594180D01*
X254798160Y-88022752D02*
X254702922Y-87975133D01*
X254655303Y-87927514D01*
X254607684Y-87832276D01*
X254607684Y-87784657D01*
X254655303Y-87689419D01*
X254702922Y-87641800D01*
X254798160Y-87594180D01*
X254988637Y-87594180D01*
X255083875Y-87641800D01*
X255131494Y-87689419D01*
X255179113Y-87784657D01*
X255179113Y-87832276D01*
X255131494Y-87927514D01*
X255083875Y-87975133D01*
X254988637Y-88022752D01*
X254798160Y-88022752D01*
X254702922Y-88070371D01*
X254655303Y-88117990D01*
X254607684Y-88213228D01*
X254607684Y-88403704D01*
X254655303Y-88498942D01*
X254702922Y-88546561D01*
X254798160Y-88594180D01*
X254988637Y-88594180D01*
X255083875Y-88546561D01*
X255131494Y-88498942D01*
X255179113Y-88403704D01*
X255179113Y-88213228D01*
X255131494Y-88117990D01*
X255083875Y-88070371D01*
X254988637Y-88022752D01*
X239291904Y-115717580D02*
X239291904Y-114717580D01*
X239530000Y-114717580D01*
X239672857Y-114765200D01*
X239768095Y-114860438D01*
X239815714Y-114955676D01*
X239863333Y-115146152D01*
X239863333Y-115289009D01*
X239815714Y-115479485D01*
X239768095Y-115574723D01*
X239672857Y-115669961D01*
X239530000Y-115717580D01*
X239291904Y-115717580D01*
X240720476Y-114717580D02*
X240530000Y-114717580D01*
X240434761Y-114765200D01*
X240387142Y-114812819D01*
X240291904Y-114955676D01*
X240244285Y-115146152D01*
X240244285Y-115527104D01*
X240291904Y-115622342D01*
X240339523Y-115669961D01*
X240434761Y-115717580D01*
X240625238Y-115717580D01*
X240720476Y-115669961D01*
X240768095Y-115622342D01*
X240815714Y-115527104D01*
X240815714Y-115289009D01*
X240768095Y-115193771D01*
X240720476Y-115146152D01*
X240625238Y-115098533D01*
X240434761Y-115098533D01*
X240339523Y-115146152D01*
X240291904Y-115193771D01*
X240244285Y-115289009D01*
X248286303Y-83403180D02*
X248286303Y-82403180D01*
X248524399Y-82403180D01*
X248667256Y-82450800D01*
X248762494Y-82546038D01*
X248810113Y-82641276D01*
X248857732Y-82831752D01*
X248857732Y-82974609D01*
X248810113Y-83165085D01*
X248762494Y-83260323D01*
X248667256Y-83355561D01*
X248524399Y-83403180D01*
X248286303Y-83403180D01*
X249333922Y-83403180D02*
X249524399Y-83403180D01*
X249619637Y-83355561D01*
X249667256Y-83307942D01*
X249762494Y-83165085D01*
X249810113Y-82974609D01*
X249810113Y-82593657D01*
X249762494Y-82498419D01*
X249714875Y-82450800D01*
X249619637Y-82403180D01*
X249429160Y-82403180D01*
X249333922Y-82450800D01*
X249286303Y-82498419D01*
X249238684Y-82593657D01*
X249238684Y-82831752D01*
X249286303Y-82926990D01*
X249333922Y-82974609D01*
X249429160Y-83022228D01*
X249619637Y-83022228D01*
X249714875Y-82974609D01*
X249762494Y-82926990D01*
X249810113Y-82831752D01*
X239291904Y-117546380D02*
X239291904Y-116546380D01*
X239530000Y-116546380D01*
X239672857Y-116594000D01*
X239768095Y-116689238D01*
X239815714Y-116784476D01*
X239863333Y-116974952D01*
X239863333Y-117117809D01*
X239815714Y-117308285D01*
X239768095Y-117403523D01*
X239672857Y-117498761D01*
X239530000Y-117546380D01*
X239291904Y-117546380D01*
X240768095Y-116546380D02*
X240291904Y-116546380D01*
X240244285Y-117022571D01*
X240291904Y-116974952D01*
X240387142Y-116927333D01*
X240625238Y-116927333D01*
X240720476Y-116974952D01*
X240768095Y-117022571D01*
X240815714Y-117117809D01*
X240815714Y-117355904D01*
X240768095Y-117451142D01*
X240720476Y-117498761D01*
X240625238Y-117546380D01*
X240387142Y-117546380D01*
X240291904Y-117498761D01*
X240244285Y-117451142D01*
X254899418Y-83495238D02*
X254851799Y-83590476D01*
X254756560Y-83685714D01*
X254613703Y-83828571D01*
X254566084Y-83923809D01*
X254566084Y-84019047D01*
X254804179Y-83971428D02*
X254756560Y-84066666D01*
X254661322Y-84161904D01*
X254470846Y-84209523D01*
X254137513Y-84209523D01*
X253947037Y-84161904D01*
X253851799Y-84066666D01*
X253804179Y-83971428D01*
X253804179Y-83780952D01*
X253851799Y-83685714D01*
X253947037Y-83590476D01*
X254137513Y-83542857D01*
X254470846Y-83542857D01*
X254661322Y-83590476D01*
X254756560Y-83685714D01*
X254804179Y-83780952D01*
X254804179Y-83971428D01*
X254137513Y-82685714D02*
X254804179Y-82685714D01*
X253756560Y-82923809D02*
X254470846Y-83161904D01*
X254470846Y-82542857D01*
X239291904Y-119425980D02*
X239291904Y-118425980D01*
X239530000Y-118425980D01*
X239672857Y-118473600D01*
X239768095Y-118568838D01*
X239815714Y-118664076D01*
X239863333Y-118854552D01*
X239863333Y-118997409D01*
X239815714Y-119187885D01*
X239768095Y-119283123D01*
X239672857Y-119378361D01*
X239530000Y-119425980D01*
X239291904Y-119425980D01*
X240196666Y-118425980D02*
X240863333Y-118425980D01*
X240434761Y-119425980D01*
X213645533Y-110430380D02*
X213312200Y-109954190D01*
X213074104Y-110430380D02*
X213074104Y-109430380D01*
X213455057Y-109430380D01*
X213550295Y-109478000D01*
X213597914Y-109525619D01*
X213645533Y-109620857D01*
X213645533Y-109763714D01*
X213597914Y-109858952D01*
X213550295Y-109906571D01*
X213455057Y-109954190D01*
X213074104Y-109954190D01*
X214502676Y-109763714D02*
X214502676Y-110430380D01*
X214264580Y-109382761D02*
X214026485Y-110097047D01*
X214645533Y-110097047D01*
X214844933Y-122455780D02*
X214511600Y-121979590D01*
X214273504Y-122455780D02*
X214273504Y-121455780D01*
X214654457Y-121455780D01*
X214749695Y-121503400D01*
X214797314Y-121551019D01*
X214844933Y-121646257D01*
X214844933Y-121789114D01*
X214797314Y-121884352D01*
X214749695Y-121931971D01*
X214654457Y-121979590D01*
X214273504Y-121979590D01*
X215178266Y-121455780D02*
X215797314Y-121455780D01*
X215463980Y-121836733D01*
X215606838Y-121836733D01*
X215702076Y-121884352D01*
X215749695Y-121931971D01*
X215797314Y-122027209D01*
X215797314Y-122265304D01*
X215749695Y-122360542D01*
X215702076Y-122408161D01*
X215606838Y-122455780D01*
X215321123Y-122455780D01*
X215225885Y-122408161D01*
X215178266Y-122360542D01*
X214819533Y-120906380D02*
X214486200Y-120430190D01*
X214248104Y-120906380D02*
X214248104Y-119906380D01*
X214629057Y-119906380D01*
X214724295Y-119954000D01*
X214771914Y-120001619D01*
X214819533Y-120096857D01*
X214819533Y-120239714D01*
X214771914Y-120334952D01*
X214724295Y-120382571D01*
X214629057Y-120430190D01*
X214248104Y-120430190D01*
X215200485Y-120001619D02*
X215248104Y-119954000D01*
X215343342Y-119906380D01*
X215581438Y-119906380D01*
X215676676Y-119954000D01*
X215724295Y-120001619D01*
X215771914Y-120096857D01*
X215771914Y-120192095D01*
X215724295Y-120334952D01*
X215152866Y-120906380D01*
X215771914Y-120906380D01*
X211119980Y-114009466D02*
X210643790Y-114342800D01*
X211119980Y-114580895D02*
X210119980Y-114580895D01*
X210119980Y-114199942D01*
X210167600Y-114104704D01*
X210215219Y-114057085D01*
X210310457Y-114009466D01*
X210453314Y-114009466D01*
X210548552Y-114057085D01*
X210596171Y-114104704D01*
X210643790Y-114199942D01*
X210643790Y-114580895D01*
X210119980Y-113152323D02*
X210119980Y-113342800D01*
X210167600Y-113438038D01*
X210215219Y-113485657D01*
X210358076Y-113580895D01*
X210548552Y-113628514D01*
X210929504Y-113628514D01*
X211024742Y-113580895D01*
X211072361Y-113533276D01*
X211119980Y-113438038D01*
X211119980Y-113247561D01*
X211072361Y-113152323D01*
X211024742Y-113104704D01*
X210929504Y-113057085D01*
X210691409Y-113057085D01*
X210596171Y-113104704D01*
X210548552Y-113152323D01*
X210500933Y-113247561D01*
X210500933Y-113438038D01*
X210548552Y-113533276D01*
X210596171Y-113580895D01*
X210691409Y-113628514D01*
X218982380Y-114229166D02*
X218506190Y-114562500D01*
X218982380Y-114800595D02*
X217982380Y-114800595D01*
X217982380Y-114419642D01*
X218030000Y-114324404D01*
X218077619Y-114276785D01*
X218172857Y-114229166D01*
X218315714Y-114229166D01*
X218410952Y-114276785D01*
X218458571Y-114324404D01*
X218506190Y-114419642D01*
X218506190Y-114800595D01*
X218982380Y-113276785D02*
X218982380Y-113848214D01*
X218982380Y-113562500D02*
X217982380Y-113562500D01*
X218125238Y-113657738D01*
X218220476Y-113752976D01*
X218268095Y-113848214D01*
X254236142Y-97859142D02*
X254188523Y-97906761D01*
X254045666Y-97954380D01*
X253950428Y-97954380D01*
X253807571Y-97906761D01*
X253712333Y-97811523D01*
X253664714Y-97716285D01*
X253617095Y-97525809D01*
X253617095Y-97382952D01*
X253664714Y-97192476D01*
X253712333Y-97097238D01*
X253807571Y-97002000D01*
X253950428Y-96954380D01*
X254045666Y-96954380D01*
X254188523Y-97002000D01*
X254236142Y-97049619D01*
X255188523Y-97954380D02*
X254617095Y-97954380D01*
X254902809Y-97954380D02*
X254902809Y-96954380D01*
X254807571Y-97097238D01*
X254712333Y-97192476D01*
X254617095Y-97240095D01*
X255569476Y-97049619D02*
X255617095Y-97002000D01*
X255712333Y-96954380D01*
X255950428Y-96954380D01*
X256045666Y-97002000D01*
X256093285Y-97049619D01*
X256140904Y-97144857D01*
X256140904Y-97240095D01*
X256093285Y-97382952D01*
X255521857Y-97954380D01*
X256140904Y-97954380D01*
X263627780Y-101569133D02*
X264342066Y-101569133D01*
X264484923Y-101616752D01*
X264580161Y-101711990D01*
X264627780Y-101854847D01*
X264627780Y-101950085D01*
X263627780Y-100616752D02*
X263627780Y-101092942D01*
X264103971Y-101140561D01*
X264056352Y-101092942D01*
X264008733Y-100997704D01*
X264008733Y-100759609D01*
X264056352Y-100664371D01*
X264103971Y-100616752D01*
X264199209Y-100569133D01*
X264437304Y-100569133D01*
X264532542Y-100616752D01*
X264580161Y-100664371D01*
X264627780Y-100759609D01*
X264627780Y-100997704D01*
X264580161Y-101092942D01*
X264532542Y-101140561D01*
X216312761Y-112206019D02*
X216217523Y-112158400D01*
X216122285Y-112063161D01*
X215979428Y-111920304D01*
X215884190Y-111872685D01*
X215788952Y-111872685D01*
X215836571Y-112110780D02*
X215741333Y-112063161D01*
X215646095Y-111967923D01*
X215598476Y-111777447D01*
X215598476Y-111444114D01*
X215646095Y-111253638D01*
X215741333Y-111158400D01*
X215836571Y-111110780D01*
X216027047Y-111110780D01*
X216122285Y-111158400D01*
X216217523Y-111253638D01*
X216265142Y-111444114D01*
X216265142Y-111777447D01*
X216217523Y-111967923D01*
X216122285Y-112063161D01*
X216027047Y-112110780D01*
X215836571Y-112110780D01*
X217217523Y-112110780D02*
X216646095Y-112110780D01*
X216931809Y-112110780D02*
X216931809Y-111110780D01*
X216836571Y-111253638D01*
X216741333Y-111348876D01*
X216646095Y-111396495D01*
X215245833Y-118297380D02*
X214912500Y-117821190D01*
X214674404Y-118297380D02*
X214674404Y-117297380D01*
X215055357Y-117297380D01*
X215150595Y-117345000D01*
X215198214Y-117392619D01*
X215245833Y-117487857D01*
X215245833Y-117630714D01*
X215198214Y-117725952D01*
X215150595Y-117773571D01*
X215055357Y-117821190D01*
X214674404Y-117821190D01*
X216150595Y-117297380D02*
X215674404Y-117297380D01*
X215626785Y-117773571D01*
X215674404Y-117725952D01*
X215769642Y-117678333D01*
X216007738Y-117678333D01*
X216102976Y-117725952D01*
X216150595Y-117773571D01*
X216198214Y-117868809D01*
X216198214Y-118106904D01*
X216150595Y-118202142D01*
X216102976Y-118249761D01*
X216007738Y-118297380D01*
X215769642Y-118297380D01*
X215674404Y-118249761D01*
X215626785Y-118202142D01*
X242012742Y-122137466D02*
X242060361Y-122185085D01*
X242107980Y-122327942D01*
X242107980Y-122423180D01*
X242060361Y-122566038D01*
X241965123Y-122661276D01*
X241869885Y-122708895D01*
X241679409Y-122756514D01*
X241536552Y-122756514D01*
X241346076Y-122708895D01*
X241250838Y-122661276D01*
X241155600Y-122566038D01*
X241107980Y-122423180D01*
X241107980Y-122327942D01*
X241155600Y-122185085D01*
X241203219Y-122137466D01*
X241203219Y-121756514D02*
X241155600Y-121708895D01*
X241107980Y-121613657D01*
X241107980Y-121375561D01*
X241155600Y-121280323D01*
X241203219Y-121232704D01*
X241298457Y-121185085D01*
X241393695Y-121185085D01*
X241536552Y-121232704D01*
X242107980Y-121804133D01*
X242107980Y-121185085D01*
X203177142Y-127329166D02*
X203224761Y-127376785D01*
X203272380Y-127519642D01*
X203272380Y-127614880D01*
X203224761Y-127757738D01*
X203129523Y-127852976D01*
X203034285Y-127900595D01*
X202843809Y-127948214D01*
X202700952Y-127948214D01*
X202510476Y-127900595D01*
X202415238Y-127852976D01*
X202320000Y-127757738D01*
X202272380Y-127614880D01*
X202272380Y-127519642D01*
X202320000Y-127376785D01*
X202367619Y-127329166D01*
X202272380Y-126995833D02*
X202272380Y-126376785D01*
X202653333Y-126710119D01*
X202653333Y-126567261D01*
X202700952Y-126472023D01*
X202748571Y-126424404D01*
X202843809Y-126376785D01*
X203081904Y-126376785D01*
X203177142Y-126424404D01*
X203224761Y-126472023D01*
X203272380Y-126567261D01*
X203272380Y-126852976D01*
X203224761Y-126948214D01*
X203177142Y-126995833D01*
X240117333Y-127865142D02*
X240069714Y-127912761D01*
X239926857Y-127960380D01*
X239831619Y-127960380D01*
X239688761Y-127912761D01*
X239593523Y-127817523D01*
X239545904Y-127722285D01*
X239498285Y-127531809D01*
X239498285Y-127388952D01*
X239545904Y-127198476D01*
X239593523Y-127103238D01*
X239688761Y-127008000D01*
X239831619Y-126960380D01*
X239926857Y-126960380D01*
X240069714Y-127008000D01*
X240117333Y-127055619D01*
X240974476Y-127293714D02*
X240974476Y-127960380D01*
X240736380Y-126912761D02*
X240498285Y-127627047D01*
X241117333Y-127627047D01*
X243739942Y-125591866D02*
X243787561Y-125639485D01*
X243835180Y-125782342D01*
X243835180Y-125877580D01*
X243787561Y-126020438D01*
X243692323Y-126115676D01*
X243597085Y-126163295D01*
X243406609Y-126210914D01*
X243263752Y-126210914D01*
X243073276Y-126163295D01*
X242978038Y-126115676D01*
X242882800Y-126020438D01*
X242835180Y-125877580D01*
X242835180Y-125782342D01*
X242882800Y-125639485D01*
X242930419Y-125591866D01*
X242835180Y-124687104D02*
X242835180Y-125163295D01*
X243311371Y-125210914D01*
X243263752Y-125163295D01*
X243216133Y-125068057D01*
X243216133Y-124829961D01*
X243263752Y-124734723D01*
X243311371Y-124687104D01*
X243406609Y-124639485D01*
X243644704Y-124639485D01*
X243739942Y-124687104D01*
X243787561Y-124734723D01*
X243835180Y-124829961D01*
X243835180Y-125068057D01*
X243787561Y-125163295D01*
X243739942Y-125210914D01*
X203502142Y-119979166D02*
X203549761Y-120026785D01*
X203597380Y-120169642D01*
X203597380Y-120264880D01*
X203549761Y-120407738D01*
X203454523Y-120502976D01*
X203359285Y-120550595D01*
X203168809Y-120598214D01*
X203025952Y-120598214D01*
X202835476Y-120550595D01*
X202740238Y-120502976D01*
X202645000Y-120407738D01*
X202597380Y-120264880D01*
X202597380Y-120169642D01*
X202645000Y-120026785D01*
X202692619Y-119979166D01*
X203597380Y-119026785D02*
X203597380Y-119598214D01*
X203597380Y-119312500D02*
X202597380Y-119312500D01*
X202740238Y-119407738D01*
X202835476Y-119502976D01*
X202883095Y-119598214D01*
X238579203Y-88568780D02*
X238579203Y-87568780D01*
X238817299Y-87568780D01*
X238960156Y-87616400D01*
X239055394Y-87711638D01*
X239103013Y-87806876D01*
X239150632Y-87997352D01*
X239150632Y-88140209D01*
X239103013Y-88330685D01*
X239055394Y-88425923D01*
X238960156Y-88521161D01*
X238817299Y-88568780D01*
X238579203Y-88568780D01*
X239483965Y-87568780D02*
X240103013Y-87568780D01*
X239769679Y-87949733D01*
X239912537Y-87949733D01*
X240007775Y-87997352D01*
X240055394Y-88044971D01*
X240103013Y-88140209D01*
X240103013Y-88378304D01*
X240055394Y-88473542D01*
X240007775Y-88521161D01*
X239912537Y-88568780D01*
X239626822Y-88568780D01*
X239531584Y-88521161D01*
X239483965Y-88473542D01*
X218184704Y-83352380D02*
X218184704Y-82352380D01*
X218422800Y-82352380D01*
X218565657Y-82400000D01*
X218660895Y-82495238D01*
X218708514Y-82590476D01*
X218756133Y-82780952D01*
X218756133Y-82923809D01*
X218708514Y-83114285D01*
X218660895Y-83209523D01*
X218565657Y-83304761D01*
X218422800Y-83352380D01*
X218184704Y-83352380D01*
X219137085Y-82447619D02*
X219184704Y-82400000D01*
X219279942Y-82352380D01*
X219518038Y-82352380D01*
X219613276Y-82400000D01*
X219660895Y-82447619D01*
X219708514Y-82542857D01*
X219708514Y-82638095D01*
X219660895Y-82780952D01*
X219089466Y-83352380D01*
X219708514Y-83352380D01*
X223211742Y-86660980D02*
X222878409Y-86184790D01*
X222640314Y-86660980D02*
X222640314Y-85660980D01*
X223021266Y-85660980D01*
X223116504Y-85708600D01*
X223164123Y-85756219D01*
X223211742Y-85851457D01*
X223211742Y-85994314D01*
X223164123Y-86089552D01*
X223116504Y-86137171D01*
X223021266Y-86184790D01*
X222640314Y-86184790D01*
X224164123Y-86660980D02*
X223592695Y-86660980D01*
X223878409Y-86660980D02*
X223878409Y-85660980D01*
X223783171Y-85803838D01*
X223687933Y-85899076D01*
X223592695Y-85946695D01*
X224545076Y-85756219D02*
X224592695Y-85708600D01*
X224687933Y-85660980D01*
X224926028Y-85660980D01*
X225021266Y-85708600D01*
X225068885Y-85756219D01*
X225116504Y-85851457D01*
X225116504Y-85946695D01*
X225068885Y-86089552D01*
X224497457Y-86660980D01*
X225116504Y-86660980D01*
X239899418Y-83495238D02*
X239851799Y-83590476D01*
X239756560Y-83685714D01*
X239613703Y-83828571D01*
X239566084Y-83923809D01*
X239566084Y-84019047D01*
X239804179Y-83971428D02*
X239756560Y-84066666D01*
X239661322Y-84161904D01*
X239470846Y-84209523D01*
X239137513Y-84209523D01*
X238947037Y-84161904D01*
X238851799Y-84066666D01*
X238804179Y-83971428D01*
X238804179Y-83780952D01*
X238851799Y-83685714D01*
X238947037Y-83590476D01*
X239137513Y-83542857D01*
X239470846Y-83542857D01*
X239661322Y-83590476D01*
X239756560Y-83685714D01*
X239804179Y-83780952D01*
X239804179Y-83971428D01*
X238804179Y-83209523D02*
X238804179Y-82590476D01*
X239185132Y-82923809D01*
X239185132Y-82780952D01*
X239232751Y-82685714D01*
X239280370Y-82638095D01*
X239375608Y-82590476D01*
X239613703Y-82590476D01*
X239708941Y-82638095D01*
X239756560Y-82685714D01*
X239804179Y-82780952D01*
X239804179Y-83066666D01*
X239756560Y-83161904D01*
X239708941Y-83209523D01*
X224899419Y-83495238D02*
X224851800Y-83590476D01*
X224756561Y-83685714D01*
X224613704Y-83828571D01*
X224566085Y-83923809D01*
X224566085Y-84019047D01*
X224804180Y-83971428D02*
X224756561Y-84066666D01*
X224661323Y-84161904D01*
X224470847Y-84209523D01*
X224137514Y-84209523D01*
X223947038Y-84161904D01*
X223851800Y-84066666D01*
X223804180Y-83971428D01*
X223804180Y-83780952D01*
X223851800Y-83685714D01*
X223947038Y-83590476D01*
X224137514Y-83542857D01*
X224470847Y-83542857D01*
X224661323Y-83590476D01*
X224756561Y-83685714D01*
X224804180Y-83780952D01*
X224804180Y-83971428D01*
X223899419Y-83161904D02*
X223851800Y-83114285D01*
X223804180Y-83019047D01*
X223804180Y-82780952D01*
X223851800Y-82685714D01*
X223899419Y-82638095D01*
X223994657Y-82590476D01*
X224089895Y-82590476D01*
X224232752Y-82638095D01*
X224804180Y-83209523D01*
X224804180Y-82590476D01*
X233184703Y-83403180D02*
X233184703Y-82403180D01*
X233422799Y-82403180D01*
X233565656Y-82450800D01*
X233660894Y-82546038D01*
X233708513Y-82641276D01*
X233756132Y-82831752D01*
X233756132Y-82974609D01*
X233708513Y-83165085D01*
X233660894Y-83260323D01*
X233565656Y-83355561D01*
X233422799Y-83403180D01*
X233184703Y-83403180D01*
X234613275Y-82736514D02*
X234613275Y-83403180D01*
X234375179Y-82355561D02*
X234137084Y-83069847D01*
X234756132Y-83069847D01*
X223553704Y-88619580D02*
X223553704Y-87619580D01*
X223791800Y-87619580D01*
X223934657Y-87667200D01*
X224029895Y-87762438D01*
X224077514Y-87857676D01*
X224125133Y-88048152D01*
X224125133Y-88191009D01*
X224077514Y-88381485D01*
X224029895Y-88476723D01*
X223934657Y-88571961D01*
X223791800Y-88619580D01*
X223553704Y-88619580D01*
X225077514Y-88619580D02*
X224506085Y-88619580D01*
X224791800Y-88619580D02*
X224791800Y-87619580D01*
X224696561Y-87762438D01*
X224601323Y-87857676D01*
X224506085Y-87905295D01*
X251283380Y-102327904D02*
X252092904Y-102327904D01*
X252188142Y-102280285D01*
X252235761Y-102232666D01*
X252283380Y-102137428D01*
X252283380Y-101946952D01*
X252235761Y-101851714D01*
X252188142Y-101804095D01*
X252092904Y-101756476D01*
X251283380Y-101756476D01*
X251283380Y-101375523D02*
X251283380Y-100756476D01*
X251664333Y-101089809D01*
X251664333Y-100946952D01*
X251711952Y-100851714D01*
X251759571Y-100804095D01*
X251854809Y-100756476D01*
X252092904Y-100756476D01*
X252188142Y-100804095D01*
X252235761Y-100851714D01*
X252283380Y-100946952D01*
X252283380Y-101232666D01*
X252235761Y-101327904D01*
X252188142Y-101375523D01*
X251051133Y-127984742D02*
X251003514Y-128032361D01*
X250860657Y-128079980D01*
X250765419Y-128079980D01*
X250622561Y-128032361D01*
X250527323Y-127937123D01*
X250479704Y-127841885D01*
X250432085Y-127651409D01*
X250432085Y-127508552D01*
X250479704Y-127318076D01*
X250527323Y-127222838D01*
X250622561Y-127127600D01*
X250765419Y-127079980D01*
X250860657Y-127079980D01*
X251003514Y-127127600D01*
X251051133Y-127175219D01*
X251908276Y-127079980D02*
X251717800Y-127079980D01*
X251622561Y-127127600D01*
X251574942Y-127175219D01*
X251479704Y-127318076D01*
X251432085Y-127508552D01*
X251432085Y-127889504D01*
X251479704Y-127984742D01*
X251527323Y-128032361D01*
X251622561Y-128079980D01*
X251813038Y-128079980D01*
X251908276Y-128032361D01*
X251955895Y-127984742D01*
X252003514Y-127889504D01*
X252003514Y-127651409D01*
X251955895Y-127556171D01*
X251908276Y-127508552D01*
X251813038Y-127460933D01*
X251622561Y-127460933D01*
X251527323Y-127508552D01*
X251479704Y-127556171D01*
X251432085Y-127651409D01*
X221595800Y-62142380D02*
X221262466Y-61666190D01*
X221024371Y-62142380D02*
X221024371Y-61142380D01*
X221405323Y-61142380D01*
X221500561Y-61190000D01*
X221548180Y-61237619D01*
X221595800Y-61332857D01*
X221595800Y-61475714D01*
X221548180Y-61570952D01*
X221500561Y-61618571D01*
X221405323Y-61666190D01*
X221024371Y-61666190D01*
X222500561Y-62142380D02*
X222024371Y-62142380D01*
X222024371Y-61142380D01*
X222786276Y-61856666D02*
X223262466Y-61856666D01*
X222691038Y-62142380D02*
X223024371Y-61142380D01*
X223357704Y-62142380D01*
X224214847Y-62142380D02*
X223643419Y-62142380D01*
X223929133Y-62142380D02*
X223929133Y-61142380D01*
X223833895Y-61285238D01*
X223738657Y-61380476D01*
X223643419Y-61428095D01*
X218551800Y-52763712D02*
X218551800Y-53001808D01*
X218313704Y-52906570D02*
X218551800Y-53001808D01*
X218789895Y-52906570D01*
X218408942Y-53192284D02*
X218551800Y-53001808D01*
X218694657Y-53192284D01*
X218551800Y-52763712D02*
X218551800Y-53001808D01*
X218313704Y-52906570D02*
X218551800Y-53001808D01*
X218789895Y-52906570D01*
X218408942Y-53192284D02*
X218551800Y-53001808D01*
X218694657Y-53192284D01*
X192143142Y-121057942D02*
X192095523Y-121105561D01*
X191952666Y-121153180D01*
X191857428Y-121153180D01*
X191714571Y-121105561D01*
X191619333Y-121010323D01*
X191571714Y-120915085D01*
X191524095Y-120724609D01*
X191524095Y-120581752D01*
X191571714Y-120391276D01*
X191619333Y-120296038D01*
X191714571Y-120200800D01*
X191857428Y-120153180D01*
X191952666Y-120153180D01*
X192095523Y-120200800D01*
X192143142Y-120248419D01*
X193095523Y-121153180D02*
X192524095Y-121153180D01*
X192809809Y-121153180D02*
X192809809Y-120153180D01*
X192714571Y-120296038D01*
X192619333Y-120391276D01*
X192524095Y-120438895D01*
X194047904Y-121153180D02*
X193476476Y-121153180D01*
X193762190Y-121153180D02*
X193762190Y-120153180D01*
X193666952Y-120296038D01*
X193571714Y-120391276D01*
X193476476Y-120438895D01*
X234384133Y-102384342D02*
X234336514Y-102431961D01*
X234193657Y-102479580D01*
X234098419Y-102479580D01*
X233955561Y-102431961D01*
X233860323Y-102336723D01*
X233812704Y-102241485D01*
X233765085Y-102051009D01*
X233765085Y-101908152D01*
X233812704Y-101717676D01*
X233860323Y-101622438D01*
X233955561Y-101527200D01*
X234098419Y-101479580D01*
X234193657Y-101479580D01*
X234336514Y-101527200D01*
X234384133Y-101574819D01*
X234860323Y-102479580D02*
X235050800Y-102479580D01*
X235146038Y-102431961D01*
X235193657Y-102384342D01*
X235288895Y-102241485D01*
X235336514Y-102051009D01*
X235336514Y-101670057D01*
X235288895Y-101574819D01*
X235241276Y-101527200D01*
X235146038Y-101479580D01*
X234955561Y-101479580D01*
X234860323Y-101527200D01*
X234812704Y-101574819D01*
X234765085Y-101670057D01*
X234765085Y-101908152D01*
X234812704Y-102003390D01*
X234860323Y-102051009D01*
X234955561Y-102098628D01*
X235146038Y-102098628D01*
X235241276Y-102051009D01*
X235288895Y-102003390D01*
X235336514Y-101908152D01*
X233458742Y-93440766D02*
X233506361Y-93488385D01*
X233553980Y-93631242D01*
X233553980Y-93726480D01*
X233506361Y-93869338D01*
X233411123Y-93964576D01*
X233315885Y-94012195D01*
X233125409Y-94059814D01*
X232982552Y-94059814D01*
X232792076Y-94012195D01*
X232696838Y-93964576D01*
X232601600Y-93869338D01*
X232553980Y-93726480D01*
X232553980Y-93631242D01*
X232601600Y-93488385D01*
X232649219Y-93440766D01*
X232553980Y-93107433D02*
X232553980Y-92440766D01*
X233553980Y-92869338D01*
X238186241Y-86660980D02*
X237852908Y-86184790D01*
X237614813Y-86660980D02*
X237614813Y-85660980D01*
X237995765Y-85660980D01*
X238091003Y-85708600D01*
X238138622Y-85756219D01*
X238186241Y-85851457D01*
X238186241Y-85994314D01*
X238138622Y-86089552D01*
X238091003Y-86137171D01*
X237995765Y-86184790D01*
X237614813Y-86184790D01*
X239138622Y-86660980D02*
X238567194Y-86660980D01*
X238852908Y-86660980D02*
X238852908Y-85660980D01*
X238757670Y-85803838D01*
X238662432Y-85899076D01*
X238567194Y-85946695D01*
X239471956Y-85660980D02*
X240091003Y-85660980D01*
X239757670Y-86041933D01*
X239900527Y-86041933D01*
X239995765Y-86089552D01*
X240043384Y-86137171D01*
X240091003Y-86232409D01*
X240091003Y-86470504D01*
X240043384Y-86565742D01*
X239995765Y-86613361D01*
X239900527Y-86660980D01*
X239614813Y-86660980D01*
X239519575Y-86613361D01*
X239471956Y-86565742D01*
X236621199Y-62142380D02*
X236287865Y-61666190D01*
X236049770Y-62142380D02*
X236049770Y-61142380D01*
X236430722Y-61142380D01*
X236525960Y-61190000D01*
X236573579Y-61237619D01*
X236621199Y-61332857D01*
X236621199Y-61475714D01*
X236573579Y-61570952D01*
X236525960Y-61618571D01*
X236430722Y-61666190D01*
X236049770Y-61666190D01*
X237525960Y-62142380D02*
X237049770Y-62142380D01*
X237049770Y-61142380D01*
X237811675Y-61856666D02*
X238287865Y-61856666D01*
X237716437Y-62142380D02*
X238049770Y-61142380D01*
X238383103Y-62142380D01*
X238668818Y-61237619D02*
X238716437Y-61190000D01*
X238811675Y-61142380D01*
X239049770Y-61142380D01*
X239145008Y-61190000D01*
X239192627Y-61237619D01*
X239240246Y-61332857D01*
X239240246Y-61428095D01*
X239192627Y-61570952D01*
X238621199Y-62142380D01*
X239240246Y-62142380D01*
X233551799Y-52763712D02*
X233551799Y-53001808D01*
X233313703Y-52906570D02*
X233551799Y-53001808D01*
X233789894Y-52906570D01*
X233408941Y-53192284D02*
X233551799Y-53001808D01*
X233694656Y-53192284D01*
X233551799Y-52763712D02*
X233551799Y-53001808D01*
X233313703Y-52906570D02*
X233551799Y-53001808D01*
X233789894Y-52906570D01*
X233408941Y-53192284D02*
X233551799Y-53001808D01*
X233694656Y-53192284D01*
X199458342Y-120905542D02*
X199410723Y-120953161D01*
X199267866Y-121000780D01*
X199172628Y-121000780D01*
X199029771Y-120953161D01*
X198934533Y-120857923D01*
X198886914Y-120762685D01*
X198839295Y-120572209D01*
X198839295Y-120429352D01*
X198886914Y-120238876D01*
X198934533Y-120143638D01*
X199029771Y-120048400D01*
X199172628Y-120000780D01*
X199267866Y-120000780D01*
X199410723Y-120048400D01*
X199458342Y-120096019D01*
X200410723Y-121000780D02*
X199839295Y-121000780D01*
X200125009Y-121000780D02*
X200125009Y-120000780D01*
X200029771Y-120143638D01*
X199934533Y-120238876D01*
X199839295Y-120286495D01*
X200744057Y-120000780D02*
X201363104Y-120000780D01*
X201029771Y-120381733D01*
X201172628Y-120381733D01*
X201267866Y-120429352D01*
X201315485Y-120476971D01*
X201363104Y-120572209D01*
X201363104Y-120810304D01*
X201315485Y-120905542D01*
X201267866Y-120953161D01*
X201172628Y-121000780D01*
X200886914Y-121000780D01*
X200791676Y-120953161D01*
X200744057Y-120905542D01*
X235507942Y-93313066D02*
X235555561Y-93360685D01*
X235603180Y-93503542D01*
X235603180Y-93598780D01*
X235555561Y-93741638D01*
X235460323Y-93836876D01*
X235365085Y-93884495D01*
X235174609Y-93932114D01*
X235031752Y-93932114D01*
X234841276Y-93884495D01*
X234746038Y-93836876D01*
X234650800Y-93741638D01*
X234603180Y-93598780D01*
X234603180Y-93503542D01*
X234650800Y-93360685D01*
X234698419Y-93313066D01*
X235031752Y-92741638D02*
X234984133Y-92836876D01*
X234936514Y-92884495D01*
X234841276Y-92932114D01*
X234793657Y-92932114D01*
X234698419Y-92884495D01*
X234650800Y-92836876D01*
X234603180Y-92741638D01*
X234603180Y-92551161D01*
X234650800Y-92455923D01*
X234698419Y-92408304D01*
X234793657Y-92360685D01*
X234841276Y-92360685D01*
X234936514Y-92408304D01*
X234984133Y-92455923D01*
X235031752Y-92551161D01*
X235031752Y-92741638D01*
X235079371Y-92836876D01*
X235126990Y-92884495D01*
X235222228Y-92932114D01*
X235412704Y-92932114D01*
X235507942Y-92884495D01*
X235555561Y-92836876D01*
X235603180Y-92741638D01*
X235603180Y-92551161D01*
X235555561Y-92455923D01*
X235507942Y-92408304D01*
X235412704Y-92360685D01*
X235222228Y-92360685D01*
X235126990Y-92408304D01*
X235079371Y-92455923D01*
X235031752Y-92551161D01*
X212721866Y-55637180D02*
X212721866Y-56351466D01*
X212674247Y-56494323D01*
X212579009Y-56589561D01*
X212436152Y-56637180D01*
X212340914Y-56637180D01*
X213626628Y-55637180D02*
X213436152Y-55637180D01*
X213340914Y-55684800D01*
X213293295Y-55732419D01*
X213198057Y-55875276D01*
X213150438Y-56065752D01*
X213150438Y-56446704D01*
X213198057Y-56541942D01*
X213245676Y-56589561D01*
X213340914Y-56637180D01*
X213531390Y-56637180D01*
X213626628Y-56589561D01*
X213674247Y-56541942D01*
X213721866Y-56446704D01*
X213721866Y-56208609D01*
X213674247Y-56113371D01*
X213626628Y-56065752D01*
X213531390Y-56018133D01*
X213340914Y-56018133D01*
X213245676Y-56065752D01*
X213198057Y-56113371D01*
X213150438Y-56208609D01*
X242827276Y-55637180D02*
X242827276Y-56351466D01*
X242779657Y-56494323D01*
X242684419Y-56589561D01*
X242541561Y-56637180D01*
X242446323Y-56637180D01*
X243827276Y-56637180D02*
X243255847Y-56637180D01*
X243541561Y-56637180D02*
X243541561Y-55637180D01*
X243446323Y-55780038D01*
X243351085Y-55875276D01*
X243255847Y-55922895D01*
X244779657Y-56637180D02*
X244208228Y-56637180D01*
X244493942Y-56637180D02*
X244493942Y-55637180D01*
X244398704Y-55780038D01*
X244303466Y-55875276D01*
X244208228Y-55922895D01*
X227809466Y-55586380D02*
X227809466Y-56300666D01*
X227761847Y-56443523D01*
X227666609Y-56538761D01*
X227523752Y-56586380D01*
X227428514Y-56586380D01*
X228190419Y-55586380D02*
X228857085Y-55586380D01*
X228428514Y-56586380D01*
X194296666Y-47732380D02*
X194296666Y-48446666D01*
X194249047Y-48589523D01*
X194153809Y-48684761D01*
X194010952Y-48732380D01*
X193915714Y-48732380D01*
X194725238Y-47827619D02*
X194772857Y-47780000D01*
X194868095Y-47732380D01*
X195106190Y-47732380D01*
X195201428Y-47780000D01*
X195249047Y-47827619D01*
X195296666Y-47922857D01*
X195296666Y-48018095D01*
X195249047Y-48160952D01*
X194677619Y-48732380D01*
X195296666Y-48732380D01*
X180116171Y-79124133D02*
X180116171Y-79457466D01*
X180639980Y-79457466D02*
X179639980Y-79457466D01*
X179639980Y-78981276D01*
X180639980Y-78076514D02*
X180639980Y-78647942D01*
X180639980Y-78362228D02*
X179639980Y-78362228D01*
X179782838Y-78457466D01*
X179878076Y-78552704D01*
X179925695Y-78647942D01*
M02*
